<?xml version="1.0" standalone="no"?>
 <!DOCTYPE svg PUBLIC "-//W3C//DTD SVG 1.1//EN" 
 "http://www.w3.org/Graphics/SVG/1.1/DTD/svg11.dtd"> 
<svg xmlns="http://www.w3.org/2000/svg" version="1.1" 
    width="29.7002cm" height="21.0007cm" viewBox="0 0 116930 82680 ">
<title>SVG Picture created as v2-B_Fab.svg date 2020/05/09 15:22:18 </title>
  <desc>Picture generated by PCBNEW </desc>
<g style="fill:#000000; fill-opacity:1;stroke:#000000; stroke-opacity:1;
stroke-linecap:round; stroke-linejoin:round; "
 transform="translate(0 0) scale(1 1)">
</g>
<g style="fill:#000000; fill-opacity:0.0; 
stroke:#000000; stroke-width:-0.000393701; stroke-opacity:1; 
stroke-linecap:round; stroke-linejoin:round;">
</g>
<g style="fill:#000000; fill-opacity:0.0; 
stroke:#000000; stroke-width:39.3701; stroke-opacity:1; 
stroke-linecap:round; stroke-linejoin:round;">
</g>
<g style="fill:#000000; fill-opacity:0.0; 
stroke:#000000; stroke-width:59.0551; stroke-opacity:1; 
stroke-linecap:round; stroke-linejoin:round;">
<rect x="69685.9" y="65357.2" width="42519.7" height="12598.4" rx="0" />
</g>
<g style="fill:#000000; fill-opacity:0.0; 
stroke:#000000; stroke-width:39.3701; stroke-opacity:1; 
stroke-linecap:round; stroke-linejoin:round;">
</g>
<g style="fill:#000000; fill-opacity:0.0; 
stroke:#000000; stroke-width:59.0551; stroke-opacity:1; 
stroke-linecap:round; stroke-linejoin:round;">
<rect x="3937.01" y="3937.01" width="109056" height="74806" rx="0" />
</g>
<g style="fill:#000000; fill-opacity:0.0; 
stroke:#000000; stroke-width:39.3701; stroke-opacity:1; 
stroke-linecap:round; stroke-linejoin:round;">
</g>
<g style="fill:#000000; fill-opacity:0.0; 
stroke:#000000; stroke-width:59.0551; stroke-opacity:1; 
stroke-linecap:round; stroke-linejoin:round;">
<rect x="4724.41" y="4724.41" width="107481" height="73231.2" rx="0" />
</g>
<g style="fill:#000000; fill-opacity:0.0; 
stroke:#000000; stroke-width:39.3701; stroke-opacity:1; 
stroke-linecap:round; stroke-linejoin:round;">
</g>
<g style="fill:#000000; fill-opacity:0.0; 
stroke:#000000; stroke-width:59.0551; stroke-opacity:1; 
stroke-linecap:round; stroke-linejoin:round;">
<path d="M23622 4724
L23622 3937
" />
</g>
<g style="fill:#000000; fill-opacity:0.0; 
stroke:#000000; stroke-width:39.3701; stroke-opacity:1; 
stroke-linecap:round; stroke-linejoin:round;">
</g>
<g style="fill:#000000; fill-opacity:0.0; 
stroke:#000000; stroke-width:59.0551; stroke-opacity:1; 
stroke-linecap:round; stroke-linejoin:round;">
<path d="M43307 4724
L43307 3937
" />
</g>
<g style="fill:#000000; fill-opacity:0.0; 
stroke:#000000; stroke-width:39.3701; stroke-opacity:1; 
stroke-linecap:round; stroke-linejoin:round;">
</g>
<g style="fill:#000000; fill-opacity:0.0; 
stroke:#000000; stroke-width:59.0551; stroke-opacity:1; 
stroke-linecap:round; stroke-linejoin:round;">
<path d="M62992 4724
L62992 3937
" />
</g>
<g style="fill:#000000; fill-opacity:0.0; 
stroke:#000000; stroke-width:39.3701; stroke-opacity:1; 
stroke-linecap:round; stroke-linejoin:round;">
</g>
<g style="fill:#000000; fill-opacity:0.0; 
stroke:#000000; stroke-width:59.0551; stroke-opacity:1; 
stroke-linecap:round; stroke-linejoin:round;">
<path d="M82677 4724
L82677 3937
" />
</g>
<g style="fill:#000000; fill-opacity:0.0; 
stroke:#000000; stroke-width:39.3701; stroke-opacity:1; 
stroke-linecap:round; stroke-linejoin:round;">
</g>
<g style="fill:#000000; fill-opacity:0.0; 
stroke:#000000; stroke-width:59.0551; stroke-opacity:1; 
stroke-linecap:round; stroke-linejoin:round;">
<path d="M102362 4724
L102362 3937
" />
</g>
<g style="fill:#000000; fill-opacity:0.0; 
stroke:#000000; stroke-width:39.3701; stroke-opacity:1; 
stroke-linecap:round; stroke-linejoin:round;">
</g>
<g style="fill:#000000; fill-opacity:0.0; 
stroke:#000000; stroke-width:59.0551; stroke-opacity:1; 
stroke-linecap:round; stroke-linejoin:round;">
<text x="13779.5" y="4586.61"
textLength="546.494" font-size="682.415" lengthAdjust="spacingAndGlyphs"
text-anchor="start" opacity="0">1</text>
<path d="M14199 4562
L13906 4562
" />
<path d="M14052 4562
L14052 4050
L14004 4123
L13955 4172
L13906 4196
" />
</g>
<g style="fill:#000000; fill-opacity:0.0; 
stroke:#000000; stroke-width:39.3701; stroke-opacity:1; 
stroke-linecap:round; stroke-linejoin:round;">
</g>
<g style="fill:#000000; fill-opacity:0.0; 
stroke:#000000; stroke-width:59.0551; stroke-opacity:1; 
stroke-linecap:round; stroke-linejoin:round;">
<text x="33464.6" y="4586.61"
textLength="546.494" font-size="682.415" lengthAdjust="spacingAndGlyphs"
text-anchor="start" opacity="0">2</text>
<path d="M33591 4099
L33615 4074
L33664 4050
L33786 4050
L33835 4074
L33859 4099
L33884 4147
L33884 4196
L33859 4269
L33567 4562
L33884 4562
" />
</g>
<g style="fill:#000000; fill-opacity:0.0; 
stroke:#000000; stroke-width:39.3701; stroke-opacity:1; 
stroke-linecap:round; stroke-linejoin:round;">
</g>
<g style="fill:#000000; fill-opacity:0.0; 
stroke:#000000; stroke-width:59.0551; stroke-opacity:1; 
stroke-linecap:round; stroke-linejoin:round;">
<text x="53149.6" y="4586.61"
textLength="546.494" font-size="682.415" lengthAdjust="spacingAndGlyphs"
text-anchor="start" opacity="0">3</text>
<path d="M53252 4050
L53569 4050
L53398 4245
L53471 4245
L53520 4269
L53544 4294
L53569 4342
L53569 4464
L53544 4513
L53520 4537
L53471 4562
L53325 4562
L53276 4537
L53252 4513
" />
</g>
<g style="fill:#000000; fill-opacity:0.0; 
stroke:#000000; stroke-width:39.3701; stroke-opacity:1; 
stroke-linecap:round; stroke-linejoin:round;">
</g>
<g style="fill:#000000; fill-opacity:0.0; 
stroke:#000000; stroke-width:59.0551; stroke-opacity:1; 
stroke-linecap:round; stroke-linejoin:round;">
<text x="72834.6" y="4586.61"
textLength="546.494" font-size="682.415" lengthAdjust="spacingAndGlyphs"
text-anchor="start" opacity="0">4</text>
<path d="M73205 4221
L73205 4562
" />
<path d="M73083 4026
L72961 4391
L73278 4391
" />
</g>
<g style="fill:#000000; fill-opacity:0.0; 
stroke:#000000; stroke-width:39.3701; stroke-opacity:1; 
stroke-linecap:round; stroke-linejoin:round;">
</g>
<g style="fill:#000000; fill-opacity:0.0; 
stroke:#000000; stroke-width:59.0551; stroke-opacity:1; 
stroke-linecap:round; stroke-linejoin:round;">
<text x="92519.7" y="4586.61"
textLength="546.494" font-size="682.415" lengthAdjust="spacingAndGlyphs"
text-anchor="start" opacity="0">5</text>
<path d="M92914 4050
L92671 4050
L92646 4294
L92671 4269
L92719 4245
L92841 4245
L92890 4269
L92914 4294
L92939 4342
L92939 4464
L92914 4513
L92890 4537
L92841 4562
L92719 4562
L92671 4537
L92646 4513
" />
</g>
<g style="fill:#000000; fill-opacity:0.0; 
stroke:#000000; stroke-width:39.3701; stroke-opacity:1; 
stroke-linecap:round; stroke-linejoin:round;">
</g>
<g style="fill:#000000; fill-opacity:0.0; 
stroke:#000000; stroke-width:59.0551; stroke-opacity:1; 
stroke-linecap:round; stroke-linejoin:round;">
<text x="112205" y="4586.61"
textLength="546.494" font-size="682.415" lengthAdjust="spacingAndGlyphs"
text-anchor="start" opacity="0">6</text>
<path d="M112575 4050
L112477 4050
L112429 4074
L112404 4099
L112356 4172
L112331 4269
L112331 4464
L112356 4513
L112380 4537
L112429 4562
L112526 4562
L112575 4537
L112599 4513
L112624 4464
L112624 4342
L112599 4294
L112575 4269
L112526 4245
L112429 4245
L112380 4269
L112356 4294
L112331 4342
" />
</g>
<g style="fill:#000000; fill-opacity:0.0; 
stroke:#000000; stroke-width:39.3701; stroke-opacity:1; 
stroke-linecap:round; stroke-linejoin:round;">
</g>
<g style="fill:#000000; fill-opacity:0.0; 
stroke:#000000; stroke-width:59.0551; stroke-opacity:1; 
stroke-linecap:round; stroke-linejoin:round;">
<path d="M23622 77955
L23622 78742
" />
</g>
<g style="fill:#000000; fill-opacity:0.0; 
stroke:#000000; stroke-width:39.3701; stroke-opacity:1; 
stroke-linecap:round; stroke-linejoin:round;">
</g>
<g style="fill:#000000; fill-opacity:0.0; 
stroke:#000000; stroke-width:59.0551; stroke-opacity:1; 
stroke-linecap:round; stroke-linejoin:round;">
<path d="M43307 77955
L43307 78742
" />
</g>
<g style="fill:#000000; fill-opacity:0.0; 
stroke:#000000; stroke-width:39.3701; stroke-opacity:1; 
stroke-linecap:round; stroke-linejoin:round;">
</g>
<g style="fill:#000000; fill-opacity:0.0; 
stroke:#000000; stroke-width:59.0551; stroke-opacity:1; 
stroke-linecap:round; stroke-linejoin:round;">
<path d="M62992 77955
L62992 78742
" />
</g>
<g style="fill:#000000; fill-opacity:0.0; 
stroke:#000000; stroke-width:39.3701; stroke-opacity:1; 
stroke-linecap:round; stroke-linejoin:round;">
</g>
<g style="fill:#000000; fill-opacity:0.0; 
stroke:#000000; stroke-width:59.0551; stroke-opacity:1; 
stroke-linecap:round; stroke-linejoin:round;">
<path d="M82677 77955
L82677 78742
" />
</g>
<g style="fill:#000000; fill-opacity:0.0; 
stroke:#000000; stroke-width:39.3701; stroke-opacity:1; 
stroke-linecap:round; stroke-linejoin:round;">
</g>
<g style="fill:#000000; fill-opacity:0.0; 
stroke:#000000; stroke-width:59.0551; stroke-opacity:1; 
stroke-linecap:round; stroke-linejoin:round;">
<path d="M102362 77955
L102362 78742
" />
</g>
<g style="fill:#000000; fill-opacity:0.0; 
stroke:#000000; stroke-width:39.3701; stroke-opacity:1; 
stroke-linecap:round; stroke-linejoin:round;">
</g>
<g style="fill:#000000; fill-opacity:0.0; 
stroke:#000000; stroke-width:59.0551; stroke-opacity:1; 
stroke-linecap:round; stroke-linejoin:round;">
<text x="13779.5" y="78605.2"
textLength="546.494" font-size="682.415" lengthAdjust="spacingAndGlyphs"
text-anchor="start" opacity="0">1</text>
<path d="M14199 78580
L13906 78580
" />
<path d="M14052 78580
L14052 78069
L14004 78142
L13955 78190
L13906 78215
" />
</g>
<g style="fill:#000000; fill-opacity:0.0; 
stroke:#000000; stroke-width:39.3701; stroke-opacity:1; 
stroke-linecap:round; stroke-linejoin:round;">
</g>
<g style="fill:#000000; fill-opacity:0.0; 
stroke:#000000; stroke-width:59.0551; stroke-opacity:1; 
stroke-linecap:round; stroke-linejoin:round;">
<text x="33464.6" y="78605.2"
textLength="546.494" font-size="682.415" lengthAdjust="spacingAndGlyphs"
text-anchor="start" opacity="0">2</text>
<path d="M33591 78117
L33615 78093
L33664 78069
L33786 78069
L33835 78093
L33859 78117
L33884 78166
L33884 78215
L33859 78288
L33567 78580
L33884 78580
" />
</g>
<g style="fill:#000000; fill-opacity:0.0; 
stroke:#000000; stroke-width:39.3701; stroke-opacity:1; 
stroke-linecap:round; stroke-linejoin:round;">
</g>
<g style="fill:#000000; fill-opacity:0.0; 
stroke:#000000; stroke-width:59.0551; stroke-opacity:1; 
stroke-linecap:round; stroke-linejoin:round;">
<text x="53149.6" y="78605.2"
textLength="546.494" font-size="682.415" lengthAdjust="spacingAndGlyphs"
text-anchor="start" opacity="0">3</text>
<path d="M53252 78069
L53569 78069
L53398 78263
L53471 78263
L53520 78288
L53544 78312
L53569 78361
L53569 78483
L53544 78532
L53520 78556
L53471 78580
L53325 78580
L53276 78556
L53252 78532
" />
</g>
<g style="fill:#000000; fill-opacity:0.0; 
stroke:#000000; stroke-width:39.3701; stroke-opacity:1; 
stroke-linecap:round; stroke-linejoin:round;">
</g>
<g style="fill:#000000; fill-opacity:0.0; 
stroke:#000000; stroke-width:59.0551; stroke-opacity:1; 
stroke-linecap:round; stroke-linejoin:round;">
<text x="72834.6" y="78605.2"
textLength="546.494" font-size="682.415" lengthAdjust="spacingAndGlyphs"
text-anchor="start" opacity="0">4</text>
<path d="M73205 78239
L73205 78580
" />
<path d="M73083 78044
L72961 78410
L73278 78410
" />
</g>
<g style="fill:#000000; fill-opacity:0.0; 
stroke:#000000; stroke-width:39.3701; stroke-opacity:1; 
stroke-linecap:round; stroke-linejoin:round;">
</g>
<g style="fill:#000000; fill-opacity:0.0; 
stroke:#000000; stroke-width:59.0551; stroke-opacity:1; 
stroke-linecap:round; stroke-linejoin:round;">
<text x="92519.7" y="78605.2"
textLength="546.494" font-size="682.415" lengthAdjust="spacingAndGlyphs"
text-anchor="start" opacity="0">5</text>
<path d="M92914 78069
L92671 78069
L92646 78312
L92671 78288
L92719 78263
L92841 78263
L92890 78288
L92914 78312
L92939 78361
L92939 78483
L92914 78532
L92890 78556
L92841 78580
L92719 78580
L92671 78556
L92646 78532
" />
</g>
<g style="fill:#000000; fill-opacity:0.0; 
stroke:#000000; stroke-width:39.3701; stroke-opacity:1; 
stroke-linecap:round; stroke-linejoin:round;">
</g>
<g style="fill:#000000; fill-opacity:0.0; 
stroke:#000000; stroke-width:59.0551; stroke-opacity:1; 
stroke-linecap:round; stroke-linejoin:round;">
<text x="112205" y="78605.2"
textLength="546.494" font-size="682.415" lengthAdjust="spacingAndGlyphs"
text-anchor="start" opacity="0">6</text>
<path d="M112575 78069
L112477 78069
L112429 78093
L112404 78117
L112356 78190
L112331 78288
L112331 78483
L112356 78532
L112380 78556
L112429 78580
L112526 78580
L112575 78556
L112599 78532
L112624 78483
L112624 78361
L112599 78312
L112575 78288
L112526 78263
L112429 78263
L112380 78288
L112356 78312
L112331 78361
" />
</g>
<g style="fill:#000000; fill-opacity:0.0; 
stroke:#000000; stroke-width:39.3701; stroke-opacity:1; 
stroke-linecap:round; stroke-linejoin:round;">
</g>
<g style="fill:#000000; fill-opacity:0.0; 
stroke:#000000; stroke-width:59.0551; stroke-opacity:1; 
stroke-linecap:round; stroke-linejoin:round;">
<path d="M3937 23622
L4724 23622
" />
</g>
<g style="fill:#000000; fill-opacity:0.0; 
stroke:#000000; stroke-width:39.3701; stroke-opacity:1; 
stroke-linecap:round; stroke-linejoin:round;">
</g>
<g style="fill:#000000; fill-opacity:0.0; 
stroke:#000000; stroke-width:59.0551; stroke-opacity:1; 
stroke-linecap:round; stroke-linejoin:round;">
<path d="M3937 43307
L4724 43307
" />
</g>
<g style="fill:#000000; fill-opacity:0.0; 
stroke:#000000; stroke-width:39.3701; stroke-opacity:1; 
stroke-linecap:round; stroke-linejoin:round;">
</g>
<g style="fill:#000000; fill-opacity:0.0; 
stroke:#000000; stroke-width:59.0551; stroke-opacity:1; 
stroke-linecap:round; stroke-linejoin:round;">
<path d="M3937 62992
L4724 62992
" />
</g>
<g style="fill:#000000; fill-opacity:0.0; 
stroke:#000000; stroke-width:39.3701; stroke-opacity:1; 
stroke-linecap:round; stroke-linejoin:round;">
</g>
<g style="fill:#000000; fill-opacity:0.0; 
stroke:#000000; stroke-width:59.0551; stroke-opacity:1; 
stroke-linecap:round; stroke-linejoin:round;">
<text x="4330.71" y="14035.4"
textLength="497.75" font-size="682.415" lengthAdjust="spacingAndGlyphs"
text-anchor="middle" opacity="0">A</text>
<path d="M4208 13864
L4452 13864
" />
<path d="M4160 14011
L4330 13499
L4501 14011
" />
</g>
<g style="fill:#000000; fill-opacity:0.0; 
stroke:#000000; stroke-width:39.3701; stroke-opacity:1; 
stroke-linecap:round; stroke-linejoin:round;">
</g>
<g style="fill:#000000; fill-opacity:0.0; 
stroke:#000000; stroke-width:59.0551; stroke-opacity:1; 
stroke-linecap:round; stroke-linejoin:round;">
<text x="4330.71" y="33720.5"
textLength="570.866" font-size="682.415" lengthAdjust="spacingAndGlyphs"
text-anchor="middle" opacity="0">B</text>
<path d="M4367 33428
L4440 33452
L4464 33476
L4489 33525
L4489 33598
L4464 33647
L4440 33671
L4391 33696
L4196 33696
L4196 33184
L4367 33184
L4416 33208
L4440 33233
L4464 33281
L4464 33330
L4440 33379
L4416 33403
L4367 33428
L4196 33428
" />
</g>
<g style="fill:#000000; fill-opacity:0.0; 
stroke:#000000; stroke-width:39.3701; stroke-opacity:1; 
stroke-linecap:round; stroke-linejoin:round;">
</g>
<g style="fill:#000000; fill-opacity:0.0; 
stroke:#000000; stroke-width:59.0551; stroke-opacity:1; 
stroke-linecap:round; stroke-linejoin:round;">
<text x="4330.71" y="53405.5"
textLength="570.866" font-size="682.415" lengthAdjust="spacingAndGlyphs"
text-anchor="middle" opacity="0">C</text>
<path d="M4489 53332
L4464 53356
L4391 53381
L4342 53381
L4269 53356
L4221 53308
L4196 53259
L4172 53161
L4172 53088
L4196 52991
L4221 52942
L4269 52893
L4342 52869
L4391 52869
L4464 52893
L4489 52918
" />
</g>
<g style="fill:#000000; fill-opacity:0.0; 
stroke:#000000; stroke-width:39.3701; stroke-opacity:1; 
stroke-linecap:round; stroke-linejoin:round;">
</g>
<g style="fill:#000000; fill-opacity:0.0; 
stroke:#000000; stroke-width:59.0551; stroke-opacity:1; 
stroke-linecap:round; stroke-linejoin:round;">
<text x="4330.71" y="73090.6"
textLength="570.866" font-size="682.415" lengthAdjust="spacingAndGlyphs"
text-anchor="middle" opacity="0">D</text>
<path d="M4196 73066
L4196 72554
L4318 72554
L4391 72578
L4440 72627
L4464 72676
L4489 72773
L4489 72846
L4464 72944
L4440 72993
L4391 73041
L4318 73066
L4196 73066
" />
</g>
<g style="fill:#000000; fill-opacity:0.0; 
stroke:#000000; stroke-width:39.3701; stroke-opacity:1; 
stroke-linecap:round; stroke-linejoin:round;">
</g>
<g style="fill:#000000; fill-opacity:0.0; 
stroke:#000000; stroke-width:59.0551; stroke-opacity:1; 
stroke-linecap:round; stroke-linejoin:round;">
<path d="M112992 23622
L112205 23622
" />
</g>
<g style="fill:#000000; fill-opacity:0.0; 
stroke:#000000; stroke-width:39.3701; stroke-opacity:1; 
stroke-linecap:round; stroke-linejoin:round;">
</g>
<g style="fill:#000000; fill-opacity:0.0; 
stroke:#000000; stroke-width:59.0551; stroke-opacity:1; 
stroke-linecap:round; stroke-linejoin:round;">
<path d="M112992 43307
L112205 43307
" />
</g>
<g style="fill:#000000; fill-opacity:0.0; 
stroke:#000000; stroke-width:39.3701; stroke-opacity:1; 
stroke-linecap:round; stroke-linejoin:round;">
</g>
<g style="fill:#000000; fill-opacity:0.0; 
stroke:#000000; stroke-width:59.0551; stroke-opacity:1; 
stroke-linecap:round; stroke-linejoin:round;">
<path d="M112992 62992
L112205 62992
" />
</g>
<g style="fill:#000000; fill-opacity:0.0; 
stroke:#000000; stroke-width:39.3701; stroke-opacity:1; 
stroke-linecap:round; stroke-linejoin:round;">
</g>
<g style="fill:#000000; fill-opacity:0.0; 
stroke:#000000; stroke-width:59.0551; stroke-opacity:1; 
stroke-linecap:round; stroke-linejoin:round;">
<text x="112599" y="14035.4"
textLength="497.75" font-size="682.415" lengthAdjust="spacingAndGlyphs"
text-anchor="middle" opacity="0">A</text>
<path d="M112477 13864
L112721 13864
" />
<path d="M112428 14011
L112599 13499
L112769 14011
" />
</g>
<g style="fill:#000000; fill-opacity:0.0; 
stroke:#000000; stroke-width:39.3701; stroke-opacity:1; 
stroke-linecap:round; stroke-linejoin:round;">
</g>
<g style="fill:#000000; fill-opacity:0.0; 
stroke:#000000; stroke-width:59.0551; stroke-opacity:1; 
stroke-linecap:round; stroke-linejoin:round;">
<text x="112599" y="33720.5"
textLength="570.866" font-size="682.415" lengthAdjust="spacingAndGlyphs"
text-anchor="middle" opacity="0">B</text>
<path d="M112635 33428
L112708 33452
L112733 33476
L112757 33525
L112757 33598
L112733 33647
L112708 33671
L112660 33696
L112465 33696
L112465 33184
L112635 33184
L112684 33208
L112708 33233
L112733 33281
L112733 33330
L112708 33379
L112684 33403
L112635 33428
L112465 33428
" />
</g>
<g style="fill:#000000; fill-opacity:0.0; 
stroke:#000000; stroke-width:39.3701; stroke-opacity:1; 
stroke-linecap:round; stroke-linejoin:round;">
</g>
<g style="fill:#000000; fill-opacity:0.0; 
stroke:#000000; stroke-width:59.0551; stroke-opacity:1; 
stroke-linecap:round; stroke-linejoin:round;">
<text x="112599" y="53405.5"
textLength="570.866" font-size="682.415" lengthAdjust="spacingAndGlyphs"
text-anchor="middle" opacity="0">C</text>
<path d="M112757 53332
L112733 53356
L112660 53381
L112611 53381
L112538 53356
L112489 53308
L112465 53259
L112440 53161
L112440 53088
L112465 52991
L112489 52942
L112538 52893
L112611 52869
L112660 52869
L112733 52893
L112757 52918
" />
</g>
<g style="fill:#000000; fill-opacity:0.0; 
stroke:#000000; stroke-width:39.3701; stroke-opacity:1; 
stroke-linecap:round; stroke-linejoin:round;">
</g>
<g style="fill:#000000; fill-opacity:0.0; 
stroke:#000000; stroke-width:59.0551; stroke-opacity:1; 
stroke-linecap:round; stroke-linejoin:round;">
<text x="112599" y="73090.6"
textLength="570.866" font-size="682.415" lengthAdjust="spacingAndGlyphs"
text-anchor="middle" opacity="0">D</text>
<path d="M112465 73066
L112465 72554
L112587 72554
L112660 72578
L112708 72627
L112733 72676
L112757 72773
L112757 72846
L112733 72944
L112708 72993
L112660 73041
L112587 73066
L112465 73066
" />
</g>
<g style="fill:#000000; fill-opacity:0.0; 
stroke:#000000; stroke-width:39.3701; stroke-opacity:1; 
stroke-linecap:round; stroke-linejoin:round;">
</g>
<g style="fill:#000000; fill-opacity:0.0; 
stroke:#000000; stroke-width:59.0551; stroke-opacity:1; 
stroke-linecap:round; stroke-linejoin:round;">
<text x="78741" y="76321.7"
textLength="2758.72" font-size="787.402" lengthAdjust="spacingAndGlyphs"
text-anchor="start" opacity="0">Date: </text>
<path d="M78911 76293
L78911 75703
L79051 75703
L79136 75731
L79192 75787
L79220 75843
L79248 75956
L79248 76040
L79220 76153
L79192 76209
L79136 76265
L79051 76293
L78911 76293
" />
<path d="M79754 76293
L79754 75984
L79726 75928
L79670 75899
L79557 75899
L79501 75928
" />
<path d="M79754 76265
L79698 76293
L79557 76293
L79501 76265
L79473 76209
L79473 76153
L79501 76096
L79557 76068
L79698 76068
L79754 76040
" />
<path d="M79951 75899
L80176 75899
" />
<path d="M80036 75703
L80036 76209
L80064 76265
L80120 76293
L80176 76293
" />
<path d="M80598 76265
L80542 76293
L80429 76293
L80373 76265
L80345 76209
L80345 75984
L80373 75928
L80429 75899
L80542 75899
L80598 75928
L80626 75984
L80626 76040
L80345 76096
" />
<path d="M80879 76237
L80907 76265
L80879 76293
L80851 76265
L80879 76237
L80879 76293
" />
<path d="M80879 75928
L80907 75956
L80879 75984
L80851 75956
L80879 75928
L80879 75984
" />
</g>
<g style="fill:#000000; fill-opacity:0.0; 
stroke:#000000; stroke-width:39.3701; stroke-opacity:1; 
stroke-linecap:round; stroke-linejoin:round;">
</g>
<g style="fill:#000000; fill-opacity:0.0; 
stroke:#000000; stroke-width:59.0551; stroke-opacity:1; 
stroke-linecap:round; stroke-linejoin:round;">
<path d="M69685 76577
L112205 76577
" />
</g>
<g style="fill:#000000; fill-opacity:0.0; 
stroke:#000000; stroke-width:39.3701; stroke-opacity:1; 
stroke-linecap:round; stroke-linejoin:round;">
</g>
<g style="fill:#000000; fill-opacity:0.0; 
stroke:#000000; stroke-width:59.0551; stroke-opacity:1; 
stroke-linecap:round; stroke-linejoin:round;">
<text x="70079.6" y="77424.1"
textLength="13529.2" font-size="787.402" lengthAdjust="spacingAndGlyphs"
text-anchor="start" opacity="0">KiCad E.D.A.  kicad (5.1.5)-3</text>
<path d="M70249 77395
L70249 76805
" />
<path d="M70587 77395
L70334 77058
" />
<path d="M70587 76805
L70249 77142
" />
<path d="M70840 77395
L70840 77002
" />
<path d="M70840 76805
L70812 76833
L70840 76861
L70868 76833
L70840 76805
L70840 76861
" />
<path d="M71458 77339
L71430 77367
L71346 77395
L71290 77395
L71205 77367
L71149 77311
L71121 77255
L71093 77142
L71093 77058
L71121 76946
L71149 76889
L71205 76833
L71290 76805
L71346 76805
L71430 76833
L71458 76861
" />
<path d="M71965 77395
L71965 77086
L71937 77030
L71880 77002
L71768 77002
L71712 77030
" />
<path d="M71965 77367
L71908 77395
L71768 77395
L71712 77367
L71683 77311
L71683 77255
L71712 77199
L71768 77171
L71908 77171
L71965 77142
" />
<path d="M72499 77395
L72499 76805
" />
<path d="M72499 77367
L72443 77395
L72330 77395
L72274 77367
L72246 77339
L72218 77283
L72218 77114
L72246 77058
L72274 77030
L72330 77002
L72443 77002
L72499 77030
" />
<path d="M73230 77086
L73427 77086
" />
<path d="M73511 77395
L73230 77395
L73230 76805
L73511 76805
" />
<path d="M73764 77339
L73793 77367
L73764 77395
L73736 77367
L73764 77339
L73764 77395
" />
<path d="M74046 77395
L74046 76805
L74186 76805
L74271 76833
L74327 76889
L74355 76946
L74383 77058
L74383 77142
L74355 77255
L74327 77311
L74271 77367
L74186 77395
L74046 77395
" />
<path d="M74636 77339
L74664 77367
L74636 77395
L74608 77367
L74636 77339
L74636 77395
" />
<path d="M74889 77227
L75171 77227
" />
<path d="M74833 77395
L75030 76805
L75227 77395
" />
<path d="M75424 77339
L75452 77367
L75424 77395
L75395 77367
L75424 77339
L75424 77395
" />
<path d="M76605 77395
L76605 76805
" />
<path d="M76661 77171
L76830 77395
" />
<path d="M76830 77002
L76605 77227
" />
<path d="M77083 77395
L77083 77002
" />
<path d="M77083 76805
L77055 76833
L77083 76861
L77111 76833
L77083 76805
L77083 76861
" />
<path d="M77617 77367
L77561 77395
L77448 77395
L77392 77367
L77364 77339
L77336 77283
L77336 77114
L77364 77058
L77392 77030
L77448 77002
L77561 77002
L77617 77030
" />
<path d="M78123 77395
L78123 77086
L78095 77030
L78039 77002
L77926 77002
L77870 77030
" />
<path d="M78123 77367
L78067 77395
L77926 77395
L77870 77367
L77842 77311
L77842 77255
L77870 77199
L77926 77171
L78067 77171
L78123 77142
" />
<path d="M78658 77395
L78658 76805
" />
<path d="M78658 77367
L78601 77395
L78489 77395
L78433 77367
L78404 77339
L78376 77283
L78376 77114
L78404 77058
L78433 77030
L78489 77002
L78601 77002
L78658 77030
" />
<path d="M79557 77620
L79529 77592
L79473 77508
L79445 77452
L79417 77367
L79389 77227
L79389 77114
L79417 76974
L79445 76889
L79473 76833
L79529 76749
L79557 76721
" />
<path d="M80064 76805
L79782 76805
L79754 77086
L79782 77058
L79839 77030
L79979 77030
L80036 77058
L80064 77086
L80092 77142
L80092 77283
L80064 77339
L80036 77367
L79979 77395
L79839 77395
L79782 77367
L79754 77339
" />
<path d="M80345 77339
L80373 77367
L80345 77395
L80317 77367
L80345 77339
L80345 77395
" />
<path d="M80935 77395
L80598 77395
" />
<path d="M80767 77395
L80767 76805
L80710 76889
L80654 76946
L80598 76974
" />
<path d="M81188 77339
L81217 77367
L81188 77395
L81160 77367
L81188 77339
L81188 77395
" />
<path d="M81751 76805
L81470 76805
L81442 77086
L81470 77058
L81526 77030
L81667 77030
L81723 77058
L81751 77086
L81779 77142
L81779 77283
L81751 77339
L81723 77367
L81667 77395
L81526 77395
L81470 77367
L81442 77339
" />
<path d="M81976 77620
L82004 77592
L82060 77508
L82088 77452
L82117 77367
L82145 77227
L82145 77114
L82117 76974
L82088 76889
L82060 76833
L82004 76749
L81976 76721
" />
<path d="M82426 77171
L82876 77171
" />
<path d="M83101 76805
L83466 76805
L83269 77030
L83354 77030
L83410 77058
L83438 77086
L83466 77142
L83466 77283
L83438 77339
L83410 77367
L83354 77395
L83185 77395
L83129 77367
L83101 77339
" />
</g>
<g style="fill:#000000; fill-opacity:0.0; 
stroke:#000000; stroke-width:39.3701; stroke-opacity:1; 
stroke-linecap:round; stroke-linejoin:round;">
</g>
<g style="fill:#000000; fill-opacity:0.0; 
stroke:#000000; stroke-width:59.0551; stroke-opacity:1; 
stroke-linecap:round; stroke-linejoin:round;">
<path d="M69685 75396
L112205 75396
" />
</g>
<g style="fill:#000000; fill-opacity:0.0; 
stroke:#000000; stroke-width:39.3701; stroke-opacity:1; 
stroke-linecap:round; stroke-linejoin:round;">
</g>
<g style="fill:#000000; fill-opacity:0.0; 
stroke:#000000; stroke-width:118.11; stroke-opacity:1; 
stroke-linecap:round; stroke-linejoin:round;">
<text x="103544" y="76321.7"
textLength="2336.9" font-size="787.402" lengthAdjust="spacingAndGlyphs"
text-anchor="start" opacity="0">Rev: </text>
<path d="M104099 76293
L103902 76012
" />
<path d="M103761 76293
L103761 75703
L103986 75703
L104042 75731
L104070 75759
L104099 75815
L104099 75899
L104070 75956
L104042 75984
L103986 76012
L103761 76012
" />
<path d="M104577 76265
L104520 76293
L104408 76293
L104352 76265
L104323 76209
L104323 75984
L104352 75928
L104408 75899
L104520 75899
L104577 75928
L104605 75984
L104605 76040
L104323 76096
" />
<path d="M104802 75899
L104942 76293
L105083 75899
" />
<path d="M105308 76237
L105336 76265
L105308 76293
L105280 76265
L105308 76237
L105308 76293
" />
<path d="M105308 75928
L105336 75956
L105308 75984
L105280 75956
L105308 75928
L105308 75984
" />
</g>
<g style="fill:#000000; fill-opacity:0.0; 
stroke:#000000; stroke-width:39.3701; stroke-opacity:1; 
stroke-linecap:round; stroke-linejoin:round;">
</g>
<g style="fill:#000000; fill-opacity:0.0; 
stroke:#000000; stroke-width:59.0551; stroke-opacity:1; 
stroke-linecap:round; stroke-linejoin:round;">
<text x="70079.6" y="76321.7"
textLength="3781.21" font-size="787.402" lengthAdjust="spacingAndGlyphs"
text-anchor="start" opacity="0">Size: A4</text>
<path d="M70221 76265
L70305 76293
L70446 76293
L70502 76265
L70530 76237
L70559 76181
L70559 76124
L70530 76068
L70502 76040
L70446 76012
L70334 75984
L70277 75956
L70249 75928
L70221 75871
L70221 75815
L70249 75759
L70277 75731
L70334 75703
L70474 75703
L70559 75731
" />
<path d="M70812 76293
L70812 75899
" />
<path d="M70812 75703
L70784 75731
L70812 75759
L70840 75731
L70812 75703
L70812 75759
" />
<path d="M71037 75899
L71346 75899
L71037 76293
L71346 76293
" />
<path d="M71796 76265
L71740 76293
L71627 76293
L71571 76265
L71543 76209
L71543 75984
L71571 75928
L71627 75899
L71740 75899
L71796 75928
L71824 75984
L71824 76040
L71543 76096
" />
<path d="M72077 76237
L72105 76265
L72077 76293
L72049 76265
L72077 76237
L72077 76293
" />
<path d="M72077 75928
L72105 75956
L72077 75984
L72049 75956
L72077 75928
L72077 75984
" />
<path d="M72780 76124
L73061 76124
" />
<path d="M72724 76293
L72921 75703
L73118 76293
" />
<path d="M73568 75899
L73568 76293
" />
<path d="M73427 75674
L73286 76096
L73652 76096
" />
</g>
<g style="fill:#000000; fill-opacity:0.0; 
stroke:#000000; stroke-width:39.3701; stroke-opacity:1; 
stroke-linecap:round; stroke-linejoin:round;">
</g>
<g style="fill:#000000; fill-opacity:0.0; 
stroke:#000000; stroke-width:59.0551; stroke-opacity:1; 
stroke-linecap:round; stroke-linejoin:round;">
<text x="103544" y="77424.1"
textLength="3349.27" font-size="787.402" lengthAdjust="spacingAndGlyphs"
text-anchor="start" opacity="0">Id: 1/1</text>
<path d="M103714 77395
L103714 76805
" />
<path d="M104248 77395
L104248 76805
" />
<path d="M104248 77367
L104192 77395
L104079 77395
L104023 77367
L103995 77339
L103967 77283
L103967 77114
L103995 77058
L104023 77030
L104079 77002
L104192 77002
L104248 77030
" />
<path d="M104529 77339
L104557 77367
L104529 77395
L104501 77367
L104529 77339
L104529 77395
" />
<path d="M104529 77030
L104557 77058
L104529 77086
L104501 77058
L104529 77030
L104529 77086
" />
<path d="M105570 77395
L105232 77395
" />
<path d="M105401 77395
L105401 76805
L105345 76889
L105289 76946
L105232 76974
" />
<path d="M106245 76777
L105739 77536
" />
<path d="M106751 77395
L106413 77395
" />
<path d="M106582 77395
L106582 76805
L106526 76889
L106470 76946
L106413 76974
" />
</g>
<g style="fill:#000000; fill-opacity:0.0; 
stroke:#000000; stroke-width:39.3701; stroke-opacity:1; 
stroke-linecap:round; stroke-linejoin:round;">
</g>
<g style="fill:#000000; fill-opacity:0.0; 
stroke:#000000; stroke-width:59.0551; stroke-opacity:1; 
stroke-linecap:round; stroke-linejoin:round;">
<path d="M69685 73821
L112205 73821
" />
</g>
<g style="fill:#000000; fill-opacity:0.0; 
stroke:#000000; stroke-width:39.3701; stroke-opacity:1; 
stroke-linecap:round; stroke-linejoin:round;">
</g>
<g style="fill:#000000; fill-opacity:0.0; 
stroke:#000000; stroke-width:157.48; stroke-opacity:1; 
stroke-linecap:round; stroke-linejoin:round;">
<text x="70079.6" y="74924.1"
textLength="3701.14" font-size="1049.87" lengthAdjust="spacingAndGlyphs"
text-anchor="start" opacity="0">Title: </text>
<path d="M70360 74099
L70810 74099
" />
<path d="M70486 74886
L70585 74099
" />
<path d="M70974 74886
L71039 74361
" />
<path d="M71072 74099
L71030 74136
L71063 74174
L71105 74136
L71072 74099
L71063 74174
" />
<path d="M71302 74361
L71602 74361
" />
<path d="M71447 74099
L71363 74774
L71391 74849
L71461 74886
L71536 74886
" />
<path d="M71911 74886
L71841 74849
L71813 74774
L71897 74099
" />
<path d="M72516 74849
L72436 74886
L72286 74886
L72216 74849
L72187 74774
L72225 74474
L72272 74399
L72352 74361
L72501 74361
L72572 74399
L72600 74474
L72591 74549
L72206 74624
" />
<path d="M72895 74811
L72928 74849
L72886 74886
L72853 74849
L72895 74811
L72886 74886
" />
<path d="M72947 74399
L72980 74436
L72937 74474
L72905 74436
L72947 74399
L72937 74474
" />
</g>
<g style="fill:#000000; fill-opacity:0.0; 
stroke:#000000; stroke-width:39.3701; stroke-opacity:1; 
stroke-linecap:round; stroke-linejoin:round;">
</g>
<g style="fill:#000000; fill-opacity:0.0; 
stroke:#000000; stroke-width:59.0551; stroke-opacity:1; 
stroke-linecap:round; stroke-linejoin:round;">
<text x="70079.6" y="73408.3"
textLength="8191.23" font-size="787.402" lengthAdjust="spacingAndGlyphs"
text-anchor="start" opacity="0">File: v2.kicad_pcb</text>
<path d="M70446 73070
L70249 73070
" />
<path d="M70249 73380
L70249 72789
L70530 72789
" />
<path d="M70755 73380
L70755 72986
" />
<path d="M70755 72789
L70727 72817
L70755 72845
L70784 72817
L70755 72789
L70755 72845
" />
<path d="M71121 73380
L71065 73352
L71037 73295
L71037 72789
" />
<path d="M71571 73352
L71515 73380
L71402 73380
L71346 73352
L71318 73295
L71318 73070
L71346 73014
L71402 72986
L71515 72986
L71571 73014
L71599 73070
L71599 73127
L71318 73183
" />
<path d="M71852 73323
L71880 73352
L71852 73380
L71824 73352
L71852 73323
L71852 73380
" />
<path d="M71852 73014
L71880 73042
L71852 73070
L71824 73042
L71852 73014
L71852 73070
" />
<path d="M72527 72986
L72668 73380
L72808 72986
" />
<path d="M73005 72845
L73033 72817
L73090 72789
L73230 72789
L73286 72817
L73314 72845
L73343 72902
L73343 72958
L73314 73042
L72977 73380
L73343 73380
" />
<path d="M73596 73323
L73624 73352
L73596 73380
L73568 73352
L73596 73323
L73596 73380
" />
<path d="M73877 73380
L73877 72789
" />
<path d="M73933 73155
L74102 73380
" />
<path d="M74102 72986
L73877 73211
" />
<path d="M74355 73380
L74355 72986
" />
<path d="M74355 72789
L74327 72817
L74355 72845
L74383 72817
L74355 72789
L74355 72845
" />
<path d="M74889 73352
L74833 73380
L74721 73380
L74664 73352
L74636 73323
L74608 73267
L74608 73099
L74636 73042
L74664 73014
L74721 72986
L74833 72986
L74889 73014
" />
<path d="M75395 73380
L75395 73070
L75367 73014
L75311 72986
L75199 72986
L75142 73014
" />
<path d="M75395 73352
L75339 73380
L75199 73380
L75142 73352
L75114 73295
L75114 73239
L75142 73183
L75199 73155
L75339 73155
L75395 73127
" />
<path d="M75930 73380
L75930 72789
" />
<path d="M75930 73352
L75874 73380
L75761 73380
L75705 73352
L75677 73323
L75649 73267
L75649 73099
L75677 73042
L75705 73014
L75761 72986
L75874 72986
L75930 73014
" />
<path d="M76070 73436
L76520 73436
" />
<path d="M76661 72986
L76661 73577
" />
<path d="M76661 73014
L76717 72986
L76830 72986
L76886 73014
L76914 73042
L76942 73099
L76942 73267
L76914 73323
L76886 73352
L76830 73380
L76717 73380
L76661 73352
" />
<path d="M77448 73352
L77392 73380
L77280 73380
L77223 73352
L77195 73323
L77167 73267
L77167 73099
L77195 73042
L77223 73014
L77280 72986
L77392 72986
L77448 73014
" />
<path d="M77701 73380
L77701 72789
" />
<path d="M77701 73014
L77758 72986
L77870 72986
L77926 73014
L77955 73042
L77983 73099
L77983 73267
L77955 73323
L77926 73352
L77870 73380
L77758 73380
L77701 73352
" />
</g>
<g style="fill:#000000; fill-opacity:0.0; 
stroke:#000000; stroke-width:39.3701; stroke-opacity:1; 
stroke-linecap:round; stroke-linejoin:round;">
</g>
<g style="fill:#000000; fill-opacity:0.0; 
stroke:#000000; stroke-width:59.0551; stroke-opacity:1; 
stroke-linecap:round; stroke-linejoin:round;">
<path d="M69685 71459
L112205 71459
" />
</g>
<g style="fill:#000000; fill-opacity:0.0; 
stroke:#000000; stroke-width:39.3701; stroke-opacity:1; 
stroke-linecap:round; stroke-linejoin:round;">
</g>
<g style="fill:#000000; fill-opacity:0.0; 
stroke:#000000; stroke-width:59.0551; stroke-opacity:1; 
stroke-linecap:round; stroke-linejoin:round;">
<text x="70079.6" y="72345.4"
textLength="3236.78" font-size="787.402" lengthAdjust="spacingAndGlyphs"
text-anchor="start" opacity="0">Sheet: </text>
<path d="M70221 72289
L70305 72317
L70446 72317
L70502 72289
L70530 72260
L70559 72204
L70559 72148
L70530 72092
L70502 72064
L70446 72036
L70334 72007
L70277 71979
L70249 71951
L70221 71895
L70221 71839
L70249 71782
L70277 71754
L70334 71726
L70474 71726
L70559 71754
" />
<path d="M70812 72317
L70812 71726
" />
<path d="M71065 72317
L71065 72007
L71037 71951
L70980 71923
L70896 71923
L70840 71951
L70812 71979
" />
<path d="M71571 72289
L71515 72317
L71402 72317
L71346 72289
L71318 72232
L71318 72007
L71346 71951
L71402 71923
L71515 71923
L71571 71951
L71599 72007
L71599 72064
L71318 72120
" />
<path d="M72077 72289
L72021 72317
L71908 72317
L71852 72289
L71824 72232
L71824 72007
L71852 71951
L71908 71923
L72021 71923
L72077 71951
L72105 72007
L72105 72064
L71824 72120
" />
<path d="M72274 71923
L72499 71923
" />
<path d="M72358 71726
L72358 72232
L72386 72289
L72443 72317
L72499 72317
" />
<path d="M72696 72260
L72724 72289
L72696 72317
L72668 72289
L72696 72260
L72696 72317
" />
<path d="M72696 71951
L72724 71979
L72696 72007
L72668 71979
L72696 71951
L72696 72007
" />
</g>
<g style="fill:#000000; fill-opacity:0.0; 
stroke:#000000; stroke-width:39.3701; stroke-opacity:1; 
stroke-linecap:round; stroke-linejoin:round;">
</g>
<g style="fill:#000000; fill-opacity:0.0; 
stroke:#000000; stroke-width:59.0551; stroke-opacity:1; 
stroke-linecap:round; stroke-linejoin:round;">
<path d="M77559 75396
L77559 76577
" />
</g>
<g style="fill:#000000; fill-opacity:0.0; 
stroke:#000000; stroke-width:39.3701; stroke-opacity:1; 
stroke-linecap:round; stroke-linejoin:round;">
</g>
<g style="fill:#000000; fill-opacity:0.0; 
stroke:#000000; stroke-width:59.0551; stroke-opacity:1; 
stroke-linecap:round; stroke-linejoin:round;">
<path d="M102756 75396
L102756 77955
" />
<g >
</g>
<g >
</g>
<g >
</g>
<g >
</g>
<g >
</g>
<g >
</g>
<g >
</g>
<g >
</g>
<g >
</g>
<g >
</g>
<g >
</g>
<g >
</g>
<g >
</g>
<g >
</g>
<g >
</g>
<g >
</g>
<g >
</g>
<g >
</g>
</g>
<g style="fill:#000000; fill-opacity:0.0; 
stroke:#000000; stroke-width:59.0551; stroke-opacity:1; 
stroke-linecap:round; stroke-linejoin:round;">
<text x="74464" y="19322.9"
textLength="-1628.23" font-size="-524.934" lengthAdjust="spacingAndGlyphs"
text-anchor="middle" opacity="0">REF**</text>
<path d="M74988 19304
L75120 19116
" />
<path d="M75213 19304
L75213 18910
L75063 18910
L75026 18929
L75007 18947
L74988 18985
L74988 19041
L75007 19079
L75026 19097
L75063 19116
L75213 19116
" />
<path d="M74820 19097
L74688 19097
" />
<path d="M74632 19304
L74820 19304
L74820 18910
L74632 18910
" />
<path d="M74332 19097
L74464 19097
" />
<path d="M74464 19304
L74464 18910
L74276 18910
" />
<path d="M74070 18910
L74070 19004
" />
<path d="M74164 18966
L74070 19004
L73976 18966
" />
<path d="M74126 19079
L74070 19004
L74014 19079
" />
<path d="M73770 18910
L73770 19004
" />
<path d="M73864 18966
L73770 19004
L73676 18966
" />
<path d="M73826 19079
L73770 19004
L73714 19079
" />
<text x="74464" y="25346.9"
textLength="-14846.4" font-size="-524.934" lengthAdjust="spacingAndGlyphs"
text-anchor="middle" opacity="0">Symbol_CreativeCommons_CopperTop_Type2_Small</text>
<path d="M81850 25309
L81794 25328
L81700 25328
L81663 25309
L81644 25290
L81625 25253
L81625 25215
L81644 25178
L81663 25159
L81700 25140
L81775 25121
L81813 25103
L81831 25084
L81850 25046
L81850 25009
L81831 24971
L81813 24953
L81775 24934
L81681 24934
L81625 24953
" />
<path d="M81494 25065
L81400 25328
" />
<path d="M81306 25065
L81400 25328
L81438 25421
L81456 25440
L81494 25459
" />
<path d="M81156 25328
L81156 25065
" />
<path d="M81156 25103
L81138 25084
L81100 25065
L81044 25065
L81006 25084
L80988 25121
L80988 25328
" />
<path d="M80988 25121
L80969 25084
L80931 25065
L80875 25065
L80838 25084
L80819 25121
L80819 25328
" />
<path d="M80631 25328
L80631 24934
" />
<path d="M80631 25084
L80594 25065
L80519 25065
L80481 25084
L80463 25103
L80444 25140
L80444 25253
L80463 25290
L80481 25309
L80519 25328
L80594 25328
L80631 25309
" />
<path d="M80219 25328
L80257 25309
L80275 25290
L80294 25253
L80294 25140
L80275 25103
L80257 25084
L80219 25065
L80163 25065
L80125 25084
L80107 25103
L80088 25140
L80088 25253
L80107 25290
L80125 25309
L80163 25328
L80219 25328
" />
<path d="M79863 25328
L79900 25309
L79919 25271
L79919 24934
" />
<path d="M79807 25365
L79507 25365
" />
<path d="M79188 25290
L79207 25309
L79263 25328
L79300 25328
L79357 25309
L79394 25271
L79413 25234
L79432 25159
L79432 25103
L79413 25028
L79394 24990
L79357 24953
L79300 24934
L79263 24934
L79207 24953
L79188 24971
" />
<path d="M79019 25328
L79019 25065
" />
<path d="M79019 25140
L79000 25103
L78982 25084
L78944 25065
L78907 25065
" />
<path d="M78625 25309
L78663 25328
L78738 25328
L78775 25309
L78794 25271
L78794 25121
L78775 25084
L78738 25065
L78663 25065
L78625 25084
L78607 25121
L78607 25159
L78794 25196
" />
<path d="M78269 25328
L78269 25121
L78288 25084
L78326 25065
L78401 25065
L78438 25084
" />
<path d="M78269 25309
L78307 25328
L78401 25328
L78438 25309
L78457 25271
L78457 25234
L78438 25196
L78401 25178
L78307 25178
L78269 25159
" />
<path d="M78138 25065
L77988 25065
" />
<path d="M78082 24934
L78082 25271
L78063 25309
L78026 25328
L77988 25328
" />
<path d="M77857 25328
L77857 25065
" />
<path d="M77857 24934
L77876 24953
L77857 24971
L77838 24953
L77857 24934
L77857 24971
" />
<path d="M77707 25065
L77613 25328
L77519 25065
" />
<path d="M77219 25309
L77257 25328
L77332 25328
L77369 25309
L77388 25271
L77388 25121
L77369 25084
L77332 25065
L77257 25065
L77219 25084
L77201 25121
L77201 25159
L77388 25196
" />
<path d="M76807 25290
L76826 25309
L76882 25328
L76919 25328
L76976 25309
L77013 25271
L77032 25234
L77051 25159
L77051 25103
L77032 25028
L77013 24990
L76976 24953
L76919 24934
L76882 24934
L76826 24953
L76807 24971
" />
<path d="M76582 25328
L76619 25309
L76638 25290
L76657 25253
L76657 25140
L76638 25103
L76619 25084
L76582 25065
L76526 25065
L76488 25084
L76469 25103
L76451 25140
L76451 25253
L76469 25290
L76488 25309
L76526 25328
L76582 25328
" />
<path d="M76282 25328
L76282 25065
" />
<path d="M76282 25103
L76263 25084
L76226 25065
L76170 25065
L76132 25084
L76113 25121
L76113 25328
" />
<path d="M76113 25121
L76095 25084
L76057 25065
L76001 25065
L75963 25084
L75945 25121
L75945 25328
" />
<path d="M75757 25328
L75757 25065
" />
<path d="M75757 25103
L75738 25084
L75701 25065
L75645 25065
L75607 25084
L75588 25121
L75588 25328
" />
<path d="M75588 25121
L75570 25084
L75532 25065
L75476 25065
L75438 25084
L75420 25121
L75420 25328
" />
<path d="M75176 25328
L75213 25309
L75232 25290
L75251 25253
L75251 25140
L75232 25103
L75213 25084
L75176 25065
L75120 25065
L75082 25084
L75063 25103
L75045 25140
L75045 25253
L75063 25290
L75082 25309
L75120 25328
L75176 25328
" />
<path d="M74876 25065
L74876 25328
" />
<path d="M74876 25103
L74857 25084
L74820 25065
L74763 25065
L74726 25084
L74707 25121
L74707 25328
" />
<path d="M74538 25309
L74501 25328
L74426 25328
L74389 25309
L74370 25271
L74370 25253
L74389 25215
L74426 25196
L74482 25196
L74520 25178
L74538 25140
L74538 25121
L74520 25084
L74482 25065
L74426 25065
L74389 25084
" />
<path d="M74295 25365
L73995 25365
" />
<path d="M73676 25290
L73695 25309
L73751 25328
L73789 25328
L73845 25309
L73882 25271
L73901 25234
L73920 25159
L73920 25103
L73901 25028
L73882 24990
L73845 24953
L73789 24934
L73751 24934
L73695 24953
L73676 24971
" />
<path d="M73451 25328
L73489 25309
L73507 25290
L73526 25253
L73526 25140
L73507 25103
L73489 25084
L73451 25065
L73395 25065
L73357 25084
L73339 25103
L73320 25140
L73320 25253
L73339 25290
L73357 25309
L73395 25328
L73451 25328
" />
<path d="M73151 25065
L73151 25459
" />
<path d="M73151 25084
L73114 25065
L73039 25065
L73001 25084
L72982 25103
L72964 25140
L72964 25253
L72982 25290
L73001 25309
L73039 25328
L73114 25328
L73151 25309
" />
<path d="M72795 25065
L72795 25459
" />
<path d="M72795 25084
L72757 25065
L72682 25065
L72645 25084
L72626 25103
L72607 25140
L72607 25253
L72626 25290
L72645 25309
L72682 25328
L72757 25328
L72795 25309
" />
<path d="M72289 25309
L72326 25328
L72401 25328
L72439 25309
L72458 25271
L72458 25121
L72439 25084
L72401 25065
L72326 25065
L72289 25084
L72270 25121
L72270 25159
L72458 25196
" />
<path d="M72101 25328
L72101 25065
" />
<path d="M72101 25140
L72083 25103
L72064 25084
L72026 25065
L71989 25065
" />
<path d="M71914 24934
L71689 24934
" />
<path d="M71801 25328
L71801 24934
" />
<path d="M71501 25328
L71539 25309
L71558 25290
L71576 25253
L71576 25140
L71558 25103
L71539 25084
L71501 25065
L71445 25065
L71408 25084
L71389 25103
L71370 25140
L71370 25253
L71389 25290
L71408 25309
L71445 25328
L71501 25328
" />
<path d="M71201 25065
L71201 25459
" />
<path d="M71201 25084
L71164 25065
L71089 25065
L71051 25084
L71033 25103
L71014 25140
L71014 25253
L71033 25290
L71051 25309
L71089 25328
L71164 25328
L71201 25309
" />
<path d="M70939 25365
L70639 25365
" />
<path d="M70601 24934
L70377 24934
" />
<path d="M70489 25328
L70489 24934
" />
<path d="M70283 25065
L70189 25328
" />
<path d="M70095 25065
L70189 25328
L70227 25421
L70245 25440
L70283 25459
" />
<path d="M69945 25065
L69945 25459
" />
<path d="M69945 25084
L69908 25065
L69833 25065
L69795 25084
L69777 25103
L69758 25140
L69758 25253
L69777 25290
L69795 25309
L69833 25328
L69908 25328
L69945 25309
" />
<path d="M69439 25309
L69477 25328
L69552 25328
L69589 25309
L69608 25271
L69608 25121
L69589 25084
L69552 25065
L69477 25065
L69439 25084
L69420 25121
L69420 25159
L69608 25196
" />
<path d="M69270 24971
L69252 24953
L69214 24934
L69120 24934
L69083 24953
L69064 24971
L69045 25009
L69045 25046
L69064 25103
L69289 25328
L69045 25328
" />
<path d="M68970 25365
L68670 25365
" />
<path d="M68595 25309
L68539 25328
L68446 25328
L68408 25309
L68389 25290
L68371 25253
L68371 25215
L68389 25178
L68408 25159
L68446 25140
L68520 25121
L68558 25103
L68577 25084
L68595 25046
L68595 25009
L68577 24971
L68558 24953
L68520 24934
L68427 24934
L68371 24953
" />
<path d="M68202 25328
L68202 25065
" />
<path d="M68202 25103
L68183 25084
L68146 25065
L68089 25065
L68052 25084
L68033 25121
L68033 25328
" />
<path d="M68033 25121
L68014 25084
L67977 25065
L67921 25065
L67883 25084
L67864 25121
L67864 25328
" />
<path d="M67508 25328
L67508 25121
L67527 25084
L67564 25065
L67639 25065
L67677 25084
" />
<path d="M67508 25309
L67546 25328
L67639 25328
L67677 25309
L67696 25271
L67696 25234
L67677 25196
L67639 25178
L67546 25178
L67508 25159
" />
<path d="M67264 25328
L67302 25309
L67321 25271
L67321 24934
" />
<path d="M67058 25328
L67096 25309
L67114 25271
L67114 24934
" />
<text x="76864" y="19222.9"
textLength="-1610.52" font-size="-524.934" lengthAdjust="spacingAndGlyphs"
text-anchor="middle" opacity="0">REF**</text>
<path d="M77388 19204
L77520 19016
" />
<path d="M77613 19204
L77613 18810
L77463 18810
L77426 18829
L77407 18847
L77388 18885
L77388 18941
L77407 18979
L77426 18997
L77463 19016
L77613 19016
" />
<path d="M77220 18997
L77088 18997
" />
<path d="M77032 19204
L77220 19204
L77220 18810
L77032 18810
" />
<path d="M76732 18997
L76864 18997
" />
<path d="M76864 19204
L76864 18810
L76676 18810
" />
<path d="M76470 18810
L76470 18904
" />
<path d="M76564 18866
L76470 18904
L76376 18866
" />
<path d="M76526 18979
L76470 18904
L76414 18979
" />
<path d="M76170 18810
L76170 18904
" />
<path d="M76264 18866
L76170 18904
L76076 18866
" />
<path d="M76226 18979
L76170 18904
L76114 18979
" />
<text x="76864" y="25246.9"
textLength="-11996.7" font-size="-524.934" lengthAdjust="spacingAndGlyphs"
text-anchor="middle" opacity="0">Symbol_CC-Attribution_CopperTop_Small</text>
<path d="M82825 25209
L82769 25228
L82675 25228
L82638 25209
L82619 25190
L82600 25153
L82600 25115
L82619 25078
L82638 25059
L82675 25040
L82750 25021
L82788 25003
L82807 24984
L82825 24946
L82825 24909
L82807 24871
L82788 24853
L82750 24834
L82657 24834
L82600 24853
" />
<path d="M82469 24965
L82375 25228
" />
<path d="M82282 24965
L82375 25228
L82413 25321
L82432 25340
L82469 25359
" />
<path d="M82132 25228
L82132 24965
" />
<path d="M82132 25003
L82113 24984
L82075 24965
L82019 24965
L81982 24984
L81963 25021
L81963 25228
" />
<path d="M81963 25021
L81944 24984
L81907 24965
L81850 24965
L81813 24984
L81794 25021
L81794 25228
" />
<path d="M81607 25228
L81607 24834
" />
<path d="M81607 24984
L81569 24965
L81494 24965
L81457 24984
L81438 25003
L81419 25040
L81419 25153
L81438 25190
L81457 25209
L81494 25228
L81569 25228
L81607 25209
" />
<path d="M81194 25228
L81232 25209
L81250 25190
L81269 25153
L81269 25040
L81250 25003
L81232 24984
L81194 24965
L81138 24965
L81100 24984
L81082 25003
L81063 25040
L81063 25153
L81082 25190
L81100 25209
L81138 25228
L81194 25228
" />
<path d="M80838 25228
L80875 25209
L80894 25171
L80894 24834
" />
<path d="M80782 25265
L80482 25265
" />
<path d="M80163 25190
L80182 25209
L80238 25228
L80276 25228
L80332 25209
L80369 25171
L80388 25134
L80407 25059
L80407 25003
L80388 24928
L80369 24890
L80332 24853
L80276 24834
L80238 24834
L80182 24853
L80163 24871
" />
<path d="M79769 25190
L79788 25209
L79844 25228
L79882 25228
L79938 25209
L79976 25171
L79994 25134
L80013 25059
L80013 25003
L79994 24928
L79976 24890
L79938 24853
L79882 24834
L79844 24834
L79788 24853
L79769 24871
" />
<path d="M79601 25078
L79301 25078
" />
<path d="M79132 25115
L78944 25115
" />
<path d="M79169 25228
L79038 24834
L78907 25228
" />
<path d="M78832 24965
L78682 24965
" />
<path d="M78776 24834
L78776 25171
L78757 25209
L78720 25228
L78682 25228
" />
<path d="M78607 24965
L78457 24965
" />
<path d="M78551 24834
L78551 25171
L78532 25209
L78495 25228
L78457 25228
" />
<path d="M78326 25228
L78326 24965
" />
<path d="M78326 25040
L78307 25003
L78288 24984
L78251 24965
L78213 24965
" />
<path d="M78082 25228
L78082 24965
" />
<path d="M78082 24834
L78101 24853
L78082 24871
L78063 24853
L78082 24834
L78082 24871
" />
<path d="M77895 25228
L77895 24834
" />
<path d="M77895 24984
L77857 24965
L77782 24965
L77745 24984
L77726 25003
L77707 25040
L77707 25153
L77726 25190
L77745 25209
L77782 25228
L77857 25228
L77895 25209
" />
<path d="M77370 24965
L77370 25228
" />
<path d="M77538 24965
L77538 25171
L77520 25209
L77482 25228
L77426 25228
L77388 25209
L77370 25190
" />
<path d="M77238 24965
L77088 24965
" />
<path d="M77182 24834
L77182 25171
L77163 25209
L77126 25228
L77088 25228
" />
<path d="M76957 25228
L76957 24965
" />
<path d="M76957 24834
L76976 24853
L76957 24871
L76938 24853
L76957 24834
L76957 24871
" />
<path d="M76714 25228
L76751 25209
L76770 25190
L76789 25153
L76789 25040
L76770 25003
L76751 24984
L76714 24965
L76657 24965
L76620 24984
L76601 25003
L76582 25040
L76582 25153
L76601 25190
L76620 25209
L76657 25228
L76714 25228
" />
<path d="M76414 24965
L76414 25228
" />
<path d="M76414 25003
L76395 24984
L76357 24965
L76301 24965
L76264 24984
L76245 25021
L76245 25228
" />
<path d="M76151 25265
L75851 25265
" />
<path d="M75532 25190
L75551 25209
L75607 25228
L75645 25228
L75701 25209
L75739 25171
L75757 25134
L75776 25059
L75776 25003
L75757 24928
L75739 24890
L75701 24853
L75645 24834
L75607 24834
L75551 24853
L75532 24871
" />
<path d="M75307 25228
L75345 25209
L75364 25190
L75382 25153
L75382 25040
L75364 25003
L75345 24984
L75307 24965
L75251 24965
L75214 24984
L75195 25003
L75176 25040
L75176 25153
L75195 25190
L75214 25209
L75251 25228
L75307 25228
" />
<path d="M75007 24965
L75007 25359
" />
<path d="M75007 24984
L74970 24965
L74895 24965
L74858 24984
L74839 25003
L74820 25040
L74820 25153
L74839 25190
L74858 25209
L74895 25228
L74970 25228
L75007 25209
" />
<path d="M74651 24965
L74651 25359
" />
<path d="M74651 24984
L74614 24965
L74539 24965
L74501 24984
L74483 25003
L74464 25040
L74464 25153
L74483 25190
L74501 25209
L74539 25228
L74614 25228
L74651 25209
" />
<path d="M74145 25209
L74183 25228
L74258 25228
L74295 25209
L74314 25171
L74314 25021
L74295 24984
L74258 24965
L74183 24965
L74145 24984
L74126 25021
L74126 25059
L74314 25096
" />
<path d="M73958 25228
L73958 24965
" />
<path d="M73958 25040
L73939 25003
L73920 24984
L73883 24965
L73845 24965
" />
<path d="M73770 24834
L73545 24834
" />
<path d="M73658 25228
L73658 24834
" />
<path d="M73358 25228
L73395 25209
L73414 25190
L73433 25153
L73433 25040
L73414 25003
L73395 24984
L73358 24965
L73301 24965
L73264 24984
L73245 25003
L73226 25040
L73226 25153
L73245 25190
L73264 25209
L73301 25228
L73358 25228
" />
<path d="M73058 24965
L73058 25359
" />
<path d="M73058 24984
L73020 24965
L72945 24965
L72908 24984
L72889 25003
L72870 25040
L72870 25153
L72889 25190
L72908 25209
L72945 25228
L73020 25228
L73058 25209
" />
<path d="M72795 25265
L72495 25265
" />
<path d="M72420 25209
L72364 25228
L72270 25228
L72233 25209
L72214 25190
L72195 25153
L72195 25115
L72214 25078
L72233 25059
L72270 25040
L72345 25021
L72383 25003
L72402 24984
L72420 24946
L72420 24909
L72402 24871
L72383 24853
L72345 24834
L72252 24834
L72195 24853
" />
<path d="M72027 25228
L72027 24965
" />
<path d="M72027 25003
L72008 24984
L71970 24965
L71914 24965
L71877 24984
L71858 25021
L71858 25228
" />
<path d="M71858 25021
L71839 24984
L71802 24965
L71745 24965
L71708 24984
L71689 25021
L71689 25228
" />
<path d="M71333 25228
L71333 25021
L71352 24984
L71389 24965
L71464 24965
L71502 24984
" />
<path d="M71333 25209
L71370 25228
L71464 25228
L71502 25209
L71520 25171
L71520 25134
L71502 25096
L71464 25078
L71370 25078
L71333 25059
" />
<path d="M71089 25228
L71127 25209
L71145 25171
L71145 24834
" />
<path d="M70883 25228
L70920 25209
L70939 25171
L70939 24834
" />
<text x="79836" y="24970.9"
textLength="-1610.52" font-size="-524.934" lengthAdjust="spacingAndGlyphs"
text-anchor="middle" opacity="0">REF**</text>
<path d="M80360 24952
L80492 24764
" />
<path d="M80585 24952
L80585 24558
L80435 24558
L80398 24577
L80379 24595
L80360 24633
L80360 24689
L80379 24727
L80398 24745
L80435 24764
L80585 24764
" />
<path d="M80192 24745
L80060 24745
" />
<path d="M80004 24952
L80192 24952
L80192 24558
L80004 24558
" />
<path d="M79704 24745
L79836 24745
" />
<path d="M79836 24952
L79836 24558
L79648 24558
" />
<path d="M79442 24558
L79442 24652
" />
<path d="M79536 24614
L79442 24652
L79348 24614
" />
<path d="M79498 24727
L79442 24652
L79386 24727
" />
<path d="M79142 24558
L79142 24652
" />
<path d="M79236 24614
L79142 24652
L79048 24614
" />
<path d="M79198 24727
L79142 24652
L79086 24727
" />
<text x="79836" y="18946.9"
textLength="-11996.7" font-size="-524.934" lengthAdjust="spacingAndGlyphs"
text-anchor="middle" opacity="0">Symbol_CC-ShareAlike_CopperTop_Small</text>
<path d="M85797 18909
L85741 18928
L85647 18928
L85610 18909
L85591 18890
L85572 18853
L85572 18815
L85591 18778
L85610 18759
L85647 18740
L85722 18721
L85760 18703
L85779 18684
L85797 18646
L85797 18609
L85779 18571
L85760 18553
L85722 18534
L85629 18534
L85572 18553
" />
<path d="M85441 18665
L85347 18928
" />
<path d="M85254 18665
L85347 18928
L85385 19021
L85404 19040
L85441 19059
" />
<path d="M85104 18928
L85104 18665
" />
<path d="M85104 18703
L85085 18684
L85047 18665
L84991 18665
L84954 18684
L84935 18721
L84935 18928
" />
<path d="M84935 18721
L84916 18684
L84879 18665
L84822 18665
L84785 18684
L84766 18721
L84766 18928
" />
<path d="M84579 18928
L84579 18534
" />
<path d="M84579 18684
L84541 18665
L84466 18665
L84429 18684
L84410 18703
L84391 18740
L84391 18853
L84410 18890
L84429 18909
L84466 18928
L84541 18928
L84579 18909
" />
<path d="M84166 18928
L84204 18909
L84222 18890
L84241 18853
L84241 18740
L84222 18703
L84204 18684
L84166 18665
L84110 18665
L84072 18684
L84054 18703
L84035 18740
L84035 18853
L84054 18890
L84072 18909
L84110 18928
L84166 18928
" />
<path d="M83810 18928
L83847 18909
L83866 18871
L83866 18534
" />
<path d="M83754 18965
L83454 18965
" />
<path d="M83135 18890
L83154 18909
L83210 18928
L83248 18928
L83304 18909
L83341 18871
L83360 18834
L83379 18759
L83379 18703
L83360 18628
L83341 18590
L83304 18553
L83248 18534
L83210 18534
L83154 18553
L83135 18571
" />
<path d="M82741 18890
L82760 18909
L82816 18928
L82854 18928
L82910 18909
L82948 18871
L82966 18834
L82985 18759
L82985 18703
L82966 18628
L82948 18590
L82910 18553
L82854 18534
L82816 18534
L82760 18553
L82741 18571
" />
<path d="M82573 18778
L82273 18778
" />
<path d="M82104 18909
L82048 18928
L81954 18928
L81916 18909
L81898 18890
L81879 18853
L81879 18815
L81898 18778
L81916 18759
L81954 18740
L82029 18721
L82066 18703
L82085 18684
L82104 18646
L82104 18609
L82085 18571
L82066 18553
L82029 18534
L81935 18534
L81879 18553
" />
<path d="M81710 18928
L81710 18534
" />
<path d="M81542 18928
L81542 18721
L81560 18684
L81598 18665
L81654 18665
L81692 18684
L81710 18703
" />
<path d="M81185 18928
L81185 18721
L81204 18684
L81242 18665
L81317 18665
L81354 18684
" />
<path d="M81185 18909
L81223 18928
L81317 18928
L81354 18909
L81373 18871
L81373 18834
L81354 18796
L81317 18778
L81223 18778
L81185 18759
" />
<path d="M80998 18928
L80998 18665
" />
<path d="M80998 18740
L80979 18703
L80960 18684
L80923 18665
L80885 18665
" />
<path d="M80604 18909
L80642 18928
L80717 18928
L80754 18909
L80773 18871
L80773 18721
L80754 18684
L80717 18665
L80642 18665
L80604 18684
L80585 18721
L80585 18759
L80773 18796
" />
<path d="M80435 18815
L80248 18815
" />
<path d="M80473 18928
L80342 18534
L80210 18928
" />
<path d="M80023 18928
L80060 18909
L80079 18871
L80079 18534
" />
<path d="M79873 18928
L79873 18665
" />
<path d="M79873 18534
L79892 18553
L79873 18571
L79854 18553
L79873 18534
L79873 18571
" />
<path d="M79686 18928
L79686 18534
" />
<path d="M79648 18778
L79536 18928
" />
<path d="M79536 18665
L79686 18815
" />
<path d="M79217 18909
L79254 18928
L79329 18928
L79367 18909
L79386 18871
L79386 18721
L79367 18684
L79329 18665
L79254 18665
L79217 18684
L79198 18721
L79198 18759
L79386 18796
" />
<path d="M79123 18965
L78823 18965
" />
<path d="M78504 18890
L78523 18909
L78579 18928
L78617 18928
L78673 18909
L78711 18871
L78729 18834
L78748 18759
L78748 18703
L78729 18628
L78711 18590
L78673 18553
L78617 18534
L78579 18534
L78523 18553
L78504 18571
" />
<path d="M78279 18928
L78317 18909
L78336 18890
L78354 18853
L78354 18740
L78336 18703
L78317 18684
L78279 18665
L78223 18665
L78186 18684
L78167 18703
L78148 18740
L78148 18853
L78167 18890
L78186 18909
L78223 18928
L78279 18928
" />
<path d="M77979 18665
L77979 19059
" />
<path d="M77979 18684
L77942 18665
L77867 18665
L77830 18684
L77811 18703
L77792 18740
L77792 18853
L77811 18890
L77830 18909
L77867 18928
L77942 18928
L77979 18909
" />
<path d="M77623 18665
L77623 19059
" />
<path d="M77623 18684
L77586 18665
L77511 18665
L77473 18684
L77455 18703
L77436 18740
L77436 18853
L77455 18890
L77473 18909
L77511 18928
L77586 18928
L77623 18909
" />
<path d="M77117 18909
L77155 18928
L77230 18928
L77267 18909
L77286 18871
L77286 18721
L77267 18684
L77230 18665
L77155 18665
L77117 18684
L77098 18721
L77098 18759
L77286 18796
" />
<path d="M76930 18928
L76930 18665
" />
<path d="M76930 18740
L76911 18703
L76892 18684
L76855 18665
L76817 18665
" />
<path d="M76742 18534
L76517 18534
" />
<path d="M76630 18928
L76630 18534
" />
<path d="M76330 18928
L76367 18909
L76386 18890
L76405 18853
L76405 18740
L76386 18703
L76367 18684
L76330 18665
L76273 18665
L76236 18684
L76217 18703
L76198 18740
L76198 18853
L76217 18890
L76236 18909
L76273 18928
L76330 18928
" />
<path d="M76030 18665
L76030 19059
" />
<path d="M76030 18684
L75992 18665
L75917 18665
L75880 18684
L75861 18703
L75842 18740
L75842 18853
L75861 18890
L75880 18909
L75917 18928
L75992 18928
L76030 18909
" />
<path d="M75767 18965
L75467 18965
" />
<path d="M75392 18909
L75336 18928
L75242 18928
L75205 18909
L75186 18890
L75167 18853
L75167 18815
L75186 18778
L75205 18759
L75242 18740
L75317 18721
L75355 18703
L75374 18684
L75392 18646
L75392 18609
L75374 18571
L75355 18553
L75317 18534
L75224 18534
L75167 18553
" />
<path d="M74999 18928
L74999 18665
" />
<path d="M74999 18703
L74980 18684
L74942 18665
L74886 18665
L74849 18684
L74830 18721
L74830 18928
" />
<path d="M74830 18721
L74811 18684
L74774 18665
L74717 18665
L74680 18684
L74661 18721
L74661 18928
" />
<path d="M74305 18928
L74305 18721
L74324 18684
L74361 18665
L74436 18665
L74474 18684
" />
<path d="M74305 18909
L74342 18928
L74436 18928
L74474 18909
L74492 18871
L74492 18834
L74474 18796
L74436 18778
L74342 18778
L74305 18759
" />
<path d="M74061 18928
L74099 18909
L74117 18871
L74117 18534
" />
<path d="M73855 18928
L73892 18909
L73911 18871
L73911 18534
" />
<g >
</g>
</g>
<g style="fill:#000000; fill-opacity:0.0; 
stroke:#000000; stroke-width:59.0551; stroke-opacity:1; 
stroke-linecap:round; stroke-linejoin:round;">
</g>
<g style="fill:#000000; fill-opacity:0.0; 
stroke:#000000; stroke-width:19.685; stroke-opacity:1; 
stroke-linecap:round; stroke-linejoin:round;">
<path d="M81700 18700 A1800 1800 0.0 0 0 79900 16900 " />
<path d="M79900 28800 A1800 1800 0.0 0 0 81700 27000 " />
<path d="M69800 27000 A1800 1800 0.0 0 0 71600 28800 " />
<path d="M71600 16900 A1800 1800 0.0 0 0 69800 18700 " />
<path d="M79900 16900
L71600 16900
" />
<path d="M81700 27000
L81700 18700
" />
<path d="M71600 28800
L79900 28800
" />
<path d="M69800 18700
L69800 27000
" />
<g >
</g>
<g >
</g>
<g >
</g>
<g >
</g>
<g >
</g>
<g >
</g>
<g >
</g>
<g >
</g>
<g >
</g>
<g >
</g>
<g >
</g>
<g >
</g>
<g >
</g>
<g >
</g>
<g >
</g>
<g >
</g>
<g >
</g>
<g >
</g>
<g >
</g>
</g> 
</svg>
