<?xml version="1.0" standalone="no"?>
 <!DOCTYPE svg PUBLIC "-//W3C//DTD SVG 1.1//EN" 
 "http://www.w3.org/Graphics/SVG/1.1/DTD/svg11.dtd"> 
<svg xmlns="http://www.w3.org/2000/svg" version="1.1" 
    width="29.7002cm" height="21.0007cm" viewBox="0 0 116930 82680 ">
<title>SVG Picture created as v2-F_Paste.svg date 2020/05/09 15:22:17 </title>
  <desc>Picture generated by PCBNEW </desc>
<g style="fill:#000000; fill-opacity:1;stroke:#000000; stroke-opacity:1;
stroke-linecap:round; stroke-linejoin:round; "
 transform="translate(0 0) scale(1 1)">
</g>
<g style="fill:#000000; fill-opacity:0.0; 
stroke:#000000; stroke-width:-0.000393701; stroke-opacity:1; 
stroke-linecap:round; stroke-linejoin:round;">
</g>
<g style="fill:#000000; fill-opacity:0.0; 
stroke:#000000; stroke-width:39.3701; stroke-opacity:1; 
stroke-linecap:round; stroke-linejoin:round;">
</g>
<g style="fill:#000000; fill-opacity:0.0; 
stroke:#000000; stroke-width:59.0551; stroke-opacity:1; 
stroke-linecap:round; stroke-linejoin:round;">
<rect x="69685.9" y="65357.2" width="42519.7" height="12598.4" rx="0" />
</g>
<g style="fill:#000000; fill-opacity:0.0; 
stroke:#000000; stroke-width:39.3701; stroke-opacity:1; 
stroke-linecap:round; stroke-linejoin:round;">
</g>
<g style="fill:#000000; fill-opacity:0.0; 
stroke:#000000; stroke-width:59.0551; stroke-opacity:1; 
stroke-linecap:round; stroke-linejoin:round;">
<rect x="3937.01" y="3937.01" width="109056" height="74806" rx="0" />
</g>
<g style="fill:#000000; fill-opacity:0.0; 
stroke:#000000; stroke-width:39.3701; stroke-opacity:1; 
stroke-linecap:round; stroke-linejoin:round;">
</g>
<g style="fill:#000000; fill-opacity:0.0; 
stroke:#000000; stroke-width:59.0551; stroke-opacity:1; 
stroke-linecap:round; stroke-linejoin:round;">
<rect x="4724.41" y="4724.41" width="107481" height="73231.2" rx="0" />
</g>
<g style="fill:#000000; fill-opacity:0.0; 
stroke:#000000; stroke-width:39.3701; stroke-opacity:1; 
stroke-linecap:round; stroke-linejoin:round;">
</g>
<g style="fill:#000000; fill-opacity:0.0; 
stroke:#000000; stroke-width:59.0551; stroke-opacity:1; 
stroke-linecap:round; stroke-linejoin:round;">
<path d="M23622 4724
L23622 3937
" />
</g>
<g style="fill:#000000; fill-opacity:0.0; 
stroke:#000000; stroke-width:39.3701; stroke-opacity:1; 
stroke-linecap:round; stroke-linejoin:round;">
</g>
<g style="fill:#000000; fill-opacity:0.0; 
stroke:#000000; stroke-width:59.0551; stroke-opacity:1; 
stroke-linecap:round; stroke-linejoin:round;">
<path d="M43307 4724
L43307 3937
" />
</g>
<g style="fill:#000000; fill-opacity:0.0; 
stroke:#000000; stroke-width:39.3701; stroke-opacity:1; 
stroke-linecap:round; stroke-linejoin:round;">
</g>
<g style="fill:#000000; fill-opacity:0.0; 
stroke:#000000; stroke-width:59.0551; stroke-opacity:1; 
stroke-linecap:round; stroke-linejoin:round;">
<path d="M62992 4724
L62992 3937
" />
</g>
<g style="fill:#000000; fill-opacity:0.0; 
stroke:#000000; stroke-width:39.3701; stroke-opacity:1; 
stroke-linecap:round; stroke-linejoin:round;">
</g>
<g style="fill:#000000; fill-opacity:0.0; 
stroke:#000000; stroke-width:59.0551; stroke-opacity:1; 
stroke-linecap:round; stroke-linejoin:round;">
<path d="M82677 4724
L82677 3937
" />
</g>
<g style="fill:#000000; fill-opacity:0.0; 
stroke:#000000; stroke-width:39.3701; stroke-opacity:1; 
stroke-linecap:round; stroke-linejoin:round;">
</g>
<g style="fill:#000000; fill-opacity:0.0; 
stroke:#000000; stroke-width:59.0551; stroke-opacity:1; 
stroke-linecap:round; stroke-linejoin:round;">
<path d="M102362 4724
L102362 3937
" />
</g>
<g style="fill:#000000; fill-opacity:0.0; 
stroke:#000000; stroke-width:39.3701; stroke-opacity:1; 
stroke-linecap:round; stroke-linejoin:round;">
</g>
<g style="fill:#000000; fill-opacity:0.0; 
stroke:#000000; stroke-width:59.0551; stroke-opacity:1; 
stroke-linecap:round; stroke-linejoin:round;">
<text x="13779.5" y="4586.61"
textLength="546.494" font-size="682.415" lengthAdjust="spacingAndGlyphs"
text-anchor="start" opacity="0">1</text>
<path d="M14199 4562
L13906 4562
" />
<path d="M14052 4562
L14052 4050
L14004 4123
L13955 4172
L13906 4196
" />
</g>
<g style="fill:#000000; fill-opacity:0.0; 
stroke:#000000; stroke-width:39.3701; stroke-opacity:1; 
stroke-linecap:round; stroke-linejoin:round;">
</g>
<g style="fill:#000000; fill-opacity:0.0; 
stroke:#000000; stroke-width:59.0551; stroke-opacity:1; 
stroke-linecap:round; stroke-linejoin:round;">
<text x="33464.6" y="4586.61"
textLength="546.494" font-size="682.415" lengthAdjust="spacingAndGlyphs"
text-anchor="start" opacity="0">2</text>
<path d="M33591 4099
L33615 4074
L33664 4050
L33786 4050
L33835 4074
L33859 4099
L33884 4147
L33884 4196
L33859 4269
L33567 4562
L33884 4562
" />
</g>
<g style="fill:#000000; fill-opacity:0.0; 
stroke:#000000; stroke-width:39.3701; stroke-opacity:1; 
stroke-linecap:round; stroke-linejoin:round;">
</g>
<g style="fill:#000000; fill-opacity:0.0; 
stroke:#000000; stroke-width:59.0551; stroke-opacity:1; 
stroke-linecap:round; stroke-linejoin:round;">
<text x="53149.6" y="4586.61"
textLength="546.494" font-size="682.415" lengthAdjust="spacingAndGlyphs"
text-anchor="start" opacity="0">3</text>
<path d="M53252 4050
L53569 4050
L53398 4245
L53471 4245
L53520 4269
L53544 4294
L53569 4342
L53569 4464
L53544 4513
L53520 4537
L53471 4562
L53325 4562
L53276 4537
L53252 4513
" />
</g>
<g style="fill:#000000; fill-opacity:0.0; 
stroke:#000000; stroke-width:39.3701; stroke-opacity:1; 
stroke-linecap:round; stroke-linejoin:round;">
</g>
<g style="fill:#000000; fill-opacity:0.0; 
stroke:#000000; stroke-width:59.0551; stroke-opacity:1; 
stroke-linecap:round; stroke-linejoin:round;">
<text x="72834.6" y="4586.61"
textLength="546.494" font-size="682.415" lengthAdjust="spacingAndGlyphs"
text-anchor="start" opacity="0">4</text>
<path d="M73205 4221
L73205 4562
" />
<path d="M73083 4026
L72961 4391
L73278 4391
" />
</g>
<g style="fill:#000000; fill-opacity:0.0; 
stroke:#000000; stroke-width:39.3701; stroke-opacity:1; 
stroke-linecap:round; stroke-linejoin:round;">
</g>
<g style="fill:#000000; fill-opacity:0.0; 
stroke:#000000; stroke-width:59.0551; stroke-opacity:1; 
stroke-linecap:round; stroke-linejoin:round;">
<text x="92519.7" y="4586.61"
textLength="546.494" font-size="682.415" lengthAdjust="spacingAndGlyphs"
text-anchor="start" opacity="0">5</text>
<path d="M92914 4050
L92671 4050
L92646 4294
L92671 4269
L92719 4245
L92841 4245
L92890 4269
L92914 4294
L92939 4342
L92939 4464
L92914 4513
L92890 4537
L92841 4562
L92719 4562
L92671 4537
L92646 4513
" />
</g>
<g style="fill:#000000; fill-opacity:0.0; 
stroke:#000000; stroke-width:39.3701; stroke-opacity:1; 
stroke-linecap:round; stroke-linejoin:round;">
</g>
<g style="fill:#000000; fill-opacity:0.0; 
stroke:#000000; stroke-width:59.0551; stroke-opacity:1; 
stroke-linecap:round; stroke-linejoin:round;">
<text x="112205" y="4586.61"
textLength="546.494" font-size="682.415" lengthAdjust="spacingAndGlyphs"
text-anchor="start" opacity="0">6</text>
<path d="M112575 4050
L112477 4050
L112429 4074
L112404 4099
L112356 4172
L112331 4269
L112331 4464
L112356 4513
L112380 4537
L112429 4562
L112526 4562
L112575 4537
L112599 4513
L112624 4464
L112624 4342
L112599 4294
L112575 4269
L112526 4245
L112429 4245
L112380 4269
L112356 4294
L112331 4342
" />
</g>
<g style="fill:#000000; fill-opacity:0.0; 
stroke:#000000; stroke-width:39.3701; stroke-opacity:1; 
stroke-linecap:round; stroke-linejoin:round;">
</g>
<g style="fill:#000000; fill-opacity:0.0; 
stroke:#000000; stroke-width:59.0551; stroke-opacity:1; 
stroke-linecap:round; stroke-linejoin:round;">
<path d="M23622 77955
L23622 78742
" />
</g>
<g style="fill:#000000; fill-opacity:0.0; 
stroke:#000000; stroke-width:39.3701; stroke-opacity:1; 
stroke-linecap:round; stroke-linejoin:round;">
</g>
<g style="fill:#000000; fill-opacity:0.0; 
stroke:#000000; stroke-width:59.0551; stroke-opacity:1; 
stroke-linecap:round; stroke-linejoin:round;">
<path d="M43307 77955
L43307 78742
" />
</g>
<g style="fill:#000000; fill-opacity:0.0; 
stroke:#000000; stroke-width:39.3701; stroke-opacity:1; 
stroke-linecap:round; stroke-linejoin:round;">
</g>
<g style="fill:#000000; fill-opacity:0.0; 
stroke:#000000; stroke-width:59.0551; stroke-opacity:1; 
stroke-linecap:round; stroke-linejoin:round;">
<path d="M62992 77955
L62992 78742
" />
</g>
<g style="fill:#000000; fill-opacity:0.0; 
stroke:#000000; stroke-width:39.3701; stroke-opacity:1; 
stroke-linecap:round; stroke-linejoin:round;">
</g>
<g style="fill:#000000; fill-opacity:0.0; 
stroke:#000000; stroke-width:59.0551; stroke-opacity:1; 
stroke-linecap:round; stroke-linejoin:round;">
<path d="M82677 77955
L82677 78742
" />
</g>
<g style="fill:#000000; fill-opacity:0.0; 
stroke:#000000; stroke-width:39.3701; stroke-opacity:1; 
stroke-linecap:round; stroke-linejoin:round;">
</g>
<g style="fill:#000000; fill-opacity:0.0; 
stroke:#000000; stroke-width:59.0551; stroke-opacity:1; 
stroke-linecap:round; stroke-linejoin:round;">
<path d="M102362 77955
L102362 78742
" />
</g>
<g style="fill:#000000; fill-opacity:0.0; 
stroke:#000000; stroke-width:39.3701; stroke-opacity:1; 
stroke-linecap:round; stroke-linejoin:round;">
</g>
<g style="fill:#000000; fill-opacity:0.0; 
stroke:#000000; stroke-width:59.0551; stroke-opacity:1; 
stroke-linecap:round; stroke-linejoin:round;">
<text x="13779.5" y="78605.2"
textLength="546.494" font-size="682.415" lengthAdjust="spacingAndGlyphs"
text-anchor="start" opacity="0">1</text>
<path d="M14199 78580
L13906 78580
" />
<path d="M14052 78580
L14052 78069
L14004 78142
L13955 78190
L13906 78215
" />
</g>
<g style="fill:#000000; fill-opacity:0.0; 
stroke:#000000; stroke-width:39.3701; stroke-opacity:1; 
stroke-linecap:round; stroke-linejoin:round;">
</g>
<g style="fill:#000000; fill-opacity:0.0; 
stroke:#000000; stroke-width:59.0551; stroke-opacity:1; 
stroke-linecap:round; stroke-linejoin:round;">
<text x="33464.6" y="78605.2"
textLength="546.494" font-size="682.415" lengthAdjust="spacingAndGlyphs"
text-anchor="start" opacity="0">2</text>
<path d="M33591 78117
L33615 78093
L33664 78069
L33786 78069
L33835 78093
L33859 78117
L33884 78166
L33884 78215
L33859 78288
L33567 78580
L33884 78580
" />
</g>
<g style="fill:#000000; fill-opacity:0.0; 
stroke:#000000; stroke-width:39.3701; stroke-opacity:1; 
stroke-linecap:round; stroke-linejoin:round;">
</g>
<g style="fill:#000000; fill-opacity:0.0; 
stroke:#000000; stroke-width:59.0551; stroke-opacity:1; 
stroke-linecap:round; stroke-linejoin:round;">
<text x="53149.6" y="78605.2"
textLength="546.494" font-size="682.415" lengthAdjust="spacingAndGlyphs"
text-anchor="start" opacity="0">3</text>
<path d="M53252 78069
L53569 78069
L53398 78263
L53471 78263
L53520 78288
L53544 78312
L53569 78361
L53569 78483
L53544 78532
L53520 78556
L53471 78580
L53325 78580
L53276 78556
L53252 78532
" />
</g>
<g style="fill:#000000; fill-opacity:0.0; 
stroke:#000000; stroke-width:39.3701; stroke-opacity:1; 
stroke-linecap:round; stroke-linejoin:round;">
</g>
<g style="fill:#000000; fill-opacity:0.0; 
stroke:#000000; stroke-width:59.0551; stroke-opacity:1; 
stroke-linecap:round; stroke-linejoin:round;">
<text x="72834.6" y="78605.2"
textLength="546.494" font-size="682.415" lengthAdjust="spacingAndGlyphs"
text-anchor="start" opacity="0">4</text>
<path d="M73205 78239
L73205 78580
" />
<path d="M73083 78044
L72961 78410
L73278 78410
" />
</g>
<g style="fill:#000000; fill-opacity:0.0; 
stroke:#000000; stroke-width:39.3701; stroke-opacity:1; 
stroke-linecap:round; stroke-linejoin:round;">
</g>
<g style="fill:#000000; fill-opacity:0.0; 
stroke:#000000; stroke-width:59.0551; stroke-opacity:1; 
stroke-linecap:round; stroke-linejoin:round;">
<text x="92519.7" y="78605.2"
textLength="546.494" font-size="682.415" lengthAdjust="spacingAndGlyphs"
text-anchor="start" opacity="0">5</text>
<path d="M92914 78069
L92671 78069
L92646 78312
L92671 78288
L92719 78263
L92841 78263
L92890 78288
L92914 78312
L92939 78361
L92939 78483
L92914 78532
L92890 78556
L92841 78580
L92719 78580
L92671 78556
L92646 78532
" />
</g>
<g style="fill:#000000; fill-opacity:0.0; 
stroke:#000000; stroke-width:39.3701; stroke-opacity:1; 
stroke-linecap:round; stroke-linejoin:round;">
</g>
<g style="fill:#000000; fill-opacity:0.0; 
stroke:#000000; stroke-width:59.0551; stroke-opacity:1; 
stroke-linecap:round; stroke-linejoin:round;">
<text x="112205" y="78605.2"
textLength="546.494" font-size="682.415" lengthAdjust="spacingAndGlyphs"
text-anchor="start" opacity="0">6</text>
<path d="M112575 78069
L112477 78069
L112429 78093
L112404 78117
L112356 78190
L112331 78288
L112331 78483
L112356 78532
L112380 78556
L112429 78580
L112526 78580
L112575 78556
L112599 78532
L112624 78483
L112624 78361
L112599 78312
L112575 78288
L112526 78263
L112429 78263
L112380 78288
L112356 78312
L112331 78361
" />
</g>
<g style="fill:#000000; fill-opacity:0.0; 
stroke:#000000; stroke-width:39.3701; stroke-opacity:1; 
stroke-linecap:round; stroke-linejoin:round;">
</g>
<g style="fill:#000000; fill-opacity:0.0; 
stroke:#000000; stroke-width:59.0551; stroke-opacity:1; 
stroke-linecap:round; stroke-linejoin:round;">
<path d="M3937 23622
L4724 23622
" />
</g>
<g style="fill:#000000; fill-opacity:0.0; 
stroke:#000000; stroke-width:39.3701; stroke-opacity:1; 
stroke-linecap:round; stroke-linejoin:round;">
</g>
<g style="fill:#000000; fill-opacity:0.0; 
stroke:#000000; stroke-width:59.0551; stroke-opacity:1; 
stroke-linecap:round; stroke-linejoin:round;">
<path d="M3937 43307
L4724 43307
" />
</g>
<g style="fill:#000000; fill-opacity:0.0; 
stroke:#000000; stroke-width:39.3701; stroke-opacity:1; 
stroke-linecap:round; stroke-linejoin:round;">
</g>
<g style="fill:#000000; fill-opacity:0.0; 
stroke:#000000; stroke-width:59.0551; stroke-opacity:1; 
stroke-linecap:round; stroke-linejoin:round;">
<path d="M3937 62992
L4724 62992
" />
</g>
<g style="fill:#000000; fill-opacity:0.0; 
stroke:#000000; stroke-width:39.3701; stroke-opacity:1; 
stroke-linecap:round; stroke-linejoin:round;">
</g>
<g style="fill:#000000; fill-opacity:0.0; 
stroke:#000000; stroke-width:59.0551; stroke-opacity:1; 
stroke-linecap:round; stroke-linejoin:round;">
<text x="4330.71" y="14035.4"
textLength="497.75" font-size="682.415" lengthAdjust="spacingAndGlyphs"
text-anchor="middle" opacity="0">A</text>
<path d="M4208 13864
L4452 13864
" />
<path d="M4160 14011
L4330 13499
L4501 14011
" />
</g>
<g style="fill:#000000; fill-opacity:0.0; 
stroke:#000000; stroke-width:39.3701; stroke-opacity:1; 
stroke-linecap:round; stroke-linejoin:round;">
</g>
<g style="fill:#000000; fill-opacity:0.0; 
stroke:#000000; stroke-width:59.0551; stroke-opacity:1; 
stroke-linecap:round; stroke-linejoin:round;">
<text x="4330.71" y="33720.5"
textLength="570.866" font-size="682.415" lengthAdjust="spacingAndGlyphs"
text-anchor="middle" opacity="0">B</text>
<path d="M4367 33428
L4440 33452
L4464 33476
L4489 33525
L4489 33598
L4464 33647
L4440 33671
L4391 33696
L4196 33696
L4196 33184
L4367 33184
L4416 33208
L4440 33233
L4464 33281
L4464 33330
L4440 33379
L4416 33403
L4367 33428
L4196 33428
" />
</g>
<g style="fill:#000000; fill-opacity:0.0; 
stroke:#000000; stroke-width:39.3701; stroke-opacity:1; 
stroke-linecap:round; stroke-linejoin:round;">
</g>
<g style="fill:#000000; fill-opacity:0.0; 
stroke:#000000; stroke-width:59.0551; stroke-opacity:1; 
stroke-linecap:round; stroke-linejoin:round;">
<text x="4330.71" y="53405.5"
textLength="570.866" font-size="682.415" lengthAdjust="spacingAndGlyphs"
text-anchor="middle" opacity="0">C</text>
<path d="M4489 53332
L4464 53356
L4391 53381
L4342 53381
L4269 53356
L4221 53308
L4196 53259
L4172 53161
L4172 53088
L4196 52991
L4221 52942
L4269 52893
L4342 52869
L4391 52869
L4464 52893
L4489 52918
" />
</g>
<g style="fill:#000000; fill-opacity:0.0; 
stroke:#000000; stroke-width:39.3701; stroke-opacity:1; 
stroke-linecap:round; stroke-linejoin:round;">
</g>
<g style="fill:#000000; fill-opacity:0.0; 
stroke:#000000; stroke-width:59.0551; stroke-opacity:1; 
stroke-linecap:round; stroke-linejoin:round;">
<text x="4330.71" y="73090.6"
textLength="570.866" font-size="682.415" lengthAdjust="spacingAndGlyphs"
text-anchor="middle" opacity="0">D</text>
<path d="M4196 73066
L4196 72554
L4318 72554
L4391 72578
L4440 72627
L4464 72676
L4489 72773
L4489 72846
L4464 72944
L4440 72993
L4391 73041
L4318 73066
L4196 73066
" />
</g>
<g style="fill:#000000; fill-opacity:0.0; 
stroke:#000000; stroke-width:39.3701; stroke-opacity:1; 
stroke-linecap:round; stroke-linejoin:round;">
</g>
<g style="fill:#000000; fill-opacity:0.0; 
stroke:#000000; stroke-width:59.0551; stroke-opacity:1; 
stroke-linecap:round; stroke-linejoin:round;">
<path d="M112992 23622
L112205 23622
" />
</g>
<g style="fill:#000000; fill-opacity:0.0; 
stroke:#000000; stroke-width:39.3701; stroke-opacity:1; 
stroke-linecap:round; stroke-linejoin:round;">
</g>
<g style="fill:#000000; fill-opacity:0.0; 
stroke:#000000; stroke-width:59.0551; stroke-opacity:1; 
stroke-linecap:round; stroke-linejoin:round;">
<path d="M112992 43307
L112205 43307
" />
</g>
<g style="fill:#000000; fill-opacity:0.0; 
stroke:#000000; stroke-width:39.3701; stroke-opacity:1; 
stroke-linecap:round; stroke-linejoin:round;">
</g>
<g style="fill:#000000; fill-opacity:0.0; 
stroke:#000000; stroke-width:59.0551; stroke-opacity:1; 
stroke-linecap:round; stroke-linejoin:round;">
<path d="M112992 62992
L112205 62992
" />
</g>
<g style="fill:#000000; fill-opacity:0.0; 
stroke:#000000; stroke-width:39.3701; stroke-opacity:1; 
stroke-linecap:round; stroke-linejoin:round;">
</g>
<g style="fill:#000000; fill-opacity:0.0; 
stroke:#000000; stroke-width:59.0551; stroke-opacity:1; 
stroke-linecap:round; stroke-linejoin:round;">
<text x="112599" y="14035.4"
textLength="497.75" font-size="682.415" lengthAdjust="spacingAndGlyphs"
text-anchor="middle" opacity="0">A</text>
<path d="M112477 13864
L112721 13864
" />
<path d="M112428 14011
L112599 13499
L112769 14011
" />
</g>
<g style="fill:#000000; fill-opacity:0.0; 
stroke:#000000; stroke-width:39.3701; stroke-opacity:1; 
stroke-linecap:round; stroke-linejoin:round;">
</g>
<g style="fill:#000000; fill-opacity:0.0; 
stroke:#000000; stroke-width:59.0551; stroke-opacity:1; 
stroke-linecap:round; stroke-linejoin:round;">
<text x="112599" y="33720.5"
textLength="570.866" font-size="682.415" lengthAdjust="spacingAndGlyphs"
text-anchor="middle" opacity="0">B</text>
<path d="M112635 33428
L112708 33452
L112733 33476
L112757 33525
L112757 33598
L112733 33647
L112708 33671
L112660 33696
L112465 33696
L112465 33184
L112635 33184
L112684 33208
L112708 33233
L112733 33281
L112733 33330
L112708 33379
L112684 33403
L112635 33428
L112465 33428
" />
</g>
<g style="fill:#000000; fill-opacity:0.0; 
stroke:#000000; stroke-width:39.3701; stroke-opacity:1; 
stroke-linecap:round; stroke-linejoin:round;">
</g>
<g style="fill:#000000; fill-opacity:0.0; 
stroke:#000000; stroke-width:59.0551; stroke-opacity:1; 
stroke-linecap:round; stroke-linejoin:round;">
<text x="112599" y="53405.5"
textLength="570.866" font-size="682.415" lengthAdjust="spacingAndGlyphs"
text-anchor="middle" opacity="0">C</text>
<path d="M112757 53332
L112733 53356
L112660 53381
L112611 53381
L112538 53356
L112489 53308
L112465 53259
L112440 53161
L112440 53088
L112465 52991
L112489 52942
L112538 52893
L112611 52869
L112660 52869
L112733 52893
L112757 52918
" />
</g>
<g style="fill:#000000; fill-opacity:0.0; 
stroke:#000000; stroke-width:39.3701; stroke-opacity:1; 
stroke-linecap:round; stroke-linejoin:round;">
</g>
<g style="fill:#000000; fill-opacity:0.0; 
stroke:#000000; stroke-width:59.0551; stroke-opacity:1; 
stroke-linecap:round; stroke-linejoin:round;">
<text x="112599" y="73090.6"
textLength="570.866" font-size="682.415" lengthAdjust="spacingAndGlyphs"
text-anchor="middle" opacity="0">D</text>
<path d="M112465 73066
L112465 72554
L112587 72554
L112660 72578
L112708 72627
L112733 72676
L112757 72773
L112757 72846
L112733 72944
L112708 72993
L112660 73041
L112587 73066
L112465 73066
" />
</g>
<g style="fill:#000000; fill-opacity:0.0; 
stroke:#000000; stroke-width:39.3701; stroke-opacity:1; 
stroke-linecap:round; stroke-linejoin:round;">
</g>
<g style="fill:#000000; fill-opacity:0.0; 
stroke:#000000; stroke-width:59.0551; stroke-opacity:1; 
stroke-linecap:round; stroke-linejoin:round;">
<text x="78741" y="76321.7"
textLength="2758.72" font-size="787.402" lengthAdjust="spacingAndGlyphs"
text-anchor="start" opacity="0">Date: </text>
<path d="M78911 76293
L78911 75703
L79051 75703
L79136 75731
L79192 75787
L79220 75843
L79248 75956
L79248 76040
L79220 76153
L79192 76209
L79136 76265
L79051 76293
L78911 76293
" />
<path d="M79754 76293
L79754 75984
L79726 75928
L79670 75899
L79557 75899
L79501 75928
" />
<path d="M79754 76265
L79698 76293
L79557 76293
L79501 76265
L79473 76209
L79473 76153
L79501 76096
L79557 76068
L79698 76068
L79754 76040
" />
<path d="M79951 75899
L80176 75899
" />
<path d="M80036 75703
L80036 76209
L80064 76265
L80120 76293
L80176 76293
" />
<path d="M80598 76265
L80542 76293
L80429 76293
L80373 76265
L80345 76209
L80345 75984
L80373 75928
L80429 75899
L80542 75899
L80598 75928
L80626 75984
L80626 76040
L80345 76096
" />
<path d="M80879 76237
L80907 76265
L80879 76293
L80851 76265
L80879 76237
L80879 76293
" />
<path d="M80879 75928
L80907 75956
L80879 75984
L80851 75956
L80879 75928
L80879 75984
" />
</g>
<g style="fill:#000000; fill-opacity:0.0; 
stroke:#000000; stroke-width:39.3701; stroke-opacity:1; 
stroke-linecap:round; stroke-linejoin:round;">
</g>
<g style="fill:#000000; fill-opacity:0.0; 
stroke:#000000; stroke-width:59.0551; stroke-opacity:1; 
stroke-linecap:round; stroke-linejoin:round;">
<path d="M69685 76577
L112205 76577
" />
</g>
<g style="fill:#000000; fill-opacity:0.0; 
stroke:#000000; stroke-width:39.3701; stroke-opacity:1; 
stroke-linecap:round; stroke-linejoin:round;">
</g>
<g style="fill:#000000; fill-opacity:0.0; 
stroke:#000000; stroke-width:59.0551; stroke-opacity:1; 
stroke-linecap:round; stroke-linejoin:round;">
<text x="70079.6" y="77424.1"
textLength="13529.2" font-size="787.402" lengthAdjust="spacingAndGlyphs"
text-anchor="start" opacity="0">KiCad E.D.A.  kicad (5.1.5)-3</text>
<path d="M70249 77395
L70249 76805
" />
<path d="M70587 77395
L70334 77058
" />
<path d="M70587 76805
L70249 77142
" />
<path d="M70840 77395
L70840 77002
" />
<path d="M70840 76805
L70812 76833
L70840 76861
L70868 76833
L70840 76805
L70840 76861
" />
<path d="M71458 77339
L71430 77367
L71346 77395
L71290 77395
L71205 77367
L71149 77311
L71121 77255
L71093 77142
L71093 77058
L71121 76946
L71149 76889
L71205 76833
L71290 76805
L71346 76805
L71430 76833
L71458 76861
" />
<path d="M71965 77395
L71965 77086
L71937 77030
L71880 77002
L71768 77002
L71712 77030
" />
<path d="M71965 77367
L71908 77395
L71768 77395
L71712 77367
L71683 77311
L71683 77255
L71712 77199
L71768 77171
L71908 77171
L71965 77142
" />
<path d="M72499 77395
L72499 76805
" />
<path d="M72499 77367
L72443 77395
L72330 77395
L72274 77367
L72246 77339
L72218 77283
L72218 77114
L72246 77058
L72274 77030
L72330 77002
L72443 77002
L72499 77030
" />
<path d="M73230 77086
L73427 77086
" />
<path d="M73511 77395
L73230 77395
L73230 76805
L73511 76805
" />
<path d="M73764 77339
L73793 77367
L73764 77395
L73736 77367
L73764 77339
L73764 77395
" />
<path d="M74046 77395
L74046 76805
L74186 76805
L74271 76833
L74327 76889
L74355 76946
L74383 77058
L74383 77142
L74355 77255
L74327 77311
L74271 77367
L74186 77395
L74046 77395
" />
<path d="M74636 77339
L74664 77367
L74636 77395
L74608 77367
L74636 77339
L74636 77395
" />
<path d="M74889 77227
L75171 77227
" />
<path d="M74833 77395
L75030 76805
L75227 77395
" />
<path d="M75424 77339
L75452 77367
L75424 77395
L75395 77367
L75424 77339
L75424 77395
" />
<path d="M76605 77395
L76605 76805
" />
<path d="M76661 77171
L76830 77395
" />
<path d="M76830 77002
L76605 77227
" />
<path d="M77083 77395
L77083 77002
" />
<path d="M77083 76805
L77055 76833
L77083 76861
L77111 76833
L77083 76805
L77083 76861
" />
<path d="M77617 77367
L77561 77395
L77448 77395
L77392 77367
L77364 77339
L77336 77283
L77336 77114
L77364 77058
L77392 77030
L77448 77002
L77561 77002
L77617 77030
" />
<path d="M78123 77395
L78123 77086
L78095 77030
L78039 77002
L77926 77002
L77870 77030
" />
<path d="M78123 77367
L78067 77395
L77926 77395
L77870 77367
L77842 77311
L77842 77255
L77870 77199
L77926 77171
L78067 77171
L78123 77142
" />
<path d="M78658 77395
L78658 76805
" />
<path d="M78658 77367
L78601 77395
L78489 77395
L78433 77367
L78404 77339
L78376 77283
L78376 77114
L78404 77058
L78433 77030
L78489 77002
L78601 77002
L78658 77030
" />
<path d="M79557 77620
L79529 77592
L79473 77508
L79445 77452
L79417 77367
L79389 77227
L79389 77114
L79417 76974
L79445 76889
L79473 76833
L79529 76749
L79557 76721
" />
<path d="M80064 76805
L79782 76805
L79754 77086
L79782 77058
L79839 77030
L79979 77030
L80036 77058
L80064 77086
L80092 77142
L80092 77283
L80064 77339
L80036 77367
L79979 77395
L79839 77395
L79782 77367
L79754 77339
" />
<path d="M80345 77339
L80373 77367
L80345 77395
L80317 77367
L80345 77339
L80345 77395
" />
<path d="M80935 77395
L80598 77395
" />
<path d="M80767 77395
L80767 76805
L80710 76889
L80654 76946
L80598 76974
" />
<path d="M81188 77339
L81217 77367
L81188 77395
L81160 77367
L81188 77339
L81188 77395
" />
<path d="M81751 76805
L81470 76805
L81442 77086
L81470 77058
L81526 77030
L81667 77030
L81723 77058
L81751 77086
L81779 77142
L81779 77283
L81751 77339
L81723 77367
L81667 77395
L81526 77395
L81470 77367
L81442 77339
" />
<path d="M81976 77620
L82004 77592
L82060 77508
L82088 77452
L82117 77367
L82145 77227
L82145 77114
L82117 76974
L82088 76889
L82060 76833
L82004 76749
L81976 76721
" />
<path d="M82426 77171
L82876 77171
" />
<path d="M83101 76805
L83466 76805
L83269 77030
L83354 77030
L83410 77058
L83438 77086
L83466 77142
L83466 77283
L83438 77339
L83410 77367
L83354 77395
L83185 77395
L83129 77367
L83101 77339
" />
</g>
<g style="fill:#000000; fill-opacity:0.0; 
stroke:#000000; stroke-width:39.3701; stroke-opacity:1; 
stroke-linecap:round; stroke-linejoin:round;">
</g>
<g style="fill:#000000; fill-opacity:0.0; 
stroke:#000000; stroke-width:59.0551; stroke-opacity:1; 
stroke-linecap:round; stroke-linejoin:round;">
<path d="M69685 75396
L112205 75396
" />
</g>
<g style="fill:#000000; fill-opacity:0.0; 
stroke:#000000; stroke-width:39.3701; stroke-opacity:1; 
stroke-linecap:round; stroke-linejoin:round;">
</g>
<g style="fill:#000000; fill-opacity:0.0; 
stroke:#000000; stroke-width:118.11; stroke-opacity:1; 
stroke-linecap:round; stroke-linejoin:round;">
<text x="103544" y="76321.7"
textLength="2336.9" font-size="787.402" lengthAdjust="spacingAndGlyphs"
text-anchor="start" opacity="0">Rev: </text>
<path d="M104099 76293
L103902 76012
" />
<path d="M103761 76293
L103761 75703
L103986 75703
L104042 75731
L104070 75759
L104099 75815
L104099 75899
L104070 75956
L104042 75984
L103986 76012
L103761 76012
" />
<path d="M104577 76265
L104520 76293
L104408 76293
L104352 76265
L104323 76209
L104323 75984
L104352 75928
L104408 75899
L104520 75899
L104577 75928
L104605 75984
L104605 76040
L104323 76096
" />
<path d="M104802 75899
L104942 76293
L105083 75899
" />
<path d="M105308 76237
L105336 76265
L105308 76293
L105280 76265
L105308 76237
L105308 76293
" />
<path d="M105308 75928
L105336 75956
L105308 75984
L105280 75956
L105308 75928
L105308 75984
" />
</g>
<g style="fill:#000000; fill-opacity:0.0; 
stroke:#000000; stroke-width:39.3701; stroke-opacity:1; 
stroke-linecap:round; stroke-linejoin:round;">
</g>
<g style="fill:#000000; fill-opacity:0.0; 
stroke:#000000; stroke-width:59.0551; stroke-opacity:1; 
stroke-linecap:round; stroke-linejoin:round;">
<text x="70079.6" y="76321.7"
textLength="3781.21" font-size="787.402" lengthAdjust="spacingAndGlyphs"
text-anchor="start" opacity="0">Size: A4</text>
<path d="M70221 76265
L70305 76293
L70446 76293
L70502 76265
L70530 76237
L70559 76181
L70559 76124
L70530 76068
L70502 76040
L70446 76012
L70334 75984
L70277 75956
L70249 75928
L70221 75871
L70221 75815
L70249 75759
L70277 75731
L70334 75703
L70474 75703
L70559 75731
" />
<path d="M70812 76293
L70812 75899
" />
<path d="M70812 75703
L70784 75731
L70812 75759
L70840 75731
L70812 75703
L70812 75759
" />
<path d="M71037 75899
L71346 75899
L71037 76293
L71346 76293
" />
<path d="M71796 76265
L71740 76293
L71627 76293
L71571 76265
L71543 76209
L71543 75984
L71571 75928
L71627 75899
L71740 75899
L71796 75928
L71824 75984
L71824 76040
L71543 76096
" />
<path d="M72077 76237
L72105 76265
L72077 76293
L72049 76265
L72077 76237
L72077 76293
" />
<path d="M72077 75928
L72105 75956
L72077 75984
L72049 75956
L72077 75928
L72077 75984
" />
<path d="M72780 76124
L73061 76124
" />
<path d="M72724 76293
L72921 75703
L73118 76293
" />
<path d="M73568 75899
L73568 76293
" />
<path d="M73427 75674
L73286 76096
L73652 76096
" />
</g>
<g style="fill:#000000; fill-opacity:0.0; 
stroke:#000000; stroke-width:39.3701; stroke-opacity:1; 
stroke-linecap:round; stroke-linejoin:round;">
</g>
<g style="fill:#000000; fill-opacity:0.0; 
stroke:#000000; stroke-width:59.0551; stroke-opacity:1; 
stroke-linecap:round; stroke-linejoin:round;">
<text x="103544" y="77424.1"
textLength="3349.27" font-size="787.402" lengthAdjust="spacingAndGlyphs"
text-anchor="start" opacity="0">Id: 1/1</text>
<path d="M103714 77395
L103714 76805
" />
<path d="M104248 77395
L104248 76805
" />
<path d="M104248 77367
L104192 77395
L104079 77395
L104023 77367
L103995 77339
L103967 77283
L103967 77114
L103995 77058
L104023 77030
L104079 77002
L104192 77002
L104248 77030
" />
<path d="M104529 77339
L104557 77367
L104529 77395
L104501 77367
L104529 77339
L104529 77395
" />
<path d="M104529 77030
L104557 77058
L104529 77086
L104501 77058
L104529 77030
L104529 77086
" />
<path d="M105570 77395
L105232 77395
" />
<path d="M105401 77395
L105401 76805
L105345 76889
L105289 76946
L105232 76974
" />
<path d="M106245 76777
L105739 77536
" />
<path d="M106751 77395
L106413 77395
" />
<path d="M106582 77395
L106582 76805
L106526 76889
L106470 76946
L106413 76974
" />
</g>
<g style="fill:#000000; fill-opacity:0.0; 
stroke:#000000; stroke-width:39.3701; stroke-opacity:1; 
stroke-linecap:round; stroke-linejoin:round;">
</g>
<g style="fill:#000000; fill-opacity:0.0; 
stroke:#000000; stroke-width:59.0551; stroke-opacity:1; 
stroke-linecap:round; stroke-linejoin:round;">
<path d="M69685 73821
L112205 73821
" />
</g>
<g style="fill:#000000; fill-opacity:0.0; 
stroke:#000000; stroke-width:39.3701; stroke-opacity:1; 
stroke-linecap:round; stroke-linejoin:round;">
</g>
<g style="fill:#000000; fill-opacity:0.0; 
stroke:#000000; stroke-width:157.48; stroke-opacity:1; 
stroke-linecap:round; stroke-linejoin:round;">
<text x="70079.6" y="74924.1"
textLength="3701.14" font-size="1049.87" lengthAdjust="spacingAndGlyphs"
text-anchor="start" opacity="0">Title: </text>
<path d="M70360 74099
L70810 74099
" />
<path d="M70486 74886
L70585 74099
" />
<path d="M70974 74886
L71039 74361
" />
<path d="M71072 74099
L71030 74136
L71063 74174
L71105 74136
L71072 74099
L71063 74174
" />
<path d="M71302 74361
L71602 74361
" />
<path d="M71447 74099
L71363 74774
L71391 74849
L71461 74886
L71536 74886
" />
<path d="M71911 74886
L71841 74849
L71813 74774
L71897 74099
" />
<path d="M72516 74849
L72436 74886
L72286 74886
L72216 74849
L72187 74774
L72225 74474
L72272 74399
L72352 74361
L72501 74361
L72572 74399
L72600 74474
L72591 74549
L72206 74624
" />
<path d="M72895 74811
L72928 74849
L72886 74886
L72853 74849
L72895 74811
L72886 74886
" />
<path d="M72947 74399
L72980 74436
L72937 74474
L72905 74436
L72947 74399
L72937 74474
" />
</g>
<g style="fill:#000000; fill-opacity:0.0; 
stroke:#000000; stroke-width:39.3701; stroke-opacity:1; 
stroke-linecap:round; stroke-linejoin:round;">
</g>
<g style="fill:#000000; fill-opacity:0.0; 
stroke:#000000; stroke-width:59.0551; stroke-opacity:1; 
stroke-linecap:round; stroke-linejoin:round;">
<text x="70079.6" y="73408.3"
textLength="8191.23" font-size="787.402" lengthAdjust="spacingAndGlyphs"
text-anchor="start" opacity="0">File: v2.kicad_pcb</text>
<path d="M70446 73070
L70249 73070
" />
<path d="M70249 73380
L70249 72789
L70530 72789
" />
<path d="M70755 73380
L70755 72986
" />
<path d="M70755 72789
L70727 72817
L70755 72845
L70784 72817
L70755 72789
L70755 72845
" />
<path d="M71121 73380
L71065 73352
L71037 73295
L71037 72789
" />
<path d="M71571 73352
L71515 73380
L71402 73380
L71346 73352
L71318 73295
L71318 73070
L71346 73014
L71402 72986
L71515 72986
L71571 73014
L71599 73070
L71599 73127
L71318 73183
" />
<path d="M71852 73323
L71880 73352
L71852 73380
L71824 73352
L71852 73323
L71852 73380
" />
<path d="M71852 73014
L71880 73042
L71852 73070
L71824 73042
L71852 73014
L71852 73070
" />
<path d="M72527 72986
L72668 73380
L72808 72986
" />
<path d="M73005 72845
L73033 72817
L73090 72789
L73230 72789
L73286 72817
L73314 72845
L73343 72902
L73343 72958
L73314 73042
L72977 73380
L73343 73380
" />
<path d="M73596 73323
L73624 73352
L73596 73380
L73568 73352
L73596 73323
L73596 73380
" />
<path d="M73877 73380
L73877 72789
" />
<path d="M73933 73155
L74102 73380
" />
<path d="M74102 72986
L73877 73211
" />
<path d="M74355 73380
L74355 72986
" />
<path d="M74355 72789
L74327 72817
L74355 72845
L74383 72817
L74355 72789
L74355 72845
" />
<path d="M74889 73352
L74833 73380
L74721 73380
L74664 73352
L74636 73323
L74608 73267
L74608 73099
L74636 73042
L74664 73014
L74721 72986
L74833 72986
L74889 73014
" />
<path d="M75395 73380
L75395 73070
L75367 73014
L75311 72986
L75199 72986
L75142 73014
" />
<path d="M75395 73352
L75339 73380
L75199 73380
L75142 73352
L75114 73295
L75114 73239
L75142 73183
L75199 73155
L75339 73155
L75395 73127
" />
<path d="M75930 73380
L75930 72789
" />
<path d="M75930 73352
L75874 73380
L75761 73380
L75705 73352
L75677 73323
L75649 73267
L75649 73099
L75677 73042
L75705 73014
L75761 72986
L75874 72986
L75930 73014
" />
<path d="M76070 73436
L76520 73436
" />
<path d="M76661 72986
L76661 73577
" />
<path d="M76661 73014
L76717 72986
L76830 72986
L76886 73014
L76914 73042
L76942 73099
L76942 73267
L76914 73323
L76886 73352
L76830 73380
L76717 73380
L76661 73352
" />
<path d="M77448 73352
L77392 73380
L77280 73380
L77223 73352
L77195 73323
L77167 73267
L77167 73099
L77195 73042
L77223 73014
L77280 72986
L77392 72986
L77448 73014
" />
<path d="M77701 73380
L77701 72789
" />
<path d="M77701 73014
L77758 72986
L77870 72986
L77926 73014
L77955 73042
L77983 73099
L77983 73267
L77955 73323
L77926 73352
L77870 73380
L77758 73380
L77701 73352
" />
</g>
<g style="fill:#000000; fill-opacity:0.0; 
stroke:#000000; stroke-width:39.3701; stroke-opacity:1; 
stroke-linecap:round; stroke-linejoin:round;">
</g>
<g style="fill:#000000; fill-opacity:0.0; 
stroke:#000000; stroke-width:59.0551; stroke-opacity:1; 
stroke-linecap:round; stroke-linejoin:round;">
<path d="M69685 71459
L112205 71459
" />
</g>
<g style="fill:#000000; fill-opacity:0.0; 
stroke:#000000; stroke-width:39.3701; stroke-opacity:1; 
stroke-linecap:round; stroke-linejoin:round;">
</g>
<g style="fill:#000000; fill-opacity:0.0; 
stroke:#000000; stroke-width:59.0551; stroke-opacity:1; 
stroke-linecap:round; stroke-linejoin:round;">
<text x="70079.6" y="72345.4"
textLength="3236.78" font-size="787.402" lengthAdjust="spacingAndGlyphs"
text-anchor="start" opacity="0">Sheet: </text>
<path d="M70221 72289
L70305 72317
L70446 72317
L70502 72289
L70530 72260
L70559 72204
L70559 72148
L70530 72092
L70502 72064
L70446 72036
L70334 72007
L70277 71979
L70249 71951
L70221 71895
L70221 71839
L70249 71782
L70277 71754
L70334 71726
L70474 71726
L70559 71754
" />
<path d="M70812 72317
L70812 71726
" />
<path d="M71065 72317
L71065 72007
L71037 71951
L70980 71923
L70896 71923
L70840 71951
L70812 71979
" />
<path d="M71571 72289
L71515 72317
L71402 72317
L71346 72289
L71318 72232
L71318 72007
L71346 71951
L71402 71923
L71515 71923
L71571 71951
L71599 72007
L71599 72064
L71318 72120
" />
<path d="M72077 72289
L72021 72317
L71908 72317
L71852 72289
L71824 72232
L71824 72007
L71852 71951
L71908 71923
L72021 71923
L72077 71951
L72105 72007
L72105 72064
L71824 72120
" />
<path d="M72274 71923
L72499 71923
" />
<path d="M72358 71726
L72358 72232
L72386 72289
L72443 72317
L72499 72317
" />
<path d="M72696 72260
L72724 72289
L72696 72317
L72668 72289
L72696 72260
L72696 72317
" />
<path d="M72696 71951
L72724 71979
L72696 72007
L72668 71979
L72696 71951
L72696 72007
" />
</g>
<g style="fill:#000000; fill-opacity:0.0; 
stroke:#000000; stroke-width:39.3701; stroke-opacity:1; 
stroke-linecap:round; stroke-linejoin:round;">
</g>
<g style="fill:#000000; fill-opacity:0.0; 
stroke:#000000; stroke-width:59.0551; stroke-opacity:1; 
stroke-linecap:round; stroke-linejoin:round;">
<path d="M77559 75396
L77559 76577
" />
</g>
<g style="fill:#000000; fill-opacity:0.0; 
stroke:#000000; stroke-width:39.3701; stroke-opacity:1; 
stroke-linecap:round; stroke-linejoin:round;">
</g>
<g style="fill:#000000; fill-opacity:0.0; 
stroke:#000000; stroke-width:59.0551; stroke-opacity:1; 
stroke-linecap:round; stroke-linejoin:round;">
<path d="M102756 75396
L102756 77955
" />
<g >
</g>
<g >
</g>
<g >
</g>
<g >
</g>
<g >
</g>
<g >
</g>
<g >
</g>
<g >
</g>
<g >
</g>
<g style="fill:#000000; fill-opacity:0.0; 
stroke:#000000; stroke-width:59.0551; stroke-opacity:1; 
stroke-linecap:round; stroke-linejoin:round;">
</g>
<g style="fill:#000000; fill-opacity:0.0; 
stroke:#000000; stroke-width:0; stroke-opacity:1; 
stroke-linecap:round; stroke-linejoin:round;">
</g>
<g style="fill:#000000; fill-opacity:1.0; 
stroke:#000000; stroke-width:0; stroke-opacity:1; 
stroke-linecap:round; stroke-linejoin:round;">
<path style="fill:#000000; fill-opacity:1.0; 
stroke:#000000; stroke-width:0; stroke-opacity:1; 
stroke-linecap:round; stroke-linejoin:round;fill-rule:evenodd;"
d="M 72264.8,21116.2
72270.6,21117.1
72276.2,21118.5
72281.7,21120.4
72286.9,21122.9
72291.9,21125.9
72296.5,21129.3
72300.8,21133.2
72304.7,21137.5
72308.2,21142.2
72311.1,21147.2
72313.6,21152.4
72315.6,21157.9
72317,21163.5
72317.8,21169.2
72318.1,21175
72318.1,21736
72317.8,21741.8
72317,21747.5
72315.6,21753.2
72313.6,21758.6
72311.1,21763.9
72308.2,21768.8
72304.7,21773.5
72300.8,21777.8
72296.5,21781.7
72291.9,21785.1
72286.9,21788.1
72281.7,21790.6
72276.2,21792.5
72270.6,21793.9
72264.8,21794.8
72259.1,21795.1
72140.9,21795.1
72135.2,21794.8
72129.4,21793.9
72123.8,21792.5
72118.3,21790.6
72113.1,21788.1
72108.1,21785.1
72103.5,21781.7
72099.2,21777.8
72095.3,21773.5
72091.8,21768.8
72088.9,21763.9
72086.4,21758.6
72084.4,21753.2
72083,21747.5
72082.2,21741.8
72081.9,21736
72081.9,21175
72082.2,21169.2
72083,21163.5
72084.4,21157.9
72086.4,21152.4
72088.9,21147.2
72091.8,21142.2
72095.3,21137.5
72099.2,21133.2
72103.5,21129.3
72108.1,21125.9
72113.1,21122.9
72118.3,21120.4
72123.8,21118.5
72129.4,21117.1
72135.2,21116.2
72140.9,21115.9
72259.1,21115.9
Z" /> 
<path style="fill:#000000; fill-opacity:1.0; 
stroke:#000000; stroke-width:0; stroke-opacity:1; 
stroke-linecap:round; stroke-linejoin:round;fill-rule:evenodd;"
d="M 72764.8,21116.2
72770.6,21117.1
72776.2,21118.5
72781.7,21120.4
72786.9,21122.9
72791.9,21125.9
72796.5,21129.3
72800.8,21133.2
72804.7,21137.5
72808.2,21142.2
72811.1,21147.2
72813.6,21152.4
72815.6,21157.9
72817,21163.5
72817.8,21169.2
72818.1,21175
72818.1,21736
72817.8,21741.8
72817,21747.5
72815.6,21753.2
72813.6,21758.6
72811.1,21763.9
72808.2,21768.8
72804.7,21773.5
72800.8,21777.8
72796.5,21781.7
72791.9,21785.1
72786.9,21788.1
72781.7,21790.6
72776.2,21792.5
72770.6,21793.9
72764.8,21794.8
72759.1,21795.1
72640.9,21795.1
72635.2,21794.8
72629.4,21793.9
72623.8,21792.5
72618.3,21790.6
72613.1,21788.1
72608.1,21785.1
72603.5,21781.7
72599.2,21777.8
72595.3,21773.5
72591.8,21768.8
72588.9,21763.9
72586.4,21758.6
72584.4,21753.2
72583,21747.5
72582.2,21741.8
72581.9,21736
72581.9,21175
72582.2,21169.2
72583,21163.5
72584.4,21157.9
72586.4,21152.4
72588.9,21147.2
72591.8,21142.2
72595.3,21137.5
72599.2,21133.2
72603.5,21129.3
72608.1,21125.9
72613.1,21122.9
72618.3,21120.4
72623.8,21118.5
72629.4,21117.1
72635.2,21116.2
72640.9,21115.9
72759.1,21115.9
Z" /> 
<path style="fill:#000000; fill-opacity:1.0; 
stroke:#000000; stroke-width:0; stroke-opacity:1; 
stroke-linecap:round; stroke-linejoin:round;fill-rule:evenodd;"
d="M 73264.8,21116.2
73270.6,21117.1
73276.2,21118.5
73281.7,21120.4
73286.9,21122.9
73291.9,21125.9
73296.5,21129.3
73300.8,21133.2
73304.7,21137.5
73308.2,21142.2
73311.1,21147.2
73313.6,21152.4
73315.6,21157.9
73317,21163.5
73317.8,21169.2
73318.1,21175
73318.1,21736
73317.8,21741.8
73317,21747.5
73315.6,21753.2
73313.6,21758.6
73311.1,21763.9
73308.2,21768.8
73304.7,21773.5
73300.8,21777.8
73296.5,21781.7
73291.9,21785.1
73286.9,21788.1
73281.7,21790.6
73276.2,21792.5
73270.6,21793.9
73264.8,21794.8
73259.1,21795.1
73140.9,21795.1
73135.2,21794.8
73129.4,21793.9
73123.8,21792.5
73118.3,21790.6
73113.1,21788.1
73108.1,21785.1
73103.5,21781.7
73099.2,21777.8
73095.3,21773.5
73091.8,21768.8
73088.9,21763.9
73086.4,21758.6
73084.4,21753.2
73083,21747.5
73082.2,21741.8
73081.9,21736
73081.9,21175
73082.2,21169.2
73083,21163.5
73084.4,21157.9
73086.4,21152.4
73088.9,21147.2
73091.8,21142.2
73095.3,21137.5
73099.2,21133.2
73103.5,21129.3
73108.1,21125.9
73113.1,21122.9
73118.3,21120.4
73123.8,21118.5
73129.4,21117.1
73135.2,21116.2
73140.9,21115.9
73259.1,21115.9
Z" /> 
<path style="fill:#000000; fill-opacity:1.0; 
stroke:#000000; stroke-width:0; stroke-opacity:1; 
stroke-linecap:round; stroke-linejoin:round;fill-rule:evenodd;"
d="M 73764.8,21116.2
73770.6,21117.1
73776.2,21118.5
73781.7,21120.4
73786.9,21122.9
73791.9,21125.9
73796.5,21129.3
73800.8,21133.2
73804.7,21137.5
73808.2,21142.2
73811.1,21147.2
73813.6,21152.4
73815.6,21157.9
73817,21163.5
73817.8,21169.2
73818.1,21175
73818.1,21736
73817.8,21741.8
73817,21747.5
73815.6,21753.2
73813.6,21758.6
73811.1,21763.9
73808.2,21768.8
73804.7,21773.5
73800.8,21777.8
73796.5,21781.7
73791.9,21785.1
73786.9,21788.1
73781.7,21790.6
73776.2,21792.5
73770.6,21793.9
73764.8,21794.8
73759.1,21795.1
73640.9,21795.1
73635.2,21794.8
73629.4,21793.9
73623.8,21792.5
73618.3,21790.6
73613.1,21788.1
73608.1,21785.1
73603.5,21781.7
73599.2,21777.8
73595.3,21773.5
73591.8,21768.8
73588.9,21763.9
73586.4,21758.6
73584.4,21753.2
73583,21747.5
73582.2,21741.8
73581.9,21736
73581.9,21175
73582.2,21169.2
73583,21163.5
73584.4,21157.9
73586.4,21152.4
73588.9,21147.2
73591.8,21142.2
73595.3,21137.5
73599.2,21133.2
73603.5,21129.3
73608.1,21125.9
73613.1,21122.9
73618.3,21120.4
73623.8,21118.5
73629.4,21117.1
73635.2,21116.2
73640.9,21115.9
73759.1,21115.9
Z" /> 
<path style="fill:#000000; fill-opacity:1.0; 
stroke:#000000; stroke-width:0; stroke-opacity:1; 
stroke-linecap:round; stroke-linejoin:round;fill-rule:evenodd;"
d="M 73764.8,23960.7
73770.6,23961.6
73776.2,23963
73781.7,23964.9
73786.9,23967.4
73791.9,23970.4
73796.5,23973.8
73800.8,23977.7
73804.7,23982
73808.2,23986.7
73811.1,23991.6
73813.6,23996.9
73815.6,24002.3
73817,24008
73817.8,24013.7
73818.1,24019.5
73818.1,24580.5
73817.8,24586.3
73817,24592
73815.6,24597.7
73813.6,24603.1
73811.1,24608.4
73808.2,24613.3
73804.7,24618
73800.8,24622.3
73796.5,24626.2
73791.9,24629.6
73786.9,24632.6
73781.7,24635.1
73776.2,24637
73770.6,24638.4
73764.8,24639.3
73759.1,24639.6
73640.9,24639.6
73635.2,24639.3
73629.4,24638.4
73623.8,24637
73618.3,24635.1
73613.1,24632.6
73608.1,24629.6
73603.5,24626.2
73599.2,24622.3
73595.3,24618
73591.8,24613.3
73588.9,24608.4
73586.4,24603.1
73584.4,24597.7
73583,24592
73582.2,24586.3
73581.9,24580.5
73581.9,24019.5
73582.2,24013.7
73583,24008
73584.4,24002.3
73586.4,23996.9
73588.9,23991.6
73591.8,23986.7
73595.3,23982
73599.2,23977.7
73603.5,23973.8
73608.1,23970.4
73613.1,23967.4
73618.3,23964.9
73623.8,23963
73629.4,23961.6
73635.2,23960.7
73640.9,23960.4
73759.1,23960.4
Z" /> 
<path style="fill:#000000; fill-opacity:1.0; 
stroke:#000000; stroke-width:0; stroke-opacity:1; 
stroke-linecap:round; stroke-linejoin:round;fill-rule:evenodd;"
d="M 73264.8,23960.7
73270.6,23961.6
73276.2,23963
73281.7,23964.9
73286.9,23967.4
73291.9,23970.4
73296.5,23973.8
73300.8,23977.7
73304.7,23982
73308.2,23986.7
73311.1,23991.6
73313.6,23996.9
73315.6,24002.3
73317,24008
73317.8,24013.7
73318.1,24019.5
73318.1,24580.5
73317.8,24586.3
73317,24592
73315.6,24597.7
73313.6,24603.1
73311.1,24608.4
73308.2,24613.3
73304.7,24618
73300.8,24622.3
73296.5,24626.2
73291.9,24629.6
73286.9,24632.6
73281.7,24635.1
73276.2,24637
73270.6,24638.4
73264.8,24639.3
73259.1,24639.6
73140.9,24639.6
73135.2,24639.3
73129.4,24638.4
73123.8,24637
73118.3,24635.1
73113.1,24632.6
73108.1,24629.6
73103.5,24626.2
73099.2,24622.3
73095.3,24618
73091.8,24613.3
73088.9,24608.4
73086.4,24603.1
73084.4,24597.7
73083,24592
73082.2,24586.3
73081.9,24580.5
73081.9,24019.5
73082.2,24013.7
73083,24008
73084.4,24002.3
73086.4,23996.9
73088.9,23991.6
73091.8,23986.7
73095.3,23982
73099.2,23977.7
73103.5,23973.8
73108.1,23970.4
73113.1,23967.4
73118.3,23964.9
73123.8,23963
73129.4,23961.6
73135.2,23960.7
73140.9,23960.4
73259.1,23960.4
Z" /> 
<path style="fill:#000000; fill-opacity:1.0; 
stroke:#000000; stroke-width:0; stroke-opacity:1; 
stroke-linecap:round; stroke-linejoin:round;fill-rule:evenodd;"
d="M 72764.8,23960.7
72770.6,23961.6
72776.2,23963
72781.7,23964.9
72786.9,23967.4
72791.9,23970.4
72796.5,23973.8
72800.8,23977.7
72804.7,23982
72808.2,23986.7
72811.1,23991.6
72813.6,23996.9
72815.6,24002.3
72817,24008
72817.8,24013.7
72818.1,24019.5
72818.1,24580.5
72817.8,24586.3
72817,24592
72815.6,24597.7
72813.6,24603.1
72811.1,24608.4
72808.2,24613.3
72804.7,24618
72800.8,24622.3
72796.5,24626.2
72791.9,24629.6
72786.9,24632.6
72781.7,24635.1
72776.2,24637
72770.6,24638.4
72764.8,24639.3
72759.1,24639.6
72640.9,24639.6
72635.2,24639.3
72629.4,24638.4
72623.8,24637
72618.3,24635.1
72613.1,24632.6
72608.1,24629.6
72603.5,24626.2
72599.2,24622.3
72595.3,24618
72591.8,24613.3
72588.9,24608.4
72586.4,24603.1
72584.4,24597.7
72583,24592
72582.2,24586.3
72581.9,24580.5
72581.9,24019.5
72582.2,24013.7
72583,24008
72584.4,24002.3
72586.4,23996.9
72588.9,23991.6
72591.8,23986.7
72595.3,23982
72599.2,23977.7
72603.5,23973.8
72608.1,23970.4
72613.1,23967.4
72618.3,23964.9
72623.8,23963
72629.4,23961.6
72635.2,23960.7
72640.9,23960.4
72759.1,23960.4
Z" /> 
<path style="fill:#000000; fill-opacity:1.0; 
stroke:#000000; stroke-width:0; stroke-opacity:1; 
stroke-linecap:round; stroke-linejoin:round;fill-rule:evenodd;"
d="M 72264.8,23960.7
72270.6,23961.6
72276.2,23963
72281.7,23964.9
72286.9,23967.4
72291.9,23970.4
72296.5,23973.8
72300.8,23977.7
72304.7,23982
72308.2,23986.7
72311.1,23991.6
72313.6,23996.9
72315.6,24002.3
72317,24008
72317.8,24013.7
72318.1,24019.5
72318.1,24580.5
72317.8,24586.3
72317,24592
72315.6,24597.7
72313.6,24603.1
72311.1,24608.4
72308.2,24613.3
72304.7,24618
72300.8,24622.3
72296.5,24626.2
72291.9,24629.6
72286.9,24632.6
72281.7,24635.1
72276.2,24637
72270.6,24638.4
72264.8,24639.3
72259.1,24639.6
72140.9,24639.6
72135.2,24639.3
72129.4,24638.4
72123.8,24637
72118.3,24635.1
72113.1,24632.6
72108.1,24629.6
72103.5,24626.2
72099.2,24622.3
72095.3,24618
72091.8,24613.3
72088.9,24608.4
72086.4,24603.1
72084.4,24597.7
72083,24592
72082.2,24586.3
72081.9,24580.5
72081.9,24019.5
72082.2,24013.7
72083,24008
72084.4,24002.3
72086.4,23996.9
72088.9,23991.6
72091.8,23986.7
72095.3,23982
72099.2,23977.7
72103.5,23973.8
72108.1,23970.4
72113.1,23967.4
72118.3,23964.9
72123.8,23963
72129.4,23961.6
72135.2,23960.7
72140.9,23960.4
72259.1,23960.4
Z" /> 
</g>
<g >
</g>
<g style="fill:#000000; fill-opacity:1.0; 
stroke:#000000; stroke-width:0; stroke-opacity:1; 
stroke-linecap:round; stroke-linejoin:round;">
<path style="fill:#000000; fill-opacity:1.0; 
stroke:#000000; stroke-width:0; stroke-opacity:1; 
stroke-linecap:round; stroke-linejoin:round;fill-rule:evenodd;"
d="M 75465.6,22234.1
75475.1,22235.6
75484.5,22237.9
75493.6,22241.2
75502.3,22245.3
75510.6,22250.2
75518.3,22256
75525.5,22262.5
75532,22269.6
75537.7,22277.4
75542.7,22285.7
75546.8,22294.4
75550.1,22303.5
75552.4,22312.9
75553.9,22322.4
75554.3,22332.1
75554.3,22755.3
75553.9,22765
75552.4,22774.5
75550.1,22783.9
75546.8,22793
75542.7,22801.7
75537.7,22810
75532,22817.8
75525.5,22824.9
75518.3,22831.4
75510.6,22837.2
75502.3,22842.1
75493.6,22846.2
75484.5,22849.5
75475.1,22851.8
75465.6,22853.3
75455.9,22853.7
74944.1,22853.7
74934.4,22853.3
74924.9,22851.8
74915.5,22849.5
74906.4,22846.2
74897.7,22842.1
74889.4,22837.2
74881.7,22831.4
74874.5,22824.9
74868,22817.8
74862.3,22810
74857.3,22801.7
74853.2,22793
74849.9,22783.9
74847.6,22774.5
74846.1,22765
74845.7,22755.3
74845.7,22332.1
74846.1,22322.4
74847.6,22312.9
74849.9,22303.5
74853.2,22294.4
74857.3,22285.7
74862.3,22277.4
74868,22269.6
74874.5,22262.5
74881.7,22256
74889.4,22250.2
74897.7,22245.3
74906.4,22241.2
74915.5,22237.9
74924.9,22235.6
74934.4,22234.1
74944.1,22233.7
75455.9,22233.7
Z" /> 
<path style="fill:#000000; fill-opacity:1.0; 
stroke:#000000; stroke-width:0; stroke-opacity:1; 
stroke-linecap:round; stroke-linejoin:round;fill-rule:evenodd;"
d="M 75465.6,20590.4
75475.1,20591.9
75484.5,20594.2
75493.6,20597.5
75502.3,20601.6
75510.6,20606.5
75518.3,20612.3
75525.5,20618.8
75532,20625.9
75537.7,20633.7
75542.7,20642
75546.8,20650.7
75550.1,20659.8
75552.4,20669.2
75553.9,20678.7
75554.3,20688.4
75554.3,21111.6
75553.9,21121.3
75552.4,21130.8
75550.1,21140.2
75546.8,21149.3
75542.7,21158
75537.7,21166.3
75532,21174.1
75525.5,21181.2
75518.3,21187.7
75510.6,21193.5
75502.3,21198.4
75493.6,21202.5
75484.5,21205.8
75475.1,21208.1
75465.6,21209.6
75455.9,21210
74944.1,21210
74934.4,21209.6
74924.9,21208.1
74915.5,21205.8
74906.4,21202.5
74897.7,21198.4
74889.4,21193.5
74881.7,21187.7
74874.5,21181.2
74868,21174.1
74862.3,21166.3
74857.3,21158
74853.2,21149.3
74849.9,21140.2
74847.6,21130.8
74846.1,21121.3
74845.7,21111.6
74845.7,20688.4
74846.1,20678.7
74847.6,20669.2
74849.9,20659.8
74853.2,20650.7
74857.3,20642
74862.3,20633.7
74868,20625.9
74874.5,20618.8
74881.7,20612.3
74889.4,20606.5
74897.7,20601.6
74906.4,20597.5
74915.5,20594.2
74924.9,20591.9
74934.4,20590.4
74944.1,20590
75455.9,20590
Z" /> 
</g>
<g >
</g>
<g style="fill:#000000; fill-opacity:1.0; 
stroke:#000000; stroke-width:0; stroke-opacity:1; 
stroke-linecap:round; stroke-linejoin:round;">
<path style="fill:#000000; fill-opacity:1.0; 
stroke:#000000; stroke-width:0; stroke-opacity:1; 
stroke-linecap:round; stroke-linejoin:round;fill-rule:evenodd;"
d="M 75091.7,19456
75101.3,19457.4
75110.7,19459.8
75119.8,19463
75128.5,19467.1
75136.8,19472.1
75144.5,19477.9
75151.7,19484.3
75158.2,19491.5
75163.9,19499.3
75168.9,19507.5
75173,19516.3
75176.3,19525.4
75178.6,19534.7
75180,19544.3
75180.5,19553.9
75180.5,20046.1
75180,20055.7
75178.6,20065.3
75176.3,20074.6
75173,20083.7
75168.9,20092.5
75163.9,20100.7
75158.2,20108.5
75151.7,20115.7
75144.5,20122.1
75136.8,20127.9
75128.5,20132.9
75119.8,20137
75110.7,20140.2
75101.3,20142.6
75091.7,20144
75082.1,20144.5
74717.9,20144.5
74708.3,20144
74698.7,20142.6
74689.3,20140.2
74680.2,20137
74671.5,20132.9
74663.2,20127.9
74655.5,20122.1
74648.3,20115.7
74641.8,20108.5
74636.1,20100.7
74631.1,20092.5
74627,20083.7
74623.7,20074.6
74621.4,20065.3
74620,20055.7
74619.5,20046.1
74619.5,19553.9
74620,19544.3
74621.4,19534.7
74623.7,19525.4
74627,19516.3
74631.1,19507.5
74636.1,19499.3
74641.8,19491.5
74648.3,19484.3
74655.5,19477.9
74663.2,19472.1
74671.5,19467.1
74680.2,19463
74689.3,19459.8
74698.7,19457.4
74708.3,19456
74717.9,19455.5
75082.1,19455.5
Z" /> 
<path style="fill:#000000; fill-opacity:1.0; 
stroke:#000000; stroke-width:0; stroke-opacity:1; 
stroke-linecap:round; stroke-linejoin:round;fill-rule:evenodd;"
d="M 73920.5,19456
73930,19457.4
73939.4,19459.8
73948.5,19463
73957.2,19467.1
73965.5,19472.1
73973.3,19477.9
73980.4,19484.3
73986.9,19491.5
73992.7,19499.3
73997.6,19507.5
74001.8,19516.3
74005,19525.4
74007.4,19534.7
74008.8,19544.3
74009.3,19553.9
74009.3,20046.1
74008.8,20055.7
74007.4,20065.3
74005,20074.6
74001.8,20083.7
73997.6,20092.5
73992.7,20100.7
73986.9,20108.5
73980.4,20115.7
73973.3,20122.1
73965.5,20127.9
73957.2,20132.9
73948.5,20137
73939.4,20140.2
73930,20142.6
73920.5,20144
73910.8,20144.5
73546.7,20144.5
73537,20144
73527.5,20142.6
73518.1,20140.2
73509,20137
73500.3,20132.9
73492,20127.9
73484.2,20122.1
73477.1,20115.7
73470.6,20108.5
73464.8,20100.7
73459.9,20092.5
73455.7,20083.7
73452.5,20074.6
73450.1,20065.3
73448.7,20055.7
73448.2,20046.1
73448.2,19553.9
73448.7,19544.3
73450.1,19534.7
73452.5,19525.4
73455.7,19516.3
73459.9,19507.5
73464.8,19499.3
73470.6,19491.5
73477.1,19484.3
73484.2,19477.9
73492,19472.1
73500.3,19467.1
73509,19463
73518.1,19459.8
73527.5,19457.4
73537,19456
73546.7,19455.5
73910.8,19455.5
Z" /> 
</g>
<g >
</g>
<g style="fill:#000000; fill-opacity:1.0; 
stroke:#000000; stroke-width:0; stroke-opacity:1; 
stroke-linecap:round; stroke-linejoin:round;">
<path style="fill:#000000; fill-opacity:1.0; 
stroke:#000000; stroke-width:0; stroke-opacity:1; 
stroke-linecap:round; stroke-linejoin:round;fill-rule:evenodd;"
d="M 81083.5,25216.5
81083.5,24783.5
81516.5,24783.5
81516.5,25216.5
Z" /> 
<path style="fill:#000000; fill-opacity:1.0; 
stroke:#000000; stroke-width:0; stroke-opacity:1; 
stroke-linecap:round; stroke-linejoin:round;fill-rule:evenodd;"
d="M 79981.1,25216.5
79981.1,24783.5
80414.2,24783.5
80414.2,25216.5
Z" /> 
</g>
<g >
</g>
<g style="fill:#000000; fill-opacity:1.0; 
stroke:#000000; stroke-width:0; stroke-opacity:1; 
stroke-linecap:round; stroke-linejoin:round;">
<path style="fill:#000000; fill-opacity:1.0; 
stroke:#000000; stroke-width:0; stroke-opacity:1; 
stroke-linecap:round; stroke-linejoin:round;fill-rule:evenodd;"
d="M 77583.5,26534.6
78016.5,26534.6
78016.5,26967.7
77583.5,26967.7
Z" /> 
<path style="fill:#000000; fill-opacity:1.0; 
stroke:#000000; stroke-width:0; stroke-opacity:1; 
stroke-linecap:round; stroke-linejoin:round;fill-rule:evenodd;"
d="M 77583.5,25432.3
78016.5,25432.3
78016.5,25865.4
77583.5,25865.4
Z" /> 
</g>
<g >
</g>
<g style="fill:#000000; fill-opacity:1.0; 
stroke:#000000; stroke-width:0; stroke-opacity:1; 
stroke-linecap:round; stroke-linejoin:round;">
<path style="fill:#000000; fill-opacity:1.0; 
stroke:#000000; stroke-width:0; stroke-opacity:1; 
stroke-linecap:round; stroke-linejoin:round;fill-rule:evenodd;"
d="M 79085.8,24816.5
79085.8,24383.5
79518.9,24383.5
79518.9,24816.5
Z" /> 
<path style="fill:#000000; fill-opacity:1.0; 
stroke:#000000; stroke-width:0; stroke-opacity:1; 
stroke-linecap:round; stroke-linejoin:round;fill-rule:evenodd;"
d="M 77983.5,24816.5
77983.5,24383.5
78416.5,24383.5
78416.5,24816.5
Z" /> 
</g>
<g >
</g>
<g style="fill:#000000; fill-opacity:1.0; 
stroke:#000000; stroke-width:0; stroke-opacity:1; 
stroke-linecap:round; stroke-linejoin:round;">
<path style="fill:#000000; fill-opacity:1.0; 
stroke:#000000; stroke-width:0; stroke-opacity:1; 
stroke-linecap:round; stroke-linejoin:round;fill-rule:evenodd;"
d="M 79269.5,21585.5
79279,21586.9
79288.4,21589.3
79297.5,21592.5
79306.2,21596.7
79314.5,21601.6
79322.3,21607.4
79329.4,21613.9
79335.9,21621
79341.7,21628.8
79346.6,21637.1
79350.8,21645.8
79354,21654.9
79356.4,21664.3
79357.8,21673.8
79358.3,21683.5
79358.3,22116.5
79357.8,22126.2
79356.4,22135.7
79354,22145.1
79350.8,22154.2
79346.6,22162.9
79341.7,22171.2
79335.9,22179
79329.4,22186.1
79322.3,22192.6
79314.5,22198.4
79306.2,22203.3
79297.5,22207.5
79288.4,22210.7
79279,22213.1
79269.5,22214.5
79259.8,22215
78275.6,22215
78265.9,22214.5
78256.4,22213.1
78247,22210.7
78237.9,22207.5
78229.2,22203.3
78220.9,22198.4
78213.2,22192.6
78206,22186.1
78199.5,22179
78193.8,22171.2
78188.8,22162.9
78184.7,22154.2
78181.4,22145.1
78179.1,22135.7
78177.6,22126.2
78177.2,22116.5
78177.2,21683.5
78177.6,21673.8
78179.1,21664.3
78181.4,21654.9
78184.7,21645.8
78188.8,21637.1
78193.8,21628.8
78199.5,21621
78206,21613.9
78213.2,21607.4
78220.9,21601.6
78229.2,21596.7
78237.9,21592.5
78247,21589.3
78256.4,21586.9
78265.9,21585.5
78275.6,21585
79259.8,21585
Z" /> 
<path style="fill:#000000; fill-opacity:1.0; 
stroke:#000000; stroke-width:0; stroke-opacity:1; 
stroke-linecap:round; stroke-linejoin:round;fill-rule:evenodd;"
d="M 81001.8,21585.5
81011.3,21586.9
81020.7,21589.3
81029.8,21592.5
81038.5,21596.7
81046.8,21601.6
81054.6,21607.4
81061.7,21613.9
81068.2,21621
81074,21628.8
81078.9,21637.1
81083.1,21645.8
81086.3,21654.9
81088.7,21664.3
81090.1,21673.8
81090.6,21683.5
81090.6,22116.5
81090.1,22126.2
81088.7,22135.7
81086.3,22145.1
81083.1,22154.2
81078.9,22162.9
81074,22171.2
81068.2,22179
81061.7,22186.1
81054.6,22192.6
81046.8,22198.4
81038.5,22203.3
81029.8,22207.5
81020.7,22210.7
81011.3,22213.1
81001.8,22214.5
80992.1,22215
80007.9,22215
79998.2,22214.5
79988.7,22213.1
79979.3,22210.7
79970.2,22207.5
79961.5,22203.3
79953.2,22198.4
79945.4,22192.6
79938.3,22186.1
79931.8,22179
79926,22171.2
79921.1,22162.9
79916.9,22154.2
79913.7,22145.1
79911.3,22135.7
79909.9,22126.2
79909.4,22116.5
79909.4,21683.5
79909.9,21673.8
79911.3,21664.3
79913.7,21654.9
79916.9,21645.8
79921.1,21637.1
79926,21628.8
79931.8,21621
79938.3,21613.9
79945.4,21607.4
79953.2,21601.6
79961.5,21596.7
79970.2,21592.5
79979.3,21589.3
79988.7,21586.9
79998.2,21585.5
80007.9,21585
80992.1,21585
Z" /> 
</g>
<g >
</g>
<g style="fill:#000000; fill-opacity:1.0; 
stroke:#000000; stroke-width:0; stroke-opacity:1; 
stroke-linecap:round; stroke-linejoin:round;">
<path style="fill:#000000; fill-opacity:1.0; 
stroke:#000000; stroke-width:0; stroke-opacity:1; 
stroke-linecap:round; stroke-linejoin:round;fill-rule:evenodd;"
d="M 76934.1,26785.5
76943.6,26786.9
76953,26789.3
76962.1,26792.5
76970.8,26796.7
76979.1,26801.6
76986.8,26807.4
76994,26813.9
77000.5,26821
77006.2,26828.8
77011.2,26837.1
77015.3,26845.8
77018.6,26854.9
77020.9,26864.3
77022.4,26873.8
77022.8,26883.5
77022.8,27316.5
77022.4,27326.2
77020.9,27335.7
77018.6,27345.1
77015.3,27354.2
77011.2,27362.9
77006.2,27371.2
77000.5,27379
76994,27386.1
76986.8,27392.6
76979.1,27398.4
76970.8,27403.3
76962.1,27407.5
76953,27410.7
76943.6,27413.1
76934.1,27414.5
76924.4,27415
75940.2,27415
75930.5,27414.5
75921,27413.1
75911.6,27410.7
75902.5,27407.5
75893.8,27403.3
75885.5,27398.4
75877.7,27392.6
75870.6,27386.1
75864.1,27379
75858.3,27371.2
75853.4,27362.9
75849.2,27354.2
75846,27345.1
75843.6,27335.7
75842.2,27326.2
75841.7,27316.5
75841.7,26883.5
75842.2,26873.8
75843.6,26864.3
75846,26854.9
75849.2,26845.8
75853.4,26837.1
75858.3,26828.8
75864.1,26821
75870.6,26813.9
75877.7,26807.4
75885.5,26801.6
75893.8,26796.7
75902.5,26792.5
75911.6,26789.3
75921,26786.9
75930.5,26785.5
75940.2,26785
76924.4,26785
Z" /> 
<path style="fill:#000000; fill-opacity:1.0; 
stroke:#000000; stroke-width:0; stroke-opacity:1; 
stroke-linecap:round; stroke-linejoin:round;fill-rule:evenodd;"
d="M 75201.8,26785.5
75211.3,26786.9
75220.7,26789.3
75229.8,26792.5
75238.5,26796.7
75246.8,26801.6
75254.6,26807.4
75261.7,26813.9
75268.2,26821
75274,26828.8
75278.9,26837.1
75283.1,26845.8
75286.3,26854.9
75288.7,26864.3
75290.1,26873.8
75290.6,26883.5
75290.6,27316.5
75290.1,27326.2
75288.7,27335.7
75286.3,27345.1
75283.1,27354.2
75278.9,27362.9
75274,27371.2
75268.2,27379
75261.7,27386.1
75254.6,27392.6
75246.8,27398.4
75238.5,27403.3
75229.8,27407.5
75220.7,27410.7
75211.3,27413.1
75201.8,27414.5
75192.1,27415
74207.9,27415
74198.2,27414.5
74188.7,27413.1
74179.3,27410.7
74170.2,27407.5
74161.5,27403.3
74153.2,27398.4
74145.4,27392.6
74138.3,27386.1
74131.8,27379
74126,27371.2
74121.1,27362.9
74116.9,27354.2
74113.7,27345.1
74111.3,27335.7
74109.9,27326.2
74109.4,27316.5
74109.4,26883.5
74109.9,26873.8
74111.3,26864.3
74113.7,26854.9
74116.9,26845.8
74121.1,26837.1
74126,26828.8
74131.8,26821
74138.3,26813.9
74145.4,26807.4
74153.2,26801.6
74161.5,26796.7
74170.2,26792.5
74179.3,26789.3
74188.7,26786.9
74198.2,26785.5
74207.9,26785
75192.1,26785
Z" /> 
</g>
<g >
</g>
<g style="fill:#000000; fill-opacity:1.0; 
stroke:#000000; stroke-width:0; stroke-opacity:1; 
stroke-linecap:round; stroke-linejoin:round;">
<path style="fill:#000000; fill-opacity:1.0; 
stroke:#000000; stroke-width:0; stroke-opacity:1; 
stroke-linecap:round; stroke-linejoin:round;fill-rule:evenodd;"
d="M 77680.5,23396.5
77690.1,23398
77699.4,23400.3
77708.5,23403.6
77717.3,23407.7
77725.5,23412.7
77733.3,23418.4
77740.5,23424.9
77746.9,23432
77752.7,23439.8
77757.7,23448.1
77761.8,23456.8
77765.1,23465.9
77767.4,23475.3
77768.8,23484.8
77769.3,23494.5
77769.3,23809.4
77768.8,23819.1
77767.4,23828.7
77765.1,23838
77761.8,23847.1
77757.7,23855.8
77752.7,23864.1
77746.9,23871.9
77740.5,23879
77733.3,23885.5
77725.5,23891.3
77717.3,23896.3
77708.5,23900.4
77699.4,23903.6
77690.1,23906
77680.5,23907.4
77670.9,23907.9
76529.1,23907.9
76519.5,23907.4
76509.9,23906
76500.6,23903.6
76491.5,23900.4
76482.7,23896.3
76474.5,23891.3
76466.7,23885.5
76459.5,23879
76453.1,23871.9
76447.3,23864.1
76442.3,23855.8
76438.2,23847.1
76434.9,23838
76432.6,23828.7
76431.2,23819.1
76430.7,23809.4
76430.7,23494.5
76431.2,23484.8
76432.6,23475.3
76434.9,23465.9
76438.2,23456.8
76442.3,23448.1
76447.3,23439.8
76453.1,23432
76459.5,23424.9
76466.7,23418.4
76474.5,23412.7
76482.7,23407.7
76491.5,23403.6
76500.6,23400.3
76509.9,23398
76519.5,23396.5
76529.1,23396.1
77670.9,23396.1
Z" /> 
<path style="fill:#000000; fill-opacity:1.0; 
stroke:#000000; stroke-width:0; stroke-opacity:1; 
stroke-linecap:round; stroke-linejoin:round;fill-rule:evenodd;"
d="M 77680.5,21644.6
77690.1,21646
77699.4,21648.3
77708.5,21651.6
77717.3,21655.7
77725.5,21660.7
77733.3,21666.4
77740.5,21672.9
77746.9,21680.1
77752.7,21687.8
77757.7,21696.1
77761.8,21704.9
77765.1,21713.9
77767.4,21723.3
77768.8,21732.9
77769.3,21742.5
77769.3,22057.5
77768.8,22067.1
77767.4,22076.7
77765.1,22086.1
77761.8,22095.1
77757.7,22103.9
77752.7,22112.2
77746.9,22119.9
77740.5,22127.1
77733.3,22133.6
77725.5,22139.3
77717.3,22144.3
77708.5,22148.4
77699.4,22151.7
77690.1,22154
77680.5,22155.4
77670.9,22155.9
76529.1,22155.9
76519.5,22155.4
76509.9,22154
76500.6,22151.7
76491.5,22148.4
76482.7,22144.3
76474.5,22139.3
76466.7,22133.6
76459.5,22127.1
76453.1,22119.9
76447.3,22112.2
76442.3,22103.9
76438.2,22095.1
76434.9,22086.1
76432.6,22076.7
76431.2,22067.1
76430.7,22057.5
76430.7,21742.5
76431.2,21732.9
76432.6,21723.3
76434.9,21713.9
76438.2,21704.9
76442.3,21696.1
76447.3,21687.8
76453.1,21680.1
76459.5,21672.9
76466.7,21666.4
76474.5,21660.7
76482.7,21655.7
76491.5,21651.6
76500.6,21648.3
76509.9,21646
76519.5,21644.6
76529.1,21644.1
77670.9,21644.1
Z" /> 
</g>
<g >
</g>
<g style="fill:#000000; fill-opacity:1.0; 
stroke:#000000; stroke-width:0; stroke-opacity:1; 
stroke-linecap:round; stroke-linejoin:round;">
<path style="fill:#000000; fill-opacity:1.0; 
stroke:#000000; stroke-width:0; stroke-opacity:1; 
stroke-linecap:round; stroke-linejoin:round;fill-rule:evenodd;"
d="M 75991.7,24678.8
76001.3,24680.2
76010.7,24682.6
76019.8,24685.8
76028.5,24690
76036.8,24694.9
76044.5,24700.7
76051.7,24707.2
76058.2,24714.3
76063.9,24722.1
76068.9,24730.4
76073,24739.1
76076.3,24748.2
76078.6,24757.6
76080,24767.1
76080.5,24776.8
76080.5,25623.2
76080,25632.9
76078.6,25642.4
76076.3,25651.8
76073,25660.9
76068.9,25669.6
76063.9,25677.9
76058.2,25685.7
76051.7,25692.8
76044.5,25699.3
76036.8,25705.1
76028.5,25710
76019.8,25714.2
76010.7,25717.4
76001.3,25719.8
75991.7,25721.2
75982.1,25721.7
75617.9,25721.7
75608.3,25721.2
75598.7,25719.8
75589.3,25717.4
75580.2,25714.2
75571.5,25710
75563.2,25705.1
75555.5,25699.3
75548.3,25692.8
75541.8,25685.7
75536.1,25677.9
75531.1,25669.6
75527,25660.9
75523.7,25651.8
75521.4,25642.4
75520,25632.9
75519.5,25623.2
75519.5,24776.8
75520,24767.1
75521.4,24757.6
75523.7,24748.2
75527,24739.1
75531.1,24730.4
75536.1,24722.1
75541.8,24714.3
75548.3,24707.2
75555.5,24700.7
75563.2,24694.9
75571.5,24690
75580.2,24685.8
75589.3,24682.6
75598.7,24680.2
75608.3,24678.8
75617.9,24678.3
75982.1,24678.3
Z" /> 
<path style="fill:#000000; fill-opacity:1.0; 
stroke:#000000; stroke-width:0; stroke-opacity:1; 
stroke-linecap:round; stroke-linejoin:round;fill-rule:evenodd;"
d="M 74820.5,24678.8
74830,24680.2
74839.4,24682.6
74848.5,24685.8
74857.2,24690
74865.5,24694.9
74873.3,24700.7
74880.4,24707.2
74886.9,24714.3
74892.7,24722.1
74897.6,24730.4
74901.8,24739.1
74905,24748.2
74907.4,24757.6
74908.8,24767.1
74909.3,24776.8
74909.3,25623.2
74908.8,25632.9
74907.4,25642.4
74905,25651.8
74901.8,25660.9
74897.6,25669.6
74892.7,25677.9
74886.9,25685.7
74880.4,25692.8
74873.3,25699.3
74865.5,25705.1
74857.2,25710
74848.5,25714.2
74839.4,25717.4
74830,25719.8
74820.5,25721.2
74810.8,25721.7
74446.7,25721.7
74437,25721.2
74427.5,25719.8
74418.1,25717.4
74409,25714.2
74400.3,25710
74392,25705.1
74384.2,25699.3
74377.1,25692.8
74370.6,25685.7
74364.8,25677.9
74359.9,25669.6
74355.7,25660.9
74352.5,25651.8
74350.1,25642.4
74348.7,25632.9
74348.2,25623.2
74348.2,24776.8
74348.7,24767.1
74350.1,24757.6
74352.5,24748.2
74355.7,24739.1
74359.9,24730.4
74364.8,24722.1
74370.6,24714.3
74377.1,24707.2
74384.2,24700.7
74392,24694.9
74400.3,24690
74409,24685.8
74418.1,24682.6
74427.5,24680.2
74437,24678.8
74446.7,24678.3
74810.8,24678.3
Z" /> 
</g>
<g >
</g>
<g >
</g>
<g >
</g>
</g>
<g style="fill:#000000; fill-opacity:1.0; 
stroke:#000000; stroke-width:0; stroke-opacity:1; 
stroke-linecap:round; stroke-linejoin:round;">
</g>
<g style="fill:#000000; fill-opacity:0.0; 
stroke:#000000; stroke-width:19.685; stroke-opacity:1; 
stroke-linecap:round; stroke-linejoin:round;">
<path d="M81700 18700 A1800 1800 0.0 0 0 79900 16900 " />
<path d="M79900 28800 A1800 1800 0.0 0 0 81700 27000 " />
<path d="M69800 27000 A1800 1800 0.0 0 0 71600 28800 " />
<path d="M71600 16900 A1800 1800 0.0 0 0 69800 18700 " />
<path d="M79900 16900
L71600 16900
" />
<path d="M81700 27000
L81700 18700
" />
<path d="M71600 28800
L79900 28800
" />
<path d="M69800 18700
L69800 27000
" />
<g >
</g>
<g >
</g>
<g >
</g>
<g >
</g>
<g >
</g>
<g >
</g>
<g >
</g>
<g >
</g>
<g >
</g>
<g >
</g>
<g >
</g>
<g >
</g>
<g >
</g>
<g >
</g>
<g >
</g>
<g >
</g>
<g >
</g>
<g >
</g>
<g >
</g>
</g> 
</svg>
