<?xml version="1.0" standalone="no"?>
 <!DOCTYPE svg PUBLIC "-//W3C//DTD SVG 1.1//EN" 
 "http://www.w3.org/Graphics/SVG/1.1/DTD/svg11.dtd"> 
<svg xmlns="http://www.w3.org/2000/svg" version="1.1" 
    width="29.7002cm" height="21.0007cm" viewBox="0 0 116930 82680 ">
<title>SVG Picture created as v2-F_Fab.svg date 2020/05/09 15:22:18 </title>
  <desc>Picture generated by PCBNEW </desc>
<g style="fill:#000000; fill-opacity:1;stroke:#000000; stroke-opacity:1;
stroke-linecap:round; stroke-linejoin:round; "
 transform="translate(0 0) scale(1 1)">
</g>
<g style="fill:#000000; fill-opacity:0.0; 
stroke:#000000; stroke-width:-0.000393701; stroke-opacity:1; 
stroke-linecap:round; stroke-linejoin:round;">
</g>
<g style="fill:#000000; fill-opacity:0.0; 
stroke:#000000; stroke-width:39.3701; stroke-opacity:1; 
stroke-linecap:round; stroke-linejoin:round;">
</g>
<g style="fill:#000000; fill-opacity:0.0; 
stroke:#000000; stroke-width:59.0551; stroke-opacity:1; 
stroke-linecap:round; stroke-linejoin:round;">
<rect x="69685.9" y="65357.2" width="42519.7" height="12598.4" rx="0" />
</g>
<g style="fill:#000000; fill-opacity:0.0; 
stroke:#000000; stroke-width:39.3701; stroke-opacity:1; 
stroke-linecap:round; stroke-linejoin:round;">
</g>
<g style="fill:#000000; fill-opacity:0.0; 
stroke:#000000; stroke-width:59.0551; stroke-opacity:1; 
stroke-linecap:round; stroke-linejoin:round;">
<rect x="3937.01" y="3937.01" width="109056" height="74806" rx="0" />
</g>
<g style="fill:#000000; fill-opacity:0.0; 
stroke:#000000; stroke-width:39.3701; stroke-opacity:1; 
stroke-linecap:round; stroke-linejoin:round;">
</g>
<g style="fill:#000000; fill-opacity:0.0; 
stroke:#000000; stroke-width:59.0551; stroke-opacity:1; 
stroke-linecap:round; stroke-linejoin:round;">
<rect x="4724.41" y="4724.41" width="107481" height="73231.2" rx="0" />
</g>
<g style="fill:#000000; fill-opacity:0.0; 
stroke:#000000; stroke-width:39.3701; stroke-opacity:1; 
stroke-linecap:round; stroke-linejoin:round;">
</g>
<g style="fill:#000000; fill-opacity:0.0; 
stroke:#000000; stroke-width:59.0551; stroke-opacity:1; 
stroke-linecap:round; stroke-linejoin:round;">
<path d="M23622 4724
L23622 3937
" />
</g>
<g style="fill:#000000; fill-opacity:0.0; 
stroke:#000000; stroke-width:39.3701; stroke-opacity:1; 
stroke-linecap:round; stroke-linejoin:round;">
</g>
<g style="fill:#000000; fill-opacity:0.0; 
stroke:#000000; stroke-width:59.0551; stroke-opacity:1; 
stroke-linecap:round; stroke-linejoin:round;">
<path d="M43307 4724
L43307 3937
" />
</g>
<g style="fill:#000000; fill-opacity:0.0; 
stroke:#000000; stroke-width:39.3701; stroke-opacity:1; 
stroke-linecap:round; stroke-linejoin:round;">
</g>
<g style="fill:#000000; fill-opacity:0.0; 
stroke:#000000; stroke-width:59.0551; stroke-opacity:1; 
stroke-linecap:round; stroke-linejoin:round;">
<path d="M62992 4724
L62992 3937
" />
</g>
<g style="fill:#000000; fill-opacity:0.0; 
stroke:#000000; stroke-width:39.3701; stroke-opacity:1; 
stroke-linecap:round; stroke-linejoin:round;">
</g>
<g style="fill:#000000; fill-opacity:0.0; 
stroke:#000000; stroke-width:59.0551; stroke-opacity:1; 
stroke-linecap:round; stroke-linejoin:round;">
<path d="M82677 4724
L82677 3937
" />
</g>
<g style="fill:#000000; fill-opacity:0.0; 
stroke:#000000; stroke-width:39.3701; stroke-opacity:1; 
stroke-linecap:round; stroke-linejoin:round;">
</g>
<g style="fill:#000000; fill-opacity:0.0; 
stroke:#000000; stroke-width:59.0551; stroke-opacity:1; 
stroke-linecap:round; stroke-linejoin:round;">
<path d="M102362 4724
L102362 3937
" />
</g>
<g style="fill:#000000; fill-opacity:0.0; 
stroke:#000000; stroke-width:39.3701; stroke-opacity:1; 
stroke-linecap:round; stroke-linejoin:round;">
</g>
<g style="fill:#000000; fill-opacity:0.0; 
stroke:#000000; stroke-width:59.0551; stroke-opacity:1; 
stroke-linecap:round; stroke-linejoin:round;">
<text x="13779.5" y="4586.61"
textLength="564.211" font-size="682.415" lengthAdjust="spacingAndGlyphs"
text-anchor="start" opacity="0">1</text>
<path d="M14199 4562
L13906 4562
" />
<path d="M14052 4562
L14052 4050
L14004 4123
L13955 4172
L13906 4196
" />
</g>
<g style="fill:#000000; fill-opacity:0.0; 
stroke:#000000; stroke-width:39.3701; stroke-opacity:1; 
stroke-linecap:round; stroke-linejoin:round;">
</g>
<g style="fill:#000000; fill-opacity:0.0; 
stroke:#000000; stroke-width:59.0551; stroke-opacity:1; 
stroke-linecap:round; stroke-linejoin:round;">
<text x="33464.6" y="4586.61"
textLength="546.494" font-size="682.415" lengthAdjust="spacingAndGlyphs"
text-anchor="start" opacity="0">2</text>
<path d="M33591 4099
L33615 4074
L33664 4050
L33786 4050
L33835 4074
L33859 4099
L33884 4147
L33884 4196
L33859 4269
L33567 4562
L33884 4562
" />
</g>
<g style="fill:#000000; fill-opacity:0.0; 
stroke:#000000; stroke-width:39.3701; stroke-opacity:1; 
stroke-linecap:round; stroke-linejoin:round;">
</g>
<g style="fill:#000000; fill-opacity:0.0; 
stroke:#000000; stroke-width:59.0551; stroke-opacity:1; 
stroke-linecap:round; stroke-linejoin:round;">
<text x="53149.6" y="4586.61"
textLength="546.494" font-size="682.415" lengthAdjust="spacingAndGlyphs"
text-anchor="start" opacity="0">3</text>
<path d="M53252 4050
L53569 4050
L53398 4245
L53471 4245
L53520 4269
L53544 4294
L53569 4342
L53569 4464
L53544 4513
L53520 4537
L53471 4562
L53325 4562
L53276 4537
L53252 4513
" />
</g>
<g style="fill:#000000; fill-opacity:0.0; 
stroke:#000000; stroke-width:39.3701; stroke-opacity:1; 
stroke-linecap:round; stroke-linejoin:round;">
</g>
<g style="fill:#000000; fill-opacity:0.0; 
stroke:#000000; stroke-width:59.0551; stroke-opacity:1; 
stroke-linecap:round; stroke-linejoin:round;">
<text x="72834.6" y="4586.61"
textLength="546.494" font-size="682.415" lengthAdjust="spacingAndGlyphs"
text-anchor="start" opacity="0">4</text>
<path d="M73205 4221
L73205 4562
" />
<path d="M73083 4026
L72961 4391
L73278 4391
" />
</g>
<g style="fill:#000000; fill-opacity:0.0; 
stroke:#000000; stroke-width:39.3701; stroke-opacity:1; 
stroke-linecap:round; stroke-linejoin:round;">
</g>
<g style="fill:#000000; fill-opacity:0.0; 
stroke:#000000; stroke-width:59.0551; stroke-opacity:1; 
stroke-linecap:round; stroke-linejoin:round;">
<text x="92519.7" y="4586.61"
textLength="546.494" font-size="682.415" lengthAdjust="spacingAndGlyphs"
text-anchor="start" opacity="0">5</text>
<path d="M92914 4050
L92671 4050
L92646 4294
L92671 4269
L92719 4245
L92841 4245
L92890 4269
L92914 4294
L92939 4342
L92939 4464
L92914 4513
L92890 4537
L92841 4562
L92719 4562
L92671 4537
L92646 4513
" />
</g>
<g style="fill:#000000; fill-opacity:0.0; 
stroke:#000000; stroke-width:39.3701; stroke-opacity:1; 
stroke-linecap:round; stroke-linejoin:round;">
</g>
<g style="fill:#000000; fill-opacity:0.0; 
stroke:#000000; stroke-width:59.0551; stroke-opacity:1; 
stroke-linecap:round; stroke-linejoin:round;">
<text x="112205" y="4586.61"
textLength="546.494" font-size="682.415" lengthAdjust="spacingAndGlyphs"
text-anchor="start" opacity="0">6</text>
<path d="M112575 4050
L112477 4050
L112429 4074
L112404 4099
L112356 4172
L112331 4269
L112331 4464
L112356 4513
L112380 4537
L112429 4562
L112526 4562
L112575 4537
L112599 4513
L112624 4464
L112624 4342
L112599 4294
L112575 4269
L112526 4245
L112429 4245
L112380 4269
L112356 4294
L112331 4342
" />
</g>
<g style="fill:#000000; fill-opacity:0.0; 
stroke:#000000; stroke-width:39.3701; stroke-opacity:1; 
stroke-linecap:round; stroke-linejoin:round;">
</g>
<g style="fill:#000000; fill-opacity:0.0; 
stroke:#000000; stroke-width:59.0551; stroke-opacity:1; 
stroke-linecap:round; stroke-linejoin:round;">
<path d="M23622 77955
L23622 78742
" />
</g>
<g style="fill:#000000; fill-opacity:0.0; 
stroke:#000000; stroke-width:39.3701; stroke-opacity:1; 
stroke-linecap:round; stroke-linejoin:round;">
</g>
<g style="fill:#000000; fill-opacity:0.0; 
stroke:#000000; stroke-width:59.0551; stroke-opacity:1; 
stroke-linecap:round; stroke-linejoin:round;">
<path d="M43307 77955
L43307 78742
" />
</g>
<g style="fill:#000000; fill-opacity:0.0; 
stroke:#000000; stroke-width:39.3701; stroke-opacity:1; 
stroke-linecap:round; stroke-linejoin:round;">
</g>
<g style="fill:#000000; fill-opacity:0.0; 
stroke:#000000; stroke-width:59.0551; stroke-opacity:1; 
stroke-linecap:round; stroke-linejoin:round;">
<path d="M62992 77955
L62992 78742
" />
</g>
<g style="fill:#000000; fill-opacity:0.0; 
stroke:#000000; stroke-width:39.3701; stroke-opacity:1; 
stroke-linecap:round; stroke-linejoin:round;">
</g>
<g style="fill:#000000; fill-opacity:0.0; 
stroke:#000000; stroke-width:59.0551; stroke-opacity:1; 
stroke-linecap:round; stroke-linejoin:round;">
<path d="M82677 77955
L82677 78742
" />
</g>
<g style="fill:#000000; fill-opacity:0.0; 
stroke:#000000; stroke-width:39.3701; stroke-opacity:1; 
stroke-linecap:round; stroke-linejoin:round;">
</g>
<g style="fill:#000000; fill-opacity:0.0; 
stroke:#000000; stroke-width:59.0551; stroke-opacity:1; 
stroke-linecap:round; stroke-linejoin:round;">
<path d="M102362 77955
L102362 78742
" />
</g>
<g style="fill:#000000; fill-opacity:0.0; 
stroke:#000000; stroke-width:39.3701; stroke-opacity:1; 
stroke-linecap:round; stroke-linejoin:round;">
</g>
<g style="fill:#000000; fill-opacity:0.0; 
stroke:#000000; stroke-width:59.0551; stroke-opacity:1; 
stroke-linecap:round; stroke-linejoin:round;">
<text x="13779.5" y="78605.2"
textLength="546.494" font-size="682.415" lengthAdjust="spacingAndGlyphs"
text-anchor="start" opacity="0">1</text>
<path d="M14199 78580
L13906 78580
" />
<path d="M14052 78580
L14052 78069
L14004 78142
L13955 78190
L13906 78215
" />
</g>
<g style="fill:#000000; fill-opacity:0.0; 
stroke:#000000; stroke-width:39.3701; stroke-opacity:1; 
stroke-linecap:round; stroke-linejoin:round;">
</g>
<g style="fill:#000000; fill-opacity:0.0; 
stroke:#000000; stroke-width:59.0551; stroke-opacity:1; 
stroke-linecap:round; stroke-linejoin:round;">
<text x="33464.6" y="78605.2"
textLength="546.494" font-size="682.415" lengthAdjust="spacingAndGlyphs"
text-anchor="start" opacity="0">2</text>
<path d="M33591 78117
L33615 78093
L33664 78069
L33786 78069
L33835 78093
L33859 78117
L33884 78166
L33884 78215
L33859 78288
L33567 78580
L33884 78580
" />
</g>
<g style="fill:#000000; fill-opacity:0.0; 
stroke:#000000; stroke-width:39.3701; stroke-opacity:1; 
stroke-linecap:round; stroke-linejoin:round;">
</g>
<g style="fill:#000000; fill-opacity:0.0; 
stroke:#000000; stroke-width:59.0551; stroke-opacity:1; 
stroke-linecap:round; stroke-linejoin:round;">
<text x="53149.6" y="78605.2"
textLength="546.494" font-size="682.415" lengthAdjust="spacingAndGlyphs"
text-anchor="start" opacity="0">3</text>
<path d="M53252 78069
L53569 78069
L53398 78263
L53471 78263
L53520 78288
L53544 78312
L53569 78361
L53569 78483
L53544 78532
L53520 78556
L53471 78580
L53325 78580
L53276 78556
L53252 78532
" />
</g>
<g style="fill:#000000; fill-opacity:0.0; 
stroke:#000000; stroke-width:39.3701; stroke-opacity:1; 
stroke-linecap:round; stroke-linejoin:round;">
</g>
<g style="fill:#000000; fill-opacity:0.0; 
stroke:#000000; stroke-width:59.0551; stroke-opacity:1; 
stroke-linecap:round; stroke-linejoin:round;">
<text x="72834.6" y="78605.2"
textLength="546.494" font-size="682.415" lengthAdjust="spacingAndGlyphs"
text-anchor="start" opacity="0">4</text>
<path d="M73205 78239
L73205 78580
" />
<path d="M73083 78044
L72961 78410
L73278 78410
" />
</g>
<g style="fill:#000000; fill-opacity:0.0; 
stroke:#000000; stroke-width:39.3701; stroke-opacity:1; 
stroke-linecap:round; stroke-linejoin:round;">
</g>
<g style="fill:#000000; fill-opacity:0.0; 
stroke:#000000; stroke-width:59.0551; stroke-opacity:1; 
stroke-linecap:round; stroke-linejoin:round;">
<text x="92519.7" y="78605.2"
textLength="546.494" font-size="682.415" lengthAdjust="spacingAndGlyphs"
text-anchor="start" opacity="0">5</text>
<path d="M92914 78069
L92671 78069
L92646 78312
L92671 78288
L92719 78263
L92841 78263
L92890 78288
L92914 78312
L92939 78361
L92939 78483
L92914 78532
L92890 78556
L92841 78580
L92719 78580
L92671 78556
L92646 78532
" />
</g>
<g style="fill:#000000; fill-opacity:0.0; 
stroke:#000000; stroke-width:39.3701; stroke-opacity:1; 
stroke-linecap:round; stroke-linejoin:round;">
</g>
<g style="fill:#000000; fill-opacity:0.0; 
stroke:#000000; stroke-width:59.0551; stroke-opacity:1; 
stroke-linecap:round; stroke-linejoin:round;">
<text x="112205" y="78605.2"
textLength="546.494" font-size="682.415" lengthAdjust="spacingAndGlyphs"
text-anchor="start" opacity="0">6</text>
<path d="M112575 78069
L112477 78069
L112429 78093
L112404 78117
L112356 78190
L112331 78288
L112331 78483
L112356 78532
L112380 78556
L112429 78580
L112526 78580
L112575 78556
L112599 78532
L112624 78483
L112624 78361
L112599 78312
L112575 78288
L112526 78263
L112429 78263
L112380 78288
L112356 78312
L112331 78361
" />
</g>
<g style="fill:#000000; fill-opacity:0.0; 
stroke:#000000; stroke-width:39.3701; stroke-opacity:1; 
stroke-linecap:round; stroke-linejoin:round;">
</g>
<g style="fill:#000000; fill-opacity:0.0; 
stroke:#000000; stroke-width:59.0551; stroke-opacity:1; 
stroke-linecap:round; stroke-linejoin:round;">
<path d="M3937 23622
L4724 23622
" />
</g>
<g style="fill:#000000; fill-opacity:0.0; 
stroke:#000000; stroke-width:39.3701; stroke-opacity:1; 
stroke-linecap:round; stroke-linejoin:round;">
</g>
<g style="fill:#000000; fill-opacity:0.0; 
stroke:#000000; stroke-width:59.0551; stroke-opacity:1; 
stroke-linecap:round; stroke-linejoin:round;">
<path d="M3937 43307
L4724 43307
" />
</g>
<g style="fill:#000000; fill-opacity:0.0; 
stroke:#000000; stroke-width:39.3701; stroke-opacity:1; 
stroke-linecap:round; stroke-linejoin:round;">
</g>
<g style="fill:#000000; fill-opacity:0.0; 
stroke:#000000; stroke-width:59.0551; stroke-opacity:1; 
stroke-linecap:round; stroke-linejoin:round;">
<path d="M3937 62992
L4724 62992
" />
</g>
<g style="fill:#000000; fill-opacity:0.0; 
stroke:#000000; stroke-width:39.3701; stroke-opacity:1; 
stroke-linecap:round; stroke-linejoin:round;">
</g>
<g style="fill:#000000; fill-opacity:0.0; 
stroke:#000000; stroke-width:59.0551; stroke-opacity:1; 
stroke-linecap:round; stroke-linejoin:round;">
<text x="4330.71" y="14035.4"
textLength="497.75" font-size="682.415" lengthAdjust="spacingAndGlyphs"
text-anchor="middle" opacity="0">A</text>
<path d="M4208 13864
L4452 13864
" />
<path d="M4160 14011
L4330 13499
L4501 14011
" />
</g>
<g style="fill:#000000; fill-opacity:0.0; 
stroke:#000000; stroke-width:39.3701; stroke-opacity:1; 
stroke-linecap:round; stroke-linejoin:round;">
</g>
<g style="fill:#000000; fill-opacity:0.0; 
stroke:#000000; stroke-width:59.0551; stroke-opacity:1; 
stroke-linecap:round; stroke-linejoin:round;">
<text x="4330.71" y="33720.5"
textLength="570.866" font-size="682.415" lengthAdjust="spacingAndGlyphs"
text-anchor="middle" opacity="0">B</text>
<path d="M4367 33428
L4440 33452
L4464 33476
L4489 33525
L4489 33598
L4464 33647
L4440 33671
L4391 33696
L4196 33696
L4196 33184
L4367 33184
L4416 33208
L4440 33233
L4464 33281
L4464 33330
L4440 33379
L4416 33403
L4367 33428
L4196 33428
" />
</g>
<g style="fill:#000000; fill-opacity:0.0; 
stroke:#000000; stroke-width:39.3701; stroke-opacity:1; 
stroke-linecap:round; stroke-linejoin:round;">
</g>
<g style="fill:#000000; fill-opacity:0.0; 
stroke:#000000; stroke-width:59.0551; stroke-opacity:1; 
stroke-linecap:round; stroke-linejoin:round;">
<text x="4330.71" y="53405.5"
textLength="570.866" font-size="682.415" lengthAdjust="spacingAndGlyphs"
text-anchor="middle" opacity="0">C</text>
<path d="M4489 53332
L4464 53356
L4391 53381
L4342 53381
L4269 53356
L4221 53308
L4196 53259
L4172 53161
L4172 53088
L4196 52991
L4221 52942
L4269 52893
L4342 52869
L4391 52869
L4464 52893
L4489 52918
" />
</g>
<g style="fill:#000000; fill-opacity:0.0; 
stroke:#000000; stroke-width:39.3701; stroke-opacity:1; 
stroke-linecap:round; stroke-linejoin:round;">
</g>
<g style="fill:#000000; fill-opacity:0.0; 
stroke:#000000; stroke-width:59.0551; stroke-opacity:1; 
stroke-linecap:round; stroke-linejoin:round;">
<text x="4330.71" y="73090.6"
textLength="570.866" font-size="682.415" lengthAdjust="spacingAndGlyphs"
text-anchor="middle" opacity="0">D</text>
<path d="M4196 73066
L4196 72554
L4318 72554
L4391 72578
L4440 72627
L4464 72676
L4489 72773
L4489 72846
L4464 72944
L4440 72993
L4391 73041
L4318 73066
L4196 73066
" />
</g>
<g style="fill:#000000; fill-opacity:0.0; 
stroke:#000000; stroke-width:39.3701; stroke-opacity:1; 
stroke-linecap:round; stroke-linejoin:round;">
</g>
<g style="fill:#000000; fill-opacity:0.0; 
stroke:#000000; stroke-width:59.0551; stroke-opacity:1; 
stroke-linecap:round; stroke-linejoin:round;">
<path d="M112992 23622
L112205 23622
" />
</g>
<g style="fill:#000000; fill-opacity:0.0; 
stroke:#000000; stroke-width:39.3701; stroke-opacity:1; 
stroke-linecap:round; stroke-linejoin:round;">
</g>
<g style="fill:#000000; fill-opacity:0.0; 
stroke:#000000; stroke-width:59.0551; stroke-opacity:1; 
stroke-linecap:round; stroke-linejoin:round;">
<path d="M112992 43307
L112205 43307
" />
</g>
<g style="fill:#000000; fill-opacity:0.0; 
stroke:#000000; stroke-width:39.3701; stroke-opacity:1; 
stroke-linecap:round; stroke-linejoin:round;">
</g>
<g style="fill:#000000; fill-opacity:0.0; 
stroke:#000000; stroke-width:59.0551; stroke-opacity:1; 
stroke-linecap:round; stroke-linejoin:round;">
<path d="M112992 62992
L112205 62992
" />
</g>
<g style="fill:#000000; fill-opacity:0.0; 
stroke:#000000; stroke-width:39.3701; stroke-opacity:1; 
stroke-linecap:round; stroke-linejoin:round;">
</g>
<g style="fill:#000000; fill-opacity:0.0; 
stroke:#000000; stroke-width:59.0551; stroke-opacity:1; 
stroke-linecap:round; stroke-linejoin:round;">
<text x="112599" y="14035.4"
textLength="497.75" font-size="682.415" lengthAdjust="spacingAndGlyphs"
text-anchor="middle" opacity="0">A</text>
<path d="M112477 13864
L112721 13864
" />
<path d="M112428 14011
L112599 13499
L112769 14011
" />
</g>
<g style="fill:#000000; fill-opacity:0.0; 
stroke:#000000; stroke-width:39.3701; stroke-opacity:1; 
stroke-linecap:round; stroke-linejoin:round;">
</g>
<g style="fill:#000000; fill-opacity:0.0; 
stroke:#000000; stroke-width:59.0551; stroke-opacity:1; 
stroke-linecap:round; stroke-linejoin:round;">
<text x="112599" y="33720.5"
textLength="570.866" font-size="682.415" lengthAdjust="spacingAndGlyphs"
text-anchor="middle" opacity="0">B</text>
<path d="M112635 33428
L112708 33452
L112733 33476
L112757 33525
L112757 33598
L112733 33647
L112708 33671
L112660 33696
L112465 33696
L112465 33184
L112635 33184
L112684 33208
L112708 33233
L112733 33281
L112733 33330
L112708 33379
L112684 33403
L112635 33428
L112465 33428
" />
</g>
<g style="fill:#000000; fill-opacity:0.0; 
stroke:#000000; stroke-width:39.3701; stroke-opacity:1; 
stroke-linecap:round; stroke-linejoin:round;">
</g>
<g style="fill:#000000; fill-opacity:0.0; 
stroke:#000000; stroke-width:59.0551; stroke-opacity:1; 
stroke-linecap:round; stroke-linejoin:round;">
<text x="112599" y="53405.5"
textLength="570.866" font-size="682.415" lengthAdjust="spacingAndGlyphs"
text-anchor="middle" opacity="0">C</text>
<path d="M112757 53332
L112733 53356
L112660 53381
L112611 53381
L112538 53356
L112489 53308
L112465 53259
L112440 53161
L112440 53088
L112465 52991
L112489 52942
L112538 52893
L112611 52869
L112660 52869
L112733 52893
L112757 52918
" />
</g>
<g style="fill:#000000; fill-opacity:0.0; 
stroke:#000000; stroke-width:39.3701; stroke-opacity:1; 
stroke-linecap:round; stroke-linejoin:round;">
</g>
<g style="fill:#000000; fill-opacity:0.0; 
stroke:#000000; stroke-width:59.0551; stroke-opacity:1; 
stroke-linecap:round; stroke-linejoin:round;">
<text x="112599" y="73090.6"
textLength="570.866" font-size="682.415" lengthAdjust="spacingAndGlyphs"
text-anchor="middle" opacity="0">D</text>
<path d="M112465 73066
L112465 72554
L112587 72554
L112660 72578
L112708 72627
L112733 72676
L112757 72773
L112757 72846
L112733 72944
L112708 72993
L112660 73041
L112587 73066
L112465 73066
" />
</g>
<g style="fill:#000000; fill-opacity:0.0; 
stroke:#000000; stroke-width:39.3701; stroke-opacity:1; 
stroke-linecap:round; stroke-linejoin:round;">
</g>
<g style="fill:#000000; fill-opacity:0.0; 
stroke:#000000; stroke-width:59.0551; stroke-opacity:1; 
stroke-linecap:round; stroke-linejoin:round;">
<text x="78741" y="76321.7"
textLength="2758.72" font-size="787.402" lengthAdjust="spacingAndGlyphs"
text-anchor="start" opacity="0">Date: </text>
<path d="M78911 76293
L78911 75703
L79051 75703
L79136 75731
L79192 75787
L79220 75843
L79248 75956
L79248 76040
L79220 76153
L79192 76209
L79136 76265
L79051 76293
L78911 76293
" />
<path d="M79754 76293
L79754 75984
L79726 75928
L79670 75899
L79557 75899
L79501 75928
" />
<path d="M79754 76265
L79698 76293
L79557 76293
L79501 76265
L79473 76209
L79473 76153
L79501 76096
L79557 76068
L79698 76068
L79754 76040
" />
<path d="M79951 75899
L80176 75899
" />
<path d="M80036 75703
L80036 76209
L80064 76265
L80120 76293
L80176 76293
" />
<path d="M80598 76265
L80542 76293
L80429 76293
L80373 76265
L80345 76209
L80345 75984
L80373 75928
L80429 75899
L80542 75899
L80598 75928
L80626 75984
L80626 76040
L80345 76096
" />
<path d="M80879 76237
L80907 76265
L80879 76293
L80851 76265
L80879 76237
L80879 76293
" />
<path d="M80879 75928
L80907 75956
L80879 75984
L80851 75956
L80879 75928
L80879 75984
" />
</g>
<g style="fill:#000000; fill-opacity:0.0; 
stroke:#000000; stroke-width:39.3701; stroke-opacity:1; 
stroke-linecap:round; stroke-linejoin:round;">
</g>
<g style="fill:#000000; fill-opacity:0.0; 
stroke:#000000; stroke-width:59.0551; stroke-opacity:1; 
stroke-linecap:round; stroke-linejoin:round;">
<path d="M69685 76577
L112205 76577
" />
</g>
<g style="fill:#000000; fill-opacity:0.0; 
stroke:#000000; stroke-width:39.3701; stroke-opacity:1; 
stroke-linecap:round; stroke-linejoin:round;">
</g>
<g style="fill:#000000; fill-opacity:0.0; 
stroke:#000000; stroke-width:59.0551; stroke-opacity:1; 
stroke-linecap:round; stroke-linejoin:round;">
<text x="70079.6" y="77424.1"
textLength="13529.2" font-size="787.402" lengthAdjust="spacingAndGlyphs"
text-anchor="start" opacity="0">KiCad E.D.A.  kicad (5.1.5)-3</text>
<path d="M70249 77395
L70249 76805
" />
<path d="M70587 77395
L70334 77058
" />
<path d="M70587 76805
L70249 77142
" />
<path d="M70840 77395
L70840 77002
" />
<path d="M70840 76805
L70812 76833
L70840 76861
L70868 76833
L70840 76805
L70840 76861
" />
<path d="M71458 77339
L71430 77367
L71346 77395
L71290 77395
L71205 77367
L71149 77311
L71121 77255
L71093 77142
L71093 77058
L71121 76946
L71149 76889
L71205 76833
L71290 76805
L71346 76805
L71430 76833
L71458 76861
" />
<path d="M71965 77395
L71965 77086
L71937 77030
L71880 77002
L71768 77002
L71712 77030
" />
<path d="M71965 77367
L71908 77395
L71768 77395
L71712 77367
L71683 77311
L71683 77255
L71712 77199
L71768 77171
L71908 77171
L71965 77142
" />
<path d="M72499 77395
L72499 76805
" />
<path d="M72499 77367
L72443 77395
L72330 77395
L72274 77367
L72246 77339
L72218 77283
L72218 77114
L72246 77058
L72274 77030
L72330 77002
L72443 77002
L72499 77030
" />
<path d="M73230 77086
L73427 77086
" />
<path d="M73511 77395
L73230 77395
L73230 76805
L73511 76805
" />
<path d="M73764 77339
L73793 77367
L73764 77395
L73736 77367
L73764 77339
L73764 77395
" />
<path d="M74046 77395
L74046 76805
L74186 76805
L74271 76833
L74327 76889
L74355 76946
L74383 77058
L74383 77142
L74355 77255
L74327 77311
L74271 77367
L74186 77395
L74046 77395
" />
<path d="M74636 77339
L74664 77367
L74636 77395
L74608 77367
L74636 77339
L74636 77395
" />
<path d="M74889 77227
L75171 77227
" />
<path d="M74833 77395
L75030 76805
L75227 77395
" />
<path d="M75424 77339
L75452 77367
L75424 77395
L75395 77367
L75424 77339
L75424 77395
" />
<path d="M76605 77395
L76605 76805
" />
<path d="M76661 77171
L76830 77395
" />
<path d="M76830 77002
L76605 77227
" />
<path d="M77083 77395
L77083 77002
" />
<path d="M77083 76805
L77055 76833
L77083 76861
L77111 76833
L77083 76805
L77083 76861
" />
<path d="M77617 77367
L77561 77395
L77448 77395
L77392 77367
L77364 77339
L77336 77283
L77336 77114
L77364 77058
L77392 77030
L77448 77002
L77561 77002
L77617 77030
" />
<path d="M78123 77395
L78123 77086
L78095 77030
L78039 77002
L77926 77002
L77870 77030
" />
<path d="M78123 77367
L78067 77395
L77926 77395
L77870 77367
L77842 77311
L77842 77255
L77870 77199
L77926 77171
L78067 77171
L78123 77142
" />
<path d="M78658 77395
L78658 76805
" />
<path d="M78658 77367
L78601 77395
L78489 77395
L78433 77367
L78404 77339
L78376 77283
L78376 77114
L78404 77058
L78433 77030
L78489 77002
L78601 77002
L78658 77030
" />
<path d="M79557 77620
L79529 77592
L79473 77508
L79445 77452
L79417 77367
L79389 77227
L79389 77114
L79417 76974
L79445 76889
L79473 76833
L79529 76749
L79557 76721
" />
<path d="M80064 76805
L79782 76805
L79754 77086
L79782 77058
L79839 77030
L79979 77030
L80036 77058
L80064 77086
L80092 77142
L80092 77283
L80064 77339
L80036 77367
L79979 77395
L79839 77395
L79782 77367
L79754 77339
" />
<path d="M80345 77339
L80373 77367
L80345 77395
L80317 77367
L80345 77339
L80345 77395
" />
<path d="M80935 77395
L80598 77395
" />
<path d="M80767 77395
L80767 76805
L80710 76889
L80654 76946
L80598 76974
" />
<path d="M81188 77339
L81217 77367
L81188 77395
L81160 77367
L81188 77339
L81188 77395
" />
<path d="M81751 76805
L81470 76805
L81442 77086
L81470 77058
L81526 77030
L81667 77030
L81723 77058
L81751 77086
L81779 77142
L81779 77283
L81751 77339
L81723 77367
L81667 77395
L81526 77395
L81470 77367
L81442 77339
" />
<path d="M81976 77620
L82004 77592
L82060 77508
L82088 77452
L82117 77367
L82145 77227
L82145 77114
L82117 76974
L82088 76889
L82060 76833
L82004 76749
L81976 76721
" />
<path d="M82426 77171
L82876 77171
" />
<path d="M83101 76805
L83466 76805
L83269 77030
L83354 77030
L83410 77058
L83438 77086
L83466 77142
L83466 77283
L83438 77339
L83410 77367
L83354 77395
L83185 77395
L83129 77367
L83101 77339
" />
</g>
<g style="fill:#000000; fill-opacity:0.0; 
stroke:#000000; stroke-width:39.3701; stroke-opacity:1; 
stroke-linecap:round; stroke-linejoin:round;">
</g>
<g style="fill:#000000; fill-opacity:0.0; 
stroke:#000000; stroke-width:59.0551; stroke-opacity:1; 
stroke-linecap:round; stroke-linejoin:round;">
<path d="M69685 75396
L112205 75396
" />
</g>
<g style="fill:#000000; fill-opacity:0.0; 
stroke:#000000; stroke-width:39.3701; stroke-opacity:1; 
stroke-linecap:round; stroke-linejoin:round;">
</g>
<g style="fill:#000000; fill-opacity:0.0; 
stroke:#000000; stroke-width:118.11; stroke-opacity:1; 
stroke-linecap:round; stroke-linejoin:round;">
<text x="103544" y="76321.7"
textLength="2336.9" font-size="787.402" lengthAdjust="spacingAndGlyphs"
text-anchor="start" opacity="0">Rev: </text>
<path d="M104099 76293
L103902 76012
" />
<path d="M103761 76293
L103761 75703
L103986 75703
L104042 75731
L104070 75759
L104099 75815
L104099 75899
L104070 75956
L104042 75984
L103986 76012
L103761 76012
" />
<path d="M104577 76265
L104520 76293
L104408 76293
L104352 76265
L104323 76209
L104323 75984
L104352 75928
L104408 75899
L104520 75899
L104577 75928
L104605 75984
L104605 76040
L104323 76096
" />
<path d="M104802 75899
L104942 76293
L105083 75899
" />
<path d="M105308 76237
L105336 76265
L105308 76293
L105280 76265
L105308 76237
L105308 76293
" />
<path d="M105308 75928
L105336 75956
L105308 75984
L105280 75956
L105308 75928
L105308 75984
" />
</g>
<g style="fill:#000000; fill-opacity:0.0; 
stroke:#000000; stroke-width:39.3701; stroke-opacity:1; 
stroke-linecap:round; stroke-linejoin:round;">
</g>
<g style="fill:#000000; fill-opacity:0.0; 
stroke:#000000; stroke-width:59.0551; stroke-opacity:1; 
stroke-linecap:round; stroke-linejoin:round;">
<text x="70079.6" y="76321.7"
textLength="3781.21" font-size="787.402" lengthAdjust="spacingAndGlyphs"
text-anchor="start" opacity="0">Size: A4</text>
<path d="M70221 76265
L70305 76293
L70446 76293
L70502 76265
L70530 76237
L70559 76181
L70559 76124
L70530 76068
L70502 76040
L70446 76012
L70334 75984
L70277 75956
L70249 75928
L70221 75871
L70221 75815
L70249 75759
L70277 75731
L70334 75703
L70474 75703
L70559 75731
" />
<path d="M70812 76293
L70812 75899
" />
<path d="M70812 75703
L70784 75731
L70812 75759
L70840 75731
L70812 75703
L70812 75759
" />
<path d="M71037 75899
L71346 75899
L71037 76293
L71346 76293
" />
<path d="M71796 76265
L71740 76293
L71627 76293
L71571 76265
L71543 76209
L71543 75984
L71571 75928
L71627 75899
L71740 75899
L71796 75928
L71824 75984
L71824 76040
L71543 76096
" />
<path d="M72077 76237
L72105 76265
L72077 76293
L72049 76265
L72077 76237
L72077 76293
" />
<path d="M72077 75928
L72105 75956
L72077 75984
L72049 75956
L72077 75928
L72077 75984
" />
<path d="M72780 76124
L73061 76124
" />
<path d="M72724 76293
L72921 75703
L73118 76293
" />
<path d="M73568 75899
L73568 76293
" />
<path d="M73427 75674
L73286 76096
L73652 76096
" />
</g>
<g style="fill:#000000; fill-opacity:0.0; 
stroke:#000000; stroke-width:39.3701; stroke-opacity:1; 
stroke-linecap:round; stroke-linejoin:round;">
</g>
<g style="fill:#000000; fill-opacity:0.0; 
stroke:#000000; stroke-width:59.0551; stroke-opacity:1; 
stroke-linecap:round; stroke-linejoin:round;">
<text x="103544" y="77424.1"
textLength="3349.27" font-size="787.402" lengthAdjust="spacingAndGlyphs"
text-anchor="start" opacity="0">Id: 1/1</text>
<path d="M103714 77395
L103714 76805
" />
<path d="M104248 77395
L104248 76805
" />
<path d="M104248 77367
L104192 77395
L104079 77395
L104023 77367
L103995 77339
L103967 77283
L103967 77114
L103995 77058
L104023 77030
L104079 77002
L104192 77002
L104248 77030
" />
<path d="M104529 77339
L104557 77367
L104529 77395
L104501 77367
L104529 77339
L104529 77395
" />
<path d="M104529 77030
L104557 77058
L104529 77086
L104501 77058
L104529 77030
L104529 77086
" />
<path d="M105570 77395
L105232 77395
" />
<path d="M105401 77395
L105401 76805
L105345 76889
L105289 76946
L105232 76974
" />
<path d="M106245 76777
L105739 77536
" />
<path d="M106751 77395
L106413 77395
" />
<path d="M106582 77395
L106582 76805
L106526 76889
L106470 76946
L106413 76974
" />
</g>
<g style="fill:#000000; fill-opacity:0.0; 
stroke:#000000; stroke-width:39.3701; stroke-opacity:1; 
stroke-linecap:round; stroke-linejoin:round;">
</g>
<g style="fill:#000000; fill-opacity:0.0; 
stroke:#000000; stroke-width:59.0551; stroke-opacity:1; 
stroke-linecap:round; stroke-linejoin:round;">
<path d="M69685 73821
L112205 73821
" />
</g>
<g style="fill:#000000; fill-opacity:0.0; 
stroke:#000000; stroke-width:39.3701; stroke-opacity:1; 
stroke-linecap:round; stroke-linejoin:round;">
</g>
<g style="fill:#000000; fill-opacity:0.0; 
stroke:#000000; stroke-width:157.48; stroke-opacity:1; 
stroke-linecap:round; stroke-linejoin:round;">
<text x="70079.6" y="74924.1"
textLength="3701.14" font-size="1049.87" lengthAdjust="spacingAndGlyphs"
text-anchor="start" opacity="0">Title: </text>
<path d="M70360 74099
L70810 74099
" />
<path d="M70486 74886
L70585 74099
" />
<path d="M70974 74886
L71039 74361
" />
<path d="M71072 74099
L71030 74136
L71063 74174
L71105 74136
L71072 74099
L71063 74174
" />
<path d="M71302 74361
L71602 74361
" />
<path d="M71447 74099
L71363 74774
L71391 74849
L71461 74886
L71536 74886
" />
<path d="M71911 74886
L71841 74849
L71813 74774
L71897 74099
" />
<path d="M72516 74849
L72436 74886
L72286 74886
L72216 74849
L72187 74774
L72225 74474
L72272 74399
L72352 74361
L72501 74361
L72572 74399
L72600 74474
L72591 74549
L72206 74624
" />
<path d="M72895 74811
L72928 74849
L72886 74886
L72853 74849
L72895 74811
L72886 74886
" />
<path d="M72947 74399
L72980 74436
L72937 74474
L72905 74436
L72947 74399
L72937 74474
" />
</g>
<g style="fill:#000000; fill-opacity:0.0; 
stroke:#000000; stroke-width:39.3701; stroke-opacity:1; 
stroke-linecap:round; stroke-linejoin:round;">
</g>
<g style="fill:#000000; fill-opacity:0.0; 
stroke:#000000; stroke-width:59.0551; stroke-opacity:1; 
stroke-linecap:round; stroke-linejoin:round;">
<text x="70079.6" y="73408.3"
textLength="8191.23" font-size="787.402" lengthAdjust="spacingAndGlyphs"
text-anchor="start" opacity="0">File: v2.kicad_pcb</text>
<path d="M70446 73070
L70249 73070
" />
<path d="M70249 73380
L70249 72789
L70530 72789
" />
<path d="M70755 73380
L70755 72986
" />
<path d="M70755 72789
L70727 72817
L70755 72845
L70784 72817
L70755 72789
L70755 72845
" />
<path d="M71121 73380
L71065 73352
L71037 73295
L71037 72789
" />
<path d="M71571 73352
L71515 73380
L71402 73380
L71346 73352
L71318 73295
L71318 73070
L71346 73014
L71402 72986
L71515 72986
L71571 73014
L71599 73070
L71599 73127
L71318 73183
" />
<path d="M71852 73323
L71880 73352
L71852 73380
L71824 73352
L71852 73323
L71852 73380
" />
<path d="M71852 73014
L71880 73042
L71852 73070
L71824 73042
L71852 73014
L71852 73070
" />
<path d="M72527 72986
L72668 73380
L72808 72986
" />
<path d="M73005 72845
L73033 72817
L73090 72789
L73230 72789
L73286 72817
L73314 72845
L73343 72902
L73343 72958
L73314 73042
L72977 73380
L73343 73380
" />
<path d="M73596 73323
L73624 73352
L73596 73380
L73568 73352
L73596 73323
L73596 73380
" />
<path d="M73877 73380
L73877 72789
" />
<path d="M73933 73155
L74102 73380
" />
<path d="M74102 72986
L73877 73211
" />
<path d="M74355 73380
L74355 72986
" />
<path d="M74355 72789
L74327 72817
L74355 72845
L74383 72817
L74355 72789
L74355 72845
" />
<path d="M74889 73352
L74833 73380
L74721 73380
L74664 73352
L74636 73323
L74608 73267
L74608 73099
L74636 73042
L74664 73014
L74721 72986
L74833 72986
L74889 73014
" />
<path d="M75395 73380
L75395 73070
L75367 73014
L75311 72986
L75199 72986
L75142 73014
" />
<path d="M75395 73352
L75339 73380
L75199 73380
L75142 73352
L75114 73295
L75114 73239
L75142 73183
L75199 73155
L75339 73155
L75395 73127
" />
<path d="M75930 73380
L75930 72789
" />
<path d="M75930 73352
L75874 73380
L75761 73380
L75705 73352
L75677 73323
L75649 73267
L75649 73099
L75677 73042
L75705 73014
L75761 72986
L75874 72986
L75930 73014
" />
<path d="M76070 73436
L76520 73436
" />
<path d="M76661 72986
L76661 73577
" />
<path d="M76661 73014
L76717 72986
L76830 72986
L76886 73014
L76914 73042
L76942 73099
L76942 73267
L76914 73323
L76886 73352
L76830 73380
L76717 73380
L76661 73352
" />
<path d="M77448 73352
L77392 73380
L77280 73380
L77223 73352
L77195 73323
L77167 73267
L77167 73099
L77195 73042
L77223 73014
L77280 72986
L77392 72986
L77448 73014
" />
<path d="M77701 73380
L77701 72789
" />
<path d="M77701 73014
L77758 72986
L77870 72986
L77926 73014
L77955 73042
L77983 73099
L77983 73267
L77955 73323
L77926 73352
L77870 73380
L77758 73380
L77701 73352
" />
</g>
<g style="fill:#000000; fill-opacity:0.0; 
stroke:#000000; stroke-width:39.3701; stroke-opacity:1; 
stroke-linecap:round; stroke-linejoin:round;">
</g>
<g style="fill:#000000; fill-opacity:0.0; 
stroke:#000000; stroke-width:59.0551; stroke-opacity:1; 
stroke-linecap:round; stroke-linejoin:round;">
<path d="M69685 71459
L112205 71459
" />
</g>
<g style="fill:#000000; fill-opacity:0.0; 
stroke:#000000; stroke-width:39.3701; stroke-opacity:1; 
stroke-linecap:round; stroke-linejoin:round;">
</g>
<g style="fill:#000000; fill-opacity:0.0; 
stroke:#000000; stroke-width:59.0551; stroke-opacity:1; 
stroke-linecap:round; stroke-linejoin:round;">
<text x="70079.6" y="72345.4"
textLength="3236.78" font-size="787.402" lengthAdjust="spacingAndGlyphs"
text-anchor="start" opacity="0">Sheet: </text>
<path d="M70221 72289
L70305 72317
L70446 72317
L70502 72289
L70530 72260
L70559 72204
L70559 72148
L70530 72092
L70502 72064
L70446 72036
L70334 72007
L70277 71979
L70249 71951
L70221 71895
L70221 71839
L70249 71782
L70277 71754
L70334 71726
L70474 71726
L70559 71754
" />
<path d="M70812 72317
L70812 71726
" />
<path d="M71065 72317
L71065 72007
L71037 71951
L70980 71923
L70896 71923
L70840 71951
L70812 71979
" />
<path d="M71571 72289
L71515 72317
L71402 72317
L71346 72289
L71318 72232
L71318 72007
L71346 71951
L71402 71923
L71515 71923
L71571 71951
L71599 72007
L71599 72064
L71318 72120
" />
<path d="M72077 72289
L72021 72317
L71908 72317
L71852 72289
L71824 72232
L71824 72007
L71852 71951
L71908 71923
L72021 71923
L72077 71951
L72105 72007
L72105 72064
L71824 72120
" />
<path d="M72274 71923
L72499 71923
" />
<path d="M72358 71726
L72358 72232
L72386 72289
L72443 72317
L72499 72317
" />
<path d="M72696 72260
L72724 72289
L72696 72317
L72668 72289
L72696 72260
L72696 72317
" />
<path d="M72696 71951
L72724 71979
L72696 72007
L72668 71979
L72696 71951
L72696 72007
" />
</g>
<g style="fill:#000000; fill-opacity:0.0; 
stroke:#000000; stroke-width:39.3701; stroke-opacity:1; 
stroke-linecap:round; stroke-linejoin:round;">
</g>
<g style="fill:#000000; fill-opacity:0.0; 
stroke:#000000; stroke-width:59.0551; stroke-opacity:1; 
stroke-linecap:round; stroke-linejoin:round;">
<path d="M77559 75396
L77559 76577
" />
</g>
<g style="fill:#000000; fill-opacity:0.0; 
stroke:#000000; stroke-width:39.3701; stroke-opacity:1; 
stroke-linecap:round; stroke-linejoin:round;">
</g>
<g style="fill:#000000; fill-opacity:0.0; 
stroke:#000000; stroke-width:59.0551; stroke-opacity:1; 
stroke-linecap:round; stroke-linejoin:round;">
<path d="M102756 75396
L102756 77955
" />
</g>
<g style="fill:#000000; fill-opacity:0.0; 
stroke:#000000; stroke-width:39.3701; stroke-opacity:1; 
stroke-linecap:round; stroke-linejoin:round;">
<path d="M72312 23911
L71918 23517
" />
<path d="M73981 23911
L72312 23911
" />
<path d="M73981 21844
L73981 23911
" />
<path d="M71918 21844
L73981 21844
" />
<path d="M71918 23517
L71918 21844
" />
<path d="M74885 22607
L74885 20836
" />
<path d="M75514 22607
L74885 22607
" />
<path d="M75514 20836
L75514 22607
" />
<path d="M74885 20836
L75514 20836
" />
<path d="M74944 20114
L73684 20114
" />
<path d="M74944 19485
L74944 20114
" />
<path d="M73684 19485
L74944 19485
" />
<path d="M73684 20114
L73684 19485
" />
<path d="M80197 24645
L81300 24645
" />
<path d="M81300 24645
L81300 25354
" />
<path d="M81300 25354
L80197 25354
" />
<path d="M80197 25354
L80197 24645
" />
<path d="M80453 25000
L80611 25000
" />
<path d="M80611 25000
L80611 24783
" />
<path d="M80611 25000
L80611 25216
" />
<path d="M80611 25000
L80847 24842
" />
<path d="M80847 24842
L80847 25157
" />
<path d="M80847 25157
L80611 25000
" />
<path d="M80847 25000
L81044 25000
" />
<path d="M78154 25648
L78154 26751
" />
<path d="M78154 26751
L77445 26751
" />
<path d="M77445 26751
L77445 25648
" />
<path d="M77445 25648
L78154 25648
" />
<path d="M77800 25904
L77800 26062
" />
<path d="M77800 26062
L78016 26062
" />
<path d="M77800 26062
L77583 26062
" />
<path d="M77800 26062
L77957 26298
" />
<path d="M77957 26298
L77642 26298
" />
<path d="M77642 26298
L77800 26062
" />
<path d="M77800 26298
L77800 26495
" />
<path d="M78200 24245
L79302 24245
" />
<path d="M79302 24245
L79302 24954
" />
<path d="M79302 24954
L78200 24954
" />
<path d="M78200 24954
L78200 24245
" />
<path d="M78455 24600
L78613 24600
" />
<path d="M78613 24600
L78613 24383
" />
<path d="M78613 24600
L78613 24816
" />
<path d="M78613 24600
L78849 24442
" />
<path d="M78849 24442
L78849 24757
" />
<path d="M78849 24757
L78613 24600
" />
<path d="M78849 24600
L79046 24600
" />
<path d="M80336 22470
L80336 22274
" />
<path d="M80434 22372
L80237 22372
" />
<path d="M80677 21250
L80283 20856
" />
<path d="M80677 22549
L80283 22943
" />
<path d="M80677 22549
L80677 21250
" />
<path d="M80283 20856
L78590 20856
" />
<path d="M80283 22943
L78590 22943
" />
<path d="M78590 22943
L78590 20856
" />
<circle cx="79633.9" cy="21900" r="984.252" /> 
<path d="M74863 26529
L74863 26725
" />
<path d="M74765 26627
L74962 26627
" />
<path d="M74522 27749
L74916 28143
" />
<path d="M74522 26450
L74916 26056
" />
<path d="M74522 26450
L74522 27749
" />
<path d="M74916 28143
L76609 28143
" />
<path d="M74916 26056
L76609 26056
" />
<path d="M76609 26056
L76609 28143
" />
<circle cx="75566.1" cy="27100" r="984.252" /> 
<path d="M76470 23661
L76470 21890
" />
<path d="M77729 23661
L76470 23661
" />
<path d="M77729 21890
L77729 23661
" />
<path d="M76470 21890
L77729 21890
" />
<path d="M75844 25692
L74584 25692
" />
<path d="M75844 24707
L75844 25692
" />
<path d="M74584 24707
L75844 24707
" />
<path d="M74584 25692
L74584 24707
" />
<g >
</g>
<g >
</g>
<g >
</g>
<g >
</g>
<g >
</g>
<g >
</g>
<g >
</g>
<g >
</g>
<g >
</g>
<g >
</g>
<g >
</g>
<g >
</g>
<g >
</g>
<g >
</g>
<g >
</g>
<g >
</g>
<g >
</g>
<g >
</g>
</g>
<g style="fill:#000000; fill-opacity:0.0; 
stroke:#000000; stroke-width:39.3701; stroke-opacity:1; 
stroke-linecap:round; stroke-linejoin:round;">
</g>
<g style="fill:#000000; fill-opacity:0.0; 
stroke:#000000; stroke-width:59.0551; stroke-opacity:1; 
stroke-linecap:round; stroke-linejoin:round;">
<text x="79900" y="17125.2"
textLength="1746.34" font-size="524.934" lengthAdjust="spacingAndGlyphs"
text-anchor="middle" opacity="0">REF**</text>
<path d="M79375 17106
L79243 16918
" />
<path d="M79150 17106
L79150 16712
L79300 16712
L79337 16731
L79356 16750
L79375 16787
L79375 16843
L79356 16881
L79337 16900
L79300 16918
L79150 16918
" />
<path d="M79543 16900
L79675 16900
" />
<path d="M79731 17106
L79543 17106
L79543 16712
L79731 16712
" />
<path d="M80031 16900
L79900 16900
" />
<path d="M79900 17106
L79900 16712
L80087 16712
" />
<path d="M80293 16712
L80293 16806
" />
<path d="M80199 16768
L80293 16806
L80387 16768
" />
<path d="M80237 16881
L80293 16806
L80349 16881
" />
<path d="M80593 16712
L80593 16806
" />
<path d="M80499 16768
L80593 16806
L80687 16768
" />
<path d="M80537 16881
L80593 16806
L80649 16881
" />
<text x="79900" y="20668.5"
textLength="8906.92" font-size="524.934" lengthAdjust="spacingAndGlyphs"
text-anchor="middle" opacity="0">MountingHole_3.5mm_Pad_Via</text>
<path d="M75578 20649
L75578 20256
L75709 20537
L75841 20256
L75841 20649
" />
<path d="M76084 20649
L76047 20631
L76028 20612
L76009 20574
L76009 20462
L76028 20424
L76047 20406
L76084 20387
L76141 20387
L76178 20406
L76197 20424
L76216 20462
L76216 20574
L76197 20612
L76178 20631
L76141 20649
L76084 20649
" />
<path d="M76553 20387
L76553 20649
" />
<path d="M76384 20387
L76384 20593
L76403 20631
L76441 20649
L76497 20649
L76534 20631
L76553 20612
" />
<path d="M76741 20387
L76741 20649
" />
<path d="M76741 20424
L76759 20406
L76797 20387
L76853 20387
L76891 20406
L76909 20443
L76909 20649
" />
<path d="M77040 20387
L77190 20387
" />
<path d="M77097 20256
L77097 20593
L77115 20631
L77153 20649
L77190 20649
" />
<path d="M77322 20649
L77322 20387
" />
<path d="M77322 20256
L77303 20274
L77322 20293
L77340 20274
L77322 20256
L77322 20293
" />
<path d="M77509 20387
L77509 20649
" />
<path d="M77509 20424
L77528 20406
L77565 20387
L77622 20387
L77659 20406
L77678 20443
L77678 20649
" />
<path d="M78034 20387
L78034 20705
L78015 20743
L77997 20762
L77959 20780
L77903 20780
L77865 20762
" />
<path d="M78034 20631
L77997 20649
L77922 20649
L77884 20631
L77865 20612
L77847 20574
L77847 20462
L77865 20424
L77884 20406
L77922 20387
L77997 20387
L78034 20406
" />
<path d="M78222 20649
L78222 20256
" />
<path d="M78222 20443
L78447 20443
" />
<path d="M78447 20649
L78447 20256
" />
<path d="M78690 20649
L78653 20631
L78634 20612
L78615 20574
L78615 20462
L78634 20424
L78653 20406
L78690 20387
L78747 20387
L78784 20406
L78803 20424
L78822 20462
L78822 20574
L78803 20612
L78784 20631
L78747 20649
L78690 20649
" />
<path d="M79046 20649
L79009 20631
L78990 20593
L78990 20256
" />
<path d="M79346 20631
L79309 20649
L79234 20649
L79196 20631
L79178 20593
L79178 20443
L79196 20406
L79234 20387
L79309 20387
L79346 20406
L79365 20443
L79365 20481
L79178 20518
" />
<path d="M79440 20687
L79740 20687
" />
<path d="M79796 20256
L80040 20256
L79909 20406
L79965 20406
L80003 20424
L80021 20443
L80040 20481
L80040 20574
L80021 20612
L80003 20631
L79965 20649
L79853 20649
L79815 20631
L79796 20612
" />
<path d="M80209 20612
L80228 20631
L80209 20649
L80190 20631
L80209 20612
L80209 20649
" />
<path d="M80584 20256
L80396 20256
L80378 20443
L80396 20424
L80434 20406
L80528 20406
L80565 20424
L80584 20443
L80603 20481
L80603 20574
L80584 20612
L80565 20631
L80528 20649
L80434 20649
L80396 20631
L80378 20612
" />
<path d="M80771 20649
L80771 20387
" />
<path d="M80771 20424
L80790 20406
L80828 20387
L80884 20387
L80921 20406
L80940 20443
L80940 20649
" />
<path d="M80940 20443
L80959 20406
L80996 20387
L81052 20387
L81090 20406
L81109 20443
L81109 20649
" />
<path d="M81296 20649
L81296 20387
" />
<path d="M81296 20424
L81315 20406
L81352 20387
L81409 20387
L81446 20406
L81465 20443
L81465 20649
" />
<path d="M81465 20443
L81484 20406
L81521 20387
L81577 20387
L81615 20406
L81634 20443
L81634 20649
" />
<path d="M81727 20687
L82027 20687
" />
<path d="M82121 20649
L82121 20256
L82271 20256
L82309 20274
L82327 20293
L82346 20331
L82346 20387
L82327 20424
L82309 20443
L82271 20462
L82121 20462
" />
<path d="M82684 20649
L82684 20443
L82665 20406
L82627 20387
L82552 20387
L82515 20406
" />
<path d="M82684 20631
L82646 20649
L82552 20649
L82515 20631
L82496 20593
L82496 20556
L82515 20518
L82552 20499
L82646 20499
L82684 20481
" />
<path d="M83040 20649
L83040 20256
" />
<path d="M83040 20631
L83002 20649
L82927 20649
L82890 20631
L82871 20612
L82852 20574
L82852 20462
L82871 20424
L82890 20406
L82927 20387
L83002 20387
L83040 20406
" />
<path d="M83133 20687
L83433 20687
" />
<path d="M83471 20256
L83602 20649
L83733 20256
" />
<path d="M83865 20649
L83865 20387
" />
<path d="M83865 20256
L83846 20274
L83865 20293
L83883 20274
L83865 20256
L83865 20293
" />
<path d="M84221 20649
L84221 20443
L84202 20406
L84165 20387
L84090 20387
L84052 20406
" />
<path d="M84221 20631
L84183 20649
L84090 20649
L84052 20631
L84033 20593
L84033 20556
L84052 20518
L84090 20499
L84183 20499
L84221 20481
" />
<text x="80018.1" y="18896.9"
textLength="1764.06" font-size="524.934" lengthAdjust="spacingAndGlyphs"
text-anchor="middle" opacity="0">REF**</text>
<path d="M79493 18878
L79361 18690
" />
<path d="M79268 18878
L79268 18484
L79418 18484
L79455 18503
L79474 18521
L79493 18559
L79493 18615
L79474 18653
L79455 18671
L79418 18690
L79268 18690
" />
<path d="M79661 18671
L79793 18671
" />
<path d="M79849 18878
L79661 18878
L79661 18484
L79849 18484
" />
<path d="M80149 18671
L80018 18671
" />
<path d="M80018 18878
L80018 18484
L80205 18484
" />
<path d="M80411 18484
L80411 18578
" />
<path d="M80318 18540
L80411 18578
L80505 18540
" />
<path d="M80355 18653
L80411 18578
L80468 18653
" />
<path d="M80711 18484
L80711 18578
" />
<path d="M80618 18540
L80711 18578
L80805 18540
" />
<path d="M80655 18653
L80711 18578
L80768 18653
" />
<text x="79900" y="25425.2"
textLength="1764.06" font-size="524.934" lengthAdjust="spacingAndGlyphs"
text-anchor="middle" opacity="0">REF**</text>
<path d="M79375 25406
L79243 25218
" />
<path d="M79150 25406
L79150 25012
L79300 25012
L79337 25031
L79356 25050
L79375 25087
L79375 25143
L79356 25181
L79337 25200
L79300 25218
L79150 25218
" />
<path d="M79543 25200
L79675 25200
" />
<path d="M79731 25406
L79543 25406
L79543 25012
L79731 25012
" />
<path d="M80031 25200
L79900 25200
" />
<path d="M79900 25406
L79900 25012
L80087 25012
" />
<path d="M80293 25012
L80293 25106
" />
<path d="M80199 25068
L80293 25106
L80387 25068
" />
<path d="M80237 25181
L80293 25106
L80349 25181
" />
<path d="M80593 25012
L80593 25106
" />
<path d="M80499 25068
L80593 25106
L80687 25068
" />
<path d="M80537 25181
L80593 25106
L80649 25181
" />
<text x="79900" y="28968.5"
textLength="8906.92" font-size="524.934" lengthAdjust="spacingAndGlyphs"
text-anchor="middle" opacity="0">MountingHole_3.5mm_Pad_Via</text>
<path d="M75578 28949
L75578 28556
L75709 28837
L75841 28556
L75841 28949
" />
<path d="M76084 28949
L76047 28931
L76028 28912
L76009 28874
L76009 28762
L76028 28724
L76047 28706
L76084 28687
L76141 28687
L76178 28706
L76197 28724
L76216 28762
L76216 28874
L76197 28912
L76178 28931
L76141 28949
L76084 28949
" />
<path d="M76553 28687
L76553 28949
" />
<path d="M76384 28687
L76384 28893
L76403 28931
L76441 28949
L76497 28949
L76534 28931
L76553 28912
" />
<path d="M76741 28687
L76741 28949
" />
<path d="M76741 28724
L76759 28706
L76797 28687
L76853 28687
L76891 28706
L76909 28743
L76909 28949
" />
<path d="M77040 28687
L77190 28687
" />
<path d="M77097 28556
L77097 28893
L77115 28931
L77153 28949
L77190 28949
" />
<path d="M77322 28949
L77322 28687
" />
<path d="M77322 28556
L77303 28574
L77322 28593
L77340 28574
L77322 28556
L77322 28593
" />
<path d="M77509 28687
L77509 28949
" />
<path d="M77509 28724
L77528 28706
L77565 28687
L77622 28687
L77659 28706
L77678 28743
L77678 28949
" />
<path d="M78034 28687
L78034 29005
L78015 29043
L77997 29062
L77959 29080
L77903 29080
L77865 29062
" />
<path d="M78034 28931
L77997 28949
L77922 28949
L77884 28931
L77865 28912
L77847 28874
L77847 28762
L77865 28724
L77884 28706
L77922 28687
L77997 28687
L78034 28706
" />
<path d="M78222 28949
L78222 28556
" />
<path d="M78222 28743
L78447 28743
" />
<path d="M78447 28949
L78447 28556
" />
<path d="M78690 28949
L78653 28931
L78634 28912
L78615 28874
L78615 28762
L78634 28724
L78653 28706
L78690 28687
L78747 28687
L78784 28706
L78803 28724
L78822 28762
L78822 28874
L78803 28912
L78784 28931
L78747 28949
L78690 28949
" />
<path d="M79046 28949
L79009 28931
L78990 28893
L78990 28556
" />
<path d="M79346 28931
L79309 28949
L79234 28949
L79196 28931
L79178 28893
L79178 28743
L79196 28706
L79234 28687
L79309 28687
L79346 28706
L79365 28743
L79365 28781
L79178 28818
" />
<path d="M79440 28987
L79740 28987
" />
<path d="M79796 28556
L80040 28556
L79909 28706
L79965 28706
L80003 28724
L80021 28743
L80040 28781
L80040 28874
L80021 28912
L80003 28931
L79965 28949
L79853 28949
L79815 28931
L79796 28912
" />
<path d="M80209 28912
L80228 28931
L80209 28949
L80190 28931
L80209 28912
L80209 28949
" />
<path d="M80584 28556
L80396 28556
L80378 28743
L80396 28724
L80434 28706
L80528 28706
L80565 28724
L80584 28743
L80603 28781
L80603 28874
L80584 28912
L80565 28931
L80528 28949
L80434 28949
L80396 28931
L80378 28912
" />
<path d="M80771 28949
L80771 28687
" />
<path d="M80771 28724
L80790 28706
L80828 28687
L80884 28687
L80921 28706
L80940 28743
L80940 28949
" />
<path d="M80940 28743
L80959 28706
L80996 28687
L81052 28687
L81090 28706
L81109 28743
L81109 28949
" />
<path d="M81296 28949
L81296 28687
" />
<path d="M81296 28724
L81315 28706
L81352 28687
L81409 28687
L81446 28706
L81465 28743
L81465 28949
" />
<path d="M81465 28743
L81484 28706
L81521 28687
L81577 28687
L81615 28706
L81634 28743
L81634 28949
" />
<path d="M81727 28987
L82027 28987
" />
<path d="M82121 28949
L82121 28556
L82271 28556
L82309 28574
L82327 28593
L82346 28631
L82346 28687
L82327 28724
L82309 28743
L82271 28762
L82121 28762
" />
<path d="M82684 28949
L82684 28743
L82665 28706
L82627 28687
L82552 28687
L82515 28706
" />
<path d="M82684 28931
L82646 28949
L82552 28949
L82515 28931
L82496 28893
L82496 28856
L82515 28818
L82552 28799
L82646 28799
L82684 28781
" />
<path d="M83040 28949
L83040 28556
" />
<path d="M83040 28931
L83002 28949
L82927 28949
L82890 28931
L82871 28912
L82852 28874
L82852 28762
L82871 28724
L82890 28706
L82927 28687
L83002 28687
L83040 28706
" />
<path d="M83133 28987
L83433 28987
" />
<path d="M83471 28556
L83602 28949
L83733 28556
" />
<path d="M83865 28949
L83865 28687
" />
<path d="M83865 28556
L83846 28574
L83865 28593
L83883 28574
L83865 28556
L83865 28593
" />
<path d="M84221 28949
L84221 28743
L84202 28706
L84165 28687
L84090 28687
L84052 28706
" />
<path d="M84221 28931
L84183 28949
L84090 28949
L84052 28931
L84033 28893
L84033 28856
L84052 28818
L84090 28799
L84183 28799
L84221 28781
" />
<text x="80018.1" y="27196.9"
textLength="1764.06" font-size="524.934" lengthAdjust="spacingAndGlyphs"
text-anchor="middle" opacity="0">REF**</text>
<path d="M79493 27178
L79361 26990
" />
<path d="M79268 27178
L79268 26784
L79418 26784
L79455 26803
L79474 26821
L79493 26859
L79493 26915
L79474 26953
L79455 26971
L79418 26990
L79268 26990
" />
<path d="M79661 26971
L79793 26971
" />
<path d="M79849 27178
L79661 27178
L79661 26784
L79849 26784
" />
<path d="M80149 26971
L80018 26971
" />
<path d="M80018 27178
L80018 26784
L80205 26784
" />
<path d="M80411 26784
L80411 26878
" />
<path d="M80318 26840
L80411 26878
L80505 26840
" />
<path d="M80355 26953
L80411 26878
L80468 26953
" />
<path d="M80711 26784
L80711 26878
" />
<path d="M80618 26840
L80711 26878
L80805 26840
" />
<path d="M80655 26953
L80711 26878
L80768 26953
" />
<text x="71600" y="25425.2"
textLength="1764.06" font-size="524.934" lengthAdjust="spacingAndGlyphs"
text-anchor="middle" opacity="0">REF**</text>
<path d="M71075 25406
L70943 25218
" />
<path d="M70850 25406
L70850 25012
L71000 25012
L71037 25031
L71056 25050
L71075 25087
L71075 25143
L71056 25181
L71037 25200
L71000 25218
L70850 25218
" />
<path d="M71243 25200
L71375 25200
" />
<path d="M71431 25406
L71243 25406
L71243 25012
L71431 25012
" />
<path d="M71731 25200
L71600 25200
" />
<path d="M71600 25406
L71600 25012
L71787 25012
" />
<path d="M71993 25012
L71993 25106
" />
<path d="M71899 25068
L71993 25106
L72087 25068
" />
<path d="M71937 25181
L71993 25106
L72049 25181
" />
<path d="M72293 25012
L72293 25106
" />
<path d="M72199 25068
L72293 25106
L72387 25068
" />
<path d="M72237 25181
L72293 25106
L72349 25181
" />
<text x="71600" y="28968.5"
textLength="8906.92" font-size="524.934" lengthAdjust="spacingAndGlyphs"
text-anchor="middle" opacity="0">MountingHole_3.5mm_Pad_Via</text>
<path d="M67278 28949
L67278 28556
L67409 28837
L67541 28556
L67541 28949
" />
<path d="M67784 28949
L67747 28931
L67728 28912
L67709 28874
L67709 28762
L67728 28724
L67747 28706
L67784 28687
L67841 28687
L67878 28706
L67897 28724
L67916 28762
L67916 28874
L67897 28912
L67878 28931
L67841 28949
L67784 28949
" />
<path d="M68253 28687
L68253 28949
" />
<path d="M68084 28687
L68084 28893
L68103 28931
L68141 28949
L68197 28949
L68234 28931
L68253 28912
" />
<path d="M68441 28687
L68441 28949
" />
<path d="M68441 28724
L68459 28706
L68497 28687
L68553 28687
L68591 28706
L68609 28743
L68609 28949
" />
<path d="M68740 28687
L68890 28687
" />
<path d="M68797 28556
L68797 28893
L68815 28931
L68853 28949
L68890 28949
" />
<path d="M69022 28949
L69022 28687
" />
<path d="M69022 28556
L69003 28574
L69022 28593
L69040 28574
L69022 28556
L69022 28593
" />
<path d="M69209 28687
L69209 28949
" />
<path d="M69209 28724
L69228 28706
L69265 28687
L69322 28687
L69359 28706
L69378 28743
L69378 28949
" />
<path d="M69734 28687
L69734 29005
L69715 29043
L69697 29062
L69659 29080
L69603 29080
L69565 29062
" />
<path d="M69734 28931
L69697 28949
L69622 28949
L69584 28931
L69565 28912
L69547 28874
L69547 28762
L69565 28724
L69584 28706
L69622 28687
L69697 28687
L69734 28706
" />
<path d="M69922 28949
L69922 28556
" />
<path d="M69922 28743
L70147 28743
" />
<path d="M70147 28949
L70147 28556
" />
<path d="M70390 28949
L70353 28931
L70334 28912
L70315 28874
L70315 28762
L70334 28724
L70353 28706
L70390 28687
L70447 28687
L70484 28706
L70503 28724
L70522 28762
L70522 28874
L70503 28912
L70484 28931
L70447 28949
L70390 28949
" />
<path d="M70746 28949
L70709 28931
L70690 28893
L70690 28556
" />
<path d="M71046 28931
L71009 28949
L70934 28949
L70896 28931
L70878 28893
L70878 28743
L70896 28706
L70934 28687
L71009 28687
L71046 28706
L71065 28743
L71065 28781
L70878 28818
" />
<path d="M71140 28987
L71440 28987
" />
<path d="M71496 28556
L71740 28556
L71609 28706
L71665 28706
L71703 28724
L71721 28743
L71740 28781
L71740 28874
L71721 28912
L71703 28931
L71665 28949
L71553 28949
L71515 28931
L71496 28912
" />
<path d="M71909 28912
L71928 28931
L71909 28949
L71890 28931
L71909 28912
L71909 28949
" />
<path d="M72284 28556
L72096 28556
L72078 28743
L72096 28724
L72134 28706
L72228 28706
L72265 28724
L72284 28743
L72303 28781
L72303 28874
L72284 28912
L72265 28931
L72228 28949
L72134 28949
L72096 28931
L72078 28912
" />
<path d="M72471 28949
L72471 28687
" />
<path d="M72471 28724
L72490 28706
L72528 28687
L72584 28687
L72621 28706
L72640 28743
L72640 28949
" />
<path d="M72640 28743
L72659 28706
L72696 28687
L72752 28687
L72790 28706
L72809 28743
L72809 28949
" />
<path d="M72996 28949
L72996 28687
" />
<path d="M72996 28724
L73015 28706
L73052 28687
L73109 28687
L73146 28706
L73165 28743
L73165 28949
" />
<path d="M73165 28743
L73184 28706
L73221 28687
L73277 28687
L73315 28706
L73334 28743
L73334 28949
" />
<path d="M73427 28987
L73727 28987
" />
<path d="M73821 28949
L73821 28556
L73971 28556
L74009 28574
L74027 28593
L74046 28631
L74046 28687
L74027 28724
L74009 28743
L73971 28762
L73821 28762
" />
<path d="M74384 28949
L74384 28743
L74365 28706
L74327 28687
L74252 28687
L74215 28706
" />
<path d="M74384 28931
L74346 28949
L74252 28949
L74215 28931
L74196 28893
L74196 28856
L74215 28818
L74252 28799
L74346 28799
L74384 28781
" />
<path d="M74740 28949
L74740 28556
" />
<path d="M74740 28931
L74702 28949
L74627 28949
L74590 28931
L74571 28912
L74552 28874
L74552 28762
L74571 28724
L74590 28706
L74627 28687
L74702 28687
L74740 28706
" />
<path d="M74833 28987
L75133 28987
" />
<path d="M75171 28556
L75302 28949
L75433 28556
" />
<path d="M75565 28949
L75565 28687
" />
<path d="M75565 28556
L75546 28574
L75565 28593
L75583 28574
L75565 28556
L75565 28593
" />
<path d="M75921 28949
L75921 28743
L75902 28706
L75865 28687
L75790 28687
L75752 28706
" />
<path d="M75921 28931
L75883 28949
L75790 28949
L75752 28931
L75733 28893
L75733 28856
L75752 28818
L75790 28799
L75883 28799
L75921 28781
" />
<text x="71718.1" y="27196.9"
textLength="1764.06" font-size="524.934" lengthAdjust="spacingAndGlyphs"
text-anchor="middle" opacity="0">REF**</text>
<path d="M71193 27178
L71061 26990
" />
<path d="M70968 27178
L70968 26784
L71118 26784
L71155 26803
L71174 26821
L71193 26859
L71193 26915
L71174 26953
L71155 26971
L71118 26990
L70968 26990
" />
<path d="M71361 26971
L71493 26971
" />
<path d="M71549 27178
L71361 27178
L71361 26784
L71549 26784
" />
<path d="M71849 26971
L71718 26971
" />
<path d="M71718 27178
L71718 26784
L71905 26784
" />
<path d="M72111 26784
L72111 26878
" />
<path d="M72018 26840
L72111 26878
L72205 26840
" />
<path d="M72055 26953
L72111 26878
L72168 26953
" />
<path d="M72411 26784
L72411 26878
" />
<path d="M72318 26840
L72411 26878
L72505 26840
" />
<path d="M72355 26953
L72411 26878
L72468 26953
" />
<text x="71600" y="17125.2"
textLength="1764.06" font-size="524.934" lengthAdjust="spacingAndGlyphs"
text-anchor="middle" opacity="0">REF**</text>
<path d="M71075 17106
L70943 16918
" />
<path d="M70850 17106
L70850 16712
L71000 16712
L71037 16731
L71056 16750
L71075 16787
L71075 16843
L71056 16881
L71037 16900
L71000 16918
L70850 16918
" />
<path d="M71243 16900
L71375 16900
" />
<path d="M71431 17106
L71243 17106
L71243 16712
L71431 16712
" />
<path d="M71731 16900
L71600 16900
" />
<path d="M71600 17106
L71600 16712
L71787 16712
" />
<path d="M71993 16712
L71993 16806
" />
<path d="M71899 16768
L71993 16806
L72087 16768
" />
<path d="M71937 16881
L71993 16806
L72049 16881
" />
<path d="M72293 16712
L72293 16806
" />
<path d="M72199 16768
L72293 16806
L72387 16768
" />
<path d="M72237 16881
L72293 16806
L72349 16881
" />
<text x="71600" y="20668.5"
textLength="8906.92" font-size="524.934" lengthAdjust="spacingAndGlyphs"
text-anchor="middle" opacity="0">MountingHole_3.5mm_Pad_Via</text>
<path d="M67278 20649
L67278 20256
L67409 20537
L67541 20256
L67541 20649
" />
<path d="M67784 20649
L67747 20631
L67728 20612
L67709 20574
L67709 20462
L67728 20424
L67747 20406
L67784 20387
L67841 20387
L67878 20406
L67897 20424
L67916 20462
L67916 20574
L67897 20612
L67878 20631
L67841 20649
L67784 20649
" />
<path d="M68253 20387
L68253 20649
" />
<path d="M68084 20387
L68084 20593
L68103 20631
L68141 20649
L68197 20649
L68234 20631
L68253 20612
" />
<path d="M68441 20387
L68441 20649
" />
<path d="M68441 20424
L68459 20406
L68497 20387
L68553 20387
L68591 20406
L68609 20443
L68609 20649
" />
<path d="M68740 20387
L68890 20387
" />
<path d="M68797 20256
L68797 20593
L68815 20631
L68853 20649
L68890 20649
" />
<path d="M69022 20649
L69022 20387
" />
<path d="M69022 20256
L69003 20274
L69022 20293
L69040 20274
L69022 20256
L69022 20293
" />
<path d="M69209 20387
L69209 20649
" />
<path d="M69209 20424
L69228 20406
L69265 20387
L69322 20387
L69359 20406
L69378 20443
L69378 20649
" />
<path d="M69734 20387
L69734 20705
L69715 20743
L69697 20762
L69659 20780
L69603 20780
L69565 20762
" />
<path d="M69734 20631
L69697 20649
L69622 20649
L69584 20631
L69565 20612
L69547 20574
L69547 20462
L69565 20424
L69584 20406
L69622 20387
L69697 20387
L69734 20406
" />
<path d="M69922 20649
L69922 20256
" />
<path d="M69922 20443
L70147 20443
" />
<path d="M70147 20649
L70147 20256
" />
<path d="M70390 20649
L70353 20631
L70334 20612
L70315 20574
L70315 20462
L70334 20424
L70353 20406
L70390 20387
L70447 20387
L70484 20406
L70503 20424
L70522 20462
L70522 20574
L70503 20612
L70484 20631
L70447 20649
L70390 20649
" />
<path d="M70746 20649
L70709 20631
L70690 20593
L70690 20256
" />
<path d="M71046 20631
L71009 20649
L70934 20649
L70896 20631
L70878 20593
L70878 20443
L70896 20406
L70934 20387
L71009 20387
L71046 20406
L71065 20443
L71065 20481
L70878 20518
" />
<path d="M71140 20687
L71440 20687
" />
<path d="M71496 20256
L71740 20256
L71609 20406
L71665 20406
L71703 20424
L71721 20443
L71740 20481
L71740 20574
L71721 20612
L71703 20631
L71665 20649
L71553 20649
L71515 20631
L71496 20612
" />
<path d="M71909 20612
L71928 20631
L71909 20649
L71890 20631
L71909 20612
L71909 20649
" />
<path d="M72284 20256
L72096 20256
L72078 20443
L72096 20424
L72134 20406
L72228 20406
L72265 20424
L72284 20443
L72303 20481
L72303 20574
L72284 20612
L72265 20631
L72228 20649
L72134 20649
L72096 20631
L72078 20612
" />
<path d="M72471 20649
L72471 20387
" />
<path d="M72471 20424
L72490 20406
L72528 20387
L72584 20387
L72621 20406
L72640 20443
L72640 20649
" />
<path d="M72640 20443
L72659 20406
L72696 20387
L72752 20387
L72790 20406
L72809 20443
L72809 20649
" />
<path d="M72996 20649
L72996 20387
" />
<path d="M72996 20424
L73015 20406
L73052 20387
L73109 20387
L73146 20406
L73165 20443
L73165 20649
" />
<path d="M73165 20443
L73184 20406
L73221 20387
L73277 20387
L73315 20406
L73334 20443
L73334 20649
" />
<path d="M73427 20687
L73727 20687
" />
<path d="M73821 20649
L73821 20256
L73971 20256
L74009 20274
L74027 20293
L74046 20331
L74046 20387
L74027 20424
L74009 20443
L73971 20462
L73821 20462
" />
<path d="M74384 20649
L74384 20443
L74365 20406
L74327 20387
L74252 20387
L74215 20406
" />
<path d="M74384 20631
L74346 20649
L74252 20649
L74215 20631
L74196 20593
L74196 20556
L74215 20518
L74252 20499
L74346 20499
L74384 20481
" />
<path d="M74740 20649
L74740 20256
" />
<path d="M74740 20631
L74702 20649
L74627 20649
L74590 20631
L74571 20612
L74552 20574
L74552 20462
L74571 20424
L74590 20406
L74627 20387
L74702 20387
L74740 20406
" />
<path d="M74833 20687
L75133 20687
" />
<path d="M75171 20256
L75302 20649
L75433 20256
" />
<path d="M75565 20649
L75565 20387
" />
<path d="M75565 20256
L75546 20274
L75565 20293
L75583 20274
L75565 20256
L75565 20293
" />
<path d="M75921 20649
L75921 20443
L75902 20406
L75865 20387
L75790 20387
L75752 20406
" />
<path d="M75921 20631
L75883 20649
L75790 20649
L75752 20631
L75733 20593
L75733 20556
L75752 20518
L75790 20499
L75883 20499
L75921 20481
" />
<text x="71718.1" y="18896.9"
textLength="1764.06" font-size="524.934" lengthAdjust="spacingAndGlyphs"
text-anchor="middle" opacity="0">REF**</text>
<path d="M71193 18878
L71061 18690
" />
<path d="M70968 18878
L70968 18484
L71118 18484
L71155 18503
L71174 18521
L71193 18559
L71193 18615
L71174 18653
L71155 18671
L71118 18690
L70968 18690
" />
<path d="M71361 18671
L71493 18671
" />
<path d="M71549 18878
L71361 18878
L71361 18484
L71549 18484
" />
<path d="M71849 18671
L71718 18671
" />
<path d="M71718 18878
L71718 18484
L71905 18484
" />
<path d="M72111 18484
L72111 18578
" />
<path d="M72018 18540
L72111 18578
L72205 18540
" />
<path d="M72055 18653
L72111 18578
L72168 18653
" />
<path d="M72411 18484
L72411 18578
" />
<path d="M72318 18540
L72411 18578
L72505 18540
" />
<path d="M72355 18653
L72411 18578
L72468 18653
" />
<g transform="rotate(-90 71544.5 22877.8)">
<text x="71544.5" y="23074.6"
textLength="864.173" font-size="524.934" lengthAdjust="spacingAndGlyphs"
text-anchor="middle" opacity="0">U1</text>
</g>
<path d="M71328 23177
L71647 23177
L71685 23158
L71703 23140
L71722 23102
L71722 23027
L71703 22990
L71685 22971
L71647 22952
L71328 22952
" />
<path d="M71722 22559
L71722 22784
" />
<path d="M71722 22671
L71328 22671
L71385 22709
L71422 22746
L71441 22784
" />
<g transform="rotate(-90 74355.5 22877.8)">
<text x="74355.5" y="23074.6"
textLength="1970.29" font-size="524.934" lengthAdjust="spacingAndGlyphs"
text-anchor="middle" opacity="0">LM555</text>
</g>
<path d="M74533 23543
L74533 23730
L74139 23730
" />
<path d="M74533 23412
L74139 23412
L74421 23280
L74139 23149
L74533 23149
" />
<path d="M74139 22774
L74139 22962
L74327 22980
L74308 22962
L74289 22924
L74289 22830
L74308 22793
L74327 22774
L74364 22755
L74458 22755
L74496 22774
L74514 22793
L74533 22830
L74533 22924
L74514 22962
L74496 22980
" />
<path d="M74139 22399
L74139 22587
L74327 22605
L74308 22587
L74289 22549
L74289 22455
L74308 22418
L74327 22399
L74364 22380
L74458 22380
L74496 22399
L74514 22418
L74533 22455
L74533 22549
L74514 22587
L74496 22605
" />
<path d="M74139 22024
L74139 22212
L74327 22230
L74308 22212
L74289 22174
L74289 22080
L74308 22043
L74327 22024
L74364 22005
L74458 22005
L74496 22024
L74514 22043
L74533 22080
L74533 22174
L74514 22212
L74496 22230
" />
<g transform="rotate(-90 72950 22877.8)">
<text x="72950" y="23074.6"
textLength="864.173" font-size="524.934" lengthAdjust="spacingAndGlyphs"
text-anchor="middle" opacity="0">U1</text>
</g>
<path d="M72734 23177
L73053 23177
L73090 23158
L73109 23140
L73128 23102
L73128 23027
L73109 22990
L73090 22971
L73053 22952
L72734 22952
" />
<path d="M73128 22559
L73128 22784
" />
<path d="M73128 22671
L72734 22671
L72790 22709
L72828 22746
L72846 22784
" />
<g transform="rotate(-90 75928.3 21721.9)">
<text x="75928.3" y="21918.7"
textLength="845.426" font-size="524.934" lengthAdjust="spacingAndGlyphs"
text-anchor="middle" opacity="0">R2</text>
</g>
<path d="M76106 21787
L75918 21918
" />
<path d="M76106 22012
L75712 22012
L75712 21862
L75731 21824
L75750 21806
L75787 21787
L75843 21787
L75881 21806
L75900 21824
L75918 21862
L75918 22012
" />
<path d="M75750 21637
L75731 21618
L75712 21581
L75712 21487
L75731 21450
L75750 21431
L75787 21412
L75825 21412
L75881 21431
L76106 21656
L76106 21412
" />
<g transform="rotate(-90 74471.7 21721.9)">
<text x="74471.7" y="21918.7"
textLength="1145.39" font-size="524.934" lengthAdjust="spacingAndGlyphs"
text-anchor="middle" opacity="0">15k</text>
</g>
<path d="M74649 21956
L74649 22181
" />
<path d="M74649 22068
L74256 22068
L74312 22106
L74349 22143
L74368 22181
" />
<path d="M74256 21599
L74256 21787
L74443 21806
L74424 21787
L74406 21749
L74406 21656
L74424 21618
L74443 21599
L74481 21581
L74574 21581
L74612 21599
L74631 21618
L74649 21656
L74649 21749
L74631 21787
L74612 21806
" />
<path d="M74649 21412
L74256 21412
" />
<path d="M74499 21375
L74649 21262
" />
<path d="M74387 21262
L74537 21412
" />
<g transform="rotate(-90 75200 21721.9)">
<text x="75200" y="21918.7"
textLength="845.426" font-size="524.934" lengthAdjust="spacingAndGlyphs"
text-anchor="middle" opacity="0">R2</text>
</g>
<path d="M75378 21787
L75190 21918
" />
<path d="M75378 22012
L74984 22012
L74984 21862
L75003 21824
L75021 21806
L75059 21787
L75115 21787
L75153 21806
L75171 21824
L75190 21862
L75190 22012
" />
<path d="M75021 21637
L75003 21618
L74984 21581
L74984 21487
L75003 21450
L75021 21431
L75059 21412
L75096 21412
L75153 21431
L75378 21656
L75378 21412
" />
<text x="74314.4" y="19280.3"
textLength="845.426" font-size="524.934" lengthAdjust="spacingAndGlyphs"
text-anchor="middle" opacity="0">R1</text>
<path d="M74248 19261
L74117 19074
" />
<path d="M74023 19261
L74023 18867
L74173 18867
L74211 18886
L74230 18905
L74248 18942
L74248 18999
L74230 19036
L74211 19055
L74173 19074
L74023 19074
" />
<path d="M74623 19261
L74398 19261
" />
<path d="M74511 19261
L74511 18867
L74473 18924
L74436 18961
L74398 18980
" />
<text x="74314.4" y="20713.4"
textLength="1332.86" font-size="524.934" lengthAdjust="spacingAndGlyphs"
text-anchor="middle" opacity="0">1.5k</text>
<path d="M73986 20694
L73761 20694
" />
<path d="M73873 20694
L73873 20300
L73836 20357
L73798 20394
L73761 20413
" />
<path d="M74155 20657
L74173 20675
L74155 20694
L74136 20675
L74155 20657
L74155 20694
" />
<path d="M74529 20300
L74342 20300
L74323 20488
L74342 20469
L74379 20450
L74473 20450
L74511 20469
L74529 20488
L74548 20525
L74548 20619
L74529 20657
L74511 20675
L74473 20694
L74379 20694
L74342 20675
L74323 20657
" />
<path d="M74717 20694
L74717 20300
" />
<path d="M74754 20544
L74867 20694
" />
<path d="M74867 20432
L74717 20582
" />
</g>
<g style="fill:#000000; fill-opacity:0.0; 
stroke:#000000; stroke-width:47.2441; stroke-opacity:1; 
stroke-linecap:round; stroke-linejoin:round;">
<text x="74314.4" y="19957.5"
textLength="691.695" font-size="419.947" lengthAdjust="spacingAndGlyphs"
text-anchor="middle" opacity="0">R1</text>
<path d="M74261 19942
L74156 19792
" />
<path d="M74081 19942
L74081 19627
L74201 19627
L74231 19642
L74246 19657
L74261 19687
L74261 19732
L74246 19762
L74231 19777
L74201 19792
L74081 19792
" />
<path d="M74561 19942
L74381 19942
" />
<path d="M74471 19942
L74471 19627
L74441 19672
L74411 19702
L74381 19717
" />
</g>
<g style="fill:#000000; fill-opacity:0.0; 
stroke:#000000; stroke-width:59.0551; stroke-opacity:1; 
stroke-linecap:round; stroke-linejoin:round;">
<text x="80698.8" y="24446.9"
textLength="830.071" font-size="524.934" lengthAdjust="spacingAndGlyphs"
text-anchor="middle" opacity="0">D3</text>
<path d="M80408 24428
L80408 24034
L80501 24034
L80558 24053
L80595 24090
L80614 24128
L80633 24203
L80633 24259
L80614 24334
L80595 24371
L80558 24409
L80501 24428
L80408 24428
" />
<path d="M80764 24034
L81008 24034
L80876 24184
L80933 24184
L80970 24203
L80989 24221
L81008 24259
L81008 24353
L80989 24390
L80970 24409
L80933 24428
L80820 24428
L80783 24409
L80764 24390
" />
<text x="80748.8" y="26023.6"
textLength="376.734" font-size="524.934" lengthAdjust="spacingAndGlyphs"
text-anchor="middle" opacity="0"> </text>
<text x="80698.8" y="24446.9"
textLength="845.426" font-size="524.934" lengthAdjust="spacingAndGlyphs"
text-anchor="middle" opacity="0">D3</text>
<path d="M80408 24428
L80408 24034
L80501 24034
L80558 24053
L80595 24090
L80614 24128
L80633 24203
L80633 24259
L80614 24334
L80595 24371
L80558 24409
L80501 24428
L80408 24428
" />
<path d="M80764 24034
L81008 24034
L80876 24184
L80933 24184
L80970 24203
L80989 24221
L81008 24259
L81008 24353
L80989 24390
L80970 24409
L80933 24428
L80820 24428
L80783 24409
L80764 24390
" />
<text x="77800" y="27996.9"
textLength="845.426" font-size="524.934" lengthAdjust="spacingAndGlyphs"
text-anchor="middle" opacity="0">D2</text>
<path d="M77509 27978
L77509 27584
L77603 27584
L77659 27603
L77696 27640
L77715 27678
L77734 27753
L77734 27809
L77715 27884
L77696 27921
L77659 27959
L77603 27978
L77509 27978
" />
<path d="M77884 27621
L77903 27603
L77940 27584
L78034 27584
L78071 27603
L78090 27621
L78109 27659
L78109 27696
L78090 27753
L77865 27978
L78109 27978
" />
<g transform="rotate(-90 76973.2 26200)">
<text x="76973.2" y="26396.9"
textLength="376.734" font-size="524.934" lengthAdjust="spacingAndGlyphs"
text-anchor="middle" opacity="0"> </text>
</g>
<g transform="rotate(-90 78550 26150)">
<text x="78550" y="26346.9"
textLength="845.426" font-size="524.934" lengthAdjust="spacingAndGlyphs"
text-anchor="middle" opacity="0">D2</text>
</g>
<path d="M78728 26440
L78334 26440
L78334 26346
L78353 26290
L78390 26253
L78428 26234
L78503 26215
L78559 26215
L78634 26234
L78671 26253
L78709 26290
L78728 26346
L78728 26440
" />
<path d="M78371 26065
L78353 26046
L78334 26009
L78334 25915
L78353 25878
L78371 25859
L78409 25840
L78446 25840
L78503 25859
L78728 26084
L78728 25840
" />
<text x="78701.2" y="24046.9"
textLength="845.426" font-size="524.934" lengthAdjust="spacingAndGlyphs"
text-anchor="middle" opacity="0">D1</text>
<path d="M78410 24028
L78410 23634
L78504 23634
L78560 23653
L78598 23690
L78616 23728
L78635 23803
L78635 23859
L78616 23934
L78598 23971
L78560 24009
L78504 24028
L78410 24028
" />
<path d="M79010 24028
L78785 24028
" />
<path d="M78898 24028
L78898 23634
L78860 23690
L78823 23728
L78785 23746
" />
<text x="78751.2" y="25623.6"
textLength="376.734" font-size="524.934" lengthAdjust="spacingAndGlyphs"
text-anchor="middle" opacity="0"> </text>
<text x="78701.2" y="24046.9"
textLength="845.426" font-size="524.934" lengthAdjust="spacingAndGlyphs"
text-anchor="middle" opacity="0">D1</text>
<path d="M78410 24028
L78410 23634
L78504 23634
L78560 23653
L78598 23690
L78616 23728
L78635 23803
L78635 23859
L78616 23934
L78598 23971
L78560 24009
L78504 24028
L78410 24028
" />
<path d="M79010 24028
L78785 24028
" />
<path d="M78898 24028
L78898 23634
L78860 23690
L78823 23728
L78785 23746
" />
<text x="79633.9" y="23553.5"
textLength="845.426" font-size="524.934" lengthAdjust="spacingAndGlyphs"
text-anchor="middle" opacity="0">C4</text>
<path d="M79568 23497
L79549 23516
L79493 23534
L79455 23534
L79399 23516
L79362 23478
L79343 23441
L79324 23366
L79324 23309
L79343 23234
L79362 23197
L79399 23159
L79455 23141
L79493 23141
L79549 23159
L79568 23178
" />
<path d="M79905 23272
L79905 23534
" />
<path d="M79811 23122
L79718 23403
L79961 23403
" />
<text x="79633.9" y="20640.2"
textLength="1557.84" font-size="524.934" lengthAdjust="spacingAndGlyphs"
text-anchor="middle" opacity="0">100u</text>
<path d="M79193 20621
L78968 20621
" />
<path d="M79080 20621
L79080 20227
L79043 20283
L79005 20321
L78968 20340
" />
<path d="M79437 20227
L79474 20227
L79511 20246
L79530 20265
L79549 20302
L79568 20377
L79568 20471
L79549 20546
L79530 20583
L79511 20602
L79474 20621
L79437 20621
L79399 20602
L79380 20583
L79362 20546
L79343 20471
L79343 20377
L79362 20302
L79380 20265
L79399 20246
L79437 20227
" />
<path d="M79811 20227
L79849 20227
L79886 20246
L79905 20265
L79924 20302
L79943 20377
L79943 20471
L79924 20546
L79905 20583
L79886 20602
L79849 20621
L79811 20621
L79774 20602
L79755 20583
L79736 20546
L79718 20471
L79718 20377
L79736 20302
L79755 20265
L79774 20246
L79811 20227
" />
<path d="M80280 20358
L80280 20621
" />
<path d="M80111 20358
L80111 20565
L80130 20602
L80168 20621
L80224 20621
L80261 20602
L80280 20583
" />
<text x="79633.9" y="22096.9"
textLength="845.426" font-size="524.934" lengthAdjust="spacingAndGlyphs"
text-anchor="middle" opacity="0">C4</text>
<path d="M79568 22040
L79549 22059
L79493 22078
L79455 22078
L79399 22059
L79362 22021
L79343 21984
L79324 21909
L79324 21853
L79343 21778
L79362 21740
L79399 21703
L79455 21684
L79493 21684
L79549 21703
L79568 21721
" />
<path d="M79905 21815
L79905 22078
" />
<path d="M79811 21665
L79718 21946
L79961 21946
" />
<text x="74000" y="28396.9"
textLength="845.426" font-size="524.934" lengthAdjust="spacingAndGlyphs"
text-anchor="middle" opacity="0">C3</text>
<path d="M73934 28340
L73915 28359
L73859 28378
L73821 28378
L73765 28359
L73728 28321
L73709 28284
L73690 28209
L73690 28153
L73709 28078
L73728 28040
L73765 28003
L73821 27984
L73859 27984
L73915 28003
L73934 28021
" />
<path d="M74065 27984
L74309 27984
L74178 28134
L74234 28134
L74271 28153
L74290 28171
L74309 28209
L74309 28303
L74290 28340
L74271 28359
L74234 28378
L74121 28378
L74084 28359
L74065 28340
" />
<text x="75566.1" y="28753.5"
textLength="1557.84" font-size="524.934" lengthAdjust="spacingAndGlyphs"
text-anchor="middle" opacity="0">100u</text>
<path d="M75125 28734
L74900 28734
" />
<path d="M75013 28734
L75013 28341
L74975 28397
L74938 28434
L74900 28453
" />
<path d="M75369 28341
L75406 28341
L75444 28359
L75463 28378
L75481 28416
L75500 28491
L75500 28584
L75481 28659
L75463 28697
L75444 28716
L75406 28734
L75369 28734
L75331 28716
L75313 28697
L75294 28659
L75275 28584
L75275 28491
L75294 28416
L75313 28378
L75331 28359
L75369 28341
" />
<path d="M75744 28341
L75781 28341
L75819 28359
L75837 28378
L75856 28416
L75875 28491
L75875 28584
L75856 28659
L75837 28697
L75819 28716
L75781 28734
L75744 28734
L75706 28716
L75688 28697
L75669 28659
L75650 28584
L75650 28491
L75669 28416
L75688 28378
L75706 28359
L75744 28341
" />
<path d="M76212 28472
L76212 28734
" />
<path d="M76044 28472
L76044 28678
L76062 28716
L76100 28734
L76156 28734
L76194 28716
L76212 28697
" />
<text x="75566.1" y="27296.9"
textLength="845.426" font-size="524.934" lengthAdjust="spacingAndGlyphs"
text-anchor="middle" opacity="0">C3</text>
<path d="M75500 27240
L75481 27259
L75425 27278
L75388 27278
L75331 27259
L75294 27221
L75275 27184
L75256 27109
L75256 27053
L75275 26978
L75294 26940
L75331 26903
L75388 26884
L75425 26884
L75481 26903
L75500 26921
" />
<path d="M75631 26884
L75875 26884
L75744 27034
L75800 27034
L75837 27053
L75856 27071
L75875 27109
L75875 27203
L75856 27240
L75837 27259
L75800 27278
L75688 27278
L75650 27259
L75631 27240
" />
<g transform="rotate(-90 78143.3 22776)">
<text x="78143.3" y="22972.8"
textLength="845.426" font-size="524.934" lengthAdjust="spacingAndGlyphs"
text-anchor="middle" opacity="0">C2</text>
</g>
<path d="M78283 22841
L78302 22860
L78321 22916
L78321 22954
L78302 23010
L78265 23047
L78227 23066
L78152 23085
L78096 23085
L78021 23066
L77983 23047
L77946 23010
L77927 22954
L77927 22916
L77946 22860
L77965 22841
" />
<path d="M77965 22691
L77946 22672
L77927 22635
L77927 22541
L77946 22504
L77965 22485
L78002 22466
L78040 22466
L78096 22485
L78321 22710
L78321 22466
" />
<g transform="rotate(-90 76056.7 22776)">
<text x="76056.7" y="22972.8"
textLength="1557.84" font-size="524.934" lengthAdjust="spacingAndGlyphs"
text-anchor="middle" opacity="0">100n</text>
</g>
<path d="M76234 23216
L76234 23441
" />
<path d="M76234 23329
L75841 23329
L75897 23366
L75934 23404
L75953 23441
" />
<path d="M75841 22972
L75841 22935
L75859 22897
L75878 22879
L75916 22860
L75991 22841
L76084 22841
L76159 22860
L76197 22879
L76216 22897
L76234 22935
L76234 22972
L76216 23010
L76197 23029
L76159 23047
L76084 23066
L75991 23066
L75916 23047
L75878 23029
L75859 23010
L75841 22972
" />
<path d="M75841 22597
L75841 22560
L75859 22522
L75878 22504
L75916 22485
L75991 22466
L76084 22466
L76159 22485
L76197 22504
L76216 22522
L76234 22560
L76234 22597
L76216 22635
L76197 22654
L76159 22672
L76084 22691
L75991 22691
L75916 22672
L75878 22654
L75859 22635
L75841 22597
" />
<path d="M75972 22297
L76234 22297
" />
<path d="M76009 22297
L75991 22279
L75972 22241
L75972 22185
L75991 22147
L76028 22129
L76234 22129
" />
<g transform="rotate(-90 77100 22776)">
<text x="77100" y="22972.8"
textLength="845.426" font-size="524.934" lengthAdjust="spacingAndGlyphs"
text-anchor="middle" opacity="0">C2</text>
</g>
<path d="M77240 22841
L77259 22860
L77278 22916
L77278 22954
L77259 23010
L77221 23047
L77184 23066
L77109 23085
L77053 23085
L76978 23066
L76940 23047
L76903 23010
L76884 22954
L76884 22916
L76903 22860
L76921 22841
" />
<path d="M76921 22691
L76903 22672
L76884 22635
L76884 22541
L76903 22504
L76921 22485
L76959 22466
L76996 22466
L77053 22485
L77278 22710
L77278 22466
" />
<text x="75214.4" y="24499.2"
textLength="845.426" font-size="524.934" lengthAdjust="spacingAndGlyphs"
text-anchor="middle" opacity="0">C1</text>
<path d="M75148 24442
L75130 24461
L75073 24480
L75036 24480
L74980 24461
L74942 24424
L74923 24386
L74905 24311
L74905 24255
L74923 24180
L74942 24143
L74980 24105
L75036 24086
L75073 24086
L75130 24105
L75148 24124
" />
<path d="M75523 24480
L75298 24480
" />
<path d="M75411 24480
L75411 24086
L75373 24143
L75336 24180
L75298 24199
" />
<text x="75214.4" y="26294.5"
textLength="1182.88" font-size="524.934" lengthAdjust="spacingAndGlyphs"
text-anchor="middle" opacity="0">33n</text>
<path d="M74717 25882
L74961 25882
L74830 26032
L74886 26032
L74923 26050
L74942 26069
L74961 26107
L74961 26200
L74942 26238
L74923 26256
L74886 26275
L74773 26275
L74736 26256
L74717 26238
" />
<path d="M75092 25882
L75336 25882
L75204 26032
L75261 26032
L75298 26050
L75317 26069
L75336 26107
L75336 26200
L75317 26238
L75298 26256
L75261 26275
L75148 26275
L75111 26256
L75092 26238
" />
<path d="M75504 26013
L75504 26275
" />
<path d="M75504 26050
L75523 26032
L75561 26013
L75617 26013
L75654 26032
L75673 26069
L75673 26275
" />
</g>
<g style="fill:#000000; fill-opacity:0.0; 
stroke:#000000; stroke-width:47.2441; stroke-opacity:1; 
stroke-linecap:round; stroke-linejoin:round;">
<text x="75214.4" y="25357.5"
textLength="691.695" font-size="419.947" lengthAdjust="spacingAndGlyphs"
text-anchor="middle" opacity="0">C1</text>
<path d="M75161 25312
L75146 25327
L75101 25342
L75071 25342
L75026 25327
L74996 25297
L74981 25267
L74966 25207
L74966 25162
L74981 25102
L74996 25072
L75026 25042
L75071 25027
L75101 25027
L75146 25042
L75161 25057
" />
<path d="M75461 25342
L75281 25342
" />
<path d="M75371 25342
L75371 25027
L75341 25072
L75311 25102
L75281 25117
" />
<g >
</g>
</g>
<g style="fill:#000000; fill-opacity:0.0; 
stroke:#000000; stroke-width:47.2441; stroke-opacity:1; 
stroke-linecap:round; stroke-linejoin:round;">
</g>
<g style="fill:#000000; fill-opacity:0.0; 
stroke:#000000; stroke-width:19.685; stroke-opacity:1; 
stroke-linecap:round; stroke-linejoin:round;">
<path d="M81700 18700 A1800 1800 0.0 0 0 79900 16900 " />
<path d="M79900 28800 A1800 1800 0.0 0 0 81700 27000 " />
<path d="M69800 27000 A1800 1800 0.0 0 0 71600 28800 " />
<path d="M71600 16900 A1800 1800 0.0 0 0 69800 18700 " />
<path d="M79900 16900
L71600 16900
" />
<path d="M81700 27000
L81700 18700
" />
<path d="M71600 28800
L79900 28800
" />
<path d="M69800 18700
L69800 27000
" />
<g >
</g>
<g >
</g>
<g >
</g>
<g >
</g>
<g >
</g>
<g >
</g>
<g >
</g>
<g >
</g>
<g >
</g>
<g >
</g>
<g >
</g>
<g >
</g>
<g >
</g>
<g >
</g>
<g >
</g>
<g >
</g>
<g >
</g>
<g >
</g>
<g >
</g>
</g> 
</svg>
