G04 #@! TF.GenerationSoftware,KiCad,Pcbnew,(5.1.5)-3*
G04 #@! TF.CreationDate,2020-05-09T15:27:07-04:00*
G04 #@! TF.ProjectId,v2,76322e6b-6963-4616-945f-706362585858,rev?*
G04 #@! TF.SameCoordinates,Original*
G04 #@! TF.FileFunction,Legend,Bot*
G04 #@! TF.FilePolarity,Positive*
%FSLAX46Y46*%
G04 Gerber Fmt 4.6, Leading zero omitted, Abs format (unit mm)*
G04 Created by KiCad (PCBNEW (5.1.5)-3) date 2020-05-09 15:27:07*
%MOMM*%
%LPD*%
G04 APERTURE LIST*
%ADD10C,0.100000*%
%ADD11C,0.150000*%
%ADD12C,0.300000*%
%ADD13C,0.400000*%
G04 APERTURE END LIST*
D10*
D11*
X177002200Y-166007200D02*
X177002200Y-198007200D01*
X285002200Y-198007200D01*
X285002200Y-166007200D01*
X177002200Y-166007200D01*
D10*
D11*
X10000000Y-10000000D02*
X10000000Y-200007200D01*
X287002200Y-200007200D01*
X287002200Y-10000000D01*
X10000000Y-10000000D01*
D10*
D11*
X12000000Y-12000000D02*
X12000000Y-198007200D01*
X285002200Y-198007200D01*
X285002200Y-12000000D01*
X12000000Y-12000000D01*
D10*
D11*
X60000000Y-12000000D02*
X60000000Y-10000000D01*
D10*
D11*
X110000000Y-12000000D02*
X110000000Y-10000000D01*
D10*
D11*
X160000000Y-12000000D02*
X160000000Y-10000000D01*
D10*
D11*
X210000000Y-12000000D02*
X210000000Y-10000000D01*
D10*
D11*
X260000000Y-12000000D02*
X260000000Y-10000000D01*
D10*
D11*
X36065476Y-11588095D02*
X35322619Y-11588095D01*
X35694047Y-11588095D02*
X35694047Y-10288095D01*
X35570238Y-10473809D01*
X35446428Y-10597619D01*
X35322619Y-10659523D01*
D10*
D11*
X85322619Y-10411904D02*
X85384523Y-10350000D01*
X85508333Y-10288095D01*
X85817857Y-10288095D01*
X85941666Y-10350000D01*
X86003571Y-10411904D01*
X86065476Y-10535714D01*
X86065476Y-10659523D01*
X86003571Y-10845238D01*
X85260714Y-11588095D01*
X86065476Y-11588095D01*
D10*
D11*
X135260714Y-10288095D02*
X136065476Y-10288095D01*
X135632142Y-10783333D01*
X135817857Y-10783333D01*
X135941666Y-10845238D01*
X136003571Y-10907142D01*
X136065476Y-11030952D01*
X136065476Y-11340476D01*
X136003571Y-11464285D01*
X135941666Y-11526190D01*
X135817857Y-11588095D01*
X135446428Y-11588095D01*
X135322619Y-11526190D01*
X135260714Y-11464285D01*
D10*
D11*
X185941666Y-10721428D02*
X185941666Y-11588095D01*
X185632142Y-10226190D02*
X185322619Y-11154761D01*
X186127380Y-11154761D01*
D10*
D11*
X236003571Y-10288095D02*
X235384523Y-10288095D01*
X235322619Y-10907142D01*
X235384523Y-10845238D01*
X235508333Y-10783333D01*
X235817857Y-10783333D01*
X235941666Y-10845238D01*
X236003571Y-10907142D01*
X236065476Y-11030952D01*
X236065476Y-11340476D01*
X236003571Y-11464285D01*
X235941666Y-11526190D01*
X235817857Y-11588095D01*
X235508333Y-11588095D01*
X235384523Y-11526190D01*
X235322619Y-11464285D01*
D10*
D11*
X285941666Y-10288095D02*
X285694047Y-10288095D01*
X285570238Y-10350000D01*
X285508333Y-10411904D01*
X285384523Y-10597619D01*
X285322619Y-10845238D01*
X285322619Y-11340476D01*
X285384523Y-11464285D01*
X285446428Y-11526190D01*
X285570238Y-11588095D01*
X285817857Y-11588095D01*
X285941666Y-11526190D01*
X286003571Y-11464285D01*
X286065476Y-11340476D01*
X286065476Y-11030952D01*
X286003571Y-10907142D01*
X285941666Y-10845238D01*
X285817857Y-10783333D01*
X285570238Y-10783333D01*
X285446428Y-10845238D01*
X285384523Y-10907142D01*
X285322619Y-11030952D01*
D10*
D11*
X60000000Y-198007200D02*
X60000000Y-200007200D01*
D10*
D11*
X110000000Y-198007200D02*
X110000000Y-200007200D01*
D10*
D11*
X160000000Y-198007200D02*
X160000000Y-200007200D01*
D10*
D11*
X210000000Y-198007200D02*
X210000000Y-200007200D01*
D10*
D11*
X260000000Y-198007200D02*
X260000000Y-200007200D01*
D10*
D11*
X36065476Y-199595295D02*
X35322619Y-199595295D01*
X35694047Y-199595295D02*
X35694047Y-198295295D01*
X35570238Y-198481009D01*
X35446428Y-198604819D01*
X35322619Y-198666723D01*
D10*
D11*
X85322619Y-198419104D02*
X85384523Y-198357200D01*
X85508333Y-198295295D01*
X85817857Y-198295295D01*
X85941666Y-198357200D01*
X86003571Y-198419104D01*
X86065476Y-198542914D01*
X86065476Y-198666723D01*
X86003571Y-198852438D01*
X85260714Y-199595295D01*
X86065476Y-199595295D01*
D10*
D11*
X135260714Y-198295295D02*
X136065476Y-198295295D01*
X135632142Y-198790533D01*
X135817857Y-198790533D01*
X135941666Y-198852438D01*
X136003571Y-198914342D01*
X136065476Y-199038152D01*
X136065476Y-199347676D01*
X136003571Y-199471485D01*
X135941666Y-199533390D01*
X135817857Y-199595295D01*
X135446428Y-199595295D01*
X135322619Y-199533390D01*
X135260714Y-199471485D01*
D10*
D11*
X185941666Y-198728628D02*
X185941666Y-199595295D01*
X185632142Y-198233390D02*
X185322619Y-199161961D01*
X186127380Y-199161961D01*
D10*
D11*
X236003571Y-198295295D02*
X235384523Y-198295295D01*
X235322619Y-198914342D01*
X235384523Y-198852438D01*
X235508333Y-198790533D01*
X235817857Y-198790533D01*
X235941666Y-198852438D01*
X236003571Y-198914342D01*
X236065476Y-199038152D01*
X236065476Y-199347676D01*
X236003571Y-199471485D01*
X235941666Y-199533390D01*
X235817857Y-199595295D01*
X235508333Y-199595295D01*
X235384523Y-199533390D01*
X235322619Y-199471485D01*
D10*
D11*
X285941666Y-198295295D02*
X285694047Y-198295295D01*
X285570238Y-198357200D01*
X285508333Y-198419104D01*
X285384523Y-198604819D01*
X285322619Y-198852438D01*
X285322619Y-199347676D01*
X285384523Y-199471485D01*
X285446428Y-199533390D01*
X285570238Y-199595295D01*
X285817857Y-199595295D01*
X285941666Y-199533390D01*
X286003571Y-199471485D01*
X286065476Y-199347676D01*
X286065476Y-199038152D01*
X286003571Y-198914342D01*
X285941666Y-198852438D01*
X285817857Y-198790533D01*
X285570238Y-198790533D01*
X285446428Y-198852438D01*
X285384523Y-198914342D01*
X285322619Y-199038152D01*
D10*
D11*
X10000000Y-60000000D02*
X12000000Y-60000000D01*
D10*
D11*
X10000000Y-110000000D02*
X12000000Y-110000000D01*
D10*
D11*
X10000000Y-160000000D02*
X12000000Y-160000000D01*
D10*
D11*
X10690476Y-35216666D02*
X11309523Y-35216666D01*
X10566666Y-35588095D02*
X11000000Y-34288095D01*
X11433333Y-35588095D01*
D10*
D11*
X11092857Y-84907142D02*
X11278571Y-84969047D01*
X11340476Y-85030952D01*
X11402380Y-85154761D01*
X11402380Y-85340476D01*
X11340476Y-85464285D01*
X11278571Y-85526190D01*
X11154761Y-85588095D01*
X10659523Y-85588095D01*
X10659523Y-84288095D01*
X11092857Y-84288095D01*
X11216666Y-84350000D01*
X11278571Y-84411904D01*
X11340476Y-84535714D01*
X11340476Y-84659523D01*
X11278571Y-84783333D01*
X11216666Y-84845238D01*
X11092857Y-84907142D01*
X10659523Y-84907142D01*
D10*
D11*
X11402380Y-135464285D02*
X11340476Y-135526190D01*
X11154761Y-135588095D01*
X11030952Y-135588095D01*
X10845238Y-135526190D01*
X10721428Y-135402380D01*
X10659523Y-135278571D01*
X10597619Y-135030952D01*
X10597619Y-134845238D01*
X10659523Y-134597619D01*
X10721428Y-134473809D01*
X10845238Y-134350000D01*
X11030952Y-134288095D01*
X11154761Y-134288095D01*
X11340476Y-134350000D01*
X11402380Y-134411904D01*
D10*
D11*
X10659523Y-185588095D02*
X10659523Y-184288095D01*
X10969047Y-184288095D01*
X11154761Y-184350000D01*
X11278571Y-184473809D01*
X11340476Y-184597619D01*
X11402380Y-184845238D01*
X11402380Y-185030952D01*
X11340476Y-185278571D01*
X11278571Y-185402380D01*
X11154761Y-185526190D01*
X10969047Y-185588095D01*
X10659523Y-185588095D01*
D10*
D11*
X287002200Y-60000000D02*
X285002200Y-60000000D01*
D10*
D11*
X287002200Y-110000000D02*
X285002200Y-110000000D01*
D10*
D11*
X287002200Y-160000000D02*
X285002200Y-160000000D01*
D10*
D11*
X285692676Y-35216666D02*
X286311723Y-35216666D01*
X285568866Y-35588095D02*
X286002200Y-34288095D01*
X286435533Y-35588095D01*
D10*
D11*
X286095057Y-84907142D02*
X286280771Y-84969047D01*
X286342676Y-85030952D01*
X286404580Y-85154761D01*
X286404580Y-85340476D01*
X286342676Y-85464285D01*
X286280771Y-85526190D01*
X286156961Y-85588095D01*
X285661723Y-85588095D01*
X285661723Y-84288095D01*
X286095057Y-84288095D01*
X286218866Y-84350000D01*
X286280771Y-84411904D01*
X286342676Y-84535714D01*
X286342676Y-84659523D01*
X286280771Y-84783333D01*
X286218866Y-84845238D01*
X286095057Y-84907142D01*
X285661723Y-84907142D01*
D10*
D11*
X286404580Y-135464285D02*
X286342676Y-135526190D01*
X286156961Y-135588095D01*
X286033152Y-135588095D01*
X285847438Y-135526190D01*
X285723628Y-135402380D01*
X285661723Y-135278571D01*
X285599819Y-135030952D01*
X285599819Y-134845238D01*
X285661723Y-134597619D01*
X285723628Y-134473809D01*
X285847438Y-134350000D01*
X286033152Y-134288095D01*
X286156961Y-134288095D01*
X286342676Y-134350000D01*
X286404580Y-134411904D01*
D10*
D11*
X285661723Y-185588095D02*
X285661723Y-184288095D01*
X285971247Y-184288095D01*
X286156961Y-184350000D01*
X286280771Y-184473809D01*
X286342676Y-184597619D01*
X286404580Y-184845238D01*
X286404580Y-185030952D01*
X286342676Y-185278571D01*
X286280771Y-185402380D01*
X286156961Y-185526190D01*
X285971247Y-185588095D01*
X285661723Y-185588095D01*
D10*
D11*
X200434342Y-193785771D02*
X200434342Y-192285771D01*
X200791485Y-192285771D01*
X201005771Y-192357200D01*
X201148628Y-192500057D01*
X201220057Y-192642914D01*
X201291485Y-192928628D01*
X201291485Y-193142914D01*
X201220057Y-193428628D01*
X201148628Y-193571485D01*
X201005771Y-193714342D01*
X200791485Y-193785771D01*
X200434342Y-193785771D01*
X202577200Y-193785771D02*
X202577200Y-193000057D01*
X202505771Y-192857200D01*
X202362914Y-192785771D01*
X202077200Y-192785771D01*
X201934342Y-192857200D01*
X202577200Y-193714342D02*
X202434342Y-193785771D01*
X202077200Y-193785771D01*
X201934342Y-193714342D01*
X201862914Y-193571485D01*
X201862914Y-193428628D01*
X201934342Y-193285771D01*
X202077200Y-193214342D01*
X202434342Y-193214342D01*
X202577200Y-193142914D01*
X203077200Y-192785771D02*
X203648628Y-192785771D01*
X203291485Y-192285771D02*
X203291485Y-193571485D01*
X203362914Y-193714342D01*
X203505771Y-193785771D01*
X203648628Y-193785771D01*
X204720057Y-193714342D02*
X204577200Y-193785771D01*
X204291485Y-193785771D01*
X204148628Y-193714342D01*
X204077200Y-193571485D01*
X204077200Y-193000057D01*
X204148628Y-192857200D01*
X204291485Y-192785771D01*
X204577200Y-192785771D01*
X204720057Y-192857200D01*
X204791485Y-193000057D01*
X204791485Y-193142914D01*
X204077200Y-193285771D01*
X205434342Y-193642914D02*
X205505771Y-193714342D01*
X205434342Y-193785771D01*
X205362914Y-193714342D01*
X205434342Y-193642914D01*
X205434342Y-193785771D01*
X205434342Y-192857200D02*
X205505771Y-192928628D01*
X205434342Y-193000057D01*
X205362914Y-192928628D01*
X205434342Y-192857200D01*
X205434342Y-193000057D01*
D10*
D11*
X177002200Y-194507200D02*
X285002200Y-194507200D01*
D10*
D11*
X178434342Y-196585771D02*
X178434342Y-195085771D01*
X179291485Y-196585771D02*
X178648628Y-195728628D01*
X179291485Y-195085771D02*
X178434342Y-195942914D01*
X179934342Y-196585771D02*
X179934342Y-195585771D01*
X179934342Y-195085771D02*
X179862914Y-195157200D01*
X179934342Y-195228628D01*
X180005771Y-195157200D01*
X179934342Y-195085771D01*
X179934342Y-195228628D01*
X181505771Y-196442914D02*
X181434342Y-196514342D01*
X181220057Y-196585771D01*
X181077200Y-196585771D01*
X180862914Y-196514342D01*
X180720057Y-196371485D01*
X180648628Y-196228628D01*
X180577200Y-195942914D01*
X180577200Y-195728628D01*
X180648628Y-195442914D01*
X180720057Y-195300057D01*
X180862914Y-195157200D01*
X181077200Y-195085771D01*
X181220057Y-195085771D01*
X181434342Y-195157200D01*
X181505771Y-195228628D01*
X182791485Y-196585771D02*
X182791485Y-195800057D01*
X182720057Y-195657200D01*
X182577200Y-195585771D01*
X182291485Y-195585771D01*
X182148628Y-195657200D01*
X182791485Y-196514342D02*
X182648628Y-196585771D01*
X182291485Y-196585771D01*
X182148628Y-196514342D01*
X182077200Y-196371485D01*
X182077200Y-196228628D01*
X182148628Y-196085771D01*
X182291485Y-196014342D01*
X182648628Y-196014342D01*
X182791485Y-195942914D01*
X184148628Y-196585771D02*
X184148628Y-195085771D01*
X184148628Y-196514342D02*
X184005771Y-196585771D01*
X183720057Y-196585771D01*
X183577200Y-196514342D01*
X183505771Y-196442914D01*
X183434342Y-196300057D01*
X183434342Y-195871485D01*
X183505771Y-195728628D01*
X183577200Y-195657200D01*
X183720057Y-195585771D01*
X184005771Y-195585771D01*
X184148628Y-195657200D01*
X186005771Y-195800057D02*
X186505771Y-195800057D01*
X186720057Y-196585771D02*
X186005771Y-196585771D01*
X186005771Y-195085771D01*
X186720057Y-195085771D01*
X187362914Y-196442914D02*
X187434342Y-196514342D01*
X187362914Y-196585771D01*
X187291485Y-196514342D01*
X187362914Y-196442914D01*
X187362914Y-196585771D01*
X188077200Y-196585771D02*
X188077200Y-195085771D01*
X188434342Y-195085771D01*
X188648628Y-195157200D01*
X188791485Y-195300057D01*
X188862914Y-195442914D01*
X188934342Y-195728628D01*
X188934342Y-195942914D01*
X188862914Y-196228628D01*
X188791485Y-196371485D01*
X188648628Y-196514342D01*
X188434342Y-196585771D01*
X188077200Y-196585771D01*
X189577200Y-196442914D02*
X189648628Y-196514342D01*
X189577200Y-196585771D01*
X189505771Y-196514342D01*
X189577200Y-196442914D01*
X189577200Y-196585771D01*
X190220057Y-196157200D02*
X190934342Y-196157200D01*
X190077200Y-196585771D02*
X190577200Y-195085771D01*
X191077200Y-196585771D01*
X191577200Y-196442914D02*
X191648628Y-196514342D01*
X191577200Y-196585771D01*
X191505771Y-196514342D01*
X191577200Y-196442914D01*
X191577200Y-196585771D01*
X194577200Y-196585771D02*
X194577200Y-195085771D01*
X194720057Y-196014342D02*
X195148628Y-196585771D01*
X195148628Y-195585771D02*
X194577200Y-196157200D01*
X195791485Y-196585771D02*
X195791485Y-195585771D01*
X195791485Y-195085771D02*
X195720057Y-195157200D01*
X195791485Y-195228628D01*
X195862914Y-195157200D01*
X195791485Y-195085771D01*
X195791485Y-195228628D01*
X197148628Y-196514342D02*
X197005771Y-196585771D01*
X196720057Y-196585771D01*
X196577200Y-196514342D01*
X196505771Y-196442914D01*
X196434342Y-196300057D01*
X196434342Y-195871485D01*
X196505771Y-195728628D01*
X196577200Y-195657200D01*
X196720057Y-195585771D01*
X197005771Y-195585771D01*
X197148628Y-195657200D01*
X198434342Y-196585771D02*
X198434342Y-195800057D01*
X198362914Y-195657200D01*
X198220057Y-195585771D01*
X197934342Y-195585771D01*
X197791485Y-195657200D01*
X198434342Y-196514342D02*
X198291485Y-196585771D01*
X197934342Y-196585771D01*
X197791485Y-196514342D01*
X197720057Y-196371485D01*
X197720057Y-196228628D01*
X197791485Y-196085771D01*
X197934342Y-196014342D01*
X198291485Y-196014342D01*
X198434342Y-195942914D01*
X199791485Y-196585771D02*
X199791485Y-195085771D01*
X199791485Y-196514342D02*
X199648628Y-196585771D01*
X199362914Y-196585771D01*
X199220057Y-196514342D01*
X199148628Y-196442914D01*
X199077200Y-196300057D01*
X199077200Y-195871485D01*
X199148628Y-195728628D01*
X199220057Y-195657200D01*
X199362914Y-195585771D01*
X199648628Y-195585771D01*
X199791485Y-195657200D01*
X202077200Y-197157200D02*
X202005771Y-197085771D01*
X201862914Y-196871485D01*
X201791485Y-196728628D01*
X201720057Y-196514342D01*
X201648628Y-196157200D01*
X201648628Y-195871485D01*
X201720057Y-195514342D01*
X201791485Y-195300057D01*
X201862914Y-195157200D01*
X202005771Y-194942914D01*
X202077200Y-194871485D01*
X203362914Y-195085771D02*
X202648628Y-195085771D01*
X202577200Y-195800057D01*
X202648628Y-195728628D01*
X202791485Y-195657200D01*
X203148628Y-195657200D01*
X203291485Y-195728628D01*
X203362914Y-195800057D01*
X203434342Y-195942914D01*
X203434342Y-196300057D01*
X203362914Y-196442914D01*
X203291485Y-196514342D01*
X203148628Y-196585771D01*
X202791485Y-196585771D01*
X202648628Y-196514342D01*
X202577200Y-196442914D01*
X204077200Y-196442914D02*
X204148628Y-196514342D01*
X204077200Y-196585771D01*
X204005771Y-196514342D01*
X204077200Y-196442914D01*
X204077200Y-196585771D01*
X205577200Y-196585771D02*
X204720057Y-196585771D01*
X205148628Y-196585771D02*
X205148628Y-195085771D01*
X205005771Y-195300057D01*
X204862914Y-195442914D01*
X204720057Y-195514342D01*
X206220057Y-196442914D02*
X206291485Y-196514342D01*
X206220057Y-196585771D01*
X206148628Y-196514342D01*
X206220057Y-196442914D01*
X206220057Y-196585771D01*
X207648628Y-195085771D02*
X206934342Y-195085771D01*
X206862914Y-195800057D01*
X206934342Y-195728628D01*
X207077200Y-195657200D01*
X207434342Y-195657200D01*
X207577200Y-195728628D01*
X207648628Y-195800057D01*
X207720057Y-195942914D01*
X207720057Y-196300057D01*
X207648628Y-196442914D01*
X207577200Y-196514342D01*
X207434342Y-196585771D01*
X207077200Y-196585771D01*
X206934342Y-196514342D01*
X206862914Y-196442914D01*
X208220057Y-197157200D02*
X208291485Y-197085771D01*
X208434342Y-196871485D01*
X208505771Y-196728628D01*
X208577200Y-196514342D01*
X208648628Y-196157200D01*
X208648628Y-195871485D01*
X208577200Y-195514342D01*
X208505771Y-195300057D01*
X208434342Y-195157200D01*
X208291485Y-194942914D01*
X208220057Y-194871485D01*
X209362914Y-196014342D02*
X210505771Y-196014342D01*
X211077200Y-195085771D02*
X212005771Y-195085771D01*
X211505771Y-195657200D01*
X211720057Y-195657200D01*
X211862914Y-195728628D01*
X211934342Y-195800057D01*
X212005771Y-195942914D01*
X212005771Y-196300057D01*
X211934342Y-196442914D01*
X211862914Y-196514342D01*
X211720057Y-196585771D01*
X211291485Y-196585771D01*
X211148628Y-196514342D01*
X211077200Y-196442914D01*
D10*
D11*
X177002200Y-191507200D02*
X285002200Y-191507200D01*
D10*
D12*
X264411485Y-193785771D02*
X263911485Y-193071485D01*
X263554342Y-193785771D02*
X263554342Y-192285771D01*
X264125771Y-192285771D01*
X264268628Y-192357200D01*
X264340057Y-192428628D01*
X264411485Y-192571485D01*
X264411485Y-192785771D01*
X264340057Y-192928628D01*
X264268628Y-193000057D01*
X264125771Y-193071485D01*
X263554342Y-193071485D01*
X265625771Y-193714342D02*
X265482914Y-193785771D01*
X265197200Y-193785771D01*
X265054342Y-193714342D01*
X264982914Y-193571485D01*
X264982914Y-193000057D01*
X265054342Y-192857200D01*
X265197200Y-192785771D01*
X265482914Y-192785771D01*
X265625771Y-192857200D01*
X265697200Y-193000057D01*
X265697200Y-193142914D01*
X264982914Y-193285771D01*
X266197200Y-192785771D02*
X266554342Y-193785771D01*
X266911485Y-192785771D01*
X267482914Y-193642914D02*
X267554342Y-193714342D01*
X267482914Y-193785771D01*
X267411485Y-193714342D01*
X267482914Y-193642914D01*
X267482914Y-193785771D01*
X267482914Y-192857200D02*
X267554342Y-192928628D01*
X267482914Y-193000057D01*
X267411485Y-192928628D01*
X267482914Y-192857200D01*
X267482914Y-193000057D01*
D10*
D11*
X178362914Y-193714342D02*
X178577200Y-193785771D01*
X178934342Y-193785771D01*
X179077200Y-193714342D01*
X179148628Y-193642914D01*
X179220057Y-193500057D01*
X179220057Y-193357200D01*
X179148628Y-193214342D01*
X179077200Y-193142914D01*
X178934342Y-193071485D01*
X178648628Y-193000057D01*
X178505771Y-192928628D01*
X178434342Y-192857200D01*
X178362914Y-192714342D01*
X178362914Y-192571485D01*
X178434342Y-192428628D01*
X178505771Y-192357200D01*
X178648628Y-192285771D01*
X179005771Y-192285771D01*
X179220057Y-192357200D01*
X179862914Y-193785771D02*
X179862914Y-192785771D01*
X179862914Y-192285771D02*
X179791485Y-192357200D01*
X179862914Y-192428628D01*
X179934342Y-192357200D01*
X179862914Y-192285771D01*
X179862914Y-192428628D01*
X180434342Y-192785771D02*
X181220057Y-192785771D01*
X180434342Y-193785771D01*
X181220057Y-193785771D01*
X182362914Y-193714342D02*
X182220057Y-193785771D01*
X181934342Y-193785771D01*
X181791485Y-193714342D01*
X181720057Y-193571485D01*
X181720057Y-193000057D01*
X181791485Y-192857200D01*
X181934342Y-192785771D01*
X182220057Y-192785771D01*
X182362914Y-192857200D01*
X182434342Y-193000057D01*
X182434342Y-193142914D01*
X181720057Y-193285771D01*
X183077200Y-193642914D02*
X183148628Y-193714342D01*
X183077200Y-193785771D01*
X183005771Y-193714342D01*
X183077200Y-193642914D01*
X183077200Y-193785771D01*
X183077200Y-192857200D02*
X183148628Y-192928628D01*
X183077200Y-193000057D01*
X183005771Y-192928628D01*
X183077200Y-192857200D01*
X183077200Y-193000057D01*
X184862914Y-193357200D02*
X185577200Y-193357200D01*
X184720057Y-193785771D02*
X185220057Y-192285771D01*
X185720057Y-193785771D01*
X186862914Y-192785771D02*
X186862914Y-193785771D01*
X186505771Y-192214342D02*
X186148628Y-193285771D01*
X187077200Y-193285771D01*
D10*
D11*
X263434342Y-196585771D02*
X263434342Y-195085771D01*
X264791485Y-196585771D02*
X264791485Y-195085771D01*
X264791485Y-196514342D02*
X264648628Y-196585771D01*
X264362914Y-196585771D01*
X264220057Y-196514342D01*
X264148628Y-196442914D01*
X264077200Y-196300057D01*
X264077200Y-195871485D01*
X264148628Y-195728628D01*
X264220057Y-195657200D01*
X264362914Y-195585771D01*
X264648628Y-195585771D01*
X264791485Y-195657200D01*
X265505771Y-196442914D02*
X265577200Y-196514342D01*
X265505771Y-196585771D01*
X265434342Y-196514342D01*
X265505771Y-196442914D01*
X265505771Y-196585771D01*
X265505771Y-195657200D02*
X265577200Y-195728628D01*
X265505771Y-195800057D01*
X265434342Y-195728628D01*
X265505771Y-195657200D01*
X265505771Y-195800057D01*
X268148628Y-196585771D02*
X267291485Y-196585771D01*
X267720057Y-196585771D02*
X267720057Y-195085771D01*
X267577200Y-195300057D01*
X267434342Y-195442914D01*
X267291485Y-195514342D01*
X269862914Y-195014342D02*
X268577200Y-196942914D01*
X271148628Y-196585771D02*
X270291485Y-196585771D01*
X270720057Y-196585771D02*
X270720057Y-195085771D01*
X270577200Y-195300057D01*
X270434342Y-195442914D01*
X270291485Y-195514342D01*
D10*
D11*
X177002200Y-187507200D02*
X285002200Y-187507200D01*
D10*
D13*
X178714580Y-188211961D02*
X179857438Y-188211961D01*
X179036009Y-190211961D02*
X179286009Y-188211961D01*
X180274104Y-190211961D02*
X180440771Y-188878628D01*
X180524104Y-188211961D02*
X180416961Y-188307200D01*
X180500295Y-188402438D01*
X180607438Y-188307200D01*
X180524104Y-188211961D01*
X180500295Y-188402438D01*
X181107438Y-188878628D02*
X181869342Y-188878628D01*
X181476485Y-188211961D02*
X181262200Y-189926247D01*
X181333628Y-190116723D01*
X181512200Y-190211961D01*
X181702676Y-190211961D01*
X182655057Y-190211961D02*
X182476485Y-190116723D01*
X182405057Y-189926247D01*
X182619342Y-188211961D01*
X184190771Y-190116723D02*
X183988390Y-190211961D01*
X183607438Y-190211961D01*
X183428866Y-190116723D01*
X183357438Y-189926247D01*
X183452676Y-189164342D01*
X183571723Y-188973866D01*
X183774104Y-188878628D01*
X184155057Y-188878628D01*
X184333628Y-188973866D01*
X184405057Y-189164342D01*
X184381247Y-189354819D01*
X183405057Y-189545295D01*
X185155057Y-190021485D02*
X185238390Y-190116723D01*
X185131247Y-190211961D01*
X185047914Y-190116723D01*
X185155057Y-190021485D01*
X185131247Y-190211961D01*
X185286009Y-188973866D02*
X185369342Y-189069104D01*
X185262200Y-189164342D01*
X185178866Y-189069104D01*
X185286009Y-188973866D01*
X185262200Y-189164342D01*
D10*
D11*
X178934342Y-185600057D02*
X178434342Y-185600057D01*
X178434342Y-186385771D02*
X178434342Y-184885771D01*
X179148628Y-184885771D01*
X179720057Y-186385771D02*
X179720057Y-185385771D01*
X179720057Y-184885771D02*
X179648628Y-184957200D01*
X179720057Y-185028628D01*
X179791485Y-184957200D01*
X179720057Y-184885771D01*
X179720057Y-185028628D01*
X180648628Y-186385771D02*
X180505771Y-186314342D01*
X180434342Y-186171485D01*
X180434342Y-184885771D01*
X181791485Y-186314342D02*
X181648628Y-186385771D01*
X181362914Y-186385771D01*
X181220057Y-186314342D01*
X181148628Y-186171485D01*
X181148628Y-185600057D01*
X181220057Y-185457200D01*
X181362914Y-185385771D01*
X181648628Y-185385771D01*
X181791485Y-185457200D01*
X181862914Y-185600057D01*
X181862914Y-185742914D01*
X181148628Y-185885771D01*
X182505771Y-186242914D02*
X182577200Y-186314342D01*
X182505771Y-186385771D01*
X182434342Y-186314342D01*
X182505771Y-186242914D01*
X182505771Y-186385771D01*
X182505771Y-185457200D02*
X182577200Y-185528628D01*
X182505771Y-185600057D01*
X182434342Y-185528628D01*
X182505771Y-185457200D01*
X182505771Y-185600057D01*
X184220057Y-185385771D02*
X184577200Y-186385771D01*
X184934342Y-185385771D01*
X185434342Y-185028628D02*
X185505771Y-184957200D01*
X185648628Y-184885771D01*
X186005771Y-184885771D01*
X186148628Y-184957200D01*
X186220057Y-185028628D01*
X186291485Y-185171485D01*
X186291485Y-185314342D01*
X186220057Y-185528628D01*
X185362914Y-186385771D01*
X186291485Y-186385771D01*
X186934342Y-186242914D02*
X187005771Y-186314342D01*
X186934342Y-186385771D01*
X186862914Y-186314342D01*
X186934342Y-186242914D01*
X186934342Y-186385771D01*
X187648628Y-186385771D02*
X187648628Y-184885771D01*
X187791485Y-185814342D02*
X188220057Y-186385771D01*
X188220057Y-185385771D02*
X187648628Y-185957200D01*
X188862914Y-186385771D02*
X188862914Y-185385771D01*
X188862914Y-184885771D02*
X188791485Y-184957200D01*
X188862914Y-185028628D01*
X188934342Y-184957200D01*
X188862914Y-184885771D01*
X188862914Y-185028628D01*
X190220057Y-186314342D02*
X190077200Y-186385771D01*
X189791485Y-186385771D01*
X189648628Y-186314342D01*
X189577200Y-186242914D01*
X189505771Y-186100057D01*
X189505771Y-185671485D01*
X189577200Y-185528628D01*
X189648628Y-185457200D01*
X189791485Y-185385771D01*
X190077200Y-185385771D01*
X190220057Y-185457200D01*
X191505771Y-186385771D02*
X191505771Y-185600057D01*
X191434342Y-185457200D01*
X191291485Y-185385771D01*
X191005771Y-185385771D01*
X190862914Y-185457200D01*
X191505771Y-186314342D02*
X191362914Y-186385771D01*
X191005771Y-186385771D01*
X190862914Y-186314342D01*
X190791485Y-186171485D01*
X190791485Y-186028628D01*
X190862914Y-185885771D01*
X191005771Y-185814342D01*
X191362914Y-185814342D01*
X191505771Y-185742914D01*
X192862914Y-186385771D02*
X192862914Y-184885771D01*
X192862914Y-186314342D02*
X192720057Y-186385771D01*
X192434342Y-186385771D01*
X192291485Y-186314342D01*
X192220057Y-186242914D01*
X192148628Y-186100057D01*
X192148628Y-185671485D01*
X192220057Y-185528628D01*
X192291485Y-185457200D01*
X192434342Y-185385771D01*
X192720057Y-185385771D01*
X192862914Y-185457200D01*
X193220057Y-186528628D02*
X194362914Y-186528628D01*
X194720057Y-185385771D02*
X194720057Y-186885771D01*
X194720057Y-185457200D02*
X194862914Y-185385771D01*
X195148628Y-185385771D01*
X195291485Y-185457200D01*
X195362914Y-185528628D01*
X195434342Y-185671485D01*
X195434342Y-186100057D01*
X195362914Y-186242914D01*
X195291485Y-186314342D01*
X195148628Y-186385771D01*
X194862914Y-186385771D01*
X194720057Y-186314342D01*
X196720057Y-186314342D02*
X196577200Y-186385771D01*
X196291485Y-186385771D01*
X196148628Y-186314342D01*
X196077200Y-186242914D01*
X196005771Y-186100057D01*
X196005771Y-185671485D01*
X196077200Y-185528628D01*
X196148628Y-185457200D01*
X196291485Y-185385771D01*
X196577200Y-185385771D01*
X196720057Y-185457200D01*
X197362914Y-186385771D02*
X197362914Y-184885771D01*
X197362914Y-185457200D02*
X197505771Y-185385771D01*
X197791485Y-185385771D01*
X197934342Y-185457200D01*
X198005771Y-185528628D01*
X198077200Y-185671485D01*
X198077200Y-186100057D01*
X198005771Y-186242914D01*
X197934342Y-186314342D01*
X197791485Y-186385771D01*
X197505771Y-186385771D01*
X197362914Y-186314342D01*
D10*
D11*
X177002200Y-181507200D02*
X285002200Y-181507200D01*
D10*
D11*
X178362914Y-183614342D02*
X178577200Y-183685771D01*
X178934342Y-183685771D01*
X179077200Y-183614342D01*
X179148628Y-183542914D01*
X179220057Y-183400057D01*
X179220057Y-183257200D01*
X179148628Y-183114342D01*
X179077200Y-183042914D01*
X178934342Y-182971485D01*
X178648628Y-182900057D01*
X178505771Y-182828628D01*
X178434342Y-182757200D01*
X178362914Y-182614342D01*
X178362914Y-182471485D01*
X178434342Y-182328628D01*
X178505771Y-182257200D01*
X178648628Y-182185771D01*
X179005771Y-182185771D01*
X179220057Y-182257200D01*
X179862914Y-183685771D02*
X179862914Y-182185771D01*
X180505771Y-183685771D02*
X180505771Y-182900057D01*
X180434342Y-182757200D01*
X180291485Y-182685771D01*
X180077200Y-182685771D01*
X179934342Y-182757200D01*
X179862914Y-182828628D01*
X181791485Y-183614342D02*
X181648628Y-183685771D01*
X181362914Y-183685771D01*
X181220057Y-183614342D01*
X181148628Y-183471485D01*
X181148628Y-182900057D01*
X181220057Y-182757200D01*
X181362914Y-182685771D01*
X181648628Y-182685771D01*
X181791485Y-182757200D01*
X181862914Y-182900057D01*
X181862914Y-183042914D01*
X181148628Y-183185771D01*
X183077200Y-183614342D02*
X182934342Y-183685771D01*
X182648628Y-183685771D01*
X182505771Y-183614342D01*
X182434342Y-183471485D01*
X182434342Y-182900057D01*
X182505771Y-182757200D01*
X182648628Y-182685771D01*
X182934342Y-182685771D01*
X183077200Y-182757200D01*
X183148628Y-182900057D01*
X183148628Y-183042914D01*
X182434342Y-183185771D01*
X183577200Y-182685771D02*
X184148628Y-182685771D01*
X183791485Y-182185771D02*
X183791485Y-183471485D01*
X183862914Y-183614342D01*
X184005771Y-183685771D01*
X184148628Y-183685771D01*
X184648628Y-183542914D02*
X184720057Y-183614342D01*
X184648628Y-183685771D01*
X184577200Y-183614342D01*
X184648628Y-183542914D01*
X184648628Y-183685771D01*
X184648628Y-182757200D02*
X184720057Y-182828628D01*
X184648628Y-182900057D01*
X184577200Y-182828628D01*
X184648628Y-182757200D01*
X184648628Y-182900057D01*
D10*
D11*
X197002200Y-191507200D02*
X197002200Y-194507200D01*
D10*
D11*
X261002200Y-191507200D02*
X261002200Y-198007200D01*
X199397047Y-65557380D02*
X199063714Y-66557380D01*
X198730380Y-65557380D01*
X198254190Y-66557380D02*
X198349428Y-66509761D01*
X198397047Y-66462142D01*
X198444666Y-66366904D01*
X198444666Y-66081190D01*
X198397047Y-65985952D01*
X198349428Y-65938333D01*
X198254190Y-65890714D01*
X198111333Y-65890714D01*
X198016095Y-65938333D01*
X197968476Y-65985952D01*
X197920857Y-66081190D01*
X197920857Y-66366904D01*
X197968476Y-66462142D01*
X198016095Y-66509761D01*
X198111333Y-66557380D01*
X198254190Y-66557380D01*
X197349428Y-66557380D02*
X197444666Y-66509761D01*
X197492285Y-66414523D01*
X197492285Y-65557380D01*
X197111333Y-65890714D02*
X196730380Y-65890714D01*
X196968476Y-65557380D02*
X196968476Y-66414523D01*
X196920857Y-66509761D01*
X196825619Y-66557380D01*
X196730380Y-66557380D01*
X195968476Y-66557380D02*
X195968476Y-66033571D01*
X196016095Y-65938333D01*
X196111333Y-65890714D01*
X196301809Y-65890714D01*
X196397047Y-65938333D01*
X195968476Y-66509761D02*
X196063714Y-66557380D01*
X196301809Y-66557380D01*
X196397047Y-66509761D01*
X196444666Y-66414523D01*
X196444666Y-66319285D01*
X196397047Y-66224047D01*
X196301809Y-66176428D01*
X196063714Y-66176428D01*
X195968476Y-66128809D01*
X195063714Y-65890714D02*
X195063714Y-66700238D01*
X195111333Y-66795476D01*
X195158952Y-66843095D01*
X195254190Y-66890714D01*
X195397047Y-66890714D01*
X195492285Y-66843095D01*
X195063714Y-66509761D02*
X195158952Y-66557380D01*
X195349428Y-66557380D01*
X195444666Y-66509761D01*
X195492285Y-66462142D01*
X195539904Y-66366904D01*
X195539904Y-66081190D01*
X195492285Y-65985952D01*
X195444666Y-65938333D01*
X195349428Y-65890714D01*
X195158952Y-65890714D01*
X195063714Y-65938333D01*
X194206571Y-66509761D02*
X194301809Y-66557380D01*
X194492285Y-66557380D01*
X194587523Y-66509761D01*
X194635142Y-66414523D01*
X194635142Y-66033571D01*
X194587523Y-65938333D01*
X194492285Y-65890714D01*
X194301809Y-65890714D01*
X194206571Y-65938333D01*
X194158952Y-66033571D01*
X194158952Y-66128809D01*
X194635142Y-66224047D01*
X192968476Y-66557380D02*
X192968476Y-65557380D01*
X192492285Y-65890714D02*
X192492285Y-66557380D01*
X192492285Y-65985952D02*
X192444666Y-65938333D01*
X192349428Y-65890714D01*
X192206571Y-65890714D01*
X192111333Y-65938333D01*
X192063714Y-66033571D01*
X192063714Y-66557380D01*
X191682761Y-65890714D02*
X191444666Y-66557380D01*
X191206571Y-65890714D01*
X190444666Y-66509761D02*
X190539904Y-66557380D01*
X190730380Y-66557380D01*
X190825619Y-66509761D01*
X190873238Y-66414523D01*
X190873238Y-66033571D01*
X190825619Y-65938333D01*
X190730380Y-65890714D01*
X190539904Y-65890714D01*
X190444666Y-65938333D01*
X190397047Y-66033571D01*
X190397047Y-66128809D01*
X190873238Y-66224047D01*
X189968476Y-66557380D02*
X189968476Y-65890714D01*
X189968476Y-66081190D02*
X189920857Y-65985952D01*
X189873238Y-65938333D01*
X189778000Y-65890714D01*
X189682761Y-65890714D01*
X189492285Y-65890714D02*
X189111333Y-65890714D01*
X189349428Y-65557380D02*
X189349428Y-66414523D01*
X189301809Y-66509761D01*
X189206571Y-66557380D01*
X189111333Y-66557380D01*
X188397047Y-66509761D02*
X188492285Y-66557380D01*
X188682761Y-66557380D01*
X188778000Y-66509761D01*
X188825619Y-66414523D01*
X188825619Y-66033571D01*
X188778000Y-65938333D01*
X188682761Y-65890714D01*
X188492285Y-65890714D01*
X188397047Y-65938333D01*
X188349428Y-66033571D01*
X188349428Y-66128809D01*
X188825619Y-66224047D01*
X187920857Y-66557380D02*
X187920857Y-65890714D01*
X187920857Y-66081190D02*
X187873238Y-65985952D01*
X187825619Y-65938333D01*
X187730380Y-65890714D01*
X187635142Y-65890714D01*
X186635142Y-65890714D02*
X186397047Y-66557380D01*
X186158952Y-65890714D01*
X185825619Y-65652619D02*
X185778000Y-65605000D01*
X185682761Y-65557380D01*
X185444666Y-65557380D01*
X185349428Y-65605000D01*
X185301809Y-65652619D01*
X185254190Y-65747857D01*
X185254190Y-65843095D01*
X185301809Y-65985952D01*
X185873238Y-66557380D01*
X185254190Y-66557380D01*
X197087523Y-68207380D02*
X197087523Y-67207380D01*
X196706571Y-67207380D01*
X196611333Y-67255000D01*
X196563714Y-67302619D01*
X196516095Y-67397857D01*
X196516095Y-67540714D01*
X196563714Y-67635952D01*
X196611333Y-67683571D01*
X196706571Y-67731190D01*
X197087523Y-67731190D01*
X195944666Y-68207380D02*
X196039904Y-68159761D01*
X196087523Y-68064523D01*
X196087523Y-67207380D01*
X195135142Y-68207380D02*
X195135142Y-67683571D01*
X195182761Y-67588333D01*
X195278000Y-67540714D01*
X195468476Y-67540714D01*
X195563714Y-67588333D01*
X195135142Y-68159761D02*
X195230380Y-68207380D01*
X195468476Y-68207380D01*
X195563714Y-68159761D01*
X195611333Y-68064523D01*
X195611333Y-67969285D01*
X195563714Y-67874047D01*
X195468476Y-67826428D01*
X195230380Y-67826428D01*
X195135142Y-67778809D01*
X194658952Y-67540714D02*
X194658952Y-68207380D01*
X194658952Y-67635952D02*
X194611333Y-67588333D01*
X194516095Y-67540714D01*
X194373238Y-67540714D01*
X194278000Y-67588333D01*
X194230380Y-67683571D01*
X194230380Y-68207380D01*
X193754190Y-68207380D02*
X193754190Y-67207380D01*
X193420857Y-67921666D01*
X193087523Y-67207380D01*
X193087523Y-68207380D01*
X192182761Y-68207380D02*
X192182761Y-67683571D01*
X192230380Y-67588333D01*
X192325619Y-67540714D01*
X192516095Y-67540714D01*
X192611333Y-67588333D01*
X192182761Y-68159761D02*
X192278000Y-68207380D01*
X192516095Y-68207380D01*
X192611333Y-68159761D01*
X192658952Y-68064523D01*
X192658952Y-67969285D01*
X192611333Y-67874047D01*
X192516095Y-67826428D01*
X192278000Y-67826428D01*
X192182761Y-67778809D01*
X191706571Y-67540714D02*
X191706571Y-68207380D01*
X191706571Y-67635952D02*
X191658952Y-67588333D01*
X191563714Y-67540714D01*
X191420857Y-67540714D01*
X191325619Y-67588333D01*
X191278000Y-67683571D01*
X191278000Y-68207380D01*
X190278000Y-68207380D02*
X190849428Y-68207380D01*
X190563714Y-68207380D02*
X190563714Y-67207380D01*
X190658952Y-67350238D01*
X190754190Y-67445476D01*
X190849428Y-67493095D01*
X189944666Y-67207380D02*
X189278000Y-67207380D01*
X189706571Y-68207380D01*
X188373238Y-68207380D02*
X188944666Y-68207380D01*
X188658952Y-68207380D02*
X188658952Y-67207380D01*
X188754190Y-67350238D01*
X188849428Y-67445476D01*
X188944666Y-67493095D01*
X188039904Y-67207380D02*
X187373238Y-67207380D01*
X187801809Y-68207380D01*
X195468476Y-68857380D02*
X195944666Y-68857380D01*
X195992285Y-69333571D01*
X195944666Y-69285952D01*
X195849428Y-69238333D01*
X195611333Y-69238333D01*
X195516095Y-69285952D01*
X195468476Y-69333571D01*
X195420857Y-69428809D01*
X195420857Y-69666904D01*
X195468476Y-69762142D01*
X195516095Y-69809761D01*
X195611333Y-69857380D01*
X195849428Y-69857380D01*
X195944666Y-69809761D01*
X195992285Y-69762142D01*
X194278000Y-68809761D02*
X195135142Y-70095476D01*
X193897047Y-69857380D02*
X193706571Y-69857380D01*
X193611333Y-69809761D01*
X193563714Y-69762142D01*
X193468476Y-69619285D01*
X193420857Y-69428809D01*
X193420857Y-69047857D01*
X193468476Y-68952619D01*
X193516095Y-68905000D01*
X193611333Y-68857380D01*
X193801809Y-68857380D01*
X193897047Y-68905000D01*
X193944666Y-68952619D01*
X193992285Y-69047857D01*
X193992285Y-69285952D01*
X193944666Y-69381190D01*
X193897047Y-69428809D01*
X193801809Y-69476428D01*
X193611333Y-69476428D01*
X193516095Y-69428809D01*
X193468476Y-69381190D01*
X193420857Y-69285952D01*
X192278000Y-68809761D02*
X193135142Y-70095476D01*
X191992285Y-68952619D02*
X191944666Y-68905000D01*
X191849428Y-68857380D01*
X191611333Y-68857380D01*
X191516095Y-68905000D01*
X191468476Y-68952619D01*
X191420857Y-69047857D01*
X191420857Y-69143095D01*
X191468476Y-69285952D01*
X192039904Y-69857380D01*
X191420857Y-69857380D01*
X190801809Y-68857380D02*
X190706571Y-68857380D01*
X190611333Y-68905000D01*
X190563714Y-68952619D01*
X190516095Y-69047857D01*
X190468476Y-69238333D01*
X190468476Y-69476428D01*
X190516095Y-69666904D01*
X190563714Y-69762142D01*
X190611333Y-69809761D01*
X190706571Y-69857380D01*
X190801809Y-69857380D01*
X190897047Y-69809761D01*
X190944666Y-69762142D01*
X190992285Y-69666904D01*
X191039904Y-69476428D01*
X191039904Y-69238333D01*
X190992285Y-69047857D01*
X190944666Y-68952619D01*
X190897047Y-68905000D01*
X190801809Y-68857380D01*
X190087523Y-68952619D02*
X190039904Y-68905000D01*
X189944666Y-68857380D01*
X189706571Y-68857380D01*
X189611333Y-68905000D01*
X189563714Y-68952619D01*
X189516095Y-69047857D01*
X189516095Y-69143095D01*
X189563714Y-69285952D01*
X190135142Y-69857380D01*
X189516095Y-69857380D01*
X188897047Y-68857380D02*
X188801809Y-68857380D01*
X188706571Y-68905000D01*
X188658952Y-68952619D01*
X188611333Y-69047857D01*
X188563714Y-69238333D01*
X188563714Y-69476428D01*
X188611333Y-69666904D01*
X188658952Y-69762142D01*
X188706571Y-69809761D01*
X188801809Y-69857380D01*
X188897047Y-69857380D01*
X188992285Y-69809761D01*
X189039904Y-69762142D01*
X189087523Y-69666904D01*
X189135142Y-69476428D01*
X189135142Y-69238333D01*
X189087523Y-69047857D01*
X189039904Y-68952619D01*
X188992285Y-68905000D01*
X188897047Y-68857380D01*
X198801809Y-71507380D02*
X199278000Y-71507380D01*
X199278000Y-70507380D01*
X198468476Y-71507380D02*
X198468476Y-70840714D01*
X198468476Y-70507380D02*
X198516095Y-70555000D01*
X198468476Y-70602619D01*
X198420857Y-70555000D01*
X198468476Y-70507380D01*
X198468476Y-70602619D01*
X197563714Y-71459761D02*
X197658952Y-71507380D01*
X197849428Y-71507380D01*
X197944666Y-71459761D01*
X197992285Y-71412142D01*
X198039904Y-71316904D01*
X198039904Y-71031190D01*
X197992285Y-70935952D01*
X197944666Y-70888333D01*
X197849428Y-70840714D01*
X197658952Y-70840714D01*
X197563714Y-70888333D01*
X196754190Y-71459761D02*
X196849428Y-71507380D01*
X197039904Y-71507380D01*
X197135142Y-71459761D01*
X197182761Y-71364523D01*
X197182761Y-70983571D01*
X197135142Y-70888333D01*
X197039904Y-70840714D01*
X196849428Y-70840714D01*
X196754190Y-70888333D01*
X196706571Y-70983571D01*
X196706571Y-71078809D01*
X197182761Y-71174047D01*
X196278000Y-70840714D02*
X196278000Y-71507380D01*
X196278000Y-70935952D02*
X196230380Y-70888333D01*
X196135142Y-70840714D01*
X195992285Y-70840714D01*
X195897047Y-70888333D01*
X195849428Y-70983571D01*
X195849428Y-71507380D01*
X195420857Y-71459761D02*
X195325619Y-71507380D01*
X195135142Y-71507380D01*
X195039904Y-71459761D01*
X194992285Y-71364523D01*
X194992285Y-71316904D01*
X195039904Y-71221666D01*
X195135142Y-71174047D01*
X195278000Y-71174047D01*
X195373238Y-71126428D01*
X195420857Y-71031190D01*
X195420857Y-70983571D01*
X195373238Y-70888333D01*
X195278000Y-70840714D01*
X195135142Y-70840714D01*
X195039904Y-70888333D01*
X194182761Y-71459761D02*
X194278000Y-71507380D01*
X194468476Y-71507380D01*
X194563714Y-71459761D01*
X194611333Y-71364523D01*
X194611333Y-70983571D01*
X194563714Y-70888333D01*
X194468476Y-70840714D01*
X194278000Y-70840714D01*
X194182761Y-70888333D01*
X194135142Y-70983571D01*
X194135142Y-71078809D01*
X194611333Y-71174047D01*
X193706571Y-71412142D02*
X193658952Y-71459761D01*
X193706571Y-71507380D01*
X193754190Y-71459761D01*
X193706571Y-71412142D01*
X193706571Y-71507380D01*
X193706571Y-70888333D02*
X193658952Y-70935952D01*
X193706571Y-70983571D01*
X193754190Y-70935952D01*
X193706571Y-70888333D01*
X193706571Y-70983571D01*
X191897047Y-71412142D02*
X191944666Y-71459761D01*
X192087523Y-71507380D01*
X192182761Y-71507380D01*
X192325619Y-71459761D01*
X192420857Y-71364523D01*
X192468476Y-71269285D01*
X192516095Y-71078809D01*
X192516095Y-70935952D01*
X192468476Y-70745476D01*
X192420857Y-70650238D01*
X192325619Y-70555000D01*
X192182761Y-70507380D01*
X192087523Y-70507380D01*
X191944666Y-70555000D01*
X191897047Y-70602619D01*
X190897047Y-71412142D02*
X190944666Y-71459761D01*
X191087523Y-71507380D01*
X191182761Y-71507380D01*
X191325619Y-71459761D01*
X191420857Y-71364523D01*
X191468476Y-71269285D01*
X191516095Y-71078809D01*
X191516095Y-70935952D01*
X191468476Y-70745476D01*
X191420857Y-70650238D01*
X191325619Y-70555000D01*
X191182761Y-70507380D01*
X191087523Y-70507380D01*
X190944666Y-70555000D01*
X190897047Y-70602619D01*
X189373238Y-70983571D02*
X189230380Y-71031190D01*
X189182761Y-71078809D01*
X189135142Y-71174047D01*
X189135142Y-71316904D01*
X189182761Y-71412142D01*
X189230380Y-71459761D01*
X189325619Y-71507380D01*
X189706571Y-71507380D01*
X189706571Y-70507380D01*
X189373238Y-70507380D01*
X189278000Y-70555000D01*
X189230380Y-70602619D01*
X189182761Y-70697857D01*
X189182761Y-70793095D01*
X189230380Y-70888333D01*
X189278000Y-70935952D01*
X189373238Y-70983571D01*
X189706571Y-70983571D01*
X188516095Y-71031190D02*
X188516095Y-71507380D01*
X188849428Y-70507380D02*
X188516095Y-71031190D01*
X188182761Y-70507380D01*
X187849428Y-71126428D02*
X187087523Y-71126428D01*
X186658952Y-71459761D02*
X186516095Y-71507380D01*
X186278000Y-71507380D01*
X186182761Y-71459761D01*
X186135142Y-71412142D01*
X186087523Y-71316904D01*
X186087523Y-71221666D01*
X186135142Y-71126428D01*
X186182761Y-71078809D01*
X186278000Y-71031190D01*
X186468476Y-70983571D01*
X186563714Y-70935952D01*
X186611333Y-70888333D01*
X186658952Y-70793095D01*
X186658952Y-70697857D01*
X186611333Y-70602619D01*
X186563714Y-70555000D01*
X186468476Y-70507380D01*
X186230380Y-70507380D01*
X186087523Y-70555000D01*
X185706571Y-71221666D02*
X185230380Y-71221666D01*
X185801809Y-71507380D02*
X185468476Y-70507380D01*
X185135142Y-71507380D01*
X194309904Y-45728000D02*
X194405142Y-45680380D01*
X194548000Y-45680380D01*
X194690857Y-45728000D01*
X194786095Y-45823238D01*
X194833714Y-45918476D01*
X194881333Y-46108952D01*
X194881333Y-46251809D01*
X194833714Y-46442285D01*
X194786095Y-46537523D01*
X194690857Y-46632761D01*
X194548000Y-46680380D01*
X194452761Y-46680380D01*
X194309904Y-46632761D01*
X194262285Y-46585142D01*
X194262285Y-46251809D01*
X194452761Y-46251809D01*
X193833714Y-46680380D02*
X193833714Y-45680380D01*
X193262285Y-46680380D01*
X193262285Y-45680380D01*
X192786095Y-46680380D02*
X192786095Y-45680380D01*
X192548000Y-45680380D01*
X192405142Y-45728000D01*
X192309904Y-45823238D01*
X192262285Y-45918476D01*
X192214666Y-46108952D01*
X192214666Y-46251809D01*
X192262285Y-46442285D01*
X192309904Y-46537523D01*
X192405142Y-46632761D01*
X192548000Y-46680380D01*
X192786095Y-46680380D01*
X197746857Y-46680380D02*
X198080190Y-46204190D01*
X198318285Y-46680380D02*
X198318285Y-45680380D01*
X197937333Y-45680380D01*
X197842095Y-45728000D01*
X197794476Y-45775619D01*
X197746857Y-45870857D01*
X197746857Y-46013714D01*
X197794476Y-46108952D01*
X197842095Y-46156571D01*
X197937333Y-46204190D01*
X198318285Y-46204190D01*
X197318285Y-46156571D02*
X196984952Y-46156571D01*
X196842095Y-46680380D02*
X197318285Y-46680380D01*
X197318285Y-45680380D01*
X196842095Y-45680380D01*
X195889714Y-45728000D02*
X195984952Y-45680380D01*
X196127809Y-45680380D01*
X196270666Y-45728000D01*
X196365904Y-45823238D01*
X196413523Y-45918476D01*
X196461142Y-46108952D01*
X196461142Y-46251809D01*
X196413523Y-46442285D01*
X196365904Y-46537523D01*
X196270666Y-46632761D01*
X196127809Y-46680380D01*
X196032571Y-46680380D01*
X195889714Y-46632761D01*
X195842095Y-46585142D01*
X195842095Y-46251809D01*
X196032571Y-46251809D01*
X203946000Y-59142380D02*
X203755523Y-59142380D01*
X203660285Y-59190000D01*
X203565047Y-59285238D01*
X203517428Y-59475714D01*
X203517428Y-59809047D01*
X203565047Y-59999523D01*
X203660285Y-60094761D01*
X203755523Y-60142380D01*
X203946000Y-60142380D01*
X204041238Y-60094761D01*
X204136476Y-59999523D01*
X204184095Y-59809047D01*
X204184095Y-59475714D01*
X204136476Y-59285238D01*
X204041238Y-59190000D01*
X203946000Y-59142380D01*
X203088857Y-59142380D02*
X203088857Y-59951904D01*
X203041238Y-60047142D01*
X202993619Y-60094761D01*
X202898380Y-60142380D01*
X202707904Y-60142380D01*
X202612666Y-60094761D01*
X202565047Y-60047142D01*
X202517428Y-59951904D01*
X202517428Y-59142380D01*
X202184095Y-59142380D02*
X201612666Y-59142380D01*
X201898380Y-60142380D02*
X201898380Y-59142380D01*
X182371904Y-62492000D02*
X182467142Y-62444380D01*
X182610000Y-62444380D01*
X182752857Y-62492000D01*
X182848095Y-62587238D01*
X182895714Y-62682476D01*
X182943333Y-62872952D01*
X182943333Y-63015809D01*
X182895714Y-63206285D01*
X182848095Y-63301523D01*
X182752857Y-63396761D01*
X182610000Y-63444380D01*
X182514761Y-63444380D01*
X182371904Y-63396761D01*
X182324285Y-63349142D01*
X182324285Y-63015809D01*
X182514761Y-63015809D01*
X181895714Y-63444380D02*
X181895714Y-62444380D01*
X181324285Y-63444380D01*
X181324285Y-62444380D01*
X180848095Y-63444380D02*
X180848095Y-62444380D01*
X180610000Y-62444380D01*
X180467142Y-62492000D01*
X180371904Y-62587238D01*
X180324285Y-62682476D01*
X180276666Y-62872952D01*
X180276666Y-63015809D01*
X180324285Y-63206285D01*
X180371904Y-63301523D01*
X180467142Y-63396761D01*
X180610000Y-63444380D01*
X180848095Y-63444380D01*
X183340190Y-56997000D02*
X182340190Y-56997000D01*
X182578285Y-57412000D02*
X182673523Y-57364380D01*
X182816380Y-57364380D01*
X182959238Y-57412000D01*
X183054476Y-57507238D01*
X183102095Y-57602476D01*
X183149714Y-57792952D01*
X183149714Y-57935809D01*
X183102095Y-58126285D01*
X183054476Y-58221523D01*
X182959238Y-58316761D01*
X182816380Y-58364380D01*
X182721142Y-58364380D01*
X182578285Y-58316761D01*
X182530666Y-58269142D01*
X182530666Y-57935809D01*
X182721142Y-57935809D01*
X182340190Y-56997000D02*
X181435428Y-56997000D01*
X182102095Y-57840571D02*
X181768761Y-57840571D01*
X181625904Y-58364380D02*
X182102095Y-58364380D01*
X182102095Y-57364380D01*
X181625904Y-57364380D01*
X181435428Y-56997000D02*
X180387809Y-56997000D01*
X181197333Y-58364380D02*
X181197333Y-57364380D01*
X180625904Y-58364380D01*
X180625904Y-57364380D01*
X187911904Y-53411428D02*
X187150000Y-53411428D01*
X187530952Y-53792380D02*
X187530952Y-53030476D01*
X186816666Y-52792380D02*
X186483333Y-53792380D01*
X186150000Y-52792380D01*
X185245238Y-53697142D02*
X185292857Y-53744761D01*
X185435714Y-53792380D01*
X185530952Y-53792380D01*
X185673809Y-53744761D01*
X185769047Y-53649523D01*
X185816666Y-53554285D01*
X185864285Y-53363809D01*
X185864285Y-53220952D01*
X185816666Y-53030476D01*
X185769047Y-52935238D01*
X185673809Y-52840000D01*
X185530952Y-52792380D01*
X185435714Y-52792380D01*
X185292857Y-52840000D01*
X185245238Y-52887619D01*
X184245238Y-53697142D02*
X184292857Y-53744761D01*
X184435714Y-53792380D01*
X184530952Y-53792380D01*
X184673809Y-53744761D01*
X184769047Y-53649523D01*
X184816666Y-53554285D01*
X184864285Y-53363809D01*
X184864285Y-53220952D01*
X184816666Y-53030476D01*
X184769047Y-52935238D01*
X184673809Y-52840000D01*
X184530952Y-52792380D01*
X184435714Y-52792380D01*
X184292857Y-52840000D01*
X184245238Y-52887619D01*
X182769047Y-54173333D02*
X182816666Y-54125714D01*
X182911904Y-53982857D01*
X182959523Y-53887619D01*
X183007142Y-53744761D01*
X183054761Y-53506666D01*
X183054761Y-53316190D01*
X183007142Y-53078095D01*
X182959523Y-52935238D01*
X182911904Y-52840000D01*
X182816666Y-52697142D01*
X182769047Y-52649523D01*
X181911904Y-52792380D02*
X182388095Y-52792380D01*
X182435714Y-53268571D01*
X182388095Y-53220952D01*
X182292857Y-53173333D01*
X182054761Y-53173333D01*
X181959523Y-53220952D01*
X181911904Y-53268571D01*
X181864285Y-53363809D01*
X181864285Y-53601904D01*
X181911904Y-53697142D01*
X181959523Y-53744761D01*
X182054761Y-53792380D01*
X182292857Y-53792380D01*
X182388095Y-53744761D01*
X182435714Y-53697142D01*
X181578571Y-52792380D02*
X181245238Y-53792380D01*
X180911904Y-52792380D01*
X180673809Y-54173333D02*
X180626190Y-54125714D01*
X180530952Y-53982857D01*
X180483333Y-53887619D01*
X180435714Y-53744761D01*
X180388095Y-53506666D01*
X180388095Y-53316190D01*
X180435714Y-53078095D01*
X180483333Y-52935238D01*
X180530952Y-52840000D01*
X180626190Y-52697142D01*
X180673809Y-52649523D01*
M02*
