G04 #@! TF.GenerationSoftware,KiCad,Pcbnew,(5.1.5)-3*
G04 #@! TF.CreationDate,2020-05-09T15:27:07-04:00*
G04 #@! TF.ProjectId,v2,76322e6b-6963-4616-945f-706362585858,rev?*
G04 #@! TF.SameCoordinates,Original*
G04 #@! TF.FileFunction,Copper,L2,Bot*
G04 #@! TF.FilePolarity,Positive*
%FSLAX46Y46*%
G04 Gerber Fmt 4.6, Leading zero omitted, Abs format (unit mm)*
G04 Created by KiCad (PCBNEW (5.1.5)-3) date 2020-05-09 15:27:07*
%MOMM*%
%LPD*%
G04 APERTURE LIST*
%ADD10C,0.100000*%
%ADD11C,0.150000*%
%ADD12C,0.300000*%
%ADD13C,0.400000*%
%ADD14C,0.381000*%
%ADD15C,7.000000*%
%ADD16C,0.800000*%
%ADD17C,1.500000*%
%ADD18C,0.350000*%
%ADD19C,0.254000*%
G04 APERTURE END LIST*
D10*
D11*
X177002200Y-166007200D02*
X177002200Y-198007200D01*
X285002200Y-198007200D01*
X285002200Y-166007200D01*
X177002200Y-166007200D01*
D10*
D11*
X10000000Y-10000000D02*
X10000000Y-200007200D01*
X287002200Y-200007200D01*
X287002200Y-10000000D01*
X10000000Y-10000000D01*
D10*
D11*
X12000000Y-12000000D02*
X12000000Y-198007200D01*
X285002200Y-198007200D01*
X285002200Y-12000000D01*
X12000000Y-12000000D01*
D10*
D11*
X60000000Y-12000000D02*
X60000000Y-10000000D01*
D10*
D11*
X110000000Y-12000000D02*
X110000000Y-10000000D01*
D10*
D11*
X160000000Y-12000000D02*
X160000000Y-10000000D01*
D10*
D11*
X210000000Y-12000000D02*
X210000000Y-10000000D01*
D10*
D11*
X260000000Y-12000000D02*
X260000000Y-10000000D01*
D10*
D11*
X36065476Y-11588095D02*
X35322619Y-11588095D01*
X35694047Y-11588095D02*
X35694047Y-10288095D01*
X35570238Y-10473809D01*
X35446428Y-10597619D01*
X35322619Y-10659523D01*
D10*
D11*
X85322619Y-10411904D02*
X85384523Y-10350000D01*
X85508333Y-10288095D01*
X85817857Y-10288095D01*
X85941666Y-10350000D01*
X86003571Y-10411904D01*
X86065476Y-10535714D01*
X86065476Y-10659523D01*
X86003571Y-10845238D01*
X85260714Y-11588095D01*
X86065476Y-11588095D01*
D10*
D11*
X135260714Y-10288095D02*
X136065476Y-10288095D01*
X135632142Y-10783333D01*
X135817857Y-10783333D01*
X135941666Y-10845238D01*
X136003571Y-10907142D01*
X136065476Y-11030952D01*
X136065476Y-11340476D01*
X136003571Y-11464285D01*
X135941666Y-11526190D01*
X135817857Y-11588095D01*
X135446428Y-11588095D01*
X135322619Y-11526190D01*
X135260714Y-11464285D01*
D10*
D11*
X185941666Y-10721428D02*
X185941666Y-11588095D01*
X185632142Y-10226190D02*
X185322619Y-11154761D01*
X186127380Y-11154761D01*
D10*
D11*
X236003571Y-10288095D02*
X235384523Y-10288095D01*
X235322619Y-10907142D01*
X235384523Y-10845238D01*
X235508333Y-10783333D01*
X235817857Y-10783333D01*
X235941666Y-10845238D01*
X236003571Y-10907142D01*
X236065476Y-11030952D01*
X236065476Y-11340476D01*
X236003571Y-11464285D01*
X235941666Y-11526190D01*
X235817857Y-11588095D01*
X235508333Y-11588095D01*
X235384523Y-11526190D01*
X235322619Y-11464285D01*
D10*
D11*
X285941666Y-10288095D02*
X285694047Y-10288095D01*
X285570238Y-10350000D01*
X285508333Y-10411904D01*
X285384523Y-10597619D01*
X285322619Y-10845238D01*
X285322619Y-11340476D01*
X285384523Y-11464285D01*
X285446428Y-11526190D01*
X285570238Y-11588095D01*
X285817857Y-11588095D01*
X285941666Y-11526190D01*
X286003571Y-11464285D01*
X286065476Y-11340476D01*
X286065476Y-11030952D01*
X286003571Y-10907142D01*
X285941666Y-10845238D01*
X285817857Y-10783333D01*
X285570238Y-10783333D01*
X285446428Y-10845238D01*
X285384523Y-10907142D01*
X285322619Y-11030952D01*
D10*
D11*
X60000000Y-198007200D02*
X60000000Y-200007200D01*
D10*
D11*
X110000000Y-198007200D02*
X110000000Y-200007200D01*
D10*
D11*
X160000000Y-198007200D02*
X160000000Y-200007200D01*
D10*
D11*
X210000000Y-198007200D02*
X210000000Y-200007200D01*
D10*
D11*
X260000000Y-198007200D02*
X260000000Y-200007200D01*
D10*
D11*
X36065476Y-199595295D02*
X35322619Y-199595295D01*
X35694047Y-199595295D02*
X35694047Y-198295295D01*
X35570238Y-198481009D01*
X35446428Y-198604819D01*
X35322619Y-198666723D01*
D10*
D11*
X85322619Y-198419104D02*
X85384523Y-198357200D01*
X85508333Y-198295295D01*
X85817857Y-198295295D01*
X85941666Y-198357200D01*
X86003571Y-198419104D01*
X86065476Y-198542914D01*
X86065476Y-198666723D01*
X86003571Y-198852438D01*
X85260714Y-199595295D01*
X86065476Y-199595295D01*
D10*
D11*
X135260714Y-198295295D02*
X136065476Y-198295295D01*
X135632142Y-198790533D01*
X135817857Y-198790533D01*
X135941666Y-198852438D01*
X136003571Y-198914342D01*
X136065476Y-199038152D01*
X136065476Y-199347676D01*
X136003571Y-199471485D01*
X135941666Y-199533390D01*
X135817857Y-199595295D01*
X135446428Y-199595295D01*
X135322619Y-199533390D01*
X135260714Y-199471485D01*
D10*
D11*
X185941666Y-198728628D02*
X185941666Y-199595295D01*
X185632142Y-198233390D02*
X185322619Y-199161961D01*
X186127380Y-199161961D01*
D10*
D11*
X236003571Y-198295295D02*
X235384523Y-198295295D01*
X235322619Y-198914342D01*
X235384523Y-198852438D01*
X235508333Y-198790533D01*
X235817857Y-198790533D01*
X235941666Y-198852438D01*
X236003571Y-198914342D01*
X236065476Y-199038152D01*
X236065476Y-199347676D01*
X236003571Y-199471485D01*
X235941666Y-199533390D01*
X235817857Y-199595295D01*
X235508333Y-199595295D01*
X235384523Y-199533390D01*
X235322619Y-199471485D01*
D10*
D11*
X285941666Y-198295295D02*
X285694047Y-198295295D01*
X285570238Y-198357200D01*
X285508333Y-198419104D01*
X285384523Y-198604819D01*
X285322619Y-198852438D01*
X285322619Y-199347676D01*
X285384523Y-199471485D01*
X285446428Y-199533390D01*
X285570238Y-199595295D01*
X285817857Y-199595295D01*
X285941666Y-199533390D01*
X286003571Y-199471485D01*
X286065476Y-199347676D01*
X286065476Y-199038152D01*
X286003571Y-198914342D01*
X285941666Y-198852438D01*
X285817857Y-198790533D01*
X285570238Y-198790533D01*
X285446428Y-198852438D01*
X285384523Y-198914342D01*
X285322619Y-199038152D01*
D10*
D11*
X10000000Y-60000000D02*
X12000000Y-60000000D01*
D10*
D11*
X10000000Y-110000000D02*
X12000000Y-110000000D01*
D10*
D11*
X10000000Y-160000000D02*
X12000000Y-160000000D01*
D10*
D11*
X10690476Y-35216666D02*
X11309523Y-35216666D01*
X10566666Y-35588095D02*
X11000000Y-34288095D01*
X11433333Y-35588095D01*
D10*
D11*
X11092857Y-84907142D02*
X11278571Y-84969047D01*
X11340476Y-85030952D01*
X11402380Y-85154761D01*
X11402380Y-85340476D01*
X11340476Y-85464285D01*
X11278571Y-85526190D01*
X11154761Y-85588095D01*
X10659523Y-85588095D01*
X10659523Y-84288095D01*
X11092857Y-84288095D01*
X11216666Y-84350000D01*
X11278571Y-84411904D01*
X11340476Y-84535714D01*
X11340476Y-84659523D01*
X11278571Y-84783333D01*
X11216666Y-84845238D01*
X11092857Y-84907142D01*
X10659523Y-84907142D01*
D10*
D11*
X11402380Y-135464285D02*
X11340476Y-135526190D01*
X11154761Y-135588095D01*
X11030952Y-135588095D01*
X10845238Y-135526190D01*
X10721428Y-135402380D01*
X10659523Y-135278571D01*
X10597619Y-135030952D01*
X10597619Y-134845238D01*
X10659523Y-134597619D01*
X10721428Y-134473809D01*
X10845238Y-134350000D01*
X11030952Y-134288095D01*
X11154761Y-134288095D01*
X11340476Y-134350000D01*
X11402380Y-134411904D01*
D10*
D11*
X10659523Y-185588095D02*
X10659523Y-184288095D01*
X10969047Y-184288095D01*
X11154761Y-184350000D01*
X11278571Y-184473809D01*
X11340476Y-184597619D01*
X11402380Y-184845238D01*
X11402380Y-185030952D01*
X11340476Y-185278571D01*
X11278571Y-185402380D01*
X11154761Y-185526190D01*
X10969047Y-185588095D01*
X10659523Y-185588095D01*
D10*
D11*
X287002200Y-60000000D02*
X285002200Y-60000000D01*
D10*
D11*
X287002200Y-110000000D02*
X285002200Y-110000000D01*
D10*
D11*
X287002200Y-160000000D02*
X285002200Y-160000000D01*
D10*
D11*
X285692676Y-35216666D02*
X286311723Y-35216666D01*
X285568866Y-35588095D02*
X286002200Y-34288095D01*
X286435533Y-35588095D01*
D10*
D11*
X286095057Y-84907142D02*
X286280771Y-84969047D01*
X286342676Y-85030952D01*
X286404580Y-85154761D01*
X286404580Y-85340476D01*
X286342676Y-85464285D01*
X286280771Y-85526190D01*
X286156961Y-85588095D01*
X285661723Y-85588095D01*
X285661723Y-84288095D01*
X286095057Y-84288095D01*
X286218866Y-84350000D01*
X286280771Y-84411904D01*
X286342676Y-84535714D01*
X286342676Y-84659523D01*
X286280771Y-84783333D01*
X286218866Y-84845238D01*
X286095057Y-84907142D01*
X285661723Y-84907142D01*
D10*
D11*
X286404580Y-135464285D02*
X286342676Y-135526190D01*
X286156961Y-135588095D01*
X286033152Y-135588095D01*
X285847438Y-135526190D01*
X285723628Y-135402380D01*
X285661723Y-135278571D01*
X285599819Y-135030952D01*
X285599819Y-134845238D01*
X285661723Y-134597619D01*
X285723628Y-134473809D01*
X285847438Y-134350000D01*
X286033152Y-134288095D01*
X286156961Y-134288095D01*
X286342676Y-134350000D01*
X286404580Y-134411904D01*
D10*
D11*
X285661723Y-185588095D02*
X285661723Y-184288095D01*
X285971247Y-184288095D01*
X286156961Y-184350000D01*
X286280771Y-184473809D01*
X286342676Y-184597619D01*
X286404580Y-184845238D01*
X286404580Y-185030952D01*
X286342676Y-185278571D01*
X286280771Y-185402380D01*
X286156961Y-185526190D01*
X285971247Y-185588095D01*
X285661723Y-185588095D01*
D10*
D11*
X200434342Y-193785771D02*
X200434342Y-192285771D01*
X200791485Y-192285771D01*
X201005771Y-192357200D01*
X201148628Y-192500057D01*
X201220057Y-192642914D01*
X201291485Y-192928628D01*
X201291485Y-193142914D01*
X201220057Y-193428628D01*
X201148628Y-193571485D01*
X201005771Y-193714342D01*
X200791485Y-193785771D01*
X200434342Y-193785771D01*
X202577200Y-193785771D02*
X202577200Y-193000057D01*
X202505771Y-192857200D01*
X202362914Y-192785771D01*
X202077200Y-192785771D01*
X201934342Y-192857200D01*
X202577200Y-193714342D02*
X202434342Y-193785771D01*
X202077200Y-193785771D01*
X201934342Y-193714342D01*
X201862914Y-193571485D01*
X201862914Y-193428628D01*
X201934342Y-193285771D01*
X202077200Y-193214342D01*
X202434342Y-193214342D01*
X202577200Y-193142914D01*
X203077200Y-192785771D02*
X203648628Y-192785771D01*
X203291485Y-192285771D02*
X203291485Y-193571485D01*
X203362914Y-193714342D01*
X203505771Y-193785771D01*
X203648628Y-193785771D01*
X204720057Y-193714342D02*
X204577200Y-193785771D01*
X204291485Y-193785771D01*
X204148628Y-193714342D01*
X204077200Y-193571485D01*
X204077200Y-193000057D01*
X204148628Y-192857200D01*
X204291485Y-192785771D01*
X204577200Y-192785771D01*
X204720057Y-192857200D01*
X204791485Y-193000057D01*
X204791485Y-193142914D01*
X204077200Y-193285771D01*
X205434342Y-193642914D02*
X205505771Y-193714342D01*
X205434342Y-193785771D01*
X205362914Y-193714342D01*
X205434342Y-193642914D01*
X205434342Y-193785771D01*
X205434342Y-192857200D02*
X205505771Y-192928628D01*
X205434342Y-193000057D01*
X205362914Y-192928628D01*
X205434342Y-192857200D01*
X205434342Y-193000057D01*
D10*
D11*
X177002200Y-194507200D02*
X285002200Y-194507200D01*
D10*
D11*
X178434342Y-196585771D02*
X178434342Y-195085771D01*
X179291485Y-196585771D02*
X178648628Y-195728628D01*
X179291485Y-195085771D02*
X178434342Y-195942914D01*
X179934342Y-196585771D02*
X179934342Y-195585771D01*
X179934342Y-195085771D02*
X179862914Y-195157200D01*
X179934342Y-195228628D01*
X180005771Y-195157200D01*
X179934342Y-195085771D01*
X179934342Y-195228628D01*
X181505771Y-196442914D02*
X181434342Y-196514342D01*
X181220057Y-196585771D01*
X181077200Y-196585771D01*
X180862914Y-196514342D01*
X180720057Y-196371485D01*
X180648628Y-196228628D01*
X180577200Y-195942914D01*
X180577200Y-195728628D01*
X180648628Y-195442914D01*
X180720057Y-195300057D01*
X180862914Y-195157200D01*
X181077200Y-195085771D01*
X181220057Y-195085771D01*
X181434342Y-195157200D01*
X181505771Y-195228628D01*
X182791485Y-196585771D02*
X182791485Y-195800057D01*
X182720057Y-195657200D01*
X182577200Y-195585771D01*
X182291485Y-195585771D01*
X182148628Y-195657200D01*
X182791485Y-196514342D02*
X182648628Y-196585771D01*
X182291485Y-196585771D01*
X182148628Y-196514342D01*
X182077200Y-196371485D01*
X182077200Y-196228628D01*
X182148628Y-196085771D01*
X182291485Y-196014342D01*
X182648628Y-196014342D01*
X182791485Y-195942914D01*
X184148628Y-196585771D02*
X184148628Y-195085771D01*
X184148628Y-196514342D02*
X184005771Y-196585771D01*
X183720057Y-196585771D01*
X183577200Y-196514342D01*
X183505771Y-196442914D01*
X183434342Y-196300057D01*
X183434342Y-195871485D01*
X183505771Y-195728628D01*
X183577200Y-195657200D01*
X183720057Y-195585771D01*
X184005771Y-195585771D01*
X184148628Y-195657200D01*
X186005771Y-195800057D02*
X186505771Y-195800057D01*
X186720057Y-196585771D02*
X186005771Y-196585771D01*
X186005771Y-195085771D01*
X186720057Y-195085771D01*
X187362914Y-196442914D02*
X187434342Y-196514342D01*
X187362914Y-196585771D01*
X187291485Y-196514342D01*
X187362914Y-196442914D01*
X187362914Y-196585771D01*
X188077200Y-196585771D02*
X188077200Y-195085771D01*
X188434342Y-195085771D01*
X188648628Y-195157200D01*
X188791485Y-195300057D01*
X188862914Y-195442914D01*
X188934342Y-195728628D01*
X188934342Y-195942914D01*
X188862914Y-196228628D01*
X188791485Y-196371485D01*
X188648628Y-196514342D01*
X188434342Y-196585771D01*
X188077200Y-196585771D01*
X189577200Y-196442914D02*
X189648628Y-196514342D01*
X189577200Y-196585771D01*
X189505771Y-196514342D01*
X189577200Y-196442914D01*
X189577200Y-196585771D01*
X190220057Y-196157200D02*
X190934342Y-196157200D01*
X190077200Y-196585771D02*
X190577200Y-195085771D01*
X191077200Y-196585771D01*
X191577200Y-196442914D02*
X191648628Y-196514342D01*
X191577200Y-196585771D01*
X191505771Y-196514342D01*
X191577200Y-196442914D01*
X191577200Y-196585771D01*
X194577200Y-196585771D02*
X194577200Y-195085771D01*
X194720057Y-196014342D02*
X195148628Y-196585771D01*
X195148628Y-195585771D02*
X194577200Y-196157200D01*
X195791485Y-196585771D02*
X195791485Y-195585771D01*
X195791485Y-195085771D02*
X195720057Y-195157200D01*
X195791485Y-195228628D01*
X195862914Y-195157200D01*
X195791485Y-195085771D01*
X195791485Y-195228628D01*
X197148628Y-196514342D02*
X197005771Y-196585771D01*
X196720057Y-196585771D01*
X196577200Y-196514342D01*
X196505771Y-196442914D01*
X196434342Y-196300057D01*
X196434342Y-195871485D01*
X196505771Y-195728628D01*
X196577200Y-195657200D01*
X196720057Y-195585771D01*
X197005771Y-195585771D01*
X197148628Y-195657200D01*
X198434342Y-196585771D02*
X198434342Y-195800057D01*
X198362914Y-195657200D01*
X198220057Y-195585771D01*
X197934342Y-195585771D01*
X197791485Y-195657200D01*
X198434342Y-196514342D02*
X198291485Y-196585771D01*
X197934342Y-196585771D01*
X197791485Y-196514342D01*
X197720057Y-196371485D01*
X197720057Y-196228628D01*
X197791485Y-196085771D01*
X197934342Y-196014342D01*
X198291485Y-196014342D01*
X198434342Y-195942914D01*
X199791485Y-196585771D02*
X199791485Y-195085771D01*
X199791485Y-196514342D02*
X199648628Y-196585771D01*
X199362914Y-196585771D01*
X199220057Y-196514342D01*
X199148628Y-196442914D01*
X199077200Y-196300057D01*
X199077200Y-195871485D01*
X199148628Y-195728628D01*
X199220057Y-195657200D01*
X199362914Y-195585771D01*
X199648628Y-195585771D01*
X199791485Y-195657200D01*
X202077200Y-197157200D02*
X202005771Y-197085771D01*
X201862914Y-196871485D01*
X201791485Y-196728628D01*
X201720057Y-196514342D01*
X201648628Y-196157200D01*
X201648628Y-195871485D01*
X201720057Y-195514342D01*
X201791485Y-195300057D01*
X201862914Y-195157200D01*
X202005771Y-194942914D01*
X202077200Y-194871485D01*
X203362914Y-195085771D02*
X202648628Y-195085771D01*
X202577200Y-195800057D01*
X202648628Y-195728628D01*
X202791485Y-195657200D01*
X203148628Y-195657200D01*
X203291485Y-195728628D01*
X203362914Y-195800057D01*
X203434342Y-195942914D01*
X203434342Y-196300057D01*
X203362914Y-196442914D01*
X203291485Y-196514342D01*
X203148628Y-196585771D01*
X202791485Y-196585771D01*
X202648628Y-196514342D01*
X202577200Y-196442914D01*
X204077200Y-196442914D02*
X204148628Y-196514342D01*
X204077200Y-196585771D01*
X204005771Y-196514342D01*
X204077200Y-196442914D01*
X204077200Y-196585771D01*
X205577200Y-196585771D02*
X204720057Y-196585771D01*
X205148628Y-196585771D02*
X205148628Y-195085771D01*
X205005771Y-195300057D01*
X204862914Y-195442914D01*
X204720057Y-195514342D01*
X206220057Y-196442914D02*
X206291485Y-196514342D01*
X206220057Y-196585771D01*
X206148628Y-196514342D01*
X206220057Y-196442914D01*
X206220057Y-196585771D01*
X207648628Y-195085771D02*
X206934342Y-195085771D01*
X206862914Y-195800057D01*
X206934342Y-195728628D01*
X207077200Y-195657200D01*
X207434342Y-195657200D01*
X207577200Y-195728628D01*
X207648628Y-195800057D01*
X207720057Y-195942914D01*
X207720057Y-196300057D01*
X207648628Y-196442914D01*
X207577200Y-196514342D01*
X207434342Y-196585771D01*
X207077200Y-196585771D01*
X206934342Y-196514342D01*
X206862914Y-196442914D01*
X208220057Y-197157200D02*
X208291485Y-197085771D01*
X208434342Y-196871485D01*
X208505771Y-196728628D01*
X208577200Y-196514342D01*
X208648628Y-196157200D01*
X208648628Y-195871485D01*
X208577200Y-195514342D01*
X208505771Y-195300057D01*
X208434342Y-195157200D01*
X208291485Y-194942914D01*
X208220057Y-194871485D01*
X209362914Y-196014342D02*
X210505771Y-196014342D01*
X211077200Y-195085771D02*
X212005771Y-195085771D01*
X211505771Y-195657200D01*
X211720057Y-195657200D01*
X211862914Y-195728628D01*
X211934342Y-195800057D01*
X212005771Y-195942914D01*
X212005771Y-196300057D01*
X211934342Y-196442914D01*
X211862914Y-196514342D01*
X211720057Y-196585771D01*
X211291485Y-196585771D01*
X211148628Y-196514342D01*
X211077200Y-196442914D01*
D10*
D11*
X177002200Y-191507200D02*
X285002200Y-191507200D01*
D10*
D12*
X264411485Y-193785771D02*
X263911485Y-193071485D01*
X263554342Y-193785771D02*
X263554342Y-192285771D01*
X264125771Y-192285771D01*
X264268628Y-192357200D01*
X264340057Y-192428628D01*
X264411485Y-192571485D01*
X264411485Y-192785771D01*
X264340057Y-192928628D01*
X264268628Y-193000057D01*
X264125771Y-193071485D01*
X263554342Y-193071485D01*
X265625771Y-193714342D02*
X265482914Y-193785771D01*
X265197200Y-193785771D01*
X265054342Y-193714342D01*
X264982914Y-193571485D01*
X264982914Y-193000057D01*
X265054342Y-192857200D01*
X265197200Y-192785771D01*
X265482914Y-192785771D01*
X265625771Y-192857200D01*
X265697200Y-193000057D01*
X265697200Y-193142914D01*
X264982914Y-193285771D01*
X266197200Y-192785771D02*
X266554342Y-193785771D01*
X266911485Y-192785771D01*
X267482914Y-193642914D02*
X267554342Y-193714342D01*
X267482914Y-193785771D01*
X267411485Y-193714342D01*
X267482914Y-193642914D01*
X267482914Y-193785771D01*
X267482914Y-192857200D02*
X267554342Y-192928628D01*
X267482914Y-193000057D01*
X267411485Y-192928628D01*
X267482914Y-192857200D01*
X267482914Y-193000057D01*
D10*
D11*
X178362914Y-193714342D02*
X178577200Y-193785771D01*
X178934342Y-193785771D01*
X179077200Y-193714342D01*
X179148628Y-193642914D01*
X179220057Y-193500057D01*
X179220057Y-193357200D01*
X179148628Y-193214342D01*
X179077200Y-193142914D01*
X178934342Y-193071485D01*
X178648628Y-193000057D01*
X178505771Y-192928628D01*
X178434342Y-192857200D01*
X178362914Y-192714342D01*
X178362914Y-192571485D01*
X178434342Y-192428628D01*
X178505771Y-192357200D01*
X178648628Y-192285771D01*
X179005771Y-192285771D01*
X179220057Y-192357200D01*
X179862914Y-193785771D02*
X179862914Y-192785771D01*
X179862914Y-192285771D02*
X179791485Y-192357200D01*
X179862914Y-192428628D01*
X179934342Y-192357200D01*
X179862914Y-192285771D01*
X179862914Y-192428628D01*
X180434342Y-192785771D02*
X181220057Y-192785771D01*
X180434342Y-193785771D01*
X181220057Y-193785771D01*
X182362914Y-193714342D02*
X182220057Y-193785771D01*
X181934342Y-193785771D01*
X181791485Y-193714342D01*
X181720057Y-193571485D01*
X181720057Y-193000057D01*
X181791485Y-192857200D01*
X181934342Y-192785771D01*
X182220057Y-192785771D01*
X182362914Y-192857200D01*
X182434342Y-193000057D01*
X182434342Y-193142914D01*
X181720057Y-193285771D01*
X183077200Y-193642914D02*
X183148628Y-193714342D01*
X183077200Y-193785771D01*
X183005771Y-193714342D01*
X183077200Y-193642914D01*
X183077200Y-193785771D01*
X183077200Y-192857200D02*
X183148628Y-192928628D01*
X183077200Y-193000057D01*
X183005771Y-192928628D01*
X183077200Y-192857200D01*
X183077200Y-193000057D01*
X184862914Y-193357200D02*
X185577200Y-193357200D01*
X184720057Y-193785771D02*
X185220057Y-192285771D01*
X185720057Y-193785771D01*
X186862914Y-192785771D02*
X186862914Y-193785771D01*
X186505771Y-192214342D02*
X186148628Y-193285771D01*
X187077200Y-193285771D01*
D10*
D11*
X263434342Y-196585771D02*
X263434342Y-195085771D01*
X264791485Y-196585771D02*
X264791485Y-195085771D01*
X264791485Y-196514342D02*
X264648628Y-196585771D01*
X264362914Y-196585771D01*
X264220057Y-196514342D01*
X264148628Y-196442914D01*
X264077200Y-196300057D01*
X264077200Y-195871485D01*
X264148628Y-195728628D01*
X264220057Y-195657200D01*
X264362914Y-195585771D01*
X264648628Y-195585771D01*
X264791485Y-195657200D01*
X265505771Y-196442914D02*
X265577200Y-196514342D01*
X265505771Y-196585771D01*
X265434342Y-196514342D01*
X265505771Y-196442914D01*
X265505771Y-196585771D01*
X265505771Y-195657200D02*
X265577200Y-195728628D01*
X265505771Y-195800057D01*
X265434342Y-195728628D01*
X265505771Y-195657200D01*
X265505771Y-195800057D01*
X268148628Y-196585771D02*
X267291485Y-196585771D01*
X267720057Y-196585771D02*
X267720057Y-195085771D01*
X267577200Y-195300057D01*
X267434342Y-195442914D01*
X267291485Y-195514342D01*
X269862914Y-195014342D02*
X268577200Y-196942914D01*
X271148628Y-196585771D02*
X270291485Y-196585771D01*
X270720057Y-196585771D02*
X270720057Y-195085771D01*
X270577200Y-195300057D01*
X270434342Y-195442914D01*
X270291485Y-195514342D01*
D10*
D11*
X177002200Y-187507200D02*
X285002200Y-187507200D01*
D10*
D13*
X178714580Y-188211961D02*
X179857438Y-188211961D01*
X179036009Y-190211961D02*
X179286009Y-188211961D01*
X180274104Y-190211961D02*
X180440771Y-188878628D01*
X180524104Y-188211961D02*
X180416961Y-188307200D01*
X180500295Y-188402438D01*
X180607438Y-188307200D01*
X180524104Y-188211961D01*
X180500295Y-188402438D01*
X181107438Y-188878628D02*
X181869342Y-188878628D01*
X181476485Y-188211961D02*
X181262200Y-189926247D01*
X181333628Y-190116723D01*
X181512200Y-190211961D01*
X181702676Y-190211961D01*
X182655057Y-190211961D02*
X182476485Y-190116723D01*
X182405057Y-189926247D01*
X182619342Y-188211961D01*
X184190771Y-190116723D02*
X183988390Y-190211961D01*
X183607438Y-190211961D01*
X183428866Y-190116723D01*
X183357438Y-189926247D01*
X183452676Y-189164342D01*
X183571723Y-188973866D01*
X183774104Y-188878628D01*
X184155057Y-188878628D01*
X184333628Y-188973866D01*
X184405057Y-189164342D01*
X184381247Y-189354819D01*
X183405057Y-189545295D01*
X185155057Y-190021485D02*
X185238390Y-190116723D01*
X185131247Y-190211961D01*
X185047914Y-190116723D01*
X185155057Y-190021485D01*
X185131247Y-190211961D01*
X185286009Y-188973866D02*
X185369342Y-189069104D01*
X185262200Y-189164342D01*
X185178866Y-189069104D01*
X185286009Y-188973866D01*
X185262200Y-189164342D01*
D10*
D11*
X178934342Y-185600057D02*
X178434342Y-185600057D01*
X178434342Y-186385771D02*
X178434342Y-184885771D01*
X179148628Y-184885771D01*
X179720057Y-186385771D02*
X179720057Y-185385771D01*
X179720057Y-184885771D02*
X179648628Y-184957200D01*
X179720057Y-185028628D01*
X179791485Y-184957200D01*
X179720057Y-184885771D01*
X179720057Y-185028628D01*
X180648628Y-186385771D02*
X180505771Y-186314342D01*
X180434342Y-186171485D01*
X180434342Y-184885771D01*
X181791485Y-186314342D02*
X181648628Y-186385771D01*
X181362914Y-186385771D01*
X181220057Y-186314342D01*
X181148628Y-186171485D01*
X181148628Y-185600057D01*
X181220057Y-185457200D01*
X181362914Y-185385771D01*
X181648628Y-185385771D01*
X181791485Y-185457200D01*
X181862914Y-185600057D01*
X181862914Y-185742914D01*
X181148628Y-185885771D01*
X182505771Y-186242914D02*
X182577200Y-186314342D01*
X182505771Y-186385771D01*
X182434342Y-186314342D01*
X182505771Y-186242914D01*
X182505771Y-186385771D01*
X182505771Y-185457200D02*
X182577200Y-185528628D01*
X182505771Y-185600057D01*
X182434342Y-185528628D01*
X182505771Y-185457200D01*
X182505771Y-185600057D01*
X184220057Y-185385771D02*
X184577200Y-186385771D01*
X184934342Y-185385771D01*
X185434342Y-185028628D02*
X185505771Y-184957200D01*
X185648628Y-184885771D01*
X186005771Y-184885771D01*
X186148628Y-184957200D01*
X186220057Y-185028628D01*
X186291485Y-185171485D01*
X186291485Y-185314342D01*
X186220057Y-185528628D01*
X185362914Y-186385771D01*
X186291485Y-186385771D01*
X186934342Y-186242914D02*
X187005771Y-186314342D01*
X186934342Y-186385771D01*
X186862914Y-186314342D01*
X186934342Y-186242914D01*
X186934342Y-186385771D01*
X187648628Y-186385771D02*
X187648628Y-184885771D01*
X187791485Y-185814342D02*
X188220057Y-186385771D01*
X188220057Y-185385771D02*
X187648628Y-185957200D01*
X188862914Y-186385771D02*
X188862914Y-185385771D01*
X188862914Y-184885771D02*
X188791485Y-184957200D01*
X188862914Y-185028628D01*
X188934342Y-184957200D01*
X188862914Y-184885771D01*
X188862914Y-185028628D01*
X190220057Y-186314342D02*
X190077200Y-186385771D01*
X189791485Y-186385771D01*
X189648628Y-186314342D01*
X189577200Y-186242914D01*
X189505771Y-186100057D01*
X189505771Y-185671485D01*
X189577200Y-185528628D01*
X189648628Y-185457200D01*
X189791485Y-185385771D01*
X190077200Y-185385771D01*
X190220057Y-185457200D01*
X191505771Y-186385771D02*
X191505771Y-185600057D01*
X191434342Y-185457200D01*
X191291485Y-185385771D01*
X191005771Y-185385771D01*
X190862914Y-185457200D01*
X191505771Y-186314342D02*
X191362914Y-186385771D01*
X191005771Y-186385771D01*
X190862914Y-186314342D01*
X190791485Y-186171485D01*
X190791485Y-186028628D01*
X190862914Y-185885771D01*
X191005771Y-185814342D01*
X191362914Y-185814342D01*
X191505771Y-185742914D01*
X192862914Y-186385771D02*
X192862914Y-184885771D01*
X192862914Y-186314342D02*
X192720057Y-186385771D01*
X192434342Y-186385771D01*
X192291485Y-186314342D01*
X192220057Y-186242914D01*
X192148628Y-186100057D01*
X192148628Y-185671485D01*
X192220057Y-185528628D01*
X192291485Y-185457200D01*
X192434342Y-185385771D01*
X192720057Y-185385771D01*
X192862914Y-185457200D01*
X193220057Y-186528628D02*
X194362914Y-186528628D01*
X194720057Y-185385771D02*
X194720057Y-186885771D01*
X194720057Y-185457200D02*
X194862914Y-185385771D01*
X195148628Y-185385771D01*
X195291485Y-185457200D01*
X195362914Y-185528628D01*
X195434342Y-185671485D01*
X195434342Y-186100057D01*
X195362914Y-186242914D01*
X195291485Y-186314342D01*
X195148628Y-186385771D01*
X194862914Y-186385771D01*
X194720057Y-186314342D01*
X196720057Y-186314342D02*
X196577200Y-186385771D01*
X196291485Y-186385771D01*
X196148628Y-186314342D01*
X196077200Y-186242914D01*
X196005771Y-186100057D01*
X196005771Y-185671485D01*
X196077200Y-185528628D01*
X196148628Y-185457200D01*
X196291485Y-185385771D01*
X196577200Y-185385771D01*
X196720057Y-185457200D01*
X197362914Y-186385771D02*
X197362914Y-184885771D01*
X197362914Y-185457200D02*
X197505771Y-185385771D01*
X197791485Y-185385771D01*
X197934342Y-185457200D01*
X198005771Y-185528628D01*
X198077200Y-185671485D01*
X198077200Y-186100057D01*
X198005771Y-186242914D01*
X197934342Y-186314342D01*
X197791485Y-186385771D01*
X197505771Y-186385771D01*
X197362914Y-186314342D01*
D10*
D11*
X177002200Y-181507200D02*
X285002200Y-181507200D01*
D10*
D11*
X178362914Y-183614342D02*
X178577200Y-183685771D01*
X178934342Y-183685771D01*
X179077200Y-183614342D01*
X179148628Y-183542914D01*
X179220057Y-183400057D01*
X179220057Y-183257200D01*
X179148628Y-183114342D01*
X179077200Y-183042914D01*
X178934342Y-182971485D01*
X178648628Y-182900057D01*
X178505771Y-182828628D01*
X178434342Y-182757200D01*
X178362914Y-182614342D01*
X178362914Y-182471485D01*
X178434342Y-182328628D01*
X178505771Y-182257200D01*
X178648628Y-182185771D01*
X179005771Y-182185771D01*
X179220057Y-182257200D01*
X179862914Y-183685771D02*
X179862914Y-182185771D01*
X180505771Y-183685771D02*
X180505771Y-182900057D01*
X180434342Y-182757200D01*
X180291485Y-182685771D01*
X180077200Y-182685771D01*
X179934342Y-182757200D01*
X179862914Y-182828628D01*
X181791485Y-183614342D02*
X181648628Y-183685771D01*
X181362914Y-183685771D01*
X181220057Y-183614342D01*
X181148628Y-183471485D01*
X181148628Y-182900057D01*
X181220057Y-182757200D01*
X181362914Y-182685771D01*
X181648628Y-182685771D01*
X181791485Y-182757200D01*
X181862914Y-182900057D01*
X181862914Y-183042914D01*
X181148628Y-183185771D01*
X183077200Y-183614342D02*
X182934342Y-183685771D01*
X182648628Y-183685771D01*
X182505771Y-183614342D01*
X182434342Y-183471485D01*
X182434342Y-182900057D01*
X182505771Y-182757200D01*
X182648628Y-182685771D01*
X182934342Y-182685771D01*
X183077200Y-182757200D01*
X183148628Y-182900057D01*
X183148628Y-183042914D01*
X182434342Y-183185771D01*
X183577200Y-182685771D02*
X184148628Y-182685771D01*
X183791485Y-182185771D02*
X183791485Y-183471485D01*
X183862914Y-183614342D01*
X184005771Y-183685771D01*
X184148628Y-183685771D01*
X184648628Y-183542914D02*
X184720057Y-183614342D01*
X184648628Y-183685771D01*
X184577200Y-183614342D01*
X184648628Y-183542914D01*
X184648628Y-183685771D01*
X184648628Y-182757200D02*
X184720057Y-182828628D01*
X184648628Y-182900057D01*
X184577200Y-182828628D01*
X184648628Y-182757200D01*
X184648628Y-182900057D01*
D10*
D11*
X197002200Y-191507200D02*
X197002200Y-194507200D01*
D10*
D11*
X261002200Y-191507200D02*
X261002200Y-198007200D01*
D14*
X188988560Y-53379700D02*
X189588000Y-53280640D01*
X188587240Y-53478760D02*
X188988560Y-53379700D01*
X188086860Y-53781020D02*
X188587240Y-53478760D01*
X187589020Y-54278860D02*
X188086860Y-53781020D01*
X187286760Y-54779240D02*
X187589020Y-54278860D01*
X187088640Y-55381220D02*
X187286760Y-54779240D01*
X187088640Y-55980660D02*
X187088640Y-55381220D01*
X187187700Y-56580100D02*
X187088640Y-55980660D01*
X187589020Y-57281140D02*
X187187700Y-56580100D01*
X188086860Y-57778980D02*
X187589020Y-57281140D01*
X188688840Y-58081240D02*
X188086860Y-57778980D01*
X189288280Y-58279360D02*
X188688840Y-58081240D01*
X190088380Y-58279360D02*
X189288280Y-58279360D01*
X190786880Y-57979640D02*
X190088380Y-58279360D01*
X191287260Y-57580860D02*
X190786880Y-57979640D01*
X191889240Y-56879820D02*
X191287260Y-57580860D01*
X192087360Y-56079720D02*
X191889240Y-56879820D01*
X192087360Y-55480280D02*
X192087360Y-56079720D01*
X191988300Y-54979900D02*
X192087360Y-55480280D01*
X191787640Y-54581120D02*
X191988300Y-54979900D01*
X191287260Y-53979140D02*
X191787640Y-54581120D01*
X190786880Y-53580360D02*
X191287260Y-53979140D01*
X190289040Y-53379700D02*
X190786880Y-53580360D01*
X189687060Y-53280640D02*
X190289040Y-53379700D01*
X189588000Y-53280640D02*
X189687060Y-53280640D01*
X190187440Y-56780760D02*
X189986780Y-56580100D01*
X190588760Y-56780760D02*
X190187440Y-56780760D01*
X190888480Y-56679160D02*
X190588760Y-56780760D01*
X191089140Y-56379440D02*
X190888480Y-56679160D01*
X191188200Y-55879060D02*
X191089140Y-56379440D01*
X191188200Y-55480280D02*
X191188200Y-55879060D01*
X191089140Y-55078960D02*
X191188200Y-55480280D01*
X190786880Y-54880840D02*
X191089140Y-55078960D01*
X190388100Y-54779240D02*
X190786880Y-54880840D01*
X190088380Y-54880840D02*
X190388100Y-54779240D01*
X189986780Y-54979900D02*
X190088380Y-54880840D01*
X188086860Y-56780760D02*
X187987800Y-56580100D01*
X188389120Y-56780760D02*
X188086860Y-56780760D01*
X188587240Y-56780760D02*
X188389120Y-56780760D01*
X188988560Y-56580100D02*
X188587240Y-56780760D01*
X189189220Y-56178780D02*
X188988560Y-56580100D01*
X189189220Y-55780000D02*
X189189220Y-56178780D01*
X189087620Y-55279620D02*
X189189220Y-55780000D01*
X188886960Y-54880840D02*
X189087620Y-55279620D01*
X188587240Y-54779240D02*
X188886960Y-54880840D01*
X188287520Y-54779240D02*
X188587240Y-54779240D01*
X188086860Y-54880840D02*
X188287520Y-54779240D01*
X187987800Y-54979900D02*
X188086860Y-54880840D01*
X195234560Y-53225700D02*
X195834000Y-53126640D01*
X194833240Y-53324760D02*
X195234560Y-53225700D01*
X194332860Y-53627020D02*
X194833240Y-53324760D01*
X193835020Y-54124860D02*
X194332860Y-53627020D01*
X193532760Y-54625240D02*
X193835020Y-54124860D01*
X193334640Y-55227220D02*
X193532760Y-54625240D01*
X193334640Y-55826660D02*
X193334640Y-55227220D01*
X193433700Y-56426100D02*
X193334640Y-55826660D01*
X193835020Y-57127140D02*
X193433700Y-56426100D01*
X194332860Y-57624980D02*
X193835020Y-57127140D01*
X194934840Y-57927240D02*
X194332860Y-57624980D01*
X195534280Y-58125360D02*
X194934840Y-57927240D01*
X196334380Y-58125360D02*
X195534280Y-58125360D01*
X197032880Y-57825640D02*
X196334380Y-58125360D01*
X197533260Y-57426860D02*
X197032880Y-57825640D01*
X198135240Y-56725820D02*
X197533260Y-57426860D01*
X198333360Y-55925720D02*
X198135240Y-56725820D01*
X198333360Y-55326280D02*
X198333360Y-55925720D01*
X198234300Y-54825900D02*
X198333360Y-55326280D01*
X198033640Y-54427120D02*
X198234300Y-54825900D01*
X197533260Y-53825140D02*
X198033640Y-54427120D01*
X197032880Y-53426360D02*
X197533260Y-53825140D01*
X196535040Y-53225700D02*
X197032880Y-53426360D01*
X195933060Y-53126640D02*
X196535040Y-53225700D01*
X195834000Y-53126640D02*
X195933060Y-53126640D01*
X196149666Y-53926740D02*
G75*
G03X196149666Y-53926740I-315666J0D01*
G01*
X196634100Y-55826660D02*
X196634100Y-54625240D01*
X195132960Y-55826660D02*
X196634100Y-55826660D01*
X195132960Y-54625240D02*
X195132960Y-55826660D01*
X196634100Y-54625240D02*
X195132960Y-54625240D01*
X196133720Y-57426860D02*
X195633340Y-57426860D01*
X196133720Y-55925720D02*
X196133720Y-57426860D01*
X195534280Y-57426860D02*
X195534280Y-55826660D01*
X195734940Y-57426860D02*
X195534280Y-57426860D01*
X195834000Y-55925720D02*
X195834000Y-57226200D01*
X196634100Y-55526940D02*
X195333620Y-55526940D01*
X195333620Y-55227220D02*
X196535040Y-55227220D01*
X196535040Y-54924960D02*
X195234560Y-54924960D01*
X195834000Y-53726080D02*
X195834000Y-54124860D01*
X202783440Y-58026300D02*
X202184000Y-58125360D01*
X203184760Y-57927240D02*
X202783440Y-58026300D01*
X203685140Y-57624980D02*
X203184760Y-57927240D01*
X204182980Y-57127140D02*
X203685140Y-57624980D01*
X204485240Y-56626760D02*
X204182980Y-57127140D01*
X204683360Y-56024780D02*
X204485240Y-56626760D01*
X204683360Y-55425340D02*
X204683360Y-56024780D01*
X204584300Y-54825900D02*
X204683360Y-55425340D01*
X204182980Y-54124860D02*
X204584300Y-54825900D01*
X203685140Y-53627020D02*
X204182980Y-54124860D01*
X203083160Y-53324760D02*
X203685140Y-53627020D01*
X202483720Y-53126640D02*
X203083160Y-53324760D01*
X201683620Y-53126640D02*
X202483720Y-53126640D01*
X200985120Y-53426360D02*
X201683620Y-53126640D01*
X200484740Y-53825140D02*
X200985120Y-53426360D01*
X199882760Y-54526180D02*
X200484740Y-53825140D01*
X199684640Y-55326280D02*
X199882760Y-54526180D01*
X199684640Y-55925720D02*
X199684640Y-55326280D01*
X199783700Y-56426100D02*
X199684640Y-55925720D01*
X199984360Y-56824880D02*
X199783700Y-56426100D01*
X200484740Y-57426860D02*
X199984360Y-56824880D01*
X200985120Y-57825640D02*
X200484740Y-57426860D01*
X201482960Y-58026300D02*
X200985120Y-57825640D01*
X202084940Y-58125360D02*
X201482960Y-58026300D01*
X202184000Y-58125360D02*
X202084940Y-58125360D01*
X201683620Y-57127140D02*
X201183240Y-56926480D01*
X202084940Y-57226200D02*
X201683620Y-57127140D01*
X202483720Y-57226200D02*
X202084940Y-57226200D01*
X203083160Y-56926480D02*
X202483720Y-57226200D01*
X203382880Y-56626760D02*
X203083160Y-56926480D01*
X203685140Y-56126380D02*
X203382880Y-56626760D01*
X203784200Y-55626000D02*
X203685140Y-56126380D01*
X203784200Y-55227220D02*
X203784200Y-55626000D01*
X203484480Y-54726840D02*
X203784200Y-55227220D01*
X203083160Y-54325520D02*
X203484480Y-54726840D01*
X202582780Y-54124860D02*
X203083160Y-54325520D01*
X202084940Y-54025800D02*
X202582780Y-54124860D01*
X201584560Y-54124860D02*
X202084940Y-54025800D01*
X201084180Y-54427120D02*
X201584560Y-54124860D01*
D15*
X202946000Y-47498000D03*
D16*
X205571000Y-47498000D03*
X204802155Y-49354155D03*
X202946000Y-50123000D03*
X201089845Y-49354155D03*
X200321000Y-47498000D03*
X201089845Y-45641845D03*
X202946000Y-44873000D03*
X204802155Y-45641845D03*
X204802155Y-66723845D03*
X202946000Y-65955000D03*
X201089845Y-66723845D03*
X200321000Y-68580000D03*
X201089845Y-70436155D03*
X202946000Y-71205000D03*
X204802155Y-70436155D03*
X205571000Y-68580000D03*
D15*
X202946000Y-68580000D03*
X181864000Y-68580000D03*
D16*
X184489000Y-68580000D03*
X183720155Y-70436155D03*
X181864000Y-71205000D03*
X180007845Y-70436155D03*
X179239000Y-68580000D03*
X180007845Y-66723845D03*
X181864000Y-65955000D03*
X183720155Y-66723845D03*
X183720155Y-45641845D03*
X181864000Y-44873000D03*
X180007845Y-45641845D03*
X179239000Y-47498000D03*
X180007845Y-49354155D03*
X181864000Y-50123000D03*
X183720155Y-49354155D03*
X184489000Y-47498000D03*
D15*
X181864000Y-47498000D03*
D17*
X178816000Y-62992000D03*
D16*
X184404000Y-64262000D03*
X195072000Y-64262000D03*
D17*
X193548000Y-44450000D03*
X197358000Y-44450000D03*
X205740000Y-59690000D03*
X178816000Y-53340000D03*
X178816000Y-57912000D03*
D16*
X186182000Y-59944000D03*
D18*
X184404000Y-64262000D02*
X195072000Y-64262000D01*
X178816000Y-57912000D02*
X184150000Y-57912000D01*
X184150000Y-57912000D02*
X186182000Y-59944000D01*
D19*
G36*
X196130629Y-43793957D02*
G01*
X196026225Y-44046011D01*
X195973000Y-44313589D01*
X195973000Y-44586411D01*
X196026225Y-44853989D01*
X196130629Y-45106043D01*
X196282201Y-45332886D01*
X196475114Y-45525799D01*
X196701957Y-45677371D01*
X196954011Y-45781775D01*
X197221589Y-45835000D01*
X197494411Y-45835000D01*
X197761989Y-45781775D01*
X198014043Y-45677371D01*
X198240886Y-45525799D01*
X198433799Y-45332886D01*
X198585371Y-45106043D01*
X198689775Y-44853989D01*
X198743000Y-44586411D01*
X198743000Y-44313589D01*
X198689775Y-44046011D01*
X198585371Y-43793957D01*
X198446418Y-43586000D01*
X201585128Y-43586000D01*
X200987343Y-43833611D01*
X200310091Y-44286136D01*
X199734136Y-44862091D01*
X199281611Y-45539343D01*
X198969906Y-46291865D01*
X198811000Y-47090738D01*
X198811000Y-47905262D01*
X198969906Y-48704135D01*
X199281611Y-49456657D01*
X199734136Y-50133909D01*
X200310091Y-50709864D01*
X200987343Y-51162389D01*
X201739865Y-51474094D01*
X202538738Y-51633000D01*
X203353262Y-51633000D01*
X204152135Y-51474094D01*
X204904657Y-51162389D01*
X205581909Y-50709864D01*
X206157864Y-50133909D01*
X206610389Y-49456657D01*
X206858001Y-48858869D01*
X206858000Y-58870273D01*
X206815799Y-58807114D01*
X206622886Y-58614201D01*
X206396043Y-58462629D01*
X206143989Y-58358225D01*
X205876411Y-58305000D01*
X205603589Y-58305000D01*
X205336011Y-58358225D01*
X205083957Y-58462629D01*
X204857114Y-58614201D01*
X204664201Y-58807114D01*
X204512629Y-59033957D01*
X204408225Y-59286011D01*
X204355000Y-59553589D01*
X204355000Y-59826411D01*
X204408225Y-60093989D01*
X204512629Y-60346043D01*
X204664201Y-60572886D01*
X204857114Y-60765799D01*
X205083957Y-60917371D01*
X205336011Y-61021775D01*
X205603589Y-61075000D01*
X205876411Y-61075000D01*
X206143989Y-61021775D01*
X206396043Y-60917371D01*
X206622886Y-60765799D01*
X206815799Y-60572886D01*
X206858000Y-60509727D01*
X206858000Y-67219128D01*
X206610389Y-66621343D01*
X206157864Y-65944091D01*
X205581909Y-65368136D01*
X204904657Y-64915611D01*
X204152135Y-64603906D01*
X203353262Y-64445000D01*
X202538738Y-64445000D01*
X201739865Y-64603906D01*
X200987343Y-64915611D01*
X200310091Y-65368136D01*
X199734136Y-65944091D01*
X199281611Y-66621343D01*
X198969906Y-67373865D01*
X198811000Y-68172738D01*
X198811000Y-68987262D01*
X198969906Y-69786135D01*
X199281611Y-70538657D01*
X199734136Y-71215909D01*
X200310091Y-71791864D01*
X200987343Y-72244389D01*
X201585128Y-72492000D01*
X183224872Y-72492000D01*
X183822657Y-72244389D01*
X184499909Y-71791864D01*
X185075864Y-71215909D01*
X185528389Y-70538657D01*
X185840094Y-69786135D01*
X185999000Y-68987262D01*
X185999000Y-68172738D01*
X185840094Y-67373865D01*
X185528389Y-66621343D01*
X185075864Y-65944091D01*
X184499909Y-65368136D01*
X183822657Y-64915611D01*
X183070135Y-64603906D01*
X182271262Y-64445000D01*
X181456738Y-64445000D01*
X180657865Y-64603906D01*
X179905343Y-64915611D01*
X179228091Y-65368136D01*
X178652136Y-65944091D01*
X178199611Y-66621343D01*
X177952000Y-67219128D01*
X177952000Y-59000418D01*
X178159957Y-59139371D01*
X178412011Y-59243775D01*
X178679589Y-59297000D01*
X178952411Y-59297000D01*
X179219989Y-59243775D01*
X179472043Y-59139371D01*
X179698886Y-58987799D01*
X179891799Y-58794886D01*
X179940500Y-58722000D01*
X183814488Y-58722000D01*
X185149129Y-60056642D01*
X185186774Y-60245898D01*
X185264795Y-60434256D01*
X185378063Y-60603774D01*
X185522226Y-60747937D01*
X185691744Y-60861205D01*
X185880102Y-60939226D01*
X186080061Y-60979000D01*
X186283939Y-60979000D01*
X186483898Y-60939226D01*
X186672256Y-60861205D01*
X186841774Y-60747937D01*
X186985937Y-60603774D01*
X187099205Y-60434256D01*
X187177226Y-60245898D01*
X187217000Y-60045939D01*
X187217000Y-59842061D01*
X187177226Y-59642102D01*
X187099205Y-59453744D01*
X186985937Y-59284226D01*
X186841774Y-59140063D01*
X186672256Y-59026795D01*
X186483898Y-58948774D01*
X186294642Y-58911129D01*
X184750899Y-57367387D01*
X184725528Y-57336472D01*
X184602189Y-57235251D01*
X184461473Y-57160037D01*
X184308788Y-57113720D01*
X184189791Y-57102000D01*
X184189788Y-57102000D01*
X184150000Y-57098081D01*
X184110212Y-57102000D01*
X179940500Y-57102000D01*
X179891799Y-57029114D01*
X179698886Y-56836201D01*
X179472043Y-56684629D01*
X179219989Y-56580225D01*
X178952411Y-56527000D01*
X178679589Y-56527000D01*
X178412011Y-56580225D01*
X178159957Y-56684629D01*
X177952000Y-56823582D01*
X177952000Y-55953644D01*
X186259586Y-55953644D01*
X186263140Y-56007738D01*
X186263140Y-56021212D01*
X186265799Y-56048212D01*
X186267575Y-56075241D01*
X186269769Y-56088515D01*
X186275084Y-56142485D01*
X186282999Y-56168578D01*
X186364166Y-56659745D01*
X186364910Y-56685349D01*
X186377395Y-56739799D01*
X186379858Y-56754702D01*
X186386452Y-56779296D01*
X186401253Y-56843846D01*
X186407478Y-56857719D01*
X186411415Y-56872405D01*
X186440717Y-56931801D01*
X186451138Y-56955027D01*
X186458640Y-56968132D01*
X186483357Y-57018234D01*
X186498955Y-57038555D01*
X186866636Y-57680834D01*
X186899321Y-57741982D01*
X186932794Y-57782769D01*
X186963369Y-57825769D01*
X187013795Y-57873347D01*
X187453169Y-58312721D01*
X187459300Y-58321408D01*
X187510612Y-58370164D01*
X187531819Y-58391371D01*
X187539977Y-58398066D01*
X187577181Y-58433417D01*
X187602691Y-58449535D01*
X187626017Y-58468679D01*
X187671277Y-58492871D01*
X187680200Y-58498509D01*
X187707003Y-58511967D01*
X187769426Y-58545333D01*
X187779602Y-58548420D01*
X188263585Y-58791433D01*
X188279885Y-58802916D01*
X188336096Y-58827841D01*
X188354661Y-58837163D01*
X188373181Y-58844286D01*
X188391284Y-58852313D01*
X188410975Y-58858821D01*
X188468399Y-58880906D01*
X188488054Y-58884296D01*
X188961779Y-59040867D01*
X188970846Y-59045713D01*
X189038941Y-59066369D01*
X189067732Y-59075885D01*
X189077677Y-59078120D01*
X189126454Y-59092916D01*
X189156841Y-59095909D01*
X189186627Y-59102602D01*
X189237569Y-59103860D01*
X189247727Y-59104860D01*
X189278095Y-59104860D01*
X189349187Y-59106615D01*
X189359309Y-59104860D01*
X190053054Y-59104860D01*
X190098857Y-59108788D01*
X190174445Y-59100378D01*
X190250206Y-59092916D01*
X190255246Y-59091387D01*
X190260469Y-59090806D01*
X190332927Y-59067823D01*
X190405814Y-59045713D01*
X190446367Y-59024037D01*
X191102152Y-58742645D01*
X191167369Y-58716721D01*
X191210938Y-58688504D01*
X191256396Y-58663463D01*
X191310063Y-58618273D01*
X191767452Y-58253755D01*
X191799059Y-58233640D01*
X191830892Y-58203196D01*
X191833459Y-58201150D01*
X191860158Y-58175207D01*
X191887126Y-58149415D01*
X191889270Y-58146919D01*
X191920854Y-58116228D01*
X191942110Y-58085383D01*
X192509068Y-57425129D01*
X192556828Y-57372148D01*
X192582782Y-57328581D01*
X192611888Y-57287055D01*
X192624297Y-57258890D01*
X192640049Y-57232448D01*
X192657002Y-57184661D01*
X192677451Y-57138248D01*
X192692931Y-57068579D01*
X192740073Y-56878195D01*
X192744955Y-56884555D01*
X193112636Y-57526834D01*
X193145321Y-57587982D01*
X193178794Y-57628769D01*
X193209369Y-57671769D01*
X193259795Y-57719347D01*
X193699169Y-58158721D01*
X193705300Y-58167408D01*
X193756612Y-58216164D01*
X193777819Y-58237371D01*
X193785977Y-58244066D01*
X193823181Y-58279417D01*
X193848691Y-58295535D01*
X193872017Y-58314679D01*
X193917277Y-58338871D01*
X193926200Y-58344509D01*
X193953003Y-58357967D01*
X194015426Y-58391333D01*
X194025602Y-58394420D01*
X194509585Y-58637433D01*
X194525885Y-58648916D01*
X194582096Y-58673841D01*
X194600661Y-58683163D01*
X194619181Y-58690286D01*
X194637284Y-58698313D01*
X194656975Y-58704821D01*
X194714399Y-58726906D01*
X194734054Y-58730296D01*
X195207779Y-58886867D01*
X195216846Y-58891713D01*
X195284941Y-58912369D01*
X195313732Y-58921885D01*
X195323677Y-58924120D01*
X195372454Y-58938916D01*
X195402841Y-58941909D01*
X195432627Y-58948602D01*
X195483569Y-58949860D01*
X195493727Y-58950860D01*
X195524095Y-58950860D01*
X195595187Y-58952615D01*
X195605309Y-58950860D01*
X196299054Y-58950860D01*
X196344857Y-58954788D01*
X196420445Y-58946378D01*
X196496206Y-58938916D01*
X196501246Y-58937387D01*
X196506469Y-58936806D01*
X196578927Y-58913823D01*
X196651814Y-58891713D01*
X196692367Y-58870037D01*
X197348152Y-58588645D01*
X197413369Y-58562721D01*
X197456938Y-58534504D01*
X197502396Y-58509463D01*
X197556063Y-58464273D01*
X198013452Y-58099755D01*
X198045059Y-58079640D01*
X198076892Y-58049196D01*
X198079459Y-58047150D01*
X198106158Y-58021207D01*
X198133126Y-57995415D01*
X198135270Y-57992919D01*
X198166854Y-57962228D01*
X198188110Y-57931383D01*
X198755068Y-57271129D01*
X198802828Y-57218148D01*
X198828782Y-57174581D01*
X198857888Y-57133055D01*
X198870297Y-57104890D01*
X198886049Y-57078448D01*
X198903002Y-57030661D01*
X198923451Y-56984248D01*
X198938931Y-56914579D01*
X198996956Y-56680247D01*
X199002421Y-56694422D01*
X199017060Y-56742837D01*
X199050716Y-56805941D01*
X199234471Y-57171126D01*
X199255277Y-57220479D01*
X199293717Y-57277234D01*
X199330361Y-57335120D01*
X199367276Y-57373904D01*
X199826129Y-57925925D01*
X199851146Y-57962227D01*
X199907019Y-58016520D01*
X199962544Y-58071353D01*
X199999362Y-58095622D01*
X200469103Y-58469985D01*
X200530890Y-58519712D01*
X200568763Y-58539492D01*
X200604630Y-58562721D01*
X200678447Y-58592064D01*
X201145828Y-58780447D01*
X201191182Y-58802783D01*
X201260274Y-58821257D01*
X201328915Y-58841365D01*
X201379274Y-58845839D01*
X201897290Y-58931082D01*
X201923114Y-58938916D01*
X201977363Y-58944259D01*
X201990915Y-58946489D01*
X202017664Y-58948228D01*
X202044387Y-58950860D01*
X202058146Y-58950860D01*
X202112518Y-58954395D01*
X202134621Y-58951473D01*
X202156984Y-58954414D01*
X202211078Y-58950860D01*
X202224553Y-58950860D01*
X202251555Y-58948201D01*
X202278581Y-58946425D01*
X202291854Y-58944232D01*
X202345826Y-58938916D01*
X202371920Y-58931000D01*
X202909912Y-58842096D01*
X202941893Y-58837464D01*
X202949901Y-58835487D01*
X202958042Y-58834142D01*
X202989266Y-58825771D01*
X203306428Y-58747484D01*
X203309292Y-58747333D01*
X203385376Y-58727996D01*
X203421956Y-58718967D01*
X203424637Y-58718018D01*
X203466892Y-58707279D01*
X203501099Y-58690956D01*
X203536833Y-58678309D01*
X203574306Y-58656024D01*
X203576872Y-58654799D01*
X203609131Y-58635313D01*
X203676595Y-58595191D01*
X203678726Y-58593273D01*
X204093394Y-58342788D01*
X204145982Y-58314679D01*
X204194265Y-58275053D01*
X204244304Y-58237675D01*
X204284195Y-58193357D01*
X204751357Y-57726195D01*
X204795675Y-57686304D01*
X204833049Y-57636271D01*
X204872679Y-57587983D01*
X204900792Y-57535387D01*
X205177090Y-57077988D01*
X205207429Y-57034807D01*
X205235428Y-56971451D01*
X205265279Y-56908894D01*
X205278281Y-56857732D01*
X205445115Y-56350817D01*
X205449713Y-56342214D01*
X205470514Y-56273642D01*
X205480162Y-56244327D01*
X205482272Y-56234880D01*
X205496916Y-56186606D01*
X205499960Y-56155701D01*
X205506729Y-56125398D01*
X205507910Y-56074974D01*
X205508860Y-56065333D01*
X205508860Y-56034449D01*
X205510538Y-55962833D01*
X205508860Y-55953227D01*
X205508860Y-55479382D01*
X205512414Y-55452356D01*
X205508860Y-55398262D01*
X205508860Y-55384787D01*
X205506201Y-55357787D01*
X205504425Y-55330758D01*
X205502231Y-55317484D01*
X205496916Y-55263514D01*
X205489001Y-55237421D01*
X205407834Y-54746255D01*
X205407090Y-54720650D01*
X205394604Y-54666199D01*
X205392142Y-54651298D01*
X205385549Y-54626706D01*
X205370747Y-54562154D01*
X205364522Y-54548281D01*
X205360585Y-54533595D01*
X205331287Y-54474207D01*
X205320862Y-54450972D01*
X205313357Y-54437861D01*
X205288643Y-54387766D01*
X205273047Y-54367447D01*
X204905371Y-53725180D01*
X204872679Y-53664017D01*
X204839203Y-53623227D01*
X204808631Y-53580231D01*
X204758205Y-53532653D01*
X204318831Y-53093279D01*
X204312700Y-53084592D01*
X204261388Y-53035836D01*
X204240181Y-53014629D01*
X204232024Y-53007934D01*
X204194819Y-52972583D01*
X204169306Y-52956463D01*
X204145982Y-52937321D01*
X204100728Y-52913132D01*
X204091800Y-52907491D01*
X204064982Y-52894025D01*
X204002573Y-52860667D01*
X203992399Y-52857581D01*
X203508413Y-52614567D01*
X203492115Y-52603085D01*
X203435900Y-52578157D01*
X203417338Y-52568837D01*
X203398829Y-52561719D01*
X203380717Y-52553687D01*
X203361012Y-52547174D01*
X203303600Y-52525094D01*
X203283949Y-52521704D01*
X202810220Y-52365133D01*
X202801154Y-52360287D01*
X202733060Y-52339631D01*
X202704268Y-52330115D01*
X202694323Y-52327880D01*
X202645546Y-52313084D01*
X202615158Y-52310091D01*
X202585372Y-52303398D01*
X202534431Y-52302140D01*
X202524273Y-52301140D01*
X202493905Y-52301140D01*
X202422813Y-52299385D01*
X202412691Y-52301140D01*
X201718945Y-52301140D01*
X201673142Y-52297212D01*
X201597542Y-52305624D01*
X201521794Y-52313084D01*
X201516755Y-52314613D01*
X201511529Y-52315194D01*
X201439042Y-52338187D01*
X201366186Y-52360287D01*
X201325637Y-52381961D01*
X200669860Y-52663350D01*
X200604630Y-52689279D01*
X200561058Y-52717498D01*
X200515603Y-52742537D01*
X200461935Y-52787728D01*
X200004552Y-53152242D01*
X199972940Y-53172360D01*
X199941102Y-53202809D01*
X199938541Y-53204850D01*
X199911924Y-53230714D01*
X199884873Y-53256585D01*
X199882721Y-53259091D01*
X199851146Y-53289773D01*
X199829896Y-53320609D01*
X199262948Y-53980853D01*
X199215172Y-54033852D01*
X199189216Y-54077424D01*
X199160112Y-54118946D01*
X199147703Y-54147111D01*
X199131951Y-54173553D01*
X199114998Y-54221340D01*
X199094549Y-54267753D01*
X199079069Y-54337422D01*
X199021045Y-54571753D01*
X199015578Y-54557576D01*
X199000940Y-54509162D01*
X198967287Y-54446065D01*
X198783531Y-54080879D01*
X198762723Y-54031520D01*
X198724274Y-53974751D01*
X198687639Y-53916880D01*
X198650730Y-53878102D01*
X198191873Y-53326078D01*
X198166854Y-53289772D01*
X198110958Y-53235458D01*
X198055456Y-53180647D01*
X198018639Y-53156379D01*
X197548993Y-52782092D01*
X197487110Y-52732288D01*
X197449232Y-52712505D01*
X197413369Y-52689279D01*
X197339619Y-52659963D01*
X196872176Y-52471555D01*
X196826818Y-52449217D01*
X196757715Y-52430740D01*
X196689084Y-52410635D01*
X196638727Y-52406161D01*
X196120711Y-52320918D01*
X196094886Y-52313084D01*
X196040635Y-52307741D01*
X196027084Y-52305511D01*
X196000338Y-52303772D01*
X195973613Y-52301140D01*
X195959854Y-52301140D01*
X195905482Y-52297605D01*
X195883379Y-52300527D01*
X195861016Y-52297586D01*
X195806922Y-52301140D01*
X195793447Y-52301140D01*
X195766447Y-52303799D01*
X195739418Y-52305575D01*
X195726144Y-52307769D01*
X195672174Y-52313084D01*
X195646081Y-52320999D01*
X195108095Y-52409903D01*
X195076106Y-52414536D01*
X195068096Y-52416513D01*
X195059958Y-52417858D01*
X195028744Y-52426227D01*
X194711567Y-52504518D01*
X194708706Y-52504668D01*
X194632628Y-52524003D01*
X194596044Y-52533033D01*
X194593365Y-52533981D01*
X194551106Y-52544721D01*
X194516895Y-52561046D01*
X194481167Y-52573691D01*
X194443699Y-52595974D01*
X194441127Y-52597201D01*
X194408808Y-52616724D01*
X194341405Y-52656809D01*
X194339276Y-52658725D01*
X193924613Y-52909208D01*
X193872017Y-52937321D01*
X193823729Y-52976951D01*
X193773696Y-53014325D01*
X193733805Y-53058643D01*
X193266643Y-53525805D01*
X193222325Y-53565696D01*
X193184947Y-53615735D01*
X193145321Y-53664018D01*
X193117212Y-53716606D01*
X192840914Y-54174007D01*
X192810571Y-54217193D01*
X192782563Y-54280569D01*
X192752721Y-54343108D01*
X192739719Y-54394266D01*
X192691482Y-54540832D01*
X192537531Y-54234879D01*
X192516723Y-54185520D01*
X192478274Y-54128751D01*
X192441639Y-54070880D01*
X192404730Y-54032102D01*
X191945873Y-53480078D01*
X191920854Y-53443772D01*
X191864958Y-53389458D01*
X191809456Y-53334647D01*
X191772639Y-53310379D01*
X191302993Y-52936092D01*
X191241110Y-52886288D01*
X191203232Y-52866505D01*
X191167369Y-52843279D01*
X191093619Y-52813963D01*
X190626176Y-52625555D01*
X190580818Y-52603217D01*
X190511715Y-52584740D01*
X190443084Y-52564635D01*
X190392727Y-52560161D01*
X189874711Y-52474918D01*
X189848886Y-52467084D01*
X189794635Y-52461741D01*
X189781084Y-52459511D01*
X189754338Y-52457772D01*
X189727613Y-52455140D01*
X189713854Y-52455140D01*
X189659482Y-52451605D01*
X189637379Y-52454527D01*
X189615016Y-52451586D01*
X189560922Y-52455140D01*
X189547447Y-52455140D01*
X189520447Y-52457799D01*
X189493418Y-52459575D01*
X189480144Y-52461769D01*
X189426174Y-52467084D01*
X189400081Y-52474999D01*
X188862095Y-52563903D01*
X188830106Y-52568536D01*
X188822096Y-52570513D01*
X188813958Y-52571858D01*
X188782744Y-52580227D01*
X188465567Y-52658518D01*
X188462706Y-52658668D01*
X188386628Y-52678003D01*
X188350044Y-52687033D01*
X188347365Y-52687981D01*
X188305106Y-52698721D01*
X188270895Y-52715046D01*
X188235167Y-52727691D01*
X188197699Y-52749974D01*
X188195127Y-52751201D01*
X188162808Y-52770724D01*
X188095405Y-52810809D01*
X188093276Y-52812725D01*
X187678613Y-53063208D01*
X187626017Y-53091321D01*
X187577729Y-53130951D01*
X187527696Y-53168325D01*
X187487805Y-53212643D01*
X187020643Y-53679805D01*
X186976325Y-53719696D01*
X186938947Y-53769735D01*
X186899321Y-53818018D01*
X186871212Y-53870606D01*
X186594914Y-54328007D01*
X186564571Y-54371193D01*
X186536563Y-54434569D01*
X186506721Y-54497108D01*
X186493719Y-54548266D01*
X186326886Y-55055182D01*
X186322287Y-55063786D01*
X186301482Y-55132370D01*
X186291838Y-55161674D01*
X186289728Y-55171118D01*
X186275084Y-55219394D01*
X186272040Y-55250301D01*
X186265271Y-55280603D01*
X186264090Y-55331026D01*
X186263140Y-55340667D01*
X186263140Y-55371552D01*
X186261462Y-55443167D01*
X186263140Y-55452773D01*
X186263140Y-55926618D01*
X186259586Y-55953644D01*
X177952000Y-55953644D01*
X177952000Y-54428418D01*
X178159957Y-54567371D01*
X178412011Y-54671775D01*
X178679589Y-54725000D01*
X178952411Y-54725000D01*
X179219989Y-54671775D01*
X179472043Y-54567371D01*
X179698886Y-54415799D01*
X179891799Y-54222886D01*
X180043371Y-53996043D01*
X180147775Y-53743989D01*
X180201000Y-53476411D01*
X180201000Y-53203589D01*
X180147775Y-52936011D01*
X180043371Y-52683957D01*
X179891799Y-52457114D01*
X179698886Y-52264201D01*
X179472043Y-52112629D01*
X179219989Y-52008225D01*
X178952411Y-51955000D01*
X178679589Y-51955000D01*
X178412011Y-52008225D01*
X178159957Y-52112629D01*
X177952000Y-52251582D01*
X177952000Y-48858872D01*
X178199611Y-49456657D01*
X178652136Y-50133909D01*
X179228091Y-50709864D01*
X179905343Y-51162389D01*
X180657865Y-51474094D01*
X181456738Y-51633000D01*
X182271262Y-51633000D01*
X183070135Y-51474094D01*
X183822657Y-51162389D01*
X184499909Y-50709864D01*
X185075864Y-50133909D01*
X185528389Y-49456657D01*
X185840094Y-48704135D01*
X185999000Y-47905262D01*
X185999000Y-47090738D01*
X185840094Y-46291865D01*
X185528389Y-45539343D01*
X185075864Y-44862091D01*
X184499909Y-44286136D01*
X183822657Y-43833611D01*
X183224872Y-43586000D01*
X196269582Y-43586000D01*
X196130629Y-43793957D01*
G37*
X196130629Y-43793957D02*
X196026225Y-44046011D01*
X195973000Y-44313589D01*
X195973000Y-44586411D01*
X196026225Y-44853989D01*
X196130629Y-45106043D01*
X196282201Y-45332886D01*
X196475114Y-45525799D01*
X196701957Y-45677371D01*
X196954011Y-45781775D01*
X197221589Y-45835000D01*
X197494411Y-45835000D01*
X197761989Y-45781775D01*
X198014043Y-45677371D01*
X198240886Y-45525799D01*
X198433799Y-45332886D01*
X198585371Y-45106043D01*
X198689775Y-44853989D01*
X198743000Y-44586411D01*
X198743000Y-44313589D01*
X198689775Y-44046011D01*
X198585371Y-43793957D01*
X198446418Y-43586000D01*
X201585128Y-43586000D01*
X200987343Y-43833611D01*
X200310091Y-44286136D01*
X199734136Y-44862091D01*
X199281611Y-45539343D01*
X198969906Y-46291865D01*
X198811000Y-47090738D01*
X198811000Y-47905262D01*
X198969906Y-48704135D01*
X199281611Y-49456657D01*
X199734136Y-50133909D01*
X200310091Y-50709864D01*
X200987343Y-51162389D01*
X201739865Y-51474094D01*
X202538738Y-51633000D01*
X203353262Y-51633000D01*
X204152135Y-51474094D01*
X204904657Y-51162389D01*
X205581909Y-50709864D01*
X206157864Y-50133909D01*
X206610389Y-49456657D01*
X206858001Y-48858869D01*
X206858000Y-58870273D01*
X206815799Y-58807114D01*
X206622886Y-58614201D01*
X206396043Y-58462629D01*
X206143989Y-58358225D01*
X205876411Y-58305000D01*
X205603589Y-58305000D01*
X205336011Y-58358225D01*
X205083957Y-58462629D01*
X204857114Y-58614201D01*
X204664201Y-58807114D01*
X204512629Y-59033957D01*
X204408225Y-59286011D01*
X204355000Y-59553589D01*
X204355000Y-59826411D01*
X204408225Y-60093989D01*
X204512629Y-60346043D01*
X204664201Y-60572886D01*
X204857114Y-60765799D01*
X205083957Y-60917371D01*
X205336011Y-61021775D01*
X205603589Y-61075000D01*
X205876411Y-61075000D01*
X206143989Y-61021775D01*
X206396043Y-60917371D01*
X206622886Y-60765799D01*
X206815799Y-60572886D01*
X206858000Y-60509727D01*
X206858000Y-67219128D01*
X206610389Y-66621343D01*
X206157864Y-65944091D01*
X205581909Y-65368136D01*
X204904657Y-64915611D01*
X204152135Y-64603906D01*
X203353262Y-64445000D01*
X202538738Y-64445000D01*
X201739865Y-64603906D01*
X200987343Y-64915611D01*
X200310091Y-65368136D01*
X199734136Y-65944091D01*
X199281611Y-66621343D01*
X198969906Y-67373865D01*
X198811000Y-68172738D01*
X198811000Y-68987262D01*
X198969906Y-69786135D01*
X199281611Y-70538657D01*
X199734136Y-71215909D01*
X200310091Y-71791864D01*
X200987343Y-72244389D01*
X201585128Y-72492000D01*
X183224872Y-72492000D01*
X183822657Y-72244389D01*
X184499909Y-71791864D01*
X185075864Y-71215909D01*
X185528389Y-70538657D01*
X185840094Y-69786135D01*
X185999000Y-68987262D01*
X185999000Y-68172738D01*
X185840094Y-67373865D01*
X185528389Y-66621343D01*
X185075864Y-65944091D01*
X184499909Y-65368136D01*
X183822657Y-64915611D01*
X183070135Y-64603906D01*
X182271262Y-64445000D01*
X181456738Y-64445000D01*
X180657865Y-64603906D01*
X179905343Y-64915611D01*
X179228091Y-65368136D01*
X178652136Y-65944091D01*
X178199611Y-66621343D01*
X177952000Y-67219128D01*
X177952000Y-59000418D01*
X178159957Y-59139371D01*
X178412011Y-59243775D01*
X178679589Y-59297000D01*
X178952411Y-59297000D01*
X179219989Y-59243775D01*
X179472043Y-59139371D01*
X179698886Y-58987799D01*
X179891799Y-58794886D01*
X179940500Y-58722000D01*
X183814488Y-58722000D01*
X185149129Y-60056642D01*
X185186774Y-60245898D01*
X185264795Y-60434256D01*
X185378063Y-60603774D01*
X185522226Y-60747937D01*
X185691744Y-60861205D01*
X185880102Y-60939226D01*
X186080061Y-60979000D01*
X186283939Y-60979000D01*
X186483898Y-60939226D01*
X186672256Y-60861205D01*
X186841774Y-60747937D01*
X186985937Y-60603774D01*
X187099205Y-60434256D01*
X187177226Y-60245898D01*
X187217000Y-60045939D01*
X187217000Y-59842061D01*
X187177226Y-59642102D01*
X187099205Y-59453744D01*
X186985937Y-59284226D01*
X186841774Y-59140063D01*
X186672256Y-59026795D01*
X186483898Y-58948774D01*
X186294642Y-58911129D01*
X184750899Y-57367387D01*
X184725528Y-57336472D01*
X184602189Y-57235251D01*
X184461473Y-57160037D01*
X184308788Y-57113720D01*
X184189791Y-57102000D01*
X184189788Y-57102000D01*
X184150000Y-57098081D01*
X184110212Y-57102000D01*
X179940500Y-57102000D01*
X179891799Y-57029114D01*
X179698886Y-56836201D01*
X179472043Y-56684629D01*
X179219989Y-56580225D01*
X178952411Y-56527000D01*
X178679589Y-56527000D01*
X178412011Y-56580225D01*
X178159957Y-56684629D01*
X177952000Y-56823582D01*
X177952000Y-55953644D01*
X186259586Y-55953644D01*
X186263140Y-56007738D01*
X186263140Y-56021212D01*
X186265799Y-56048212D01*
X186267575Y-56075241D01*
X186269769Y-56088515D01*
X186275084Y-56142485D01*
X186282999Y-56168578D01*
X186364166Y-56659745D01*
X186364910Y-56685349D01*
X186377395Y-56739799D01*
X186379858Y-56754702D01*
X186386452Y-56779296D01*
X186401253Y-56843846D01*
X186407478Y-56857719D01*
X186411415Y-56872405D01*
X186440717Y-56931801D01*
X186451138Y-56955027D01*
X186458640Y-56968132D01*
X186483357Y-57018234D01*
X186498955Y-57038555D01*
X186866636Y-57680834D01*
X186899321Y-57741982D01*
X186932794Y-57782769D01*
X186963369Y-57825769D01*
X187013795Y-57873347D01*
X187453169Y-58312721D01*
X187459300Y-58321408D01*
X187510612Y-58370164D01*
X187531819Y-58391371D01*
X187539977Y-58398066D01*
X187577181Y-58433417D01*
X187602691Y-58449535D01*
X187626017Y-58468679D01*
X187671277Y-58492871D01*
X187680200Y-58498509D01*
X187707003Y-58511967D01*
X187769426Y-58545333D01*
X187779602Y-58548420D01*
X188263585Y-58791433D01*
X188279885Y-58802916D01*
X188336096Y-58827841D01*
X188354661Y-58837163D01*
X188373181Y-58844286D01*
X188391284Y-58852313D01*
X188410975Y-58858821D01*
X188468399Y-58880906D01*
X188488054Y-58884296D01*
X188961779Y-59040867D01*
X188970846Y-59045713D01*
X189038941Y-59066369D01*
X189067732Y-59075885D01*
X189077677Y-59078120D01*
X189126454Y-59092916D01*
X189156841Y-59095909D01*
X189186627Y-59102602D01*
X189237569Y-59103860D01*
X189247727Y-59104860D01*
X189278095Y-59104860D01*
X189349187Y-59106615D01*
X189359309Y-59104860D01*
X190053054Y-59104860D01*
X190098857Y-59108788D01*
X190174445Y-59100378D01*
X190250206Y-59092916D01*
X190255246Y-59091387D01*
X190260469Y-59090806D01*
X190332927Y-59067823D01*
X190405814Y-59045713D01*
X190446367Y-59024037D01*
X191102152Y-58742645D01*
X191167369Y-58716721D01*
X191210938Y-58688504D01*
X191256396Y-58663463D01*
X191310063Y-58618273D01*
X191767452Y-58253755D01*
X191799059Y-58233640D01*
X191830892Y-58203196D01*
X191833459Y-58201150D01*
X191860158Y-58175207D01*
X191887126Y-58149415D01*
X191889270Y-58146919D01*
X191920854Y-58116228D01*
X191942110Y-58085383D01*
X192509068Y-57425129D01*
X192556828Y-57372148D01*
X192582782Y-57328581D01*
X192611888Y-57287055D01*
X192624297Y-57258890D01*
X192640049Y-57232448D01*
X192657002Y-57184661D01*
X192677451Y-57138248D01*
X192692931Y-57068579D01*
X192740073Y-56878195D01*
X192744955Y-56884555D01*
X193112636Y-57526834D01*
X193145321Y-57587982D01*
X193178794Y-57628769D01*
X193209369Y-57671769D01*
X193259795Y-57719347D01*
X193699169Y-58158721D01*
X193705300Y-58167408D01*
X193756612Y-58216164D01*
X193777819Y-58237371D01*
X193785977Y-58244066D01*
X193823181Y-58279417D01*
X193848691Y-58295535D01*
X193872017Y-58314679D01*
X193917277Y-58338871D01*
X193926200Y-58344509D01*
X193953003Y-58357967D01*
X194015426Y-58391333D01*
X194025602Y-58394420D01*
X194509585Y-58637433D01*
X194525885Y-58648916D01*
X194582096Y-58673841D01*
X194600661Y-58683163D01*
X194619181Y-58690286D01*
X194637284Y-58698313D01*
X194656975Y-58704821D01*
X194714399Y-58726906D01*
X194734054Y-58730296D01*
X195207779Y-58886867D01*
X195216846Y-58891713D01*
X195284941Y-58912369D01*
X195313732Y-58921885D01*
X195323677Y-58924120D01*
X195372454Y-58938916D01*
X195402841Y-58941909D01*
X195432627Y-58948602D01*
X195483569Y-58949860D01*
X195493727Y-58950860D01*
X195524095Y-58950860D01*
X195595187Y-58952615D01*
X195605309Y-58950860D01*
X196299054Y-58950860D01*
X196344857Y-58954788D01*
X196420445Y-58946378D01*
X196496206Y-58938916D01*
X196501246Y-58937387D01*
X196506469Y-58936806D01*
X196578927Y-58913823D01*
X196651814Y-58891713D01*
X196692367Y-58870037D01*
X197348152Y-58588645D01*
X197413369Y-58562721D01*
X197456938Y-58534504D01*
X197502396Y-58509463D01*
X197556063Y-58464273D01*
X198013452Y-58099755D01*
X198045059Y-58079640D01*
X198076892Y-58049196D01*
X198079459Y-58047150D01*
X198106158Y-58021207D01*
X198133126Y-57995415D01*
X198135270Y-57992919D01*
X198166854Y-57962228D01*
X198188110Y-57931383D01*
X198755068Y-57271129D01*
X198802828Y-57218148D01*
X198828782Y-57174581D01*
X198857888Y-57133055D01*
X198870297Y-57104890D01*
X198886049Y-57078448D01*
X198903002Y-57030661D01*
X198923451Y-56984248D01*
X198938931Y-56914579D01*
X198996956Y-56680247D01*
X199002421Y-56694422D01*
X199017060Y-56742837D01*
X199050716Y-56805941D01*
X199234471Y-57171126D01*
X199255277Y-57220479D01*
X199293717Y-57277234D01*
X199330361Y-57335120D01*
X199367276Y-57373904D01*
X199826129Y-57925925D01*
X199851146Y-57962227D01*
X199907019Y-58016520D01*
X199962544Y-58071353D01*
X199999362Y-58095622D01*
X200469103Y-58469985D01*
X200530890Y-58519712D01*
X200568763Y-58539492D01*
X200604630Y-58562721D01*
X200678447Y-58592064D01*
X201145828Y-58780447D01*
X201191182Y-58802783D01*
X201260274Y-58821257D01*
X201328915Y-58841365D01*
X201379274Y-58845839D01*
X201897290Y-58931082D01*
X201923114Y-58938916D01*
X201977363Y-58944259D01*
X201990915Y-58946489D01*
X202017664Y-58948228D01*
X202044387Y-58950860D01*
X202058146Y-58950860D01*
X202112518Y-58954395D01*
X202134621Y-58951473D01*
X202156984Y-58954414D01*
X202211078Y-58950860D01*
X202224553Y-58950860D01*
X202251555Y-58948201D01*
X202278581Y-58946425D01*
X202291854Y-58944232D01*
X202345826Y-58938916D01*
X202371920Y-58931000D01*
X202909912Y-58842096D01*
X202941893Y-58837464D01*
X202949901Y-58835487D01*
X202958042Y-58834142D01*
X202989266Y-58825771D01*
X203306428Y-58747484D01*
X203309292Y-58747333D01*
X203385376Y-58727996D01*
X203421956Y-58718967D01*
X203424637Y-58718018D01*
X203466892Y-58707279D01*
X203501099Y-58690956D01*
X203536833Y-58678309D01*
X203574306Y-58656024D01*
X203576872Y-58654799D01*
X203609131Y-58635313D01*
X203676595Y-58595191D01*
X203678726Y-58593273D01*
X204093394Y-58342788D01*
X204145982Y-58314679D01*
X204194265Y-58275053D01*
X204244304Y-58237675D01*
X204284195Y-58193357D01*
X204751357Y-57726195D01*
X204795675Y-57686304D01*
X204833049Y-57636271D01*
X204872679Y-57587983D01*
X204900792Y-57535387D01*
X205177090Y-57077988D01*
X205207429Y-57034807D01*
X205235428Y-56971451D01*
X205265279Y-56908894D01*
X205278281Y-56857732D01*
X205445115Y-56350817D01*
X205449713Y-56342214D01*
X205470514Y-56273642D01*
X205480162Y-56244327D01*
X205482272Y-56234880D01*
X205496916Y-56186606D01*
X205499960Y-56155701D01*
X205506729Y-56125398D01*
X205507910Y-56074974D01*
X205508860Y-56065333D01*
X205508860Y-56034449D01*
X205510538Y-55962833D01*
X205508860Y-55953227D01*
X205508860Y-55479382D01*
X205512414Y-55452356D01*
X205508860Y-55398262D01*
X205508860Y-55384787D01*
X205506201Y-55357787D01*
X205504425Y-55330758D01*
X205502231Y-55317484D01*
X205496916Y-55263514D01*
X205489001Y-55237421D01*
X205407834Y-54746255D01*
X205407090Y-54720650D01*
X205394604Y-54666199D01*
X205392142Y-54651298D01*
X205385549Y-54626706D01*
X205370747Y-54562154D01*
X205364522Y-54548281D01*
X205360585Y-54533595D01*
X205331287Y-54474207D01*
X205320862Y-54450972D01*
X205313357Y-54437861D01*
X205288643Y-54387766D01*
X205273047Y-54367447D01*
X204905371Y-53725180D01*
X204872679Y-53664017D01*
X204839203Y-53623227D01*
X204808631Y-53580231D01*
X204758205Y-53532653D01*
X204318831Y-53093279D01*
X204312700Y-53084592D01*
X204261388Y-53035836D01*
X204240181Y-53014629D01*
X204232024Y-53007934D01*
X204194819Y-52972583D01*
X204169306Y-52956463D01*
X204145982Y-52937321D01*
X204100728Y-52913132D01*
X204091800Y-52907491D01*
X204064982Y-52894025D01*
X204002573Y-52860667D01*
X203992399Y-52857581D01*
X203508413Y-52614567D01*
X203492115Y-52603085D01*
X203435900Y-52578157D01*
X203417338Y-52568837D01*
X203398829Y-52561719D01*
X203380717Y-52553687D01*
X203361012Y-52547174D01*
X203303600Y-52525094D01*
X203283949Y-52521704D01*
X202810220Y-52365133D01*
X202801154Y-52360287D01*
X202733060Y-52339631D01*
X202704268Y-52330115D01*
X202694323Y-52327880D01*
X202645546Y-52313084D01*
X202615158Y-52310091D01*
X202585372Y-52303398D01*
X202534431Y-52302140D01*
X202524273Y-52301140D01*
X202493905Y-52301140D01*
X202422813Y-52299385D01*
X202412691Y-52301140D01*
X201718945Y-52301140D01*
X201673142Y-52297212D01*
X201597542Y-52305624D01*
X201521794Y-52313084D01*
X201516755Y-52314613D01*
X201511529Y-52315194D01*
X201439042Y-52338187D01*
X201366186Y-52360287D01*
X201325637Y-52381961D01*
X200669860Y-52663350D01*
X200604630Y-52689279D01*
X200561058Y-52717498D01*
X200515603Y-52742537D01*
X200461935Y-52787728D01*
X200004552Y-53152242D01*
X199972940Y-53172360D01*
X199941102Y-53202809D01*
X199938541Y-53204850D01*
X199911924Y-53230714D01*
X199884873Y-53256585D01*
X199882721Y-53259091D01*
X199851146Y-53289773D01*
X199829896Y-53320609D01*
X199262948Y-53980853D01*
X199215172Y-54033852D01*
X199189216Y-54077424D01*
X199160112Y-54118946D01*
X199147703Y-54147111D01*
X199131951Y-54173553D01*
X199114998Y-54221340D01*
X199094549Y-54267753D01*
X199079069Y-54337422D01*
X199021045Y-54571753D01*
X199015578Y-54557576D01*
X199000940Y-54509162D01*
X198967287Y-54446065D01*
X198783531Y-54080879D01*
X198762723Y-54031520D01*
X198724274Y-53974751D01*
X198687639Y-53916880D01*
X198650730Y-53878102D01*
X198191873Y-53326078D01*
X198166854Y-53289772D01*
X198110958Y-53235458D01*
X198055456Y-53180647D01*
X198018639Y-53156379D01*
X197548993Y-52782092D01*
X197487110Y-52732288D01*
X197449232Y-52712505D01*
X197413369Y-52689279D01*
X197339619Y-52659963D01*
X196872176Y-52471555D01*
X196826818Y-52449217D01*
X196757715Y-52430740D01*
X196689084Y-52410635D01*
X196638727Y-52406161D01*
X196120711Y-52320918D01*
X196094886Y-52313084D01*
X196040635Y-52307741D01*
X196027084Y-52305511D01*
X196000338Y-52303772D01*
X195973613Y-52301140D01*
X195959854Y-52301140D01*
X195905482Y-52297605D01*
X195883379Y-52300527D01*
X195861016Y-52297586D01*
X195806922Y-52301140D01*
X195793447Y-52301140D01*
X195766447Y-52303799D01*
X195739418Y-52305575D01*
X195726144Y-52307769D01*
X195672174Y-52313084D01*
X195646081Y-52320999D01*
X195108095Y-52409903D01*
X195076106Y-52414536D01*
X195068096Y-52416513D01*
X195059958Y-52417858D01*
X195028744Y-52426227D01*
X194711567Y-52504518D01*
X194708706Y-52504668D01*
X194632628Y-52524003D01*
X194596044Y-52533033D01*
X194593365Y-52533981D01*
X194551106Y-52544721D01*
X194516895Y-52561046D01*
X194481167Y-52573691D01*
X194443699Y-52595974D01*
X194441127Y-52597201D01*
X194408808Y-52616724D01*
X194341405Y-52656809D01*
X194339276Y-52658725D01*
X193924613Y-52909208D01*
X193872017Y-52937321D01*
X193823729Y-52976951D01*
X193773696Y-53014325D01*
X193733805Y-53058643D01*
X193266643Y-53525805D01*
X193222325Y-53565696D01*
X193184947Y-53615735D01*
X193145321Y-53664018D01*
X193117212Y-53716606D01*
X192840914Y-54174007D01*
X192810571Y-54217193D01*
X192782563Y-54280569D01*
X192752721Y-54343108D01*
X192739719Y-54394266D01*
X192691482Y-54540832D01*
X192537531Y-54234879D01*
X192516723Y-54185520D01*
X192478274Y-54128751D01*
X192441639Y-54070880D01*
X192404730Y-54032102D01*
X191945873Y-53480078D01*
X191920854Y-53443772D01*
X191864958Y-53389458D01*
X191809456Y-53334647D01*
X191772639Y-53310379D01*
X191302993Y-52936092D01*
X191241110Y-52886288D01*
X191203232Y-52866505D01*
X191167369Y-52843279D01*
X191093619Y-52813963D01*
X190626176Y-52625555D01*
X190580818Y-52603217D01*
X190511715Y-52584740D01*
X190443084Y-52564635D01*
X190392727Y-52560161D01*
X189874711Y-52474918D01*
X189848886Y-52467084D01*
X189794635Y-52461741D01*
X189781084Y-52459511D01*
X189754338Y-52457772D01*
X189727613Y-52455140D01*
X189713854Y-52455140D01*
X189659482Y-52451605D01*
X189637379Y-52454527D01*
X189615016Y-52451586D01*
X189560922Y-52455140D01*
X189547447Y-52455140D01*
X189520447Y-52457799D01*
X189493418Y-52459575D01*
X189480144Y-52461769D01*
X189426174Y-52467084D01*
X189400081Y-52474999D01*
X188862095Y-52563903D01*
X188830106Y-52568536D01*
X188822096Y-52570513D01*
X188813958Y-52571858D01*
X188782744Y-52580227D01*
X188465567Y-52658518D01*
X188462706Y-52658668D01*
X188386628Y-52678003D01*
X188350044Y-52687033D01*
X188347365Y-52687981D01*
X188305106Y-52698721D01*
X188270895Y-52715046D01*
X188235167Y-52727691D01*
X188197699Y-52749974D01*
X188195127Y-52751201D01*
X188162808Y-52770724D01*
X188095405Y-52810809D01*
X188093276Y-52812725D01*
X187678613Y-53063208D01*
X187626017Y-53091321D01*
X187577729Y-53130951D01*
X187527696Y-53168325D01*
X187487805Y-53212643D01*
X187020643Y-53679805D01*
X186976325Y-53719696D01*
X186938947Y-53769735D01*
X186899321Y-53818018D01*
X186871212Y-53870606D01*
X186594914Y-54328007D01*
X186564571Y-54371193D01*
X186536563Y-54434569D01*
X186506721Y-54497108D01*
X186493719Y-54548266D01*
X186326886Y-55055182D01*
X186322287Y-55063786D01*
X186301482Y-55132370D01*
X186291838Y-55161674D01*
X186289728Y-55171118D01*
X186275084Y-55219394D01*
X186272040Y-55250301D01*
X186265271Y-55280603D01*
X186264090Y-55331026D01*
X186263140Y-55340667D01*
X186263140Y-55371552D01*
X186261462Y-55443167D01*
X186263140Y-55452773D01*
X186263140Y-55926618D01*
X186259586Y-55953644D01*
X177952000Y-55953644D01*
X177952000Y-54428418D01*
X178159957Y-54567371D01*
X178412011Y-54671775D01*
X178679589Y-54725000D01*
X178952411Y-54725000D01*
X179219989Y-54671775D01*
X179472043Y-54567371D01*
X179698886Y-54415799D01*
X179891799Y-54222886D01*
X180043371Y-53996043D01*
X180147775Y-53743989D01*
X180201000Y-53476411D01*
X180201000Y-53203589D01*
X180147775Y-52936011D01*
X180043371Y-52683957D01*
X179891799Y-52457114D01*
X179698886Y-52264201D01*
X179472043Y-52112629D01*
X179219989Y-52008225D01*
X178952411Y-51955000D01*
X178679589Y-51955000D01*
X178412011Y-52008225D01*
X178159957Y-52112629D01*
X177952000Y-52251582D01*
X177952000Y-48858872D01*
X178199611Y-49456657D01*
X178652136Y-50133909D01*
X179228091Y-50709864D01*
X179905343Y-51162389D01*
X180657865Y-51474094D01*
X181456738Y-51633000D01*
X182271262Y-51633000D01*
X183070135Y-51474094D01*
X183822657Y-51162389D01*
X184499909Y-50709864D01*
X185075864Y-50133909D01*
X185528389Y-49456657D01*
X185840094Y-48704135D01*
X185999000Y-47905262D01*
X185999000Y-47090738D01*
X185840094Y-46291865D01*
X185528389Y-45539343D01*
X185075864Y-44862091D01*
X184499909Y-44286136D01*
X183822657Y-43833611D01*
X183224872Y-43586000D01*
X196269582Y-43586000D01*
X196130629Y-43793957D01*
M02*
