G04 #@! TF.GenerationSoftware,KiCad,Pcbnew,(5.1.5)-3*
G04 #@! TF.CreationDate,2020-05-09T15:27:06-04:00*
G04 #@! TF.ProjectId,v2,76322e6b-6963-4616-945f-706362585858,rev?*
G04 #@! TF.SameCoordinates,Original*
G04 #@! TF.FileFunction,Copper,L1,Top*
G04 #@! TF.FilePolarity,Positive*
%FSLAX46Y46*%
G04 Gerber Fmt 4.6, Leading zero omitted, Abs format (unit mm)*
G04 Created by KiCad (PCBNEW (5.1.5)-3) date 2020-05-09 15:27:06*
%MOMM*%
%LPD*%
G04 APERTURE LIST*
%ADD10C,0.100000*%
%ADD11C,0.150000*%
%ADD12C,0.300000*%
%ADD13C,0.400000*%
%ADD14C,7.000000*%
%ADD15C,0.800000*%
%ADD16R,1.100000X1.100000*%
%ADD17C,1.500000*%
%ADD18C,0.350000*%
%ADD19C,0.254000*%
G04 APERTURE END LIST*
D10*
D11*
X177002200Y-166007200D02*
X177002200Y-198007200D01*
X285002200Y-198007200D01*
X285002200Y-166007200D01*
X177002200Y-166007200D01*
D10*
D11*
X10000000Y-10000000D02*
X10000000Y-200007200D01*
X287002200Y-200007200D01*
X287002200Y-10000000D01*
X10000000Y-10000000D01*
D10*
D11*
X12000000Y-12000000D02*
X12000000Y-198007200D01*
X285002200Y-198007200D01*
X285002200Y-12000000D01*
X12000000Y-12000000D01*
D10*
D11*
X60000000Y-12000000D02*
X60000000Y-10000000D01*
D10*
D11*
X110000000Y-12000000D02*
X110000000Y-10000000D01*
D10*
D11*
X160000000Y-12000000D02*
X160000000Y-10000000D01*
D10*
D11*
X210000000Y-12000000D02*
X210000000Y-10000000D01*
D10*
D11*
X260000000Y-12000000D02*
X260000000Y-10000000D01*
D10*
D11*
X36065476Y-11588095D02*
X35322619Y-11588095D01*
X35694047Y-11588095D02*
X35694047Y-10288095D01*
X35570238Y-10473809D01*
X35446428Y-10597619D01*
X35322619Y-10659523D01*
D10*
D11*
X85322619Y-10411904D02*
X85384523Y-10350000D01*
X85508333Y-10288095D01*
X85817857Y-10288095D01*
X85941666Y-10350000D01*
X86003571Y-10411904D01*
X86065476Y-10535714D01*
X86065476Y-10659523D01*
X86003571Y-10845238D01*
X85260714Y-11588095D01*
X86065476Y-11588095D01*
D10*
D11*
X135260714Y-10288095D02*
X136065476Y-10288095D01*
X135632142Y-10783333D01*
X135817857Y-10783333D01*
X135941666Y-10845238D01*
X136003571Y-10907142D01*
X136065476Y-11030952D01*
X136065476Y-11340476D01*
X136003571Y-11464285D01*
X135941666Y-11526190D01*
X135817857Y-11588095D01*
X135446428Y-11588095D01*
X135322619Y-11526190D01*
X135260714Y-11464285D01*
D10*
D11*
X185941666Y-10721428D02*
X185941666Y-11588095D01*
X185632142Y-10226190D02*
X185322619Y-11154761D01*
X186127380Y-11154761D01*
D10*
D11*
X236003571Y-10288095D02*
X235384523Y-10288095D01*
X235322619Y-10907142D01*
X235384523Y-10845238D01*
X235508333Y-10783333D01*
X235817857Y-10783333D01*
X235941666Y-10845238D01*
X236003571Y-10907142D01*
X236065476Y-11030952D01*
X236065476Y-11340476D01*
X236003571Y-11464285D01*
X235941666Y-11526190D01*
X235817857Y-11588095D01*
X235508333Y-11588095D01*
X235384523Y-11526190D01*
X235322619Y-11464285D01*
D10*
D11*
X285941666Y-10288095D02*
X285694047Y-10288095D01*
X285570238Y-10350000D01*
X285508333Y-10411904D01*
X285384523Y-10597619D01*
X285322619Y-10845238D01*
X285322619Y-11340476D01*
X285384523Y-11464285D01*
X285446428Y-11526190D01*
X285570238Y-11588095D01*
X285817857Y-11588095D01*
X285941666Y-11526190D01*
X286003571Y-11464285D01*
X286065476Y-11340476D01*
X286065476Y-11030952D01*
X286003571Y-10907142D01*
X285941666Y-10845238D01*
X285817857Y-10783333D01*
X285570238Y-10783333D01*
X285446428Y-10845238D01*
X285384523Y-10907142D01*
X285322619Y-11030952D01*
D10*
D11*
X60000000Y-198007200D02*
X60000000Y-200007200D01*
D10*
D11*
X110000000Y-198007200D02*
X110000000Y-200007200D01*
D10*
D11*
X160000000Y-198007200D02*
X160000000Y-200007200D01*
D10*
D11*
X210000000Y-198007200D02*
X210000000Y-200007200D01*
D10*
D11*
X260000000Y-198007200D02*
X260000000Y-200007200D01*
D10*
D11*
X36065476Y-199595295D02*
X35322619Y-199595295D01*
X35694047Y-199595295D02*
X35694047Y-198295295D01*
X35570238Y-198481009D01*
X35446428Y-198604819D01*
X35322619Y-198666723D01*
D10*
D11*
X85322619Y-198419104D02*
X85384523Y-198357200D01*
X85508333Y-198295295D01*
X85817857Y-198295295D01*
X85941666Y-198357200D01*
X86003571Y-198419104D01*
X86065476Y-198542914D01*
X86065476Y-198666723D01*
X86003571Y-198852438D01*
X85260714Y-199595295D01*
X86065476Y-199595295D01*
D10*
D11*
X135260714Y-198295295D02*
X136065476Y-198295295D01*
X135632142Y-198790533D01*
X135817857Y-198790533D01*
X135941666Y-198852438D01*
X136003571Y-198914342D01*
X136065476Y-199038152D01*
X136065476Y-199347676D01*
X136003571Y-199471485D01*
X135941666Y-199533390D01*
X135817857Y-199595295D01*
X135446428Y-199595295D01*
X135322619Y-199533390D01*
X135260714Y-199471485D01*
D10*
D11*
X185941666Y-198728628D02*
X185941666Y-199595295D01*
X185632142Y-198233390D02*
X185322619Y-199161961D01*
X186127380Y-199161961D01*
D10*
D11*
X236003571Y-198295295D02*
X235384523Y-198295295D01*
X235322619Y-198914342D01*
X235384523Y-198852438D01*
X235508333Y-198790533D01*
X235817857Y-198790533D01*
X235941666Y-198852438D01*
X236003571Y-198914342D01*
X236065476Y-199038152D01*
X236065476Y-199347676D01*
X236003571Y-199471485D01*
X235941666Y-199533390D01*
X235817857Y-199595295D01*
X235508333Y-199595295D01*
X235384523Y-199533390D01*
X235322619Y-199471485D01*
D10*
D11*
X285941666Y-198295295D02*
X285694047Y-198295295D01*
X285570238Y-198357200D01*
X285508333Y-198419104D01*
X285384523Y-198604819D01*
X285322619Y-198852438D01*
X285322619Y-199347676D01*
X285384523Y-199471485D01*
X285446428Y-199533390D01*
X285570238Y-199595295D01*
X285817857Y-199595295D01*
X285941666Y-199533390D01*
X286003571Y-199471485D01*
X286065476Y-199347676D01*
X286065476Y-199038152D01*
X286003571Y-198914342D01*
X285941666Y-198852438D01*
X285817857Y-198790533D01*
X285570238Y-198790533D01*
X285446428Y-198852438D01*
X285384523Y-198914342D01*
X285322619Y-199038152D01*
D10*
D11*
X10000000Y-60000000D02*
X12000000Y-60000000D01*
D10*
D11*
X10000000Y-110000000D02*
X12000000Y-110000000D01*
D10*
D11*
X10000000Y-160000000D02*
X12000000Y-160000000D01*
D10*
D11*
X10690476Y-35216666D02*
X11309523Y-35216666D01*
X10566666Y-35588095D02*
X11000000Y-34288095D01*
X11433333Y-35588095D01*
D10*
D11*
X11092857Y-84907142D02*
X11278571Y-84969047D01*
X11340476Y-85030952D01*
X11402380Y-85154761D01*
X11402380Y-85340476D01*
X11340476Y-85464285D01*
X11278571Y-85526190D01*
X11154761Y-85588095D01*
X10659523Y-85588095D01*
X10659523Y-84288095D01*
X11092857Y-84288095D01*
X11216666Y-84350000D01*
X11278571Y-84411904D01*
X11340476Y-84535714D01*
X11340476Y-84659523D01*
X11278571Y-84783333D01*
X11216666Y-84845238D01*
X11092857Y-84907142D01*
X10659523Y-84907142D01*
D10*
D11*
X11402380Y-135464285D02*
X11340476Y-135526190D01*
X11154761Y-135588095D01*
X11030952Y-135588095D01*
X10845238Y-135526190D01*
X10721428Y-135402380D01*
X10659523Y-135278571D01*
X10597619Y-135030952D01*
X10597619Y-134845238D01*
X10659523Y-134597619D01*
X10721428Y-134473809D01*
X10845238Y-134350000D01*
X11030952Y-134288095D01*
X11154761Y-134288095D01*
X11340476Y-134350000D01*
X11402380Y-134411904D01*
D10*
D11*
X10659523Y-185588095D02*
X10659523Y-184288095D01*
X10969047Y-184288095D01*
X11154761Y-184350000D01*
X11278571Y-184473809D01*
X11340476Y-184597619D01*
X11402380Y-184845238D01*
X11402380Y-185030952D01*
X11340476Y-185278571D01*
X11278571Y-185402380D01*
X11154761Y-185526190D01*
X10969047Y-185588095D01*
X10659523Y-185588095D01*
D10*
D11*
X287002200Y-60000000D02*
X285002200Y-60000000D01*
D10*
D11*
X287002200Y-110000000D02*
X285002200Y-110000000D01*
D10*
D11*
X287002200Y-160000000D02*
X285002200Y-160000000D01*
D10*
D11*
X285692676Y-35216666D02*
X286311723Y-35216666D01*
X285568866Y-35588095D02*
X286002200Y-34288095D01*
X286435533Y-35588095D01*
D10*
D11*
X286095057Y-84907142D02*
X286280771Y-84969047D01*
X286342676Y-85030952D01*
X286404580Y-85154761D01*
X286404580Y-85340476D01*
X286342676Y-85464285D01*
X286280771Y-85526190D01*
X286156961Y-85588095D01*
X285661723Y-85588095D01*
X285661723Y-84288095D01*
X286095057Y-84288095D01*
X286218866Y-84350000D01*
X286280771Y-84411904D01*
X286342676Y-84535714D01*
X286342676Y-84659523D01*
X286280771Y-84783333D01*
X286218866Y-84845238D01*
X286095057Y-84907142D01*
X285661723Y-84907142D01*
D10*
D11*
X286404580Y-135464285D02*
X286342676Y-135526190D01*
X286156961Y-135588095D01*
X286033152Y-135588095D01*
X285847438Y-135526190D01*
X285723628Y-135402380D01*
X285661723Y-135278571D01*
X285599819Y-135030952D01*
X285599819Y-134845238D01*
X285661723Y-134597619D01*
X285723628Y-134473809D01*
X285847438Y-134350000D01*
X286033152Y-134288095D01*
X286156961Y-134288095D01*
X286342676Y-134350000D01*
X286404580Y-134411904D01*
D10*
D11*
X285661723Y-185588095D02*
X285661723Y-184288095D01*
X285971247Y-184288095D01*
X286156961Y-184350000D01*
X286280771Y-184473809D01*
X286342676Y-184597619D01*
X286404580Y-184845238D01*
X286404580Y-185030952D01*
X286342676Y-185278571D01*
X286280771Y-185402380D01*
X286156961Y-185526190D01*
X285971247Y-185588095D01*
X285661723Y-185588095D01*
D10*
D11*
X200434342Y-193785771D02*
X200434342Y-192285771D01*
X200791485Y-192285771D01*
X201005771Y-192357200D01*
X201148628Y-192500057D01*
X201220057Y-192642914D01*
X201291485Y-192928628D01*
X201291485Y-193142914D01*
X201220057Y-193428628D01*
X201148628Y-193571485D01*
X201005771Y-193714342D01*
X200791485Y-193785771D01*
X200434342Y-193785771D01*
X202577200Y-193785771D02*
X202577200Y-193000057D01*
X202505771Y-192857200D01*
X202362914Y-192785771D01*
X202077200Y-192785771D01*
X201934342Y-192857200D01*
X202577200Y-193714342D02*
X202434342Y-193785771D01*
X202077200Y-193785771D01*
X201934342Y-193714342D01*
X201862914Y-193571485D01*
X201862914Y-193428628D01*
X201934342Y-193285771D01*
X202077200Y-193214342D01*
X202434342Y-193214342D01*
X202577200Y-193142914D01*
X203077200Y-192785771D02*
X203648628Y-192785771D01*
X203291485Y-192285771D02*
X203291485Y-193571485D01*
X203362914Y-193714342D01*
X203505771Y-193785771D01*
X203648628Y-193785771D01*
X204720057Y-193714342D02*
X204577200Y-193785771D01*
X204291485Y-193785771D01*
X204148628Y-193714342D01*
X204077200Y-193571485D01*
X204077200Y-193000057D01*
X204148628Y-192857200D01*
X204291485Y-192785771D01*
X204577200Y-192785771D01*
X204720057Y-192857200D01*
X204791485Y-193000057D01*
X204791485Y-193142914D01*
X204077200Y-193285771D01*
X205434342Y-193642914D02*
X205505771Y-193714342D01*
X205434342Y-193785771D01*
X205362914Y-193714342D01*
X205434342Y-193642914D01*
X205434342Y-193785771D01*
X205434342Y-192857200D02*
X205505771Y-192928628D01*
X205434342Y-193000057D01*
X205362914Y-192928628D01*
X205434342Y-192857200D01*
X205434342Y-193000057D01*
D10*
D11*
X177002200Y-194507200D02*
X285002200Y-194507200D01*
D10*
D11*
X178434342Y-196585771D02*
X178434342Y-195085771D01*
X179291485Y-196585771D02*
X178648628Y-195728628D01*
X179291485Y-195085771D02*
X178434342Y-195942914D01*
X179934342Y-196585771D02*
X179934342Y-195585771D01*
X179934342Y-195085771D02*
X179862914Y-195157200D01*
X179934342Y-195228628D01*
X180005771Y-195157200D01*
X179934342Y-195085771D01*
X179934342Y-195228628D01*
X181505771Y-196442914D02*
X181434342Y-196514342D01*
X181220057Y-196585771D01*
X181077200Y-196585771D01*
X180862914Y-196514342D01*
X180720057Y-196371485D01*
X180648628Y-196228628D01*
X180577200Y-195942914D01*
X180577200Y-195728628D01*
X180648628Y-195442914D01*
X180720057Y-195300057D01*
X180862914Y-195157200D01*
X181077200Y-195085771D01*
X181220057Y-195085771D01*
X181434342Y-195157200D01*
X181505771Y-195228628D01*
X182791485Y-196585771D02*
X182791485Y-195800057D01*
X182720057Y-195657200D01*
X182577200Y-195585771D01*
X182291485Y-195585771D01*
X182148628Y-195657200D01*
X182791485Y-196514342D02*
X182648628Y-196585771D01*
X182291485Y-196585771D01*
X182148628Y-196514342D01*
X182077200Y-196371485D01*
X182077200Y-196228628D01*
X182148628Y-196085771D01*
X182291485Y-196014342D01*
X182648628Y-196014342D01*
X182791485Y-195942914D01*
X184148628Y-196585771D02*
X184148628Y-195085771D01*
X184148628Y-196514342D02*
X184005771Y-196585771D01*
X183720057Y-196585771D01*
X183577200Y-196514342D01*
X183505771Y-196442914D01*
X183434342Y-196300057D01*
X183434342Y-195871485D01*
X183505771Y-195728628D01*
X183577200Y-195657200D01*
X183720057Y-195585771D01*
X184005771Y-195585771D01*
X184148628Y-195657200D01*
X186005771Y-195800057D02*
X186505771Y-195800057D01*
X186720057Y-196585771D02*
X186005771Y-196585771D01*
X186005771Y-195085771D01*
X186720057Y-195085771D01*
X187362914Y-196442914D02*
X187434342Y-196514342D01*
X187362914Y-196585771D01*
X187291485Y-196514342D01*
X187362914Y-196442914D01*
X187362914Y-196585771D01*
X188077200Y-196585771D02*
X188077200Y-195085771D01*
X188434342Y-195085771D01*
X188648628Y-195157200D01*
X188791485Y-195300057D01*
X188862914Y-195442914D01*
X188934342Y-195728628D01*
X188934342Y-195942914D01*
X188862914Y-196228628D01*
X188791485Y-196371485D01*
X188648628Y-196514342D01*
X188434342Y-196585771D01*
X188077200Y-196585771D01*
X189577200Y-196442914D02*
X189648628Y-196514342D01*
X189577200Y-196585771D01*
X189505771Y-196514342D01*
X189577200Y-196442914D01*
X189577200Y-196585771D01*
X190220057Y-196157200D02*
X190934342Y-196157200D01*
X190077200Y-196585771D02*
X190577200Y-195085771D01*
X191077200Y-196585771D01*
X191577200Y-196442914D02*
X191648628Y-196514342D01*
X191577200Y-196585771D01*
X191505771Y-196514342D01*
X191577200Y-196442914D01*
X191577200Y-196585771D01*
X194577200Y-196585771D02*
X194577200Y-195085771D01*
X194720057Y-196014342D02*
X195148628Y-196585771D01*
X195148628Y-195585771D02*
X194577200Y-196157200D01*
X195791485Y-196585771D02*
X195791485Y-195585771D01*
X195791485Y-195085771D02*
X195720057Y-195157200D01*
X195791485Y-195228628D01*
X195862914Y-195157200D01*
X195791485Y-195085771D01*
X195791485Y-195228628D01*
X197148628Y-196514342D02*
X197005771Y-196585771D01*
X196720057Y-196585771D01*
X196577200Y-196514342D01*
X196505771Y-196442914D01*
X196434342Y-196300057D01*
X196434342Y-195871485D01*
X196505771Y-195728628D01*
X196577200Y-195657200D01*
X196720057Y-195585771D01*
X197005771Y-195585771D01*
X197148628Y-195657200D01*
X198434342Y-196585771D02*
X198434342Y-195800057D01*
X198362914Y-195657200D01*
X198220057Y-195585771D01*
X197934342Y-195585771D01*
X197791485Y-195657200D01*
X198434342Y-196514342D02*
X198291485Y-196585771D01*
X197934342Y-196585771D01*
X197791485Y-196514342D01*
X197720057Y-196371485D01*
X197720057Y-196228628D01*
X197791485Y-196085771D01*
X197934342Y-196014342D01*
X198291485Y-196014342D01*
X198434342Y-195942914D01*
X199791485Y-196585771D02*
X199791485Y-195085771D01*
X199791485Y-196514342D02*
X199648628Y-196585771D01*
X199362914Y-196585771D01*
X199220057Y-196514342D01*
X199148628Y-196442914D01*
X199077200Y-196300057D01*
X199077200Y-195871485D01*
X199148628Y-195728628D01*
X199220057Y-195657200D01*
X199362914Y-195585771D01*
X199648628Y-195585771D01*
X199791485Y-195657200D01*
X202077200Y-197157200D02*
X202005771Y-197085771D01*
X201862914Y-196871485D01*
X201791485Y-196728628D01*
X201720057Y-196514342D01*
X201648628Y-196157200D01*
X201648628Y-195871485D01*
X201720057Y-195514342D01*
X201791485Y-195300057D01*
X201862914Y-195157200D01*
X202005771Y-194942914D01*
X202077200Y-194871485D01*
X203362914Y-195085771D02*
X202648628Y-195085771D01*
X202577200Y-195800057D01*
X202648628Y-195728628D01*
X202791485Y-195657200D01*
X203148628Y-195657200D01*
X203291485Y-195728628D01*
X203362914Y-195800057D01*
X203434342Y-195942914D01*
X203434342Y-196300057D01*
X203362914Y-196442914D01*
X203291485Y-196514342D01*
X203148628Y-196585771D01*
X202791485Y-196585771D01*
X202648628Y-196514342D01*
X202577200Y-196442914D01*
X204077200Y-196442914D02*
X204148628Y-196514342D01*
X204077200Y-196585771D01*
X204005771Y-196514342D01*
X204077200Y-196442914D01*
X204077200Y-196585771D01*
X205577200Y-196585771D02*
X204720057Y-196585771D01*
X205148628Y-196585771D02*
X205148628Y-195085771D01*
X205005771Y-195300057D01*
X204862914Y-195442914D01*
X204720057Y-195514342D01*
X206220057Y-196442914D02*
X206291485Y-196514342D01*
X206220057Y-196585771D01*
X206148628Y-196514342D01*
X206220057Y-196442914D01*
X206220057Y-196585771D01*
X207648628Y-195085771D02*
X206934342Y-195085771D01*
X206862914Y-195800057D01*
X206934342Y-195728628D01*
X207077200Y-195657200D01*
X207434342Y-195657200D01*
X207577200Y-195728628D01*
X207648628Y-195800057D01*
X207720057Y-195942914D01*
X207720057Y-196300057D01*
X207648628Y-196442914D01*
X207577200Y-196514342D01*
X207434342Y-196585771D01*
X207077200Y-196585771D01*
X206934342Y-196514342D01*
X206862914Y-196442914D01*
X208220057Y-197157200D02*
X208291485Y-197085771D01*
X208434342Y-196871485D01*
X208505771Y-196728628D01*
X208577200Y-196514342D01*
X208648628Y-196157200D01*
X208648628Y-195871485D01*
X208577200Y-195514342D01*
X208505771Y-195300057D01*
X208434342Y-195157200D01*
X208291485Y-194942914D01*
X208220057Y-194871485D01*
X209362914Y-196014342D02*
X210505771Y-196014342D01*
X211077200Y-195085771D02*
X212005771Y-195085771D01*
X211505771Y-195657200D01*
X211720057Y-195657200D01*
X211862914Y-195728628D01*
X211934342Y-195800057D01*
X212005771Y-195942914D01*
X212005771Y-196300057D01*
X211934342Y-196442914D01*
X211862914Y-196514342D01*
X211720057Y-196585771D01*
X211291485Y-196585771D01*
X211148628Y-196514342D01*
X211077200Y-196442914D01*
D10*
D11*
X177002200Y-191507200D02*
X285002200Y-191507200D01*
D10*
D12*
X264411485Y-193785771D02*
X263911485Y-193071485D01*
X263554342Y-193785771D02*
X263554342Y-192285771D01*
X264125771Y-192285771D01*
X264268628Y-192357200D01*
X264340057Y-192428628D01*
X264411485Y-192571485D01*
X264411485Y-192785771D01*
X264340057Y-192928628D01*
X264268628Y-193000057D01*
X264125771Y-193071485D01*
X263554342Y-193071485D01*
X265625771Y-193714342D02*
X265482914Y-193785771D01*
X265197200Y-193785771D01*
X265054342Y-193714342D01*
X264982914Y-193571485D01*
X264982914Y-193000057D01*
X265054342Y-192857200D01*
X265197200Y-192785771D01*
X265482914Y-192785771D01*
X265625771Y-192857200D01*
X265697200Y-193000057D01*
X265697200Y-193142914D01*
X264982914Y-193285771D01*
X266197200Y-192785771D02*
X266554342Y-193785771D01*
X266911485Y-192785771D01*
X267482914Y-193642914D02*
X267554342Y-193714342D01*
X267482914Y-193785771D01*
X267411485Y-193714342D01*
X267482914Y-193642914D01*
X267482914Y-193785771D01*
X267482914Y-192857200D02*
X267554342Y-192928628D01*
X267482914Y-193000057D01*
X267411485Y-192928628D01*
X267482914Y-192857200D01*
X267482914Y-193000057D01*
D10*
D11*
X178362914Y-193714342D02*
X178577200Y-193785771D01*
X178934342Y-193785771D01*
X179077200Y-193714342D01*
X179148628Y-193642914D01*
X179220057Y-193500057D01*
X179220057Y-193357200D01*
X179148628Y-193214342D01*
X179077200Y-193142914D01*
X178934342Y-193071485D01*
X178648628Y-193000057D01*
X178505771Y-192928628D01*
X178434342Y-192857200D01*
X178362914Y-192714342D01*
X178362914Y-192571485D01*
X178434342Y-192428628D01*
X178505771Y-192357200D01*
X178648628Y-192285771D01*
X179005771Y-192285771D01*
X179220057Y-192357200D01*
X179862914Y-193785771D02*
X179862914Y-192785771D01*
X179862914Y-192285771D02*
X179791485Y-192357200D01*
X179862914Y-192428628D01*
X179934342Y-192357200D01*
X179862914Y-192285771D01*
X179862914Y-192428628D01*
X180434342Y-192785771D02*
X181220057Y-192785771D01*
X180434342Y-193785771D01*
X181220057Y-193785771D01*
X182362914Y-193714342D02*
X182220057Y-193785771D01*
X181934342Y-193785771D01*
X181791485Y-193714342D01*
X181720057Y-193571485D01*
X181720057Y-193000057D01*
X181791485Y-192857200D01*
X181934342Y-192785771D01*
X182220057Y-192785771D01*
X182362914Y-192857200D01*
X182434342Y-193000057D01*
X182434342Y-193142914D01*
X181720057Y-193285771D01*
X183077200Y-193642914D02*
X183148628Y-193714342D01*
X183077200Y-193785771D01*
X183005771Y-193714342D01*
X183077200Y-193642914D01*
X183077200Y-193785771D01*
X183077200Y-192857200D02*
X183148628Y-192928628D01*
X183077200Y-193000057D01*
X183005771Y-192928628D01*
X183077200Y-192857200D01*
X183077200Y-193000057D01*
X184862914Y-193357200D02*
X185577200Y-193357200D01*
X184720057Y-193785771D02*
X185220057Y-192285771D01*
X185720057Y-193785771D01*
X186862914Y-192785771D02*
X186862914Y-193785771D01*
X186505771Y-192214342D02*
X186148628Y-193285771D01*
X187077200Y-193285771D01*
D10*
D11*
X263434342Y-196585771D02*
X263434342Y-195085771D01*
X264791485Y-196585771D02*
X264791485Y-195085771D01*
X264791485Y-196514342D02*
X264648628Y-196585771D01*
X264362914Y-196585771D01*
X264220057Y-196514342D01*
X264148628Y-196442914D01*
X264077200Y-196300057D01*
X264077200Y-195871485D01*
X264148628Y-195728628D01*
X264220057Y-195657200D01*
X264362914Y-195585771D01*
X264648628Y-195585771D01*
X264791485Y-195657200D01*
X265505771Y-196442914D02*
X265577200Y-196514342D01*
X265505771Y-196585771D01*
X265434342Y-196514342D01*
X265505771Y-196442914D01*
X265505771Y-196585771D01*
X265505771Y-195657200D02*
X265577200Y-195728628D01*
X265505771Y-195800057D01*
X265434342Y-195728628D01*
X265505771Y-195657200D01*
X265505771Y-195800057D01*
X268148628Y-196585771D02*
X267291485Y-196585771D01*
X267720057Y-196585771D02*
X267720057Y-195085771D01*
X267577200Y-195300057D01*
X267434342Y-195442914D01*
X267291485Y-195514342D01*
X269862914Y-195014342D02*
X268577200Y-196942914D01*
X271148628Y-196585771D02*
X270291485Y-196585771D01*
X270720057Y-196585771D02*
X270720057Y-195085771D01*
X270577200Y-195300057D01*
X270434342Y-195442914D01*
X270291485Y-195514342D01*
D10*
D11*
X177002200Y-187507200D02*
X285002200Y-187507200D01*
D10*
D13*
X178714580Y-188211961D02*
X179857438Y-188211961D01*
X179036009Y-190211961D02*
X179286009Y-188211961D01*
X180274104Y-190211961D02*
X180440771Y-188878628D01*
X180524104Y-188211961D02*
X180416961Y-188307200D01*
X180500295Y-188402438D01*
X180607438Y-188307200D01*
X180524104Y-188211961D01*
X180500295Y-188402438D01*
X181107438Y-188878628D02*
X181869342Y-188878628D01*
X181476485Y-188211961D02*
X181262200Y-189926247D01*
X181333628Y-190116723D01*
X181512200Y-190211961D01*
X181702676Y-190211961D01*
X182655057Y-190211961D02*
X182476485Y-190116723D01*
X182405057Y-189926247D01*
X182619342Y-188211961D01*
X184190771Y-190116723D02*
X183988390Y-190211961D01*
X183607438Y-190211961D01*
X183428866Y-190116723D01*
X183357438Y-189926247D01*
X183452676Y-189164342D01*
X183571723Y-188973866D01*
X183774104Y-188878628D01*
X184155057Y-188878628D01*
X184333628Y-188973866D01*
X184405057Y-189164342D01*
X184381247Y-189354819D01*
X183405057Y-189545295D01*
X185155057Y-190021485D02*
X185238390Y-190116723D01*
X185131247Y-190211961D01*
X185047914Y-190116723D01*
X185155057Y-190021485D01*
X185131247Y-190211961D01*
X185286009Y-188973866D02*
X185369342Y-189069104D01*
X185262200Y-189164342D01*
X185178866Y-189069104D01*
X185286009Y-188973866D01*
X185262200Y-189164342D01*
D10*
D11*
X178934342Y-185600057D02*
X178434342Y-185600057D01*
X178434342Y-186385771D02*
X178434342Y-184885771D01*
X179148628Y-184885771D01*
X179720057Y-186385771D02*
X179720057Y-185385771D01*
X179720057Y-184885771D02*
X179648628Y-184957200D01*
X179720057Y-185028628D01*
X179791485Y-184957200D01*
X179720057Y-184885771D01*
X179720057Y-185028628D01*
X180648628Y-186385771D02*
X180505771Y-186314342D01*
X180434342Y-186171485D01*
X180434342Y-184885771D01*
X181791485Y-186314342D02*
X181648628Y-186385771D01*
X181362914Y-186385771D01*
X181220057Y-186314342D01*
X181148628Y-186171485D01*
X181148628Y-185600057D01*
X181220057Y-185457200D01*
X181362914Y-185385771D01*
X181648628Y-185385771D01*
X181791485Y-185457200D01*
X181862914Y-185600057D01*
X181862914Y-185742914D01*
X181148628Y-185885771D01*
X182505771Y-186242914D02*
X182577200Y-186314342D01*
X182505771Y-186385771D01*
X182434342Y-186314342D01*
X182505771Y-186242914D01*
X182505771Y-186385771D01*
X182505771Y-185457200D02*
X182577200Y-185528628D01*
X182505771Y-185600057D01*
X182434342Y-185528628D01*
X182505771Y-185457200D01*
X182505771Y-185600057D01*
X184220057Y-185385771D02*
X184577200Y-186385771D01*
X184934342Y-185385771D01*
X185434342Y-185028628D02*
X185505771Y-184957200D01*
X185648628Y-184885771D01*
X186005771Y-184885771D01*
X186148628Y-184957200D01*
X186220057Y-185028628D01*
X186291485Y-185171485D01*
X186291485Y-185314342D01*
X186220057Y-185528628D01*
X185362914Y-186385771D01*
X186291485Y-186385771D01*
X186934342Y-186242914D02*
X187005771Y-186314342D01*
X186934342Y-186385771D01*
X186862914Y-186314342D01*
X186934342Y-186242914D01*
X186934342Y-186385771D01*
X187648628Y-186385771D02*
X187648628Y-184885771D01*
X187791485Y-185814342D02*
X188220057Y-186385771D01*
X188220057Y-185385771D02*
X187648628Y-185957200D01*
X188862914Y-186385771D02*
X188862914Y-185385771D01*
X188862914Y-184885771D02*
X188791485Y-184957200D01*
X188862914Y-185028628D01*
X188934342Y-184957200D01*
X188862914Y-184885771D01*
X188862914Y-185028628D01*
X190220057Y-186314342D02*
X190077200Y-186385771D01*
X189791485Y-186385771D01*
X189648628Y-186314342D01*
X189577200Y-186242914D01*
X189505771Y-186100057D01*
X189505771Y-185671485D01*
X189577200Y-185528628D01*
X189648628Y-185457200D01*
X189791485Y-185385771D01*
X190077200Y-185385771D01*
X190220057Y-185457200D01*
X191505771Y-186385771D02*
X191505771Y-185600057D01*
X191434342Y-185457200D01*
X191291485Y-185385771D01*
X191005771Y-185385771D01*
X190862914Y-185457200D01*
X191505771Y-186314342D02*
X191362914Y-186385771D01*
X191005771Y-186385771D01*
X190862914Y-186314342D01*
X190791485Y-186171485D01*
X190791485Y-186028628D01*
X190862914Y-185885771D01*
X191005771Y-185814342D01*
X191362914Y-185814342D01*
X191505771Y-185742914D01*
X192862914Y-186385771D02*
X192862914Y-184885771D01*
X192862914Y-186314342D02*
X192720057Y-186385771D01*
X192434342Y-186385771D01*
X192291485Y-186314342D01*
X192220057Y-186242914D01*
X192148628Y-186100057D01*
X192148628Y-185671485D01*
X192220057Y-185528628D01*
X192291485Y-185457200D01*
X192434342Y-185385771D01*
X192720057Y-185385771D01*
X192862914Y-185457200D01*
X193220057Y-186528628D02*
X194362914Y-186528628D01*
X194720057Y-185385771D02*
X194720057Y-186885771D01*
X194720057Y-185457200D02*
X194862914Y-185385771D01*
X195148628Y-185385771D01*
X195291485Y-185457200D01*
X195362914Y-185528628D01*
X195434342Y-185671485D01*
X195434342Y-186100057D01*
X195362914Y-186242914D01*
X195291485Y-186314342D01*
X195148628Y-186385771D01*
X194862914Y-186385771D01*
X194720057Y-186314342D01*
X196720057Y-186314342D02*
X196577200Y-186385771D01*
X196291485Y-186385771D01*
X196148628Y-186314342D01*
X196077200Y-186242914D01*
X196005771Y-186100057D01*
X196005771Y-185671485D01*
X196077200Y-185528628D01*
X196148628Y-185457200D01*
X196291485Y-185385771D01*
X196577200Y-185385771D01*
X196720057Y-185457200D01*
X197362914Y-186385771D02*
X197362914Y-184885771D01*
X197362914Y-185457200D02*
X197505771Y-185385771D01*
X197791485Y-185385771D01*
X197934342Y-185457200D01*
X198005771Y-185528628D01*
X198077200Y-185671485D01*
X198077200Y-186100057D01*
X198005771Y-186242914D01*
X197934342Y-186314342D01*
X197791485Y-186385771D01*
X197505771Y-186385771D01*
X197362914Y-186314342D01*
D10*
D11*
X177002200Y-181507200D02*
X285002200Y-181507200D01*
D10*
D11*
X178362914Y-183614342D02*
X178577200Y-183685771D01*
X178934342Y-183685771D01*
X179077200Y-183614342D01*
X179148628Y-183542914D01*
X179220057Y-183400057D01*
X179220057Y-183257200D01*
X179148628Y-183114342D01*
X179077200Y-183042914D01*
X178934342Y-182971485D01*
X178648628Y-182900057D01*
X178505771Y-182828628D01*
X178434342Y-182757200D01*
X178362914Y-182614342D01*
X178362914Y-182471485D01*
X178434342Y-182328628D01*
X178505771Y-182257200D01*
X178648628Y-182185771D01*
X179005771Y-182185771D01*
X179220057Y-182257200D01*
X179862914Y-183685771D02*
X179862914Y-182185771D01*
X180505771Y-183685771D02*
X180505771Y-182900057D01*
X180434342Y-182757200D01*
X180291485Y-182685771D01*
X180077200Y-182685771D01*
X179934342Y-182757200D01*
X179862914Y-182828628D01*
X181791485Y-183614342D02*
X181648628Y-183685771D01*
X181362914Y-183685771D01*
X181220057Y-183614342D01*
X181148628Y-183471485D01*
X181148628Y-182900057D01*
X181220057Y-182757200D01*
X181362914Y-182685771D01*
X181648628Y-182685771D01*
X181791485Y-182757200D01*
X181862914Y-182900057D01*
X181862914Y-183042914D01*
X181148628Y-183185771D01*
X183077200Y-183614342D02*
X182934342Y-183685771D01*
X182648628Y-183685771D01*
X182505771Y-183614342D01*
X182434342Y-183471485D01*
X182434342Y-182900057D01*
X182505771Y-182757200D01*
X182648628Y-182685771D01*
X182934342Y-182685771D01*
X183077200Y-182757200D01*
X183148628Y-182900057D01*
X183148628Y-183042914D01*
X182434342Y-183185771D01*
X183577200Y-182685771D02*
X184148628Y-182685771D01*
X183791485Y-182185771D02*
X183791485Y-183471485D01*
X183862914Y-183614342D01*
X184005771Y-183685771D01*
X184148628Y-183685771D01*
X184648628Y-183542914D02*
X184720057Y-183614342D01*
X184648628Y-183685771D01*
X184577200Y-183614342D01*
X184648628Y-183542914D01*
X184648628Y-183685771D01*
X184648628Y-182757200D02*
X184720057Y-182828628D01*
X184648628Y-182900057D01*
X184577200Y-182828628D01*
X184648628Y-182757200D01*
X184648628Y-182900057D01*
D10*
D11*
X197002200Y-191507200D02*
X197002200Y-194507200D01*
D10*
D11*
X261002200Y-191507200D02*
X261002200Y-198007200D01*
D14*
X202946000Y-47498000D03*
D15*
X205571000Y-47498000D03*
X204802155Y-49354155D03*
X202946000Y-50123000D03*
X201089845Y-49354155D03*
X200321000Y-47498000D03*
X201089845Y-45641845D03*
X202946000Y-44873000D03*
X204802155Y-45641845D03*
X204802155Y-66723845D03*
X202946000Y-65955000D03*
X201089845Y-66723845D03*
X200321000Y-68580000D03*
X201089845Y-70436155D03*
X202946000Y-71205000D03*
X204802155Y-70436155D03*
X205571000Y-68580000D03*
D14*
X202946000Y-68580000D03*
X181864000Y-68580000D03*
D15*
X184489000Y-68580000D03*
X183720155Y-70436155D03*
X181864000Y-71205000D03*
X180007845Y-70436155D03*
X179239000Y-68580000D03*
X180007845Y-66723845D03*
X181864000Y-65955000D03*
X183720155Y-66723845D03*
X183720155Y-45641845D03*
X181864000Y-44873000D03*
X180007845Y-45641845D03*
X179239000Y-47498000D03*
X180007845Y-49354155D03*
X181864000Y-50123000D03*
X183720155Y-49354155D03*
X184489000Y-47498000D03*
D14*
X181864000Y-47498000D03*
G04 #@! TA.AperFunction,SMDPad,CuDef*
D10*
G36*
X183552703Y-53635222D02*
G01*
X183567264Y-53637382D01*
X183581543Y-53640959D01*
X183595403Y-53645918D01*
X183608710Y-53652212D01*
X183621336Y-53659780D01*
X183633159Y-53668548D01*
X183644066Y-53678434D01*
X183653952Y-53689341D01*
X183662720Y-53701164D01*
X183670288Y-53713790D01*
X183676582Y-53727097D01*
X183681541Y-53740957D01*
X183685118Y-53755236D01*
X183687278Y-53769797D01*
X183688000Y-53784500D01*
X183688000Y-55209500D01*
X183687278Y-55224203D01*
X183685118Y-55238764D01*
X183681541Y-55253043D01*
X183676582Y-55266903D01*
X183670288Y-55280210D01*
X183662720Y-55292836D01*
X183653952Y-55304659D01*
X183644066Y-55315566D01*
X183633159Y-55325452D01*
X183621336Y-55334220D01*
X183608710Y-55341788D01*
X183595403Y-55348082D01*
X183581543Y-55353041D01*
X183567264Y-55356618D01*
X183552703Y-55358778D01*
X183538000Y-55359500D01*
X183238000Y-55359500D01*
X183223297Y-55358778D01*
X183208736Y-55356618D01*
X183194457Y-55353041D01*
X183180597Y-55348082D01*
X183167290Y-55341788D01*
X183154664Y-55334220D01*
X183142841Y-55325452D01*
X183131934Y-55315566D01*
X183122048Y-55304659D01*
X183113280Y-55292836D01*
X183105712Y-55280210D01*
X183099418Y-55266903D01*
X183094459Y-55253043D01*
X183090882Y-55238764D01*
X183088722Y-55224203D01*
X183088000Y-55209500D01*
X183088000Y-53784500D01*
X183088722Y-53769797D01*
X183090882Y-53755236D01*
X183094459Y-53740957D01*
X183099418Y-53727097D01*
X183105712Y-53713790D01*
X183113280Y-53701164D01*
X183122048Y-53689341D01*
X183131934Y-53678434D01*
X183142841Y-53668548D01*
X183154664Y-53659780D01*
X183167290Y-53652212D01*
X183180597Y-53645918D01*
X183194457Y-53640959D01*
X183208736Y-53637382D01*
X183223297Y-53635222D01*
X183238000Y-53634500D01*
X183538000Y-53634500D01*
X183552703Y-53635222D01*
G37*
G04 #@! TD.AperFunction*
G04 #@! TA.AperFunction,SMDPad,CuDef*
G36*
X184822703Y-53635222D02*
G01*
X184837264Y-53637382D01*
X184851543Y-53640959D01*
X184865403Y-53645918D01*
X184878710Y-53652212D01*
X184891336Y-53659780D01*
X184903159Y-53668548D01*
X184914066Y-53678434D01*
X184923952Y-53689341D01*
X184932720Y-53701164D01*
X184940288Y-53713790D01*
X184946582Y-53727097D01*
X184951541Y-53740957D01*
X184955118Y-53755236D01*
X184957278Y-53769797D01*
X184958000Y-53784500D01*
X184958000Y-55209500D01*
X184957278Y-55224203D01*
X184955118Y-55238764D01*
X184951541Y-55253043D01*
X184946582Y-55266903D01*
X184940288Y-55280210D01*
X184932720Y-55292836D01*
X184923952Y-55304659D01*
X184914066Y-55315566D01*
X184903159Y-55325452D01*
X184891336Y-55334220D01*
X184878710Y-55341788D01*
X184865403Y-55348082D01*
X184851543Y-55353041D01*
X184837264Y-55356618D01*
X184822703Y-55358778D01*
X184808000Y-55359500D01*
X184508000Y-55359500D01*
X184493297Y-55358778D01*
X184478736Y-55356618D01*
X184464457Y-55353041D01*
X184450597Y-55348082D01*
X184437290Y-55341788D01*
X184424664Y-55334220D01*
X184412841Y-55325452D01*
X184401934Y-55315566D01*
X184392048Y-55304659D01*
X184383280Y-55292836D01*
X184375712Y-55280210D01*
X184369418Y-55266903D01*
X184364459Y-55253043D01*
X184360882Y-55238764D01*
X184358722Y-55224203D01*
X184358000Y-55209500D01*
X184358000Y-53784500D01*
X184358722Y-53769797D01*
X184360882Y-53755236D01*
X184364459Y-53740957D01*
X184369418Y-53727097D01*
X184375712Y-53713790D01*
X184383280Y-53701164D01*
X184392048Y-53689341D01*
X184401934Y-53678434D01*
X184412841Y-53668548D01*
X184424664Y-53659780D01*
X184437290Y-53652212D01*
X184450597Y-53645918D01*
X184464457Y-53640959D01*
X184478736Y-53637382D01*
X184493297Y-53635222D01*
X184508000Y-53634500D01*
X184808000Y-53634500D01*
X184822703Y-53635222D01*
G37*
G04 #@! TD.AperFunction*
G04 #@! TA.AperFunction,SMDPad,CuDef*
G36*
X186092703Y-53635222D02*
G01*
X186107264Y-53637382D01*
X186121543Y-53640959D01*
X186135403Y-53645918D01*
X186148710Y-53652212D01*
X186161336Y-53659780D01*
X186173159Y-53668548D01*
X186184066Y-53678434D01*
X186193952Y-53689341D01*
X186202720Y-53701164D01*
X186210288Y-53713790D01*
X186216582Y-53727097D01*
X186221541Y-53740957D01*
X186225118Y-53755236D01*
X186227278Y-53769797D01*
X186228000Y-53784500D01*
X186228000Y-55209500D01*
X186227278Y-55224203D01*
X186225118Y-55238764D01*
X186221541Y-55253043D01*
X186216582Y-55266903D01*
X186210288Y-55280210D01*
X186202720Y-55292836D01*
X186193952Y-55304659D01*
X186184066Y-55315566D01*
X186173159Y-55325452D01*
X186161336Y-55334220D01*
X186148710Y-55341788D01*
X186135403Y-55348082D01*
X186121543Y-55353041D01*
X186107264Y-55356618D01*
X186092703Y-55358778D01*
X186078000Y-55359500D01*
X185778000Y-55359500D01*
X185763297Y-55358778D01*
X185748736Y-55356618D01*
X185734457Y-55353041D01*
X185720597Y-55348082D01*
X185707290Y-55341788D01*
X185694664Y-55334220D01*
X185682841Y-55325452D01*
X185671934Y-55315566D01*
X185662048Y-55304659D01*
X185653280Y-55292836D01*
X185645712Y-55280210D01*
X185639418Y-55266903D01*
X185634459Y-55253043D01*
X185630882Y-55238764D01*
X185628722Y-55224203D01*
X185628000Y-55209500D01*
X185628000Y-53784500D01*
X185628722Y-53769797D01*
X185630882Y-53755236D01*
X185634459Y-53740957D01*
X185639418Y-53727097D01*
X185645712Y-53713790D01*
X185653280Y-53701164D01*
X185662048Y-53689341D01*
X185671934Y-53678434D01*
X185682841Y-53668548D01*
X185694664Y-53659780D01*
X185707290Y-53652212D01*
X185720597Y-53645918D01*
X185734457Y-53640959D01*
X185748736Y-53637382D01*
X185763297Y-53635222D01*
X185778000Y-53634500D01*
X186078000Y-53634500D01*
X186092703Y-53635222D01*
G37*
G04 #@! TD.AperFunction*
G04 #@! TA.AperFunction,SMDPad,CuDef*
G36*
X187362703Y-53635222D02*
G01*
X187377264Y-53637382D01*
X187391543Y-53640959D01*
X187405403Y-53645918D01*
X187418710Y-53652212D01*
X187431336Y-53659780D01*
X187443159Y-53668548D01*
X187454066Y-53678434D01*
X187463952Y-53689341D01*
X187472720Y-53701164D01*
X187480288Y-53713790D01*
X187486582Y-53727097D01*
X187491541Y-53740957D01*
X187495118Y-53755236D01*
X187497278Y-53769797D01*
X187498000Y-53784500D01*
X187498000Y-55209500D01*
X187497278Y-55224203D01*
X187495118Y-55238764D01*
X187491541Y-55253043D01*
X187486582Y-55266903D01*
X187480288Y-55280210D01*
X187472720Y-55292836D01*
X187463952Y-55304659D01*
X187454066Y-55315566D01*
X187443159Y-55325452D01*
X187431336Y-55334220D01*
X187418710Y-55341788D01*
X187405403Y-55348082D01*
X187391543Y-55353041D01*
X187377264Y-55356618D01*
X187362703Y-55358778D01*
X187348000Y-55359500D01*
X187048000Y-55359500D01*
X187033297Y-55358778D01*
X187018736Y-55356618D01*
X187004457Y-55353041D01*
X186990597Y-55348082D01*
X186977290Y-55341788D01*
X186964664Y-55334220D01*
X186952841Y-55325452D01*
X186941934Y-55315566D01*
X186932048Y-55304659D01*
X186923280Y-55292836D01*
X186915712Y-55280210D01*
X186909418Y-55266903D01*
X186904459Y-55253043D01*
X186900882Y-55238764D01*
X186898722Y-55224203D01*
X186898000Y-55209500D01*
X186898000Y-53784500D01*
X186898722Y-53769797D01*
X186900882Y-53755236D01*
X186904459Y-53740957D01*
X186909418Y-53727097D01*
X186915712Y-53713790D01*
X186923280Y-53701164D01*
X186932048Y-53689341D01*
X186941934Y-53678434D01*
X186952841Y-53668548D01*
X186964664Y-53659780D01*
X186977290Y-53652212D01*
X186990597Y-53645918D01*
X187004457Y-53640959D01*
X187018736Y-53637382D01*
X187033297Y-53635222D01*
X187048000Y-53634500D01*
X187348000Y-53634500D01*
X187362703Y-53635222D01*
G37*
G04 #@! TD.AperFunction*
G04 #@! TA.AperFunction,SMDPad,CuDef*
G36*
X187362703Y-60860222D02*
G01*
X187377264Y-60862382D01*
X187391543Y-60865959D01*
X187405403Y-60870918D01*
X187418710Y-60877212D01*
X187431336Y-60884780D01*
X187443159Y-60893548D01*
X187454066Y-60903434D01*
X187463952Y-60914341D01*
X187472720Y-60926164D01*
X187480288Y-60938790D01*
X187486582Y-60952097D01*
X187491541Y-60965957D01*
X187495118Y-60980236D01*
X187497278Y-60994797D01*
X187498000Y-61009500D01*
X187498000Y-62434500D01*
X187497278Y-62449203D01*
X187495118Y-62463764D01*
X187491541Y-62478043D01*
X187486582Y-62491903D01*
X187480288Y-62505210D01*
X187472720Y-62517836D01*
X187463952Y-62529659D01*
X187454066Y-62540566D01*
X187443159Y-62550452D01*
X187431336Y-62559220D01*
X187418710Y-62566788D01*
X187405403Y-62573082D01*
X187391543Y-62578041D01*
X187377264Y-62581618D01*
X187362703Y-62583778D01*
X187348000Y-62584500D01*
X187048000Y-62584500D01*
X187033297Y-62583778D01*
X187018736Y-62581618D01*
X187004457Y-62578041D01*
X186990597Y-62573082D01*
X186977290Y-62566788D01*
X186964664Y-62559220D01*
X186952841Y-62550452D01*
X186941934Y-62540566D01*
X186932048Y-62529659D01*
X186923280Y-62517836D01*
X186915712Y-62505210D01*
X186909418Y-62491903D01*
X186904459Y-62478043D01*
X186900882Y-62463764D01*
X186898722Y-62449203D01*
X186898000Y-62434500D01*
X186898000Y-61009500D01*
X186898722Y-60994797D01*
X186900882Y-60980236D01*
X186904459Y-60965957D01*
X186909418Y-60952097D01*
X186915712Y-60938790D01*
X186923280Y-60926164D01*
X186932048Y-60914341D01*
X186941934Y-60903434D01*
X186952841Y-60893548D01*
X186964664Y-60884780D01*
X186977290Y-60877212D01*
X186990597Y-60870918D01*
X187004457Y-60865959D01*
X187018736Y-60862382D01*
X187033297Y-60860222D01*
X187048000Y-60859500D01*
X187348000Y-60859500D01*
X187362703Y-60860222D01*
G37*
G04 #@! TD.AperFunction*
G04 #@! TA.AperFunction,SMDPad,CuDef*
G36*
X186092703Y-60860222D02*
G01*
X186107264Y-60862382D01*
X186121543Y-60865959D01*
X186135403Y-60870918D01*
X186148710Y-60877212D01*
X186161336Y-60884780D01*
X186173159Y-60893548D01*
X186184066Y-60903434D01*
X186193952Y-60914341D01*
X186202720Y-60926164D01*
X186210288Y-60938790D01*
X186216582Y-60952097D01*
X186221541Y-60965957D01*
X186225118Y-60980236D01*
X186227278Y-60994797D01*
X186228000Y-61009500D01*
X186228000Y-62434500D01*
X186227278Y-62449203D01*
X186225118Y-62463764D01*
X186221541Y-62478043D01*
X186216582Y-62491903D01*
X186210288Y-62505210D01*
X186202720Y-62517836D01*
X186193952Y-62529659D01*
X186184066Y-62540566D01*
X186173159Y-62550452D01*
X186161336Y-62559220D01*
X186148710Y-62566788D01*
X186135403Y-62573082D01*
X186121543Y-62578041D01*
X186107264Y-62581618D01*
X186092703Y-62583778D01*
X186078000Y-62584500D01*
X185778000Y-62584500D01*
X185763297Y-62583778D01*
X185748736Y-62581618D01*
X185734457Y-62578041D01*
X185720597Y-62573082D01*
X185707290Y-62566788D01*
X185694664Y-62559220D01*
X185682841Y-62550452D01*
X185671934Y-62540566D01*
X185662048Y-62529659D01*
X185653280Y-62517836D01*
X185645712Y-62505210D01*
X185639418Y-62491903D01*
X185634459Y-62478043D01*
X185630882Y-62463764D01*
X185628722Y-62449203D01*
X185628000Y-62434500D01*
X185628000Y-61009500D01*
X185628722Y-60994797D01*
X185630882Y-60980236D01*
X185634459Y-60965957D01*
X185639418Y-60952097D01*
X185645712Y-60938790D01*
X185653280Y-60926164D01*
X185662048Y-60914341D01*
X185671934Y-60903434D01*
X185682841Y-60893548D01*
X185694664Y-60884780D01*
X185707290Y-60877212D01*
X185720597Y-60870918D01*
X185734457Y-60865959D01*
X185748736Y-60862382D01*
X185763297Y-60860222D01*
X185778000Y-60859500D01*
X186078000Y-60859500D01*
X186092703Y-60860222D01*
G37*
G04 #@! TD.AperFunction*
G04 #@! TA.AperFunction,SMDPad,CuDef*
G36*
X184822703Y-60860222D02*
G01*
X184837264Y-60862382D01*
X184851543Y-60865959D01*
X184865403Y-60870918D01*
X184878710Y-60877212D01*
X184891336Y-60884780D01*
X184903159Y-60893548D01*
X184914066Y-60903434D01*
X184923952Y-60914341D01*
X184932720Y-60926164D01*
X184940288Y-60938790D01*
X184946582Y-60952097D01*
X184951541Y-60965957D01*
X184955118Y-60980236D01*
X184957278Y-60994797D01*
X184958000Y-61009500D01*
X184958000Y-62434500D01*
X184957278Y-62449203D01*
X184955118Y-62463764D01*
X184951541Y-62478043D01*
X184946582Y-62491903D01*
X184940288Y-62505210D01*
X184932720Y-62517836D01*
X184923952Y-62529659D01*
X184914066Y-62540566D01*
X184903159Y-62550452D01*
X184891336Y-62559220D01*
X184878710Y-62566788D01*
X184865403Y-62573082D01*
X184851543Y-62578041D01*
X184837264Y-62581618D01*
X184822703Y-62583778D01*
X184808000Y-62584500D01*
X184508000Y-62584500D01*
X184493297Y-62583778D01*
X184478736Y-62581618D01*
X184464457Y-62578041D01*
X184450597Y-62573082D01*
X184437290Y-62566788D01*
X184424664Y-62559220D01*
X184412841Y-62550452D01*
X184401934Y-62540566D01*
X184392048Y-62529659D01*
X184383280Y-62517836D01*
X184375712Y-62505210D01*
X184369418Y-62491903D01*
X184364459Y-62478043D01*
X184360882Y-62463764D01*
X184358722Y-62449203D01*
X184358000Y-62434500D01*
X184358000Y-61009500D01*
X184358722Y-60994797D01*
X184360882Y-60980236D01*
X184364459Y-60965957D01*
X184369418Y-60952097D01*
X184375712Y-60938790D01*
X184383280Y-60926164D01*
X184392048Y-60914341D01*
X184401934Y-60903434D01*
X184412841Y-60893548D01*
X184424664Y-60884780D01*
X184437290Y-60877212D01*
X184450597Y-60870918D01*
X184464457Y-60865959D01*
X184478736Y-60862382D01*
X184493297Y-60860222D01*
X184508000Y-60859500D01*
X184808000Y-60859500D01*
X184822703Y-60860222D01*
G37*
G04 #@! TD.AperFunction*
G04 #@! TA.AperFunction,SMDPad,CuDef*
G36*
X183552703Y-60860222D02*
G01*
X183567264Y-60862382D01*
X183581543Y-60865959D01*
X183595403Y-60870918D01*
X183608710Y-60877212D01*
X183621336Y-60884780D01*
X183633159Y-60893548D01*
X183644066Y-60903434D01*
X183653952Y-60914341D01*
X183662720Y-60926164D01*
X183670288Y-60938790D01*
X183676582Y-60952097D01*
X183681541Y-60965957D01*
X183685118Y-60980236D01*
X183687278Y-60994797D01*
X183688000Y-61009500D01*
X183688000Y-62434500D01*
X183687278Y-62449203D01*
X183685118Y-62463764D01*
X183681541Y-62478043D01*
X183676582Y-62491903D01*
X183670288Y-62505210D01*
X183662720Y-62517836D01*
X183653952Y-62529659D01*
X183644066Y-62540566D01*
X183633159Y-62550452D01*
X183621336Y-62559220D01*
X183608710Y-62566788D01*
X183595403Y-62573082D01*
X183581543Y-62578041D01*
X183567264Y-62581618D01*
X183552703Y-62583778D01*
X183538000Y-62584500D01*
X183238000Y-62584500D01*
X183223297Y-62583778D01*
X183208736Y-62581618D01*
X183194457Y-62578041D01*
X183180597Y-62573082D01*
X183167290Y-62566788D01*
X183154664Y-62559220D01*
X183142841Y-62550452D01*
X183131934Y-62540566D01*
X183122048Y-62529659D01*
X183113280Y-62517836D01*
X183105712Y-62505210D01*
X183099418Y-62491903D01*
X183094459Y-62478043D01*
X183090882Y-62463764D01*
X183088722Y-62449203D01*
X183088000Y-62434500D01*
X183088000Y-61009500D01*
X183088722Y-60994797D01*
X183090882Y-60980236D01*
X183094459Y-60965957D01*
X183099418Y-60952097D01*
X183105712Y-60938790D01*
X183113280Y-60926164D01*
X183122048Y-60914341D01*
X183131934Y-60903434D01*
X183142841Y-60893548D01*
X183154664Y-60884780D01*
X183167290Y-60877212D01*
X183180597Y-60870918D01*
X183194457Y-60865959D01*
X183208736Y-60862382D01*
X183223297Y-60860222D01*
X183238000Y-60859500D01*
X183538000Y-60859500D01*
X183552703Y-60860222D01*
G37*
G04 #@! TD.AperFunction*
G04 #@! TA.AperFunction,SMDPad,CuDef*
G36*
X191682505Y-56474704D02*
G01*
X191706773Y-56478304D01*
X191730572Y-56484265D01*
X191753671Y-56492530D01*
X191775850Y-56503020D01*
X191796893Y-56515632D01*
X191816599Y-56530247D01*
X191834777Y-56546723D01*
X191851253Y-56564901D01*
X191865868Y-56584607D01*
X191878480Y-56605650D01*
X191888970Y-56627829D01*
X191897235Y-56650928D01*
X191903196Y-56674727D01*
X191906796Y-56698995D01*
X191908000Y-56723499D01*
X191908000Y-57798501D01*
X191906796Y-57823005D01*
X191903196Y-57847273D01*
X191897235Y-57871072D01*
X191888970Y-57894171D01*
X191878480Y-57916350D01*
X191865868Y-57937393D01*
X191851253Y-57957099D01*
X191834777Y-57975277D01*
X191816599Y-57991753D01*
X191796893Y-58006368D01*
X191775850Y-58018980D01*
X191753671Y-58029470D01*
X191730572Y-58037735D01*
X191706773Y-58043696D01*
X191682505Y-58047296D01*
X191658001Y-58048500D01*
X190357999Y-58048500D01*
X190333495Y-58047296D01*
X190309227Y-58043696D01*
X190285428Y-58037735D01*
X190262329Y-58029470D01*
X190240150Y-58018980D01*
X190219107Y-58006368D01*
X190199401Y-57991753D01*
X190181223Y-57975277D01*
X190164747Y-57957099D01*
X190150132Y-57937393D01*
X190137520Y-57916350D01*
X190127030Y-57894171D01*
X190118765Y-57871072D01*
X190112804Y-57847273D01*
X190109204Y-57823005D01*
X190108000Y-57798501D01*
X190108000Y-56723499D01*
X190109204Y-56698995D01*
X190112804Y-56674727D01*
X190118765Y-56650928D01*
X190127030Y-56627829D01*
X190137520Y-56605650D01*
X190150132Y-56584607D01*
X190164747Y-56564901D01*
X190181223Y-56546723D01*
X190199401Y-56530247D01*
X190219107Y-56515632D01*
X190240150Y-56503020D01*
X190262329Y-56492530D01*
X190285428Y-56484265D01*
X190309227Y-56478304D01*
X190333495Y-56474704D01*
X190357999Y-56473500D01*
X191658001Y-56473500D01*
X191682505Y-56474704D01*
G37*
G04 #@! TD.AperFunction*
G04 #@! TA.AperFunction,SMDPad,CuDef*
G36*
X191682505Y-52299704D02*
G01*
X191706773Y-52303304D01*
X191730572Y-52309265D01*
X191753671Y-52317530D01*
X191775850Y-52328020D01*
X191796893Y-52340632D01*
X191816599Y-52355247D01*
X191834777Y-52371723D01*
X191851253Y-52389901D01*
X191865868Y-52409607D01*
X191878480Y-52430650D01*
X191888970Y-52452829D01*
X191897235Y-52475928D01*
X191903196Y-52499727D01*
X191906796Y-52523995D01*
X191908000Y-52548499D01*
X191908000Y-53623501D01*
X191906796Y-53648005D01*
X191903196Y-53672273D01*
X191897235Y-53696072D01*
X191888970Y-53719171D01*
X191878480Y-53741350D01*
X191865868Y-53762393D01*
X191851253Y-53782099D01*
X191834777Y-53800277D01*
X191816599Y-53816753D01*
X191796893Y-53831368D01*
X191775850Y-53843980D01*
X191753671Y-53854470D01*
X191730572Y-53862735D01*
X191706773Y-53868696D01*
X191682505Y-53872296D01*
X191658001Y-53873500D01*
X190357999Y-53873500D01*
X190333495Y-53872296D01*
X190309227Y-53868696D01*
X190285428Y-53862735D01*
X190262329Y-53854470D01*
X190240150Y-53843980D01*
X190219107Y-53831368D01*
X190199401Y-53816753D01*
X190181223Y-53800277D01*
X190164747Y-53782099D01*
X190150132Y-53762393D01*
X190137520Y-53741350D01*
X190127030Y-53719171D01*
X190118765Y-53696072D01*
X190112804Y-53672273D01*
X190109204Y-53648005D01*
X190108000Y-53623501D01*
X190108000Y-52548499D01*
X190109204Y-52523995D01*
X190112804Y-52499727D01*
X190118765Y-52475928D01*
X190127030Y-52452829D01*
X190137520Y-52430650D01*
X190150132Y-52409607D01*
X190164747Y-52389901D01*
X190181223Y-52371723D01*
X190199401Y-52355247D01*
X190219107Y-52340632D01*
X190240150Y-52328020D01*
X190262329Y-52317530D01*
X190285428Y-52309265D01*
X190309227Y-52303304D01*
X190333495Y-52299704D01*
X190357999Y-52298500D01*
X191658001Y-52298500D01*
X191682505Y-52299704D01*
G37*
G04 #@! TD.AperFunction*
G04 #@! TA.AperFunction,SMDPad,CuDef*
G36*
X190733004Y-49418204D02*
G01*
X190757273Y-49421804D01*
X190781071Y-49427765D01*
X190804171Y-49436030D01*
X190826349Y-49446520D01*
X190847393Y-49459133D01*
X190867098Y-49473747D01*
X190885277Y-49490223D01*
X190901753Y-49508402D01*
X190916367Y-49528107D01*
X190928980Y-49549151D01*
X190939470Y-49571329D01*
X190947735Y-49594429D01*
X190953696Y-49618227D01*
X190957296Y-49642496D01*
X190958500Y-49667000D01*
X190958500Y-50917000D01*
X190957296Y-50941504D01*
X190953696Y-50965773D01*
X190947735Y-50989571D01*
X190939470Y-51012671D01*
X190928980Y-51034849D01*
X190916367Y-51055893D01*
X190901753Y-51075598D01*
X190885277Y-51093777D01*
X190867098Y-51110253D01*
X190847393Y-51124867D01*
X190826349Y-51137480D01*
X190804171Y-51147970D01*
X190781071Y-51156235D01*
X190757273Y-51162196D01*
X190733004Y-51165796D01*
X190708500Y-51167000D01*
X189783500Y-51167000D01*
X189758996Y-51165796D01*
X189734727Y-51162196D01*
X189710929Y-51156235D01*
X189687829Y-51147970D01*
X189665651Y-51137480D01*
X189644607Y-51124867D01*
X189624902Y-51110253D01*
X189606723Y-51093777D01*
X189590247Y-51075598D01*
X189575633Y-51055893D01*
X189563020Y-51034849D01*
X189552530Y-51012671D01*
X189544265Y-50989571D01*
X189538304Y-50965773D01*
X189534704Y-50941504D01*
X189533500Y-50917000D01*
X189533500Y-49667000D01*
X189534704Y-49642496D01*
X189538304Y-49618227D01*
X189544265Y-49594429D01*
X189552530Y-49571329D01*
X189563020Y-49549151D01*
X189575633Y-49528107D01*
X189590247Y-49508402D01*
X189606723Y-49490223D01*
X189624902Y-49473747D01*
X189644607Y-49459133D01*
X189665651Y-49446520D01*
X189687829Y-49436030D01*
X189710929Y-49427765D01*
X189734727Y-49421804D01*
X189758996Y-49418204D01*
X189783500Y-49417000D01*
X190708500Y-49417000D01*
X190733004Y-49418204D01*
G37*
G04 #@! TD.AperFunction*
G04 #@! TA.AperFunction,SMDPad,CuDef*
G36*
X187758004Y-49418204D02*
G01*
X187782273Y-49421804D01*
X187806071Y-49427765D01*
X187829171Y-49436030D01*
X187851349Y-49446520D01*
X187872393Y-49459133D01*
X187892098Y-49473747D01*
X187910277Y-49490223D01*
X187926753Y-49508402D01*
X187941367Y-49528107D01*
X187953980Y-49549151D01*
X187964470Y-49571329D01*
X187972735Y-49594429D01*
X187978696Y-49618227D01*
X187982296Y-49642496D01*
X187983500Y-49667000D01*
X187983500Y-50917000D01*
X187982296Y-50941504D01*
X187978696Y-50965773D01*
X187972735Y-50989571D01*
X187964470Y-51012671D01*
X187953980Y-51034849D01*
X187941367Y-51055893D01*
X187926753Y-51075598D01*
X187910277Y-51093777D01*
X187892098Y-51110253D01*
X187872393Y-51124867D01*
X187851349Y-51137480D01*
X187829171Y-51147970D01*
X187806071Y-51156235D01*
X187782273Y-51162196D01*
X187758004Y-51165796D01*
X187733500Y-51167000D01*
X186808500Y-51167000D01*
X186783996Y-51165796D01*
X186759727Y-51162196D01*
X186735929Y-51156235D01*
X186712829Y-51147970D01*
X186690651Y-51137480D01*
X186669607Y-51124867D01*
X186649902Y-51110253D01*
X186631723Y-51093777D01*
X186615247Y-51075598D01*
X186600633Y-51055893D01*
X186588020Y-51034849D01*
X186577530Y-51012671D01*
X186569265Y-50989571D01*
X186563304Y-50965773D01*
X186559704Y-50941504D01*
X186558500Y-50917000D01*
X186558500Y-49667000D01*
X186559704Y-49642496D01*
X186563304Y-49618227D01*
X186569265Y-49594429D01*
X186577530Y-49571329D01*
X186588020Y-49549151D01*
X186600633Y-49528107D01*
X186615247Y-49508402D01*
X186631723Y-49490223D01*
X186649902Y-49473747D01*
X186669607Y-49459133D01*
X186690651Y-49446520D01*
X186712829Y-49436030D01*
X186735929Y-49427765D01*
X186759727Y-49421804D01*
X186783996Y-49418204D01*
X186808500Y-49417000D01*
X187733500Y-49417000D01*
X187758004Y-49418204D01*
G37*
G04 #@! TD.AperFunction*
D16*
X206502000Y-63500000D03*
X203702000Y-63500000D03*
X197612000Y-67948000D03*
X197612000Y-65148000D03*
X201428000Y-62484000D03*
X198628000Y-62484000D03*
G04 #@! TA.AperFunction,SMDPad,CuDef*
D10*
G36*
X201344504Y-54827204D02*
G01*
X201368773Y-54830804D01*
X201392571Y-54836765D01*
X201415671Y-54845030D01*
X201437849Y-54855520D01*
X201458893Y-54868133D01*
X201478598Y-54882747D01*
X201496777Y-54899223D01*
X201513253Y-54917402D01*
X201527867Y-54937107D01*
X201540480Y-54958151D01*
X201550970Y-54980329D01*
X201559235Y-55003429D01*
X201565196Y-55027227D01*
X201568796Y-55051496D01*
X201570000Y-55076000D01*
X201570000Y-56176000D01*
X201568796Y-56200504D01*
X201565196Y-56224773D01*
X201559235Y-56248571D01*
X201550970Y-56271671D01*
X201540480Y-56293849D01*
X201527867Y-56314893D01*
X201513253Y-56334598D01*
X201496777Y-56352777D01*
X201478598Y-56369253D01*
X201458893Y-56383867D01*
X201437849Y-56396480D01*
X201415671Y-56406970D01*
X201392571Y-56415235D01*
X201368773Y-56421196D01*
X201344504Y-56424796D01*
X201320000Y-56426000D01*
X198820000Y-56426000D01*
X198795496Y-56424796D01*
X198771227Y-56421196D01*
X198747429Y-56415235D01*
X198724329Y-56406970D01*
X198702151Y-56396480D01*
X198681107Y-56383867D01*
X198661402Y-56369253D01*
X198643223Y-56352777D01*
X198626747Y-56334598D01*
X198612133Y-56314893D01*
X198599520Y-56293849D01*
X198589030Y-56271671D01*
X198580765Y-56248571D01*
X198574804Y-56224773D01*
X198571204Y-56200504D01*
X198570000Y-56176000D01*
X198570000Y-55076000D01*
X198571204Y-55051496D01*
X198574804Y-55027227D01*
X198580765Y-55003429D01*
X198589030Y-54980329D01*
X198599520Y-54958151D01*
X198612133Y-54937107D01*
X198626747Y-54917402D01*
X198643223Y-54899223D01*
X198661402Y-54882747D01*
X198681107Y-54868133D01*
X198702151Y-54855520D01*
X198724329Y-54845030D01*
X198747429Y-54836765D01*
X198771227Y-54830804D01*
X198795496Y-54827204D01*
X198820000Y-54826000D01*
X201320000Y-54826000D01*
X201344504Y-54827204D01*
G37*
G04 #@! TD.AperFunction*
G04 #@! TA.AperFunction,SMDPad,CuDef*
G36*
X205744504Y-54827204D02*
G01*
X205768773Y-54830804D01*
X205792571Y-54836765D01*
X205815671Y-54845030D01*
X205837849Y-54855520D01*
X205858893Y-54868133D01*
X205878598Y-54882747D01*
X205896777Y-54899223D01*
X205913253Y-54917402D01*
X205927867Y-54937107D01*
X205940480Y-54958151D01*
X205950970Y-54980329D01*
X205959235Y-55003429D01*
X205965196Y-55027227D01*
X205968796Y-55051496D01*
X205970000Y-55076000D01*
X205970000Y-56176000D01*
X205968796Y-56200504D01*
X205965196Y-56224773D01*
X205959235Y-56248571D01*
X205950970Y-56271671D01*
X205940480Y-56293849D01*
X205927867Y-56314893D01*
X205913253Y-56334598D01*
X205896777Y-56352777D01*
X205878598Y-56369253D01*
X205858893Y-56383867D01*
X205837849Y-56396480D01*
X205815671Y-56406970D01*
X205792571Y-56415235D01*
X205768773Y-56421196D01*
X205744504Y-56424796D01*
X205720000Y-56426000D01*
X203220000Y-56426000D01*
X203195496Y-56424796D01*
X203171227Y-56421196D01*
X203147429Y-56415235D01*
X203124329Y-56406970D01*
X203102151Y-56396480D01*
X203081107Y-56383867D01*
X203061402Y-56369253D01*
X203043223Y-56352777D01*
X203026747Y-56334598D01*
X203012133Y-56314893D01*
X202999520Y-56293849D01*
X202989030Y-56271671D01*
X202980765Y-56248571D01*
X202974804Y-56224773D01*
X202971204Y-56200504D01*
X202970000Y-56176000D01*
X202970000Y-55076000D01*
X202971204Y-55051496D01*
X202974804Y-55027227D01*
X202980765Y-55003429D01*
X202989030Y-54980329D01*
X202999520Y-54958151D01*
X203012133Y-54937107D01*
X203026747Y-54917402D01*
X203043223Y-54899223D01*
X203061402Y-54882747D01*
X203081107Y-54868133D01*
X203102151Y-54855520D01*
X203124329Y-54845030D01*
X203147429Y-54836765D01*
X203171227Y-54830804D01*
X203195496Y-54827204D01*
X203220000Y-54826000D01*
X205720000Y-54826000D01*
X205744504Y-54827204D01*
G37*
G04 #@! TD.AperFunction*
G04 #@! TA.AperFunction,SMDPad,CuDef*
G36*
X195412504Y-68035204D02*
G01*
X195436773Y-68038804D01*
X195460571Y-68044765D01*
X195483671Y-68053030D01*
X195505849Y-68063520D01*
X195526893Y-68076133D01*
X195546598Y-68090747D01*
X195564777Y-68107223D01*
X195581253Y-68125402D01*
X195595867Y-68145107D01*
X195608480Y-68166151D01*
X195618970Y-68188329D01*
X195627235Y-68211429D01*
X195633196Y-68235227D01*
X195636796Y-68259496D01*
X195638000Y-68284000D01*
X195638000Y-69384000D01*
X195636796Y-69408504D01*
X195633196Y-69432773D01*
X195627235Y-69456571D01*
X195618970Y-69479671D01*
X195608480Y-69501849D01*
X195595867Y-69522893D01*
X195581253Y-69542598D01*
X195564777Y-69560777D01*
X195546598Y-69577253D01*
X195526893Y-69591867D01*
X195505849Y-69604480D01*
X195483671Y-69614970D01*
X195460571Y-69623235D01*
X195436773Y-69629196D01*
X195412504Y-69632796D01*
X195388000Y-69634000D01*
X192888000Y-69634000D01*
X192863496Y-69632796D01*
X192839227Y-69629196D01*
X192815429Y-69623235D01*
X192792329Y-69614970D01*
X192770151Y-69604480D01*
X192749107Y-69591867D01*
X192729402Y-69577253D01*
X192711223Y-69560777D01*
X192694747Y-69542598D01*
X192680133Y-69522893D01*
X192667520Y-69501849D01*
X192657030Y-69479671D01*
X192648765Y-69456571D01*
X192642804Y-69432773D01*
X192639204Y-69408504D01*
X192638000Y-69384000D01*
X192638000Y-68284000D01*
X192639204Y-68259496D01*
X192642804Y-68235227D01*
X192648765Y-68211429D01*
X192657030Y-68188329D01*
X192667520Y-68166151D01*
X192680133Y-68145107D01*
X192694747Y-68125402D01*
X192711223Y-68107223D01*
X192729402Y-68090747D01*
X192749107Y-68076133D01*
X192770151Y-68063520D01*
X192792329Y-68053030D01*
X192815429Y-68044765D01*
X192839227Y-68038804D01*
X192863496Y-68035204D01*
X192888000Y-68034000D01*
X195388000Y-68034000D01*
X195412504Y-68035204D01*
G37*
G04 #@! TD.AperFunction*
G04 #@! TA.AperFunction,SMDPad,CuDef*
G36*
X191012504Y-68035204D02*
G01*
X191036773Y-68038804D01*
X191060571Y-68044765D01*
X191083671Y-68053030D01*
X191105849Y-68063520D01*
X191126893Y-68076133D01*
X191146598Y-68090747D01*
X191164777Y-68107223D01*
X191181253Y-68125402D01*
X191195867Y-68145107D01*
X191208480Y-68166151D01*
X191218970Y-68188329D01*
X191227235Y-68211429D01*
X191233196Y-68235227D01*
X191236796Y-68259496D01*
X191238000Y-68284000D01*
X191238000Y-69384000D01*
X191236796Y-69408504D01*
X191233196Y-69432773D01*
X191227235Y-69456571D01*
X191218970Y-69479671D01*
X191208480Y-69501849D01*
X191195867Y-69522893D01*
X191181253Y-69542598D01*
X191164777Y-69560777D01*
X191146598Y-69577253D01*
X191126893Y-69591867D01*
X191105849Y-69604480D01*
X191083671Y-69614970D01*
X191060571Y-69623235D01*
X191036773Y-69629196D01*
X191012504Y-69632796D01*
X190988000Y-69634000D01*
X188488000Y-69634000D01*
X188463496Y-69632796D01*
X188439227Y-69629196D01*
X188415429Y-69623235D01*
X188392329Y-69614970D01*
X188370151Y-69604480D01*
X188349107Y-69591867D01*
X188329402Y-69577253D01*
X188311223Y-69560777D01*
X188294747Y-69542598D01*
X188280133Y-69522893D01*
X188267520Y-69501849D01*
X188257030Y-69479671D01*
X188248765Y-69456571D01*
X188242804Y-69432773D01*
X188239204Y-69408504D01*
X188238000Y-69384000D01*
X188238000Y-68284000D01*
X188239204Y-68259496D01*
X188242804Y-68235227D01*
X188248765Y-68211429D01*
X188257030Y-68188329D01*
X188267520Y-68166151D01*
X188280133Y-68145107D01*
X188294747Y-68125402D01*
X188311223Y-68107223D01*
X188329402Y-68090747D01*
X188349107Y-68076133D01*
X188370151Y-68063520D01*
X188392329Y-68053030D01*
X188415429Y-68044765D01*
X188439227Y-68038804D01*
X188463496Y-68035204D01*
X188488000Y-68034000D01*
X190988000Y-68034000D01*
X191012504Y-68035204D01*
G37*
G04 #@! TD.AperFunction*
G04 #@! TA.AperFunction,SMDPad,CuDef*
G36*
X197308504Y-59427204D02*
G01*
X197332773Y-59430804D01*
X197356571Y-59436765D01*
X197379671Y-59445030D01*
X197401849Y-59455520D01*
X197422893Y-59468133D01*
X197442598Y-59482747D01*
X197460777Y-59499223D01*
X197477253Y-59517402D01*
X197491867Y-59537107D01*
X197504480Y-59558151D01*
X197514970Y-59580329D01*
X197523235Y-59603429D01*
X197529196Y-59627227D01*
X197532796Y-59651496D01*
X197534000Y-59676000D01*
X197534000Y-60476000D01*
X197532796Y-60500504D01*
X197529196Y-60524773D01*
X197523235Y-60548571D01*
X197514970Y-60571671D01*
X197504480Y-60593849D01*
X197491867Y-60614893D01*
X197477253Y-60634598D01*
X197460777Y-60652777D01*
X197442598Y-60669253D01*
X197422893Y-60683867D01*
X197401849Y-60696480D01*
X197379671Y-60706970D01*
X197356571Y-60715235D01*
X197332773Y-60721196D01*
X197308504Y-60724796D01*
X197284000Y-60726000D01*
X194384000Y-60726000D01*
X194359496Y-60724796D01*
X194335227Y-60721196D01*
X194311429Y-60715235D01*
X194288329Y-60706970D01*
X194266151Y-60696480D01*
X194245107Y-60683867D01*
X194225402Y-60669253D01*
X194207223Y-60652777D01*
X194190747Y-60634598D01*
X194176133Y-60614893D01*
X194163520Y-60593849D01*
X194153030Y-60571671D01*
X194144765Y-60548571D01*
X194138804Y-60524773D01*
X194135204Y-60500504D01*
X194134000Y-60476000D01*
X194134000Y-59676000D01*
X194135204Y-59651496D01*
X194138804Y-59627227D01*
X194144765Y-59603429D01*
X194153030Y-59580329D01*
X194163520Y-59558151D01*
X194176133Y-59537107D01*
X194190747Y-59517402D01*
X194207223Y-59499223D01*
X194225402Y-59482747D01*
X194245107Y-59468133D01*
X194266151Y-59455520D01*
X194288329Y-59445030D01*
X194311429Y-59436765D01*
X194335227Y-59430804D01*
X194359496Y-59427204D01*
X194384000Y-59426000D01*
X197284000Y-59426000D01*
X197308504Y-59427204D01*
G37*
G04 #@! TD.AperFunction*
G04 #@! TA.AperFunction,SMDPad,CuDef*
G36*
X197308504Y-54977204D02*
G01*
X197332773Y-54980804D01*
X197356571Y-54986765D01*
X197379671Y-54995030D01*
X197401849Y-55005520D01*
X197422893Y-55018133D01*
X197442598Y-55032747D01*
X197460777Y-55049223D01*
X197477253Y-55067402D01*
X197491867Y-55087107D01*
X197504480Y-55108151D01*
X197514970Y-55130329D01*
X197523235Y-55153429D01*
X197529196Y-55177227D01*
X197532796Y-55201496D01*
X197534000Y-55226000D01*
X197534000Y-56026000D01*
X197532796Y-56050504D01*
X197529196Y-56074773D01*
X197523235Y-56098571D01*
X197514970Y-56121671D01*
X197504480Y-56143849D01*
X197491867Y-56164893D01*
X197477253Y-56184598D01*
X197460777Y-56202777D01*
X197442598Y-56219253D01*
X197422893Y-56233867D01*
X197401849Y-56246480D01*
X197379671Y-56256970D01*
X197356571Y-56265235D01*
X197332773Y-56271196D01*
X197308504Y-56274796D01*
X197284000Y-56276000D01*
X194384000Y-56276000D01*
X194359496Y-56274796D01*
X194335227Y-56271196D01*
X194311429Y-56265235D01*
X194288329Y-56256970D01*
X194266151Y-56246480D01*
X194245107Y-56233867D01*
X194225402Y-56219253D01*
X194207223Y-56202777D01*
X194190747Y-56184598D01*
X194176133Y-56164893D01*
X194163520Y-56143849D01*
X194153030Y-56121671D01*
X194144765Y-56098571D01*
X194138804Y-56074773D01*
X194135204Y-56050504D01*
X194134000Y-56026000D01*
X194134000Y-55226000D01*
X194135204Y-55201496D01*
X194138804Y-55177227D01*
X194144765Y-55153429D01*
X194153030Y-55130329D01*
X194163520Y-55108151D01*
X194176133Y-55087107D01*
X194190747Y-55067402D01*
X194207223Y-55049223D01*
X194225402Y-55032747D01*
X194245107Y-55018133D01*
X194266151Y-55005520D01*
X194288329Y-54995030D01*
X194311429Y-54986765D01*
X194335227Y-54980804D01*
X194359496Y-54977204D01*
X194384000Y-54976000D01*
X197284000Y-54976000D01*
X197308504Y-54977204D01*
G37*
G04 #@! TD.AperFunction*
G04 #@! TA.AperFunction,SMDPad,CuDef*
G36*
X193019004Y-62684204D02*
G01*
X193043273Y-62687804D01*
X193067071Y-62693765D01*
X193090171Y-62702030D01*
X193112349Y-62712520D01*
X193133393Y-62725133D01*
X193153098Y-62739747D01*
X193171277Y-62756223D01*
X193187753Y-62774402D01*
X193202367Y-62794107D01*
X193214980Y-62815151D01*
X193225470Y-62837329D01*
X193233735Y-62860429D01*
X193239696Y-62884227D01*
X193243296Y-62908496D01*
X193244500Y-62933000D01*
X193244500Y-65083000D01*
X193243296Y-65107504D01*
X193239696Y-65131773D01*
X193233735Y-65155571D01*
X193225470Y-65178671D01*
X193214980Y-65200849D01*
X193202367Y-65221893D01*
X193187753Y-65241598D01*
X193171277Y-65259777D01*
X193153098Y-65276253D01*
X193133393Y-65290867D01*
X193112349Y-65303480D01*
X193090171Y-65313970D01*
X193067071Y-65322235D01*
X193043273Y-65328196D01*
X193019004Y-65331796D01*
X192994500Y-65333000D01*
X192069500Y-65333000D01*
X192044996Y-65331796D01*
X192020727Y-65328196D01*
X191996929Y-65322235D01*
X191973829Y-65313970D01*
X191951651Y-65303480D01*
X191930607Y-65290867D01*
X191910902Y-65276253D01*
X191892723Y-65259777D01*
X191876247Y-65241598D01*
X191861633Y-65221893D01*
X191849020Y-65200849D01*
X191838530Y-65178671D01*
X191830265Y-65155571D01*
X191824304Y-65131773D01*
X191820704Y-65107504D01*
X191819500Y-65083000D01*
X191819500Y-62933000D01*
X191820704Y-62908496D01*
X191824304Y-62884227D01*
X191830265Y-62860429D01*
X191838530Y-62837329D01*
X191849020Y-62815151D01*
X191861633Y-62794107D01*
X191876247Y-62774402D01*
X191892723Y-62756223D01*
X191910902Y-62739747D01*
X191930607Y-62725133D01*
X191951651Y-62712520D01*
X191973829Y-62702030D01*
X191996929Y-62693765D01*
X192020727Y-62687804D01*
X192044996Y-62684204D01*
X192069500Y-62683000D01*
X192994500Y-62683000D01*
X193019004Y-62684204D01*
G37*
G04 #@! TD.AperFunction*
G04 #@! TA.AperFunction,SMDPad,CuDef*
G36*
X190044004Y-62684204D02*
G01*
X190068273Y-62687804D01*
X190092071Y-62693765D01*
X190115171Y-62702030D01*
X190137349Y-62712520D01*
X190158393Y-62725133D01*
X190178098Y-62739747D01*
X190196277Y-62756223D01*
X190212753Y-62774402D01*
X190227367Y-62794107D01*
X190239980Y-62815151D01*
X190250470Y-62837329D01*
X190258735Y-62860429D01*
X190264696Y-62884227D01*
X190268296Y-62908496D01*
X190269500Y-62933000D01*
X190269500Y-65083000D01*
X190268296Y-65107504D01*
X190264696Y-65131773D01*
X190258735Y-65155571D01*
X190250470Y-65178671D01*
X190239980Y-65200849D01*
X190227367Y-65221893D01*
X190212753Y-65241598D01*
X190196277Y-65259777D01*
X190178098Y-65276253D01*
X190158393Y-65290867D01*
X190137349Y-65303480D01*
X190115171Y-65313970D01*
X190092071Y-65322235D01*
X190068273Y-65328196D01*
X190044004Y-65331796D01*
X190019500Y-65333000D01*
X189094500Y-65333000D01*
X189069996Y-65331796D01*
X189045727Y-65328196D01*
X189021929Y-65322235D01*
X188998829Y-65313970D01*
X188976651Y-65303480D01*
X188955607Y-65290867D01*
X188935902Y-65276253D01*
X188917723Y-65259777D01*
X188901247Y-65241598D01*
X188886633Y-65221893D01*
X188874020Y-65200849D01*
X188863530Y-65178671D01*
X188855265Y-65155571D01*
X188849304Y-65131773D01*
X188845704Y-65107504D01*
X188844500Y-65083000D01*
X188844500Y-62933000D01*
X188845704Y-62908496D01*
X188849304Y-62884227D01*
X188855265Y-62860429D01*
X188863530Y-62837329D01*
X188874020Y-62815151D01*
X188886633Y-62794107D01*
X188901247Y-62774402D01*
X188917723Y-62756223D01*
X188935902Y-62739747D01*
X188955607Y-62725133D01*
X188976651Y-62712520D01*
X188998829Y-62702030D01*
X189021929Y-62693765D01*
X189045727Y-62687804D01*
X189069996Y-62684204D01*
X189094500Y-62683000D01*
X190019500Y-62683000D01*
X190044004Y-62684204D01*
G37*
G04 #@! TD.AperFunction*
D17*
X178816000Y-62992000D03*
D15*
X184404000Y-64262000D03*
X195072000Y-64262000D03*
D17*
X193548000Y-44450000D03*
X197358000Y-44450000D03*
X205740000Y-59690000D03*
X178816000Y-53340000D03*
X178816000Y-57912000D03*
D15*
X186182000Y-59944000D03*
D18*
X196484000Y-59426000D02*
X196484000Y-59040000D01*
X195834000Y-60076000D02*
X196484000Y-59426000D01*
X196484000Y-59040000D02*
X199898000Y-55626000D01*
X183388000Y-61722000D02*
X183388000Y-63246000D01*
X183388000Y-63246000D02*
X184404000Y-64262000D01*
X195072000Y-64262000D02*
X192786000Y-64262000D01*
X192786000Y-64262000D02*
X192532000Y-64008000D01*
X195072000Y-64262000D02*
X196850000Y-64262000D01*
X196850000Y-64262000D02*
X197866000Y-65278000D01*
X195471999Y-63862001D02*
X195471999Y-60560001D01*
X195072000Y-64262000D02*
X195471999Y-63862001D01*
X195471999Y-60560001D02*
X195834000Y-60198000D01*
X183134000Y-62992000D02*
X178816000Y-62992000D01*
X183388000Y-63246000D02*
X183134000Y-62992000D01*
X185928000Y-55359500D02*
X187718500Y-57150000D01*
X185928000Y-54497000D02*
X185928000Y-55359500D01*
X187718500Y-57150000D02*
X191008000Y-57150000D01*
X187718500Y-57150000D02*
X187452000Y-57150000D01*
X184658000Y-59944000D02*
X184658000Y-61722000D01*
X190269500Y-63295500D02*
X190269500Y-62507500D01*
X189557000Y-64008000D02*
X190269500Y-63295500D01*
X190269500Y-62507500D02*
X186182000Y-58420000D01*
X187452000Y-57150000D02*
X186182000Y-58420000D01*
X186182000Y-58420000D02*
X184658000Y-59944000D01*
X194705000Y-54497000D02*
X195834000Y-55626000D01*
X187198000Y-54497000D02*
X194705000Y-54497000D01*
X195834000Y-55626000D02*
X196088000Y-55626000D01*
X194938000Y-68034000D02*
X197574000Y-68034000D01*
X194138000Y-68834000D02*
X194938000Y-68034000D01*
X197574000Y-68034000D02*
X197612000Y-68072000D01*
X197612000Y-67948000D02*
X197736000Y-67948000D01*
X197736000Y-67948000D02*
X199390000Y-66294000D01*
X199390000Y-66294000D02*
X199644000Y-66040000D01*
X199644000Y-66040000D02*
X199644000Y-64516000D01*
X199644000Y-64516000D02*
X198628000Y-63500000D01*
X198628000Y-63500000D02*
X198628000Y-62484000D01*
X188976000Y-68834000D02*
X189738000Y-68834000D01*
X185928000Y-61722000D02*
X185928000Y-65786000D01*
X185928000Y-65786000D02*
X188976000Y-68834000D01*
X202328000Y-62484000D02*
X203344000Y-63500000D01*
X201428000Y-62484000D02*
X202328000Y-62484000D01*
X203344000Y-63500000D02*
X203708000Y-63500000D01*
X202328000Y-62484000D02*
X203962000Y-60850000D01*
X203962000Y-60850000D02*
X203962000Y-55372000D01*
X203962000Y-55372000D02*
X204216000Y-55626000D01*
X204216000Y-55626000D02*
X204470000Y-55626000D01*
X197358000Y-47714000D02*
X197358000Y-44450000D01*
X204470000Y-55626000D02*
X204470000Y-54826000D01*
X204470000Y-54826000D02*
X197358000Y-47714000D01*
X205740000Y-59690000D02*
X206502000Y-60452000D01*
X206502000Y-60452000D02*
X206502000Y-63500000D01*
X190108000Y-53086000D02*
X189346000Y-52324000D01*
X191008000Y-53086000D02*
X190108000Y-53086000D01*
X189346000Y-52324000D02*
X186496022Y-52324000D01*
X186496022Y-52324000D02*
X185928000Y-52324000D01*
X185928000Y-52324000D02*
X184658000Y-53594000D01*
X184658000Y-53594000D02*
X184658000Y-54610000D01*
X189346000Y-52324000D02*
X190246000Y-51424000D01*
X190246000Y-51424000D02*
X190246000Y-50292000D01*
X183388000Y-54497000D02*
X183388000Y-53634500D01*
X186730500Y-50292000D02*
X187198000Y-50292000D01*
X183388000Y-53634500D02*
X183916250Y-53106250D01*
X183916250Y-53106250D02*
X186730500Y-50292000D01*
X180086000Y-52070000D02*
X178816000Y-53340000D01*
X183916250Y-53106250D02*
X182880000Y-52070000D01*
X182880000Y-52070000D02*
X180086000Y-52070000D01*
X186182000Y-59944000D02*
X187198000Y-60960000D01*
X187198000Y-60960000D02*
X187198000Y-61468000D01*
D19*
G36*
X196130629Y-43793957D02*
G01*
X196026225Y-44046011D01*
X195973000Y-44313589D01*
X195973000Y-44586411D01*
X196026225Y-44853989D01*
X196130629Y-45106043D01*
X196282201Y-45332886D01*
X196475114Y-45525799D01*
X196548001Y-45574500D01*
X196548000Y-47674212D01*
X196544081Y-47714000D01*
X196548000Y-47753788D01*
X196548000Y-47753790D01*
X196559720Y-47872787D01*
X196606037Y-48025472D01*
X196622451Y-48056180D01*
X196681251Y-48166189D01*
X196712703Y-48204513D01*
X196782472Y-48289528D01*
X196813388Y-48314900D01*
X202797951Y-54299464D01*
X202726614Y-54337595D01*
X202592038Y-54448038D01*
X202481595Y-54582614D01*
X202399528Y-54736150D01*
X202348992Y-54902746D01*
X202331928Y-55076000D01*
X202331928Y-56176000D01*
X202348992Y-56349254D01*
X202399528Y-56515850D01*
X202481595Y-56669386D01*
X202592038Y-56803962D01*
X202726614Y-56914405D01*
X202880150Y-56996472D01*
X203046746Y-57047008D01*
X203152001Y-57057375D01*
X203152000Y-60514487D01*
X202287223Y-61379265D01*
X202222180Y-61344498D01*
X202102482Y-61308188D01*
X201978000Y-61295928D01*
X200878000Y-61295928D01*
X200753518Y-61308188D01*
X200633820Y-61344498D01*
X200523506Y-61403463D01*
X200426815Y-61482815D01*
X200347463Y-61579506D01*
X200288498Y-61689820D01*
X200252188Y-61809518D01*
X200239928Y-61934000D01*
X200239928Y-63034000D01*
X200252188Y-63158482D01*
X200288498Y-63278180D01*
X200347463Y-63388494D01*
X200426815Y-63485185D01*
X200523506Y-63564537D01*
X200633820Y-63623502D01*
X200753518Y-63659812D01*
X200878000Y-63672072D01*
X201978000Y-63672072D01*
X202102482Y-63659812D01*
X202222180Y-63623502D01*
X202287223Y-63588735D01*
X202513928Y-63815440D01*
X202513928Y-64050000D01*
X202526188Y-64174482D01*
X202562498Y-64294180D01*
X202621463Y-64404494D01*
X202654705Y-64445000D01*
X202538738Y-64445000D01*
X201739865Y-64603906D01*
X200987343Y-64915611D01*
X200454000Y-65271979D01*
X200454000Y-64555788D01*
X200457919Y-64516000D01*
X200450926Y-64445000D01*
X200442280Y-64357212D01*
X200395963Y-64204527D01*
X200327012Y-64075528D01*
X200320749Y-64063810D01*
X200274946Y-64008000D01*
X200219528Y-63940472D01*
X200188612Y-63915100D01*
X199687563Y-63414051D01*
X199708537Y-63388494D01*
X199767502Y-63278180D01*
X199803812Y-63158482D01*
X199816072Y-63034000D01*
X199816072Y-61934000D01*
X199803812Y-61809518D01*
X199767502Y-61689820D01*
X199708537Y-61579506D01*
X199629185Y-61482815D01*
X199532494Y-61403463D01*
X199422180Y-61344498D01*
X199302482Y-61308188D01*
X199178000Y-61295928D01*
X198078000Y-61295928D01*
X197953518Y-61308188D01*
X197833820Y-61344498D01*
X197723506Y-61403463D01*
X197626815Y-61482815D01*
X197547463Y-61579506D01*
X197488498Y-61689820D01*
X197452188Y-61809518D01*
X197439928Y-61934000D01*
X197439928Y-63034000D01*
X197452188Y-63158482D01*
X197488498Y-63278180D01*
X197547463Y-63388494D01*
X197626815Y-63485185D01*
X197723506Y-63564537D01*
X197825824Y-63619228D01*
X197829720Y-63658787D01*
X197876037Y-63811472D01*
X197876038Y-63811473D01*
X197951251Y-63952189D01*
X197959534Y-63962282D01*
X197897750Y-63963000D01*
X197739000Y-64121750D01*
X197739000Y-65021000D01*
X198638250Y-65021000D01*
X198797000Y-64862250D01*
X198797549Y-64815061D01*
X198834001Y-64851513D01*
X198834000Y-65704487D01*
X198795657Y-65742830D01*
X198800072Y-65698000D01*
X198797000Y-65433750D01*
X198638250Y-65275000D01*
X197739000Y-65275000D01*
X197739000Y-66174250D01*
X197897750Y-66333000D01*
X198162000Y-66336072D01*
X198206831Y-66331657D01*
X197778560Y-66759928D01*
X197062000Y-66759928D01*
X196937518Y-66772188D01*
X196817820Y-66808498D01*
X196707506Y-66867463D01*
X196610815Y-66946815D01*
X196531463Y-67043506D01*
X196472498Y-67153820D01*
X196451209Y-67224000D01*
X194977788Y-67224000D01*
X194938000Y-67220081D01*
X194898212Y-67224000D01*
X194898209Y-67224000D01*
X194779212Y-67235720D01*
X194626527Y-67282037D01*
X194561024Y-67317049D01*
X194485810Y-67357251D01*
X194438682Y-67395928D01*
X192888000Y-67395928D01*
X192714746Y-67412992D01*
X192548150Y-67463528D01*
X192394614Y-67545595D01*
X192260038Y-67656038D01*
X192149595Y-67790614D01*
X192067528Y-67944150D01*
X192016992Y-68110746D01*
X191999928Y-68284000D01*
X191999928Y-69384000D01*
X192016992Y-69557254D01*
X192067528Y-69723850D01*
X192149595Y-69877386D01*
X192260038Y-70011962D01*
X192394614Y-70122405D01*
X192548150Y-70204472D01*
X192714746Y-70255008D01*
X192888000Y-70272072D01*
X195388000Y-70272072D01*
X195561254Y-70255008D01*
X195727850Y-70204472D01*
X195881386Y-70122405D01*
X196015962Y-70011962D01*
X196126405Y-69877386D01*
X196208472Y-69723850D01*
X196259008Y-69557254D01*
X196276072Y-69384000D01*
X196276072Y-68844000D01*
X196526923Y-68844000D01*
X196531463Y-68852494D01*
X196610815Y-68949185D01*
X196707506Y-69028537D01*
X196817820Y-69087502D01*
X196937518Y-69123812D01*
X197062000Y-69136072D01*
X198162000Y-69136072D01*
X198286482Y-69123812D01*
X198406180Y-69087502D01*
X198516494Y-69028537D01*
X198613185Y-68949185D01*
X198692537Y-68852494D01*
X198751502Y-68742180D01*
X198787812Y-68622482D01*
X198800072Y-68498000D01*
X198800072Y-68029440D01*
X198849295Y-67980218D01*
X198811000Y-68172738D01*
X198811000Y-68987262D01*
X198969906Y-69786135D01*
X199281611Y-70538657D01*
X199734136Y-71215909D01*
X200310091Y-71791864D01*
X200987343Y-72244389D01*
X201585128Y-72492000D01*
X183224872Y-72492000D01*
X183822657Y-72244389D01*
X184499909Y-71791864D01*
X185075864Y-71215909D01*
X185528389Y-70538657D01*
X185840094Y-69786135D01*
X185999000Y-68987262D01*
X185999000Y-68172738D01*
X185840094Y-67373865D01*
X185528389Y-66621343D01*
X185357595Y-66365731D01*
X185383383Y-66386895D01*
X187599928Y-68603441D01*
X187599928Y-69384000D01*
X187616992Y-69557254D01*
X187667528Y-69723850D01*
X187749595Y-69877386D01*
X187860038Y-70011962D01*
X187994614Y-70122405D01*
X188148150Y-70204472D01*
X188314746Y-70255008D01*
X188488000Y-70272072D01*
X190988000Y-70272072D01*
X191161254Y-70255008D01*
X191327850Y-70204472D01*
X191481386Y-70122405D01*
X191615962Y-70011962D01*
X191726405Y-69877386D01*
X191808472Y-69723850D01*
X191859008Y-69557254D01*
X191876072Y-69384000D01*
X191876072Y-68284000D01*
X191859008Y-68110746D01*
X191808472Y-67944150D01*
X191726405Y-67790614D01*
X191615962Y-67656038D01*
X191481386Y-67545595D01*
X191327850Y-67463528D01*
X191161254Y-67412992D01*
X190988000Y-67395928D01*
X188683441Y-67395928D01*
X186738000Y-65450488D01*
X186738000Y-63158084D01*
X186746418Y-63162584D01*
X186894255Y-63207429D01*
X187048000Y-63222572D01*
X187348000Y-63222572D01*
X187501745Y-63207429D01*
X187649582Y-63162584D01*
X187785829Y-63089758D01*
X187905251Y-62991751D01*
X188003258Y-62872329D01*
X188076084Y-62736082D01*
X188120929Y-62588245D01*
X188136072Y-62434500D01*
X188136072Y-61519585D01*
X188737945Y-62121457D01*
X188601114Y-62194595D01*
X188466538Y-62305038D01*
X188356095Y-62439614D01*
X188274028Y-62593150D01*
X188223492Y-62759746D01*
X188206428Y-62933000D01*
X188206428Y-65083000D01*
X188223492Y-65256254D01*
X188274028Y-65422850D01*
X188356095Y-65576386D01*
X188466538Y-65710962D01*
X188601114Y-65821405D01*
X188754650Y-65903472D01*
X188921246Y-65954008D01*
X189094500Y-65971072D01*
X190019500Y-65971072D01*
X190192754Y-65954008D01*
X190359350Y-65903472D01*
X190512886Y-65821405D01*
X190647462Y-65710962D01*
X190757905Y-65576386D01*
X190839972Y-65422850D01*
X190867227Y-65333000D01*
X191181428Y-65333000D01*
X191193688Y-65457482D01*
X191229998Y-65577180D01*
X191288963Y-65687494D01*
X191368315Y-65784185D01*
X191465006Y-65863537D01*
X191575320Y-65922502D01*
X191695018Y-65958812D01*
X191819500Y-65971072D01*
X192246250Y-65968000D01*
X192405000Y-65809250D01*
X192405000Y-64135000D01*
X192659000Y-64135000D01*
X192659000Y-65809250D01*
X192817750Y-65968000D01*
X193244500Y-65971072D01*
X193368982Y-65958812D01*
X193488680Y-65922502D01*
X193598994Y-65863537D01*
X193695685Y-65784185D01*
X193766414Y-65698000D01*
X196423928Y-65698000D01*
X196436188Y-65822482D01*
X196472498Y-65942180D01*
X196531463Y-66052494D01*
X196610815Y-66149185D01*
X196707506Y-66228537D01*
X196817820Y-66287502D01*
X196937518Y-66323812D01*
X197062000Y-66336072D01*
X197326250Y-66333000D01*
X197485000Y-66174250D01*
X197485000Y-65275000D01*
X196585750Y-65275000D01*
X196427000Y-65433750D01*
X196423928Y-65698000D01*
X193766414Y-65698000D01*
X193775037Y-65687494D01*
X193834002Y-65577180D01*
X193870312Y-65457482D01*
X193882572Y-65333000D01*
X193880400Y-64598000D01*
X196423928Y-64598000D01*
X196427000Y-64862250D01*
X196585750Y-65021000D01*
X197485000Y-65021000D01*
X197485000Y-64121750D01*
X197326250Y-63963000D01*
X197062000Y-63959928D01*
X196937518Y-63972188D01*
X196817820Y-64008498D01*
X196707506Y-64067463D01*
X196610815Y-64146815D01*
X196531463Y-64243506D01*
X196472498Y-64353820D01*
X196436188Y-64473518D01*
X196423928Y-64598000D01*
X193880400Y-64598000D01*
X193879500Y-64293750D01*
X193720750Y-64135000D01*
X192659000Y-64135000D01*
X192405000Y-64135000D01*
X191343250Y-64135000D01*
X191184500Y-64293750D01*
X191181428Y-65333000D01*
X190867227Y-65333000D01*
X190890508Y-65256254D01*
X190907572Y-65083000D01*
X190907572Y-63794817D01*
X190932833Y-63764037D01*
X190946249Y-63747690D01*
X191021462Y-63606974D01*
X191021463Y-63606973D01*
X191067780Y-63454288D01*
X191079500Y-63335291D01*
X191079500Y-63335289D01*
X191083419Y-63295501D01*
X191079500Y-63255713D01*
X191079500Y-62683000D01*
X191181428Y-62683000D01*
X191184500Y-63722250D01*
X191343250Y-63881000D01*
X192405000Y-63881000D01*
X192405000Y-62206750D01*
X192659000Y-62206750D01*
X192659000Y-63881000D01*
X193720750Y-63881000D01*
X193879500Y-63722250D01*
X193882572Y-62683000D01*
X193870312Y-62558518D01*
X193834002Y-62438820D01*
X193775037Y-62328506D01*
X193695685Y-62231815D01*
X193598994Y-62152463D01*
X193488680Y-62093498D01*
X193368982Y-62057188D01*
X193244500Y-62044928D01*
X192817750Y-62048000D01*
X192659000Y-62206750D01*
X192405000Y-62206750D01*
X192246250Y-62048000D01*
X191819500Y-62044928D01*
X191695018Y-62057188D01*
X191575320Y-62093498D01*
X191465006Y-62152463D01*
X191368315Y-62231815D01*
X191288963Y-62328506D01*
X191229998Y-62438820D01*
X191193688Y-62558518D01*
X191181428Y-62683000D01*
X191079500Y-62683000D01*
X191079500Y-62547288D01*
X191083419Y-62507500D01*
X191077185Y-62444209D01*
X191067780Y-62348712D01*
X191021463Y-62196027D01*
X190976832Y-62112528D01*
X190946249Y-62055310D01*
X190870393Y-61962880D01*
X190845028Y-61931972D01*
X190814118Y-61906605D01*
X189633513Y-60726000D01*
X193495928Y-60726000D01*
X193508188Y-60850482D01*
X193544498Y-60970180D01*
X193603463Y-61080494D01*
X193682815Y-61177185D01*
X193779506Y-61256537D01*
X193889820Y-61315502D01*
X194009518Y-61351812D01*
X194134000Y-61364072D01*
X195548250Y-61361000D01*
X195707000Y-61202250D01*
X195707000Y-60203000D01*
X195961000Y-60203000D01*
X195961000Y-61202250D01*
X196119750Y-61361000D01*
X197534000Y-61364072D01*
X197658482Y-61351812D01*
X197778180Y-61315502D01*
X197888494Y-61256537D01*
X197985185Y-61177185D01*
X198064537Y-61080494D01*
X198123502Y-60970180D01*
X198159812Y-60850482D01*
X198172072Y-60726000D01*
X198169000Y-60361750D01*
X198010250Y-60203000D01*
X195961000Y-60203000D01*
X195707000Y-60203000D01*
X193657750Y-60203000D01*
X193499000Y-60361750D01*
X193495928Y-60726000D01*
X189633513Y-60726000D01*
X188333513Y-59426000D01*
X193495928Y-59426000D01*
X193499000Y-59790250D01*
X193657750Y-59949000D01*
X195707000Y-59949000D01*
X195707000Y-58949750D01*
X195961000Y-58949750D01*
X195961000Y-59949000D01*
X198010250Y-59949000D01*
X198169000Y-59790250D01*
X198172072Y-59426000D01*
X198159812Y-59301518D01*
X198123502Y-59181820D01*
X198064537Y-59071506D01*
X197985185Y-58974815D01*
X197888494Y-58895463D01*
X197778180Y-58836498D01*
X197658482Y-58800188D01*
X197534000Y-58787928D01*
X196119750Y-58791000D01*
X195961000Y-58949750D01*
X195707000Y-58949750D01*
X195548250Y-58791000D01*
X194134000Y-58787928D01*
X194009518Y-58800188D01*
X193889820Y-58836498D01*
X193779506Y-58895463D01*
X193682815Y-58974815D01*
X193603463Y-59071506D01*
X193544498Y-59181820D01*
X193508188Y-59301518D01*
X193495928Y-59426000D01*
X188333513Y-59426000D01*
X187327512Y-58420000D01*
X187787513Y-57960000D01*
X189485834Y-57960000D01*
X189486992Y-57971755D01*
X189537528Y-58138351D01*
X189619595Y-58291887D01*
X189730038Y-58426462D01*
X189864613Y-58536905D01*
X190018149Y-58618972D01*
X190184745Y-58669508D01*
X190357999Y-58686572D01*
X191658001Y-58686572D01*
X191831255Y-58669508D01*
X191997851Y-58618972D01*
X192151387Y-58536905D01*
X192285962Y-58426462D01*
X192396405Y-58291887D01*
X192478472Y-58138351D01*
X192529008Y-57971755D01*
X192546072Y-57798501D01*
X192546072Y-56723499D01*
X192529008Y-56550245D01*
X192478472Y-56383649D01*
X192396405Y-56230113D01*
X192285962Y-56095538D01*
X192151387Y-55985095D01*
X191997851Y-55903028D01*
X191831255Y-55852492D01*
X191658001Y-55835428D01*
X190357999Y-55835428D01*
X190184745Y-55852492D01*
X190018149Y-55903028D01*
X189864613Y-55985095D01*
X189730038Y-56095538D01*
X189619595Y-56230113D01*
X189560859Y-56340000D01*
X188054013Y-56340000D01*
X187650895Y-55936882D01*
X187785829Y-55864758D01*
X187905251Y-55766751D01*
X188003258Y-55647329D01*
X188076084Y-55511082D01*
X188120929Y-55363245D01*
X188126469Y-55307000D01*
X193495928Y-55307000D01*
X193495928Y-56026000D01*
X193512992Y-56199254D01*
X193563528Y-56365850D01*
X193645595Y-56519386D01*
X193756038Y-56653962D01*
X193890614Y-56764405D01*
X194044150Y-56846472D01*
X194210746Y-56897008D01*
X194384000Y-56914072D01*
X197284000Y-56914072D01*
X197457254Y-56897008D01*
X197623850Y-56846472D01*
X197777386Y-56764405D01*
X197911962Y-56653962D01*
X197958410Y-56597365D01*
X197980498Y-56670180D01*
X198039463Y-56780494D01*
X198118815Y-56877185D01*
X198215506Y-56956537D01*
X198325820Y-57015502D01*
X198445518Y-57051812D01*
X198570000Y-57064072D01*
X199784250Y-57061000D01*
X199943000Y-56902250D01*
X199943000Y-55753000D01*
X200197000Y-55753000D01*
X200197000Y-56902250D01*
X200355750Y-57061000D01*
X201570000Y-57064072D01*
X201694482Y-57051812D01*
X201814180Y-57015502D01*
X201924494Y-56956537D01*
X202021185Y-56877185D01*
X202100537Y-56780494D01*
X202159502Y-56670180D01*
X202195812Y-56550482D01*
X202208072Y-56426000D01*
X202205000Y-55911750D01*
X202046250Y-55753000D01*
X200197000Y-55753000D01*
X199943000Y-55753000D01*
X199923000Y-55753000D01*
X199923000Y-55499000D01*
X199943000Y-55499000D01*
X199943000Y-54349750D01*
X200197000Y-54349750D01*
X200197000Y-55499000D01*
X202046250Y-55499000D01*
X202205000Y-55340250D01*
X202208072Y-54826000D01*
X202195812Y-54701518D01*
X202159502Y-54581820D01*
X202100537Y-54471506D01*
X202021185Y-54374815D01*
X201924494Y-54295463D01*
X201814180Y-54236498D01*
X201694482Y-54200188D01*
X201570000Y-54187928D01*
X200355750Y-54191000D01*
X200197000Y-54349750D01*
X199943000Y-54349750D01*
X199784250Y-54191000D01*
X198570000Y-54187928D01*
X198445518Y-54200188D01*
X198325820Y-54236498D01*
X198215506Y-54295463D01*
X198118815Y-54374815D01*
X198039463Y-54471506D01*
X197980498Y-54581820D01*
X197958410Y-54654635D01*
X197911962Y-54598038D01*
X197777386Y-54487595D01*
X197623850Y-54405528D01*
X197457254Y-54354992D01*
X197284000Y-54337928D01*
X195691440Y-54337928D01*
X195305899Y-53952387D01*
X195280528Y-53921472D01*
X195157189Y-53820251D01*
X195016473Y-53745037D01*
X194863788Y-53698720D01*
X194744791Y-53687000D01*
X194744788Y-53687000D01*
X194705000Y-53683081D01*
X194665212Y-53687000D01*
X192539818Y-53687000D01*
X192546072Y-53623501D01*
X192546072Y-52548499D01*
X192529008Y-52375245D01*
X192478472Y-52208649D01*
X192396405Y-52055113D01*
X192285962Y-51920538D01*
X192151387Y-51810095D01*
X191997851Y-51728028D01*
X191831255Y-51677492D01*
X191658001Y-51660428D01*
X191192489Y-51660428D01*
X191201886Y-51655405D01*
X191336462Y-51544962D01*
X191446905Y-51410386D01*
X191528972Y-51256850D01*
X191579508Y-51090254D01*
X191596572Y-50917000D01*
X191596572Y-49667000D01*
X191579508Y-49493746D01*
X191528972Y-49327150D01*
X191446905Y-49173614D01*
X191336462Y-49039038D01*
X191201886Y-48928595D01*
X191048350Y-48846528D01*
X190881754Y-48795992D01*
X190708500Y-48778928D01*
X189783500Y-48778928D01*
X189610246Y-48795992D01*
X189443650Y-48846528D01*
X189290114Y-48928595D01*
X189155538Y-49039038D01*
X189045095Y-49173614D01*
X188963028Y-49327150D01*
X188912492Y-49493746D01*
X188895428Y-49667000D01*
X188895428Y-50917000D01*
X188912492Y-51090254D01*
X188963028Y-51256850D01*
X189045095Y-51410386D01*
X189076200Y-51448288D01*
X189010488Y-51514000D01*
X188386872Y-51514000D01*
X188471905Y-51410386D01*
X188553972Y-51256850D01*
X188604508Y-51090254D01*
X188621572Y-50917000D01*
X188621572Y-49667000D01*
X188604508Y-49493746D01*
X188553972Y-49327150D01*
X188471905Y-49173614D01*
X188361462Y-49039038D01*
X188226886Y-48928595D01*
X188073350Y-48846528D01*
X187906754Y-48795992D01*
X187733500Y-48778928D01*
X186808500Y-48778928D01*
X186635246Y-48795992D01*
X186468650Y-48846528D01*
X186315114Y-48928595D01*
X186180538Y-49039038D01*
X186070095Y-49173614D01*
X185988028Y-49327150D01*
X185937492Y-49493746D01*
X185920428Y-49667000D01*
X185920428Y-49956559D01*
X183916250Y-51960738D01*
X183480899Y-51525387D01*
X183455528Y-51494472D01*
X183332189Y-51393251D01*
X183302988Y-51377643D01*
X183822657Y-51162389D01*
X184499909Y-50709864D01*
X185075864Y-50133909D01*
X185528389Y-49456657D01*
X185840094Y-48704135D01*
X185999000Y-47905262D01*
X185999000Y-47090738D01*
X185840094Y-46291865D01*
X185528389Y-45539343D01*
X185075864Y-44862091D01*
X184499909Y-44286136D01*
X183822657Y-43833611D01*
X183224872Y-43586000D01*
X196269582Y-43586000D01*
X196130629Y-43793957D01*
G37*
X196130629Y-43793957D02*
X196026225Y-44046011D01*
X195973000Y-44313589D01*
X195973000Y-44586411D01*
X196026225Y-44853989D01*
X196130629Y-45106043D01*
X196282201Y-45332886D01*
X196475114Y-45525799D01*
X196548001Y-45574500D01*
X196548000Y-47674212D01*
X196544081Y-47714000D01*
X196548000Y-47753788D01*
X196548000Y-47753790D01*
X196559720Y-47872787D01*
X196606037Y-48025472D01*
X196622451Y-48056180D01*
X196681251Y-48166189D01*
X196712703Y-48204513D01*
X196782472Y-48289528D01*
X196813388Y-48314900D01*
X202797951Y-54299464D01*
X202726614Y-54337595D01*
X202592038Y-54448038D01*
X202481595Y-54582614D01*
X202399528Y-54736150D01*
X202348992Y-54902746D01*
X202331928Y-55076000D01*
X202331928Y-56176000D01*
X202348992Y-56349254D01*
X202399528Y-56515850D01*
X202481595Y-56669386D01*
X202592038Y-56803962D01*
X202726614Y-56914405D01*
X202880150Y-56996472D01*
X203046746Y-57047008D01*
X203152001Y-57057375D01*
X203152000Y-60514487D01*
X202287223Y-61379265D01*
X202222180Y-61344498D01*
X202102482Y-61308188D01*
X201978000Y-61295928D01*
X200878000Y-61295928D01*
X200753518Y-61308188D01*
X200633820Y-61344498D01*
X200523506Y-61403463D01*
X200426815Y-61482815D01*
X200347463Y-61579506D01*
X200288498Y-61689820D01*
X200252188Y-61809518D01*
X200239928Y-61934000D01*
X200239928Y-63034000D01*
X200252188Y-63158482D01*
X200288498Y-63278180D01*
X200347463Y-63388494D01*
X200426815Y-63485185D01*
X200523506Y-63564537D01*
X200633820Y-63623502D01*
X200753518Y-63659812D01*
X200878000Y-63672072D01*
X201978000Y-63672072D01*
X202102482Y-63659812D01*
X202222180Y-63623502D01*
X202287223Y-63588735D01*
X202513928Y-63815440D01*
X202513928Y-64050000D01*
X202526188Y-64174482D01*
X202562498Y-64294180D01*
X202621463Y-64404494D01*
X202654705Y-64445000D01*
X202538738Y-64445000D01*
X201739865Y-64603906D01*
X200987343Y-64915611D01*
X200454000Y-65271979D01*
X200454000Y-64555788D01*
X200457919Y-64516000D01*
X200450926Y-64445000D01*
X200442280Y-64357212D01*
X200395963Y-64204527D01*
X200327012Y-64075528D01*
X200320749Y-64063810D01*
X200274946Y-64008000D01*
X200219528Y-63940472D01*
X200188612Y-63915100D01*
X199687563Y-63414051D01*
X199708537Y-63388494D01*
X199767502Y-63278180D01*
X199803812Y-63158482D01*
X199816072Y-63034000D01*
X199816072Y-61934000D01*
X199803812Y-61809518D01*
X199767502Y-61689820D01*
X199708537Y-61579506D01*
X199629185Y-61482815D01*
X199532494Y-61403463D01*
X199422180Y-61344498D01*
X199302482Y-61308188D01*
X199178000Y-61295928D01*
X198078000Y-61295928D01*
X197953518Y-61308188D01*
X197833820Y-61344498D01*
X197723506Y-61403463D01*
X197626815Y-61482815D01*
X197547463Y-61579506D01*
X197488498Y-61689820D01*
X197452188Y-61809518D01*
X197439928Y-61934000D01*
X197439928Y-63034000D01*
X197452188Y-63158482D01*
X197488498Y-63278180D01*
X197547463Y-63388494D01*
X197626815Y-63485185D01*
X197723506Y-63564537D01*
X197825824Y-63619228D01*
X197829720Y-63658787D01*
X197876037Y-63811472D01*
X197876038Y-63811473D01*
X197951251Y-63952189D01*
X197959534Y-63962282D01*
X197897750Y-63963000D01*
X197739000Y-64121750D01*
X197739000Y-65021000D01*
X198638250Y-65021000D01*
X198797000Y-64862250D01*
X198797549Y-64815061D01*
X198834001Y-64851513D01*
X198834000Y-65704487D01*
X198795657Y-65742830D01*
X198800072Y-65698000D01*
X198797000Y-65433750D01*
X198638250Y-65275000D01*
X197739000Y-65275000D01*
X197739000Y-66174250D01*
X197897750Y-66333000D01*
X198162000Y-66336072D01*
X198206831Y-66331657D01*
X197778560Y-66759928D01*
X197062000Y-66759928D01*
X196937518Y-66772188D01*
X196817820Y-66808498D01*
X196707506Y-66867463D01*
X196610815Y-66946815D01*
X196531463Y-67043506D01*
X196472498Y-67153820D01*
X196451209Y-67224000D01*
X194977788Y-67224000D01*
X194938000Y-67220081D01*
X194898212Y-67224000D01*
X194898209Y-67224000D01*
X194779212Y-67235720D01*
X194626527Y-67282037D01*
X194561024Y-67317049D01*
X194485810Y-67357251D01*
X194438682Y-67395928D01*
X192888000Y-67395928D01*
X192714746Y-67412992D01*
X192548150Y-67463528D01*
X192394614Y-67545595D01*
X192260038Y-67656038D01*
X192149595Y-67790614D01*
X192067528Y-67944150D01*
X192016992Y-68110746D01*
X191999928Y-68284000D01*
X191999928Y-69384000D01*
X192016992Y-69557254D01*
X192067528Y-69723850D01*
X192149595Y-69877386D01*
X192260038Y-70011962D01*
X192394614Y-70122405D01*
X192548150Y-70204472D01*
X192714746Y-70255008D01*
X192888000Y-70272072D01*
X195388000Y-70272072D01*
X195561254Y-70255008D01*
X195727850Y-70204472D01*
X195881386Y-70122405D01*
X196015962Y-70011962D01*
X196126405Y-69877386D01*
X196208472Y-69723850D01*
X196259008Y-69557254D01*
X196276072Y-69384000D01*
X196276072Y-68844000D01*
X196526923Y-68844000D01*
X196531463Y-68852494D01*
X196610815Y-68949185D01*
X196707506Y-69028537D01*
X196817820Y-69087502D01*
X196937518Y-69123812D01*
X197062000Y-69136072D01*
X198162000Y-69136072D01*
X198286482Y-69123812D01*
X198406180Y-69087502D01*
X198516494Y-69028537D01*
X198613185Y-68949185D01*
X198692537Y-68852494D01*
X198751502Y-68742180D01*
X198787812Y-68622482D01*
X198800072Y-68498000D01*
X198800072Y-68029440D01*
X198849295Y-67980218D01*
X198811000Y-68172738D01*
X198811000Y-68987262D01*
X198969906Y-69786135D01*
X199281611Y-70538657D01*
X199734136Y-71215909D01*
X200310091Y-71791864D01*
X200987343Y-72244389D01*
X201585128Y-72492000D01*
X183224872Y-72492000D01*
X183822657Y-72244389D01*
X184499909Y-71791864D01*
X185075864Y-71215909D01*
X185528389Y-70538657D01*
X185840094Y-69786135D01*
X185999000Y-68987262D01*
X185999000Y-68172738D01*
X185840094Y-67373865D01*
X185528389Y-66621343D01*
X185357595Y-66365731D01*
X185383383Y-66386895D01*
X187599928Y-68603441D01*
X187599928Y-69384000D01*
X187616992Y-69557254D01*
X187667528Y-69723850D01*
X187749595Y-69877386D01*
X187860038Y-70011962D01*
X187994614Y-70122405D01*
X188148150Y-70204472D01*
X188314746Y-70255008D01*
X188488000Y-70272072D01*
X190988000Y-70272072D01*
X191161254Y-70255008D01*
X191327850Y-70204472D01*
X191481386Y-70122405D01*
X191615962Y-70011962D01*
X191726405Y-69877386D01*
X191808472Y-69723850D01*
X191859008Y-69557254D01*
X191876072Y-69384000D01*
X191876072Y-68284000D01*
X191859008Y-68110746D01*
X191808472Y-67944150D01*
X191726405Y-67790614D01*
X191615962Y-67656038D01*
X191481386Y-67545595D01*
X191327850Y-67463528D01*
X191161254Y-67412992D01*
X190988000Y-67395928D01*
X188683441Y-67395928D01*
X186738000Y-65450488D01*
X186738000Y-63158084D01*
X186746418Y-63162584D01*
X186894255Y-63207429D01*
X187048000Y-63222572D01*
X187348000Y-63222572D01*
X187501745Y-63207429D01*
X187649582Y-63162584D01*
X187785829Y-63089758D01*
X187905251Y-62991751D01*
X188003258Y-62872329D01*
X188076084Y-62736082D01*
X188120929Y-62588245D01*
X188136072Y-62434500D01*
X188136072Y-61519585D01*
X188737945Y-62121457D01*
X188601114Y-62194595D01*
X188466538Y-62305038D01*
X188356095Y-62439614D01*
X188274028Y-62593150D01*
X188223492Y-62759746D01*
X188206428Y-62933000D01*
X188206428Y-65083000D01*
X188223492Y-65256254D01*
X188274028Y-65422850D01*
X188356095Y-65576386D01*
X188466538Y-65710962D01*
X188601114Y-65821405D01*
X188754650Y-65903472D01*
X188921246Y-65954008D01*
X189094500Y-65971072D01*
X190019500Y-65971072D01*
X190192754Y-65954008D01*
X190359350Y-65903472D01*
X190512886Y-65821405D01*
X190647462Y-65710962D01*
X190757905Y-65576386D01*
X190839972Y-65422850D01*
X190867227Y-65333000D01*
X191181428Y-65333000D01*
X191193688Y-65457482D01*
X191229998Y-65577180D01*
X191288963Y-65687494D01*
X191368315Y-65784185D01*
X191465006Y-65863537D01*
X191575320Y-65922502D01*
X191695018Y-65958812D01*
X191819500Y-65971072D01*
X192246250Y-65968000D01*
X192405000Y-65809250D01*
X192405000Y-64135000D01*
X192659000Y-64135000D01*
X192659000Y-65809250D01*
X192817750Y-65968000D01*
X193244500Y-65971072D01*
X193368982Y-65958812D01*
X193488680Y-65922502D01*
X193598994Y-65863537D01*
X193695685Y-65784185D01*
X193766414Y-65698000D01*
X196423928Y-65698000D01*
X196436188Y-65822482D01*
X196472498Y-65942180D01*
X196531463Y-66052494D01*
X196610815Y-66149185D01*
X196707506Y-66228537D01*
X196817820Y-66287502D01*
X196937518Y-66323812D01*
X197062000Y-66336072D01*
X197326250Y-66333000D01*
X197485000Y-66174250D01*
X197485000Y-65275000D01*
X196585750Y-65275000D01*
X196427000Y-65433750D01*
X196423928Y-65698000D01*
X193766414Y-65698000D01*
X193775037Y-65687494D01*
X193834002Y-65577180D01*
X193870312Y-65457482D01*
X193882572Y-65333000D01*
X193880400Y-64598000D01*
X196423928Y-64598000D01*
X196427000Y-64862250D01*
X196585750Y-65021000D01*
X197485000Y-65021000D01*
X197485000Y-64121750D01*
X197326250Y-63963000D01*
X197062000Y-63959928D01*
X196937518Y-63972188D01*
X196817820Y-64008498D01*
X196707506Y-64067463D01*
X196610815Y-64146815D01*
X196531463Y-64243506D01*
X196472498Y-64353820D01*
X196436188Y-64473518D01*
X196423928Y-64598000D01*
X193880400Y-64598000D01*
X193879500Y-64293750D01*
X193720750Y-64135000D01*
X192659000Y-64135000D01*
X192405000Y-64135000D01*
X191343250Y-64135000D01*
X191184500Y-64293750D01*
X191181428Y-65333000D01*
X190867227Y-65333000D01*
X190890508Y-65256254D01*
X190907572Y-65083000D01*
X190907572Y-63794817D01*
X190932833Y-63764037D01*
X190946249Y-63747690D01*
X191021462Y-63606974D01*
X191021463Y-63606973D01*
X191067780Y-63454288D01*
X191079500Y-63335291D01*
X191079500Y-63335289D01*
X191083419Y-63295501D01*
X191079500Y-63255713D01*
X191079500Y-62683000D01*
X191181428Y-62683000D01*
X191184500Y-63722250D01*
X191343250Y-63881000D01*
X192405000Y-63881000D01*
X192405000Y-62206750D01*
X192659000Y-62206750D01*
X192659000Y-63881000D01*
X193720750Y-63881000D01*
X193879500Y-63722250D01*
X193882572Y-62683000D01*
X193870312Y-62558518D01*
X193834002Y-62438820D01*
X193775037Y-62328506D01*
X193695685Y-62231815D01*
X193598994Y-62152463D01*
X193488680Y-62093498D01*
X193368982Y-62057188D01*
X193244500Y-62044928D01*
X192817750Y-62048000D01*
X192659000Y-62206750D01*
X192405000Y-62206750D01*
X192246250Y-62048000D01*
X191819500Y-62044928D01*
X191695018Y-62057188D01*
X191575320Y-62093498D01*
X191465006Y-62152463D01*
X191368315Y-62231815D01*
X191288963Y-62328506D01*
X191229998Y-62438820D01*
X191193688Y-62558518D01*
X191181428Y-62683000D01*
X191079500Y-62683000D01*
X191079500Y-62547288D01*
X191083419Y-62507500D01*
X191077185Y-62444209D01*
X191067780Y-62348712D01*
X191021463Y-62196027D01*
X190976832Y-62112528D01*
X190946249Y-62055310D01*
X190870393Y-61962880D01*
X190845028Y-61931972D01*
X190814118Y-61906605D01*
X189633513Y-60726000D01*
X193495928Y-60726000D01*
X193508188Y-60850482D01*
X193544498Y-60970180D01*
X193603463Y-61080494D01*
X193682815Y-61177185D01*
X193779506Y-61256537D01*
X193889820Y-61315502D01*
X194009518Y-61351812D01*
X194134000Y-61364072D01*
X195548250Y-61361000D01*
X195707000Y-61202250D01*
X195707000Y-60203000D01*
X195961000Y-60203000D01*
X195961000Y-61202250D01*
X196119750Y-61361000D01*
X197534000Y-61364072D01*
X197658482Y-61351812D01*
X197778180Y-61315502D01*
X197888494Y-61256537D01*
X197985185Y-61177185D01*
X198064537Y-61080494D01*
X198123502Y-60970180D01*
X198159812Y-60850482D01*
X198172072Y-60726000D01*
X198169000Y-60361750D01*
X198010250Y-60203000D01*
X195961000Y-60203000D01*
X195707000Y-60203000D01*
X193657750Y-60203000D01*
X193499000Y-60361750D01*
X193495928Y-60726000D01*
X189633513Y-60726000D01*
X188333513Y-59426000D01*
X193495928Y-59426000D01*
X193499000Y-59790250D01*
X193657750Y-59949000D01*
X195707000Y-59949000D01*
X195707000Y-58949750D01*
X195961000Y-58949750D01*
X195961000Y-59949000D01*
X198010250Y-59949000D01*
X198169000Y-59790250D01*
X198172072Y-59426000D01*
X198159812Y-59301518D01*
X198123502Y-59181820D01*
X198064537Y-59071506D01*
X197985185Y-58974815D01*
X197888494Y-58895463D01*
X197778180Y-58836498D01*
X197658482Y-58800188D01*
X197534000Y-58787928D01*
X196119750Y-58791000D01*
X195961000Y-58949750D01*
X195707000Y-58949750D01*
X195548250Y-58791000D01*
X194134000Y-58787928D01*
X194009518Y-58800188D01*
X193889820Y-58836498D01*
X193779506Y-58895463D01*
X193682815Y-58974815D01*
X193603463Y-59071506D01*
X193544498Y-59181820D01*
X193508188Y-59301518D01*
X193495928Y-59426000D01*
X188333513Y-59426000D01*
X187327512Y-58420000D01*
X187787513Y-57960000D01*
X189485834Y-57960000D01*
X189486992Y-57971755D01*
X189537528Y-58138351D01*
X189619595Y-58291887D01*
X189730038Y-58426462D01*
X189864613Y-58536905D01*
X190018149Y-58618972D01*
X190184745Y-58669508D01*
X190357999Y-58686572D01*
X191658001Y-58686572D01*
X191831255Y-58669508D01*
X191997851Y-58618972D01*
X192151387Y-58536905D01*
X192285962Y-58426462D01*
X192396405Y-58291887D01*
X192478472Y-58138351D01*
X192529008Y-57971755D01*
X192546072Y-57798501D01*
X192546072Y-56723499D01*
X192529008Y-56550245D01*
X192478472Y-56383649D01*
X192396405Y-56230113D01*
X192285962Y-56095538D01*
X192151387Y-55985095D01*
X191997851Y-55903028D01*
X191831255Y-55852492D01*
X191658001Y-55835428D01*
X190357999Y-55835428D01*
X190184745Y-55852492D01*
X190018149Y-55903028D01*
X189864613Y-55985095D01*
X189730038Y-56095538D01*
X189619595Y-56230113D01*
X189560859Y-56340000D01*
X188054013Y-56340000D01*
X187650895Y-55936882D01*
X187785829Y-55864758D01*
X187905251Y-55766751D01*
X188003258Y-55647329D01*
X188076084Y-55511082D01*
X188120929Y-55363245D01*
X188126469Y-55307000D01*
X193495928Y-55307000D01*
X193495928Y-56026000D01*
X193512992Y-56199254D01*
X193563528Y-56365850D01*
X193645595Y-56519386D01*
X193756038Y-56653962D01*
X193890614Y-56764405D01*
X194044150Y-56846472D01*
X194210746Y-56897008D01*
X194384000Y-56914072D01*
X197284000Y-56914072D01*
X197457254Y-56897008D01*
X197623850Y-56846472D01*
X197777386Y-56764405D01*
X197911962Y-56653962D01*
X197958410Y-56597365D01*
X197980498Y-56670180D01*
X198039463Y-56780494D01*
X198118815Y-56877185D01*
X198215506Y-56956537D01*
X198325820Y-57015502D01*
X198445518Y-57051812D01*
X198570000Y-57064072D01*
X199784250Y-57061000D01*
X199943000Y-56902250D01*
X199943000Y-55753000D01*
X200197000Y-55753000D01*
X200197000Y-56902250D01*
X200355750Y-57061000D01*
X201570000Y-57064072D01*
X201694482Y-57051812D01*
X201814180Y-57015502D01*
X201924494Y-56956537D01*
X202021185Y-56877185D01*
X202100537Y-56780494D01*
X202159502Y-56670180D01*
X202195812Y-56550482D01*
X202208072Y-56426000D01*
X202205000Y-55911750D01*
X202046250Y-55753000D01*
X200197000Y-55753000D01*
X199943000Y-55753000D01*
X199923000Y-55753000D01*
X199923000Y-55499000D01*
X199943000Y-55499000D01*
X199943000Y-54349750D01*
X200197000Y-54349750D01*
X200197000Y-55499000D01*
X202046250Y-55499000D01*
X202205000Y-55340250D01*
X202208072Y-54826000D01*
X202195812Y-54701518D01*
X202159502Y-54581820D01*
X202100537Y-54471506D01*
X202021185Y-54374815D01*
X201924494Y-54295463D01*
X201814180Y-54236498D01*
X201694482Y-54200188D01*
X201570000Y-54187928D01*
X200355750Y-54191000D01*
X200197000Y-54349750D01*
X199943000Y-54349750D01*
X199784250Y-54191000D01*
X198570000Y-54187928D01*
X198445518Y-54200188D01*
X198325820Y-54236498D01*
X198215506Y-54295463D01*
X198118815Y-54374815D01*
X198039463Y-54471506D01*
X197980498Y-54581820D01*
X197958410Y-54654635D01*
X197911962Y-54598038D01*
X197777386Y-54487595D01*
X197623850Y-54405528D01*
X197457254Y-54354992D01*
X197284000Y-54337928D01*
X195691440Y-54337928D01*
X195305899Y-53952387D01*
X195280528Y-53921472D01*
X195157189Y-53820251D01*
X195016473Y-53745037D01*
X194863788Y-53698720D01*
X194744791Y-53687000D01*
X194744788Y-53687000D01*
X194705000Y-53683081D01*
X194665212Y-53687000D01*
X192539818Y-53687000D01*
X192546072Y-53623501D01*
X192546072Y-52548499D01*
X192529008Y-52375245D01*
X192478472Y-52208649D01*
X192396405Y-52055113D01*
X192285962Y-51920538D01*
X192151387Y-51810095D01*
X191997851Y-51728028D01*
X191831255Y-51677492D01*
X191658001Y-51660428D01*
X191192489Y-51660428D01*
X191201886Y-51655405D01*
X191336462Y-51544962D01*
X191446905Y-51410386D01*
X191528972Y-51256850D01*
X191579508Y-51090254D01*
X191596572Y-50917000D01*
X191596572Y-49667000D01*
X191579508Y-49493746D01*
X191528972Y-49327150D01*
X191446905Y-49173614D01*
X191336462Y-49039038D01*
X191201886Y-48928595D01*
X191048350Y-48846528D01*
X190881754Y-48795992D01*
X190708500Y-48778928D01*
X189783500Y-48778928D01*
X189610246Y-48795992D01*
X189443650Y-48846528D01*
X189290114Y-48928595D01*
X189155538Y-49039038D01*
X189045095Y-49173614D01*
X188963028Y-49327150D01*
X188912492Y-49493746D01*
X188895428Y-49667000D01*
X188895428Y-50917000D01*
X188912492Y-51090254D01*
X188963028Y-51256850D01*
X189045095Y-51410386D01*
X189076200Y-51448288D01*
X189010488Y-51514000D01*
X188386872Y-51514000D01*
X188471905Y-51410386D01*
X188553972Y-51256850D01*
X188604508Y-51090254D01*
X188621572Y-50917000D01*
X188621572Y-49667000D01*
X188604508Y-49493746D01*
X188553972Y-49327150D01*
X188471905Y-49173614D01*
X188361462Y-49039038D01*
X188226886Y-48928595D01*
X188073350Y-48846528D01*
X187906754Y-48795992D01*
X187733500Y-48778928D01*
X186808500Y-48778928D01*
X186635246Y-48795992D01*
X186468650Y-48846528D01*
X186315114Y-48928595D01*
X186180538Y-49039038D01*
X186070095Y-49173614D01*
X185988028Y-49327150D01*
X185937492Y-49493746D01*
X185920428Y-49667000D01*
X185920428Y-49956559D01*
X183916250Y-51960738D01*
X183480899Y-51525387D01*
X183455528Y-51494472D01*
X183332189Y-51393251D01*
X183302988Y-51377643D01*
X183822657Y-51162389D01*
X184499909Y-50709864D01*
X185075864Y-50133909D01*
X185528389Y-49456657D01*
X185840094Y-48704135D01*
X185999000Y-47905262D01*
X185999000Y-47090738D01*
X185840094Y-46291865D01*
X185528389Y-45539343D01*
X185075864Y-44862091D01*
X184499909Y-44286136D01*
X183822657Y-43833611D01*
X183224872Y-43586000D01*
X196269582Y-43586000D01*
X196130629Y-43793957D01*
G36*
X182772350Y-53107862D02*
G01*
X182766852Y-53114561D01*
X182711251Y-53182311D01*
X182692297Y-53217772D01*
X182680749Y-53227249D01*
X182582742Y-53346671D01*
X182509916Y-53482918D01*
X182465071Y-53630755D01*
X182449928Y-53784500D01*
X182449928Y-55209500D01*
X182465071Y-55363245D01*
X182509916Y-55511082D01*
X182582742Y-55647329D01*
X182680749Y-55766751D01*
X182800171Y-55864758D01*
X182936418Y-55937584D01*
X183084255Y-55982429D01*
X183238000Y-55997572D01*
X183538000Y-55997572D01*
X183691745Y-55982429D01*
X183839582Y-55937584D01*
X183975829Y-55864758D01*
X184023000Y-55826046D01*
X184070171Y-55864758D01*
X184206418Y-55937584D01*
X184354255Y-55982429D01*
X184508000Y-55997572D01*
X184808000Y-55997572D01*
X184961745Y-55982429D01*
X185109582Y-55937584D01*
X185245829Y-55864758D01*
X185275094Y-55840741D01*
X185284738Y-55852492D01*
X185352473Y-55935028D01*
X185383383Y-55960395D01*
X186439737Y-57016750D01*
X185637384Y-57819104D01*
X185637379Y-57819108D01*
X185637374Y-57819113D01*
X185606473Y-57844473D01*
X185581112Y-57875375D01*
X184113387Y-59343101D01*
X184082472Y-59368472D01*
X184035261Y-59426000D01*
X183981251Y-59491811D01*
X183960191Y-59531213D01*
X183906037Y-59632528D01*
X183859720Y-59785213D01*
X183853459Y-59848787D01*
X183844081Y-59944000D01*
X183848000Y-59983789D01*
X183848000Y-60244462D01*
X183812482Y-60233688D01*
X183688000Y-60221428D01*
X183673750Y-60224500D01*
X183515000Y-60383250D01*
X183515000Y-61595000D01*
X183535000Y-61595000D01*
X183535000Y-61849000D01*
X183515000Y-61849000D01*
X183515000Y-63060750D01*
X183673750Y-63219500D01*
X183688000Y-63222572D01*
X183812482Y-63210312D01*
X183932180Y-63174002D01*
X184042494Y-63115037D01*
X184072064Y-63090770D01*
X184206418Y-63162584D01*
X184354255Y-63207429D01*
X184508000Y-63222572D01*
X184808000Y-63222572D01*
X184961745Y-63207429D01*
X185109582Y-63162584D01*
X185118000Y-63158084D01*
X185118001Y-65746202D01*
X185114081Y-65786000D01*
X185127526Y-65922502D01*
X185129721Y-65944788D01*
X185141169Y-65982527D01*
X185174115Y-66091134D01*
X185075864Y-65944091D01*
X184499909Y-65368136D01*
X183822657Y-64915611D01*
X183070135Y-64603906D01*
X182271262Y-64445000D01*
X181456738Y-64445000D01*
X180657865Y-64603906D01*
X179905343Y-64915611D01*
X179228091Y-65368136D01*
X178652136Y-65944091D01*
X178199611Y-66621343D01*
X177952000Y-67219128D01*
X177952000Y-62584500D01*
X182449928Y-62584500D01*
X182462188Y-62708982D01*
X182498498Y-62828680D01*
X182557463Y-62938994D01*
X182636815Y-63035685D01*
X182733506Y-63115037D01*
X182843820Y-63174002D01*
X182963518Y-63210312D01*
X183088000Y-63222572D01*
X183102250Y-63219500D01*
X183261000Y-63060750D01*
X183261000Y-61849000D01*
X182611750Y-61849000D01*
X182453000Y-62007750D01*
X182449928Y-62584500D01*
X177952000Y-62584500D01*
X177952000Y-60859500D01*
X182449928Y-60859500D01*
X182453000Y-61436250D01*
X182611750Y-61595000D01*
X183261000Y-61595000D01*
X183261000Y-60383250D01*
X183102250Y-60224500D01*
X183088000Y-60221428D01*
X182963518Y-60233688D01*
X182843820Y-60269998D01*
X182733506Y-60328963D01*
X182636815Y-60408315D01*
X182557463Y-60505006D01*
X182498498Y-60615320D01*
X182462188Y-60735018D01*
X182449928Y-60859500D01*
X177952000Y-60859500D01*
X177952000Y-59000418D01*
X178159957Y-59139371D01*
X178412011Y-59243775D01*
X178679589Y-59297000D01*
X178952411Y-59297000D01*
X179219989Y-59243775D01*
X179472043Y-59139371D01*
X179698886Y-58987799D01*
X179891799Y-58794886D01*
X180043371Y-58568043D01*
X180147775Y-58315989D01*
X180201000Y-58048411D01*
X180201000Y-57775589D01*
X180147775Y-57508011D01*
X180043371Y-57255957D01*
X179891799Y-57029114D01*
X179698886Y-56836201D01*
X179472043Y-56684629D01*
X179219989Y-56580225D01*
X178952411Y-56527000D01*
X178679589Y-56527000D01*
X178412011Y-56580225D01*
X178159957Y-56684629D01*
X177952000Y-56823582D01*
X177952000Y-54428418D01*
X178159957Y-54567371D01*
X178412011Y-54671775D01*
X178679589Y-54725000D01*
X178952411Y-54725000D01*
X179219989Y-54671775D01*
X179472043Y-54567371D01*
X179698886Y-54415799D01*
X179891799Y-54222886D01*
X180043371Y-53996043D01*
X180147775Y-53743989D01*
X180201000Y-53476411D01*
X180201000Y-53203589D01*
X180183898Y-53117614D01*
X180421513Y-52880000D01*
X182544488Y-52880000D01*
X182772350Y-53107862D01*
G37*
X182772350Y-53107862D02*
X182766852Y-53114561D01*
X182711251Y-53182311D01*
X182692297Y-53217772D01*
X182680749Y-53227249D01*
X182582742Y-53346671D01*
X182509916Y-53482918D01*
X182465071Y-53630755D01*
X182449928Y-53784500D01*
X182449928Y-55209500D01*
X182465071Y-55363245D01*
X182509916Y-55511082D01*
X182582742Y-55647329D01*
X182680749Y-55766751D01*
X182800171Y-55864758D01*
X182936418Y-55937584D01*
X183084255Y-55982429D01*
X183238000Y-55997572D01*
X183538000Y-55997572D01*
X183691745Y-55982429D01*
X183839582Y-55937584D01*
X183975829Y-55864758D01*
X184023000Y-55826046D01*
X184070171Y-55864758D01*
X184206418Y-55937584D01*
X184354255Y-55982429D01*
X184508000Y-55997572D01*
X184808000Y-55997572D01*
X184961745Y-55982429D01*
X185109582Y-55937584D01*
X185245829Y-55864758D01*
X185275094Y-55840741D01*
X185284738Y-55852492D01*
X185352473Y-55935028D01*
X185383383Y-55960395D01*
X186439737Y-57016750D01*
X185637384Y-57819104D01*
X185637379Y-57819108D01*
X185637374Y-57819113D01*
X185606473Y-57844473D01*
X185581112Y-57875375D01*
X184113387Y-59343101D01*
X184082472Y-59368472D01*
X184035261Y-59426000D01*
X183981251Y-59491811D01*
X183960191Y-59531213D01*
X183906037Y-59632528D01*
X183859720Y-59785213D01*
X183853459Y-59848787D01*
X183844081Y-59944000D01*
X183848000Y-59983789D01*
X183848000Y-60244462D01*
X183812482Y-60233688D01*
X183688000Y-60221428D01*
X183673750Y-60224500D01*
X183515000Y-60383250D01*
X183515000Y-61595000D01*
X183535000Y-61595000D01*
X183535000Y-61849000D01*
X183515000Y-61849000D01*
X183515000Y-63060750D01*
X183673750Y-63219500D01*
X183688000Y-63222572D01*
X183812482Y-63210312D01*
X183932180Y-63174002D01*
X184042494Y-63115037D01*
X184072064Y-63090770D01*
X184206418Y-63162584D01*
X184354255Y-63207429D01*
X184508000Y-63222572D01*
X184808000Y-63222572D01*
X184961745Y-63207429D01*
X185109582Y-63162584D01*
X185118000Y-63158084D01*
X185118001Y-65746202D01*
X185114081Y-65786000D01*
X185127526Y-65922502D01*
X185129721Y-65944788D01*
X185141169Y-65982527D01*
X185174115Y-66091134D01*
X185075864Y-65944091D01*
X184499909Y-65368136D01*
X183822657Y-64915611D01*
X183070135Y-64603906D01*
X182271262Y-64445000D01*
X181456738Y-64445000D01*
X180657865Y-64603906D01*
X179905343Y-64915611D01*
X179228091Y-65368136D01*
X178652136Y-65944091D01*
X178199611Y-66621343D01*
X177952000Y-67219128D01*
X177952000Y-62584500D01*
X182449928Y-62584500D01*
X182462188Y-62708982D01*
X182498498Y-62828680D01*
X182557463Y-62938994D01*
X182636815Y-63035685D01*
X182733506Y-63115037D01*
X182843820Y-63174002D01*
X182963518Y-63210312D01*
X183088000Y-63222572D01*
X183102250Y-63219500D01*
X183261000Y-63060750D01*
X183261000Y-61849000D01*
X182611750Y-61849000D01*
X182453000Y-62007750D01*
X182449928Y-62584500D01*
X177952000Y-62584500D01*
X177952000Y-60859500D01*
X182449928Y-60859500D01*
X182453000Y-61436250D01*
X182611750Y-61595000D01*
X183261000Y-61595000D01*
X183261000Y-60383250D01*
X183102250Y-60224500D01*
X183088000Y-60221428D01*
X182963518Y-60233688D01*
X182843820Y-60269998D01*
X182733506Y-60328963D01*
X182636815Y-60408315D01*
X182557463Y-60505006D01*
X182498498Y-60615320D01*
X182462188Y-60735018D01*
X182449928Y-60859500D01*
X177952000Y-60859500D01*
X177952000Y-59000418D01*
X178159957Y-59139371D01*
X178412011Y-59243775D01*
X178679589Y-59297000D01*
X178952411Y-59297000D01*
X179219989Y-59243775D01*
X179472043Y-59139371D01*
X179698886Y-58987799D01*
X179891799Y-58794886D01*
X180043371Y-58568043D01*
X180147775Y-58315989D01*
X180201000Y-58048411D01*
X180201000Y-57775589D01*
X180147775Y-57508011D01*
X180043371Y-57255957D01*
X179891799Y-57029114D01*
X179698886Y-56836201D01*
X179472043Y-56684629D01*
X179219989Y-56580225D01*
X178952411Y-56527000D01*
X178679589Y-56527000D01*
X178412011Y-56580225D01*
X178159957Y-56684629D01*
X177952000Y-56823582D01*
X177952000Y-54428418D01*
X178159957Y-54567371D01*
X178412011Y-54671775D01*
X178679589Y-54725000D01*
X178952411Y-54725000D01*
X179219989Y-54671775D01*
X179472043Y-54567371D01*
X179698886Y-54415799D01*
X179891799Y-54222886D01*
X180043371Y-53996043D01*
X180147775Y-53743989D01*
X180201000Y-53476411D01*
X180201000Y-53203589D01*
X180183898Y-53117614D01*
X180421513Y-52880000D01*
X182544488Y-52880000D01*
X182772350Y-53107862D01*
M02*
