G04 #@! TF.GenerationSoftware,KiCad,Pcbnew,(5.1.5)-3*
G04 #@! TF.CreationDate,2020-05-09T15:27:07-04:00*
G04 #@! TF.ProjectId,v2,76322e6b-6963-4616-945f-706362585858,rev?*
G04 #@! TF.SameCoordinates,Original*
G04 #@! TF.FileFunction,Other,Fab,Top*
%FSLAX46Y46*%
G04 Gerber Fmt 4.6, Leading zero omitted, Abs format (unit mm)*
G04 Created by KiCad (PCBNEW (5.1.5)-3) date 2020-05-09 15:27:07*
%MOMM*%
%LPD*%
G04 APERTURE LIST*
%ADD10C,0.100000*%
%ADD11C,0.150000*%
%ADD12C,0.300000*%
%ADD13C,0.400000*%
%ADD14C,0.120000*%
G04 APERTURE END LIST*
D10*
D11*
X177002200Y-166007200D02*
X177002200Y-198007200D01*
X285002200Y-198007200D01*
X285002200Y-166007200D01*
X177002200Y-166007200D01*
D10*
D11*
X10000000Y-10000000D02*
X10000000Y-200007200D01*
X287002200Y-200007200D01*
X287002200Y-10000000D01*
X10000000Y-10000000D01*
D10*
D11*
X12000000Y-12000000D02*
X12000000Y-198007200D01*
X285002200Y-198007200D01*
X285002200Y-12000000D01*
X12000000Y-12000000D01*
D10*
D11*
X60000000Y-12000000D02*
X60000000Y-10000000D01*
D10*
D11*
X110000000Y-12000000D02*
X110000000Y-10000000D01*
D10*
D11*
X160000000Y-12000000D02*
X160000000Y-10000000D01*
D10*
D11*
X210000000Y-12000000D02*
X210000000Y-10000000D01*
D10*
D11*
X260000000Y-12000000D02*
X260000000Y-10000000D01*
D10*
D11*
X36065476Y-11588095D02*
X35322619Y-11588095D01*
X35694047Y-11588095D02*
X35694047Y-10288095D01*
X35570238Y-10473809D01*
X35446428Y-10597619D01*
X35322619Y-10659523D01*
D10*
D11*
X85322619Y-10411904D02*
X85384523Y-10350000D01*
X85508333Y-10288095D01*
X85817857Y-10288095D01*
X85941666Y-10350000D01*
X86003571Y-10411904D01*
X86065476Y-10535714D01*
X86065476Y-10659523D01*
X86003571Y-10845238D01*
X85260714Y-11588095D01*
X86065476Y-11588095D01*
D10*
D11*
X135260714Y-10288095D02*
X136065476Y-10288095D01*
X135632142Y-10783333D01*
X135817857Y-10783333D01*
X135941666Y-10845238D01*
X136003571Y-10907142D01*
X136065476Y-11030952D01*
X136065476Y-11340476D01*
X136003571Y-11464285D01*
X135941666Y-11526190D01*
X135817857Y-11588095D01*
X135446428Y-11588095D01*
X135322619Y-11526190D01*
X135260714Y-11464285D01*
D10*
D11*
X185941666Y-10721428D02*
X185941666Y-11588095D01*
X185632142Y-10226190D02*
X185322619Y-11154761D01*
X186127380Y-11154761D01*
D10*
D11*
X236003571Y-10288095D02*
X235384523Y-10288095D01*
X235322619Y-10907142D01*
X235384523Y-10845238D01*
X235508333Y-10783333D01*
X235817857Y-10783333D01*
X235941666Y-10845238D01*
X236003571Y-10907142D01*
X236065476Y-11030952D01*
X236065476Y-11340476D01*
X236003571Y-11464285D01*
X235941666Y-11526190D01*
X235817857Y-11588095D01*
X235508333Y-11588095D01*
X235384523Y-11526190D01*
X235322619Y-11464285D01*
D10*
D11*
X285941666Y-10288095D02*
X285694047Y-10288095D01*
X285570238Y-10350000D01*
X285508333Y-10411904D01*
X285384523Y-10597619D01*
X285322619Y-10845238D01*
X285322619Y-11340476D01*
X285384523Y-11464285D01*
X285446428Y-11526190D01*
X285570238Y-11588095D01*
X285817857Y-11588095D01*
X285941666Y-11526190D01*
X286003571Y-11464285D01*
X286065476Y-11340476D01*
X286065476Y-11030952D01*
X286003571Y-10907142D01*
X285941666Y-10845238D01*
X285817857Y-10783333D01*
X285570238Y-10783333D01*
X285446428Y-10845238D01*
X285384523Y-10907142D01*
X285322619Y-11030952D01*
D10*
D11*
X60000000Y-198007200D02*
X60000000Y-200007200D01*
D10*
D11*
X110000000Y-198007200D02*
X110000000Y-200007200D01*
D10*
D11*
X160000000Y-198007200D02*
X160000000Y-200007200D01*
D10*
D11*
X210000000Y-198007200D02*
X210000000Y-200007200D01*
D10*
D11*
X260000000Y-198007200D02*
X260000000Y-200007200D01*
D10*
D11*
X36065476Y-199595295D02*
X35322619Y-199595295D01*
X35694047Y-199595295D02*
X35694047Y-198295295D01*
X35570238Y-198481009D01*
X35446428Y-198604819D01*
X35322619Y-198666723D01*
D10*
D11*
X85322619Y-198419104D02*
X85384523Y-198357200D01*
X85508333Y-198295295D01*
X85817857Y-198295295D01*
X85941666Y-198357200D01*
X86003571Y-198419104D01*
X86065476Y-198542914D01*
X86065476Y-198666723D01*
X86003571Y-198852438D01*
X85260714Y-199595295D01*
X86065476Y-199595295D01*
D10*
D11*
X135260714Y-198295295D02*
X136065476Y-198295295D01*
X135632142Y-198790533D01*
X135817857Y-198790533D01*
X135941666Y-198852438D01*
X136003571Y-198914342D01*
X136065476Y-199038152D01*
X136065476Y-199347676D01*
X136003571Y-199471485D01*
X135941666Y-199533390D01*
X135817857Y-199595295D01*
X135446428Y-199595295D01*
X135322619Y-199533390D01*
X135260714Y-199471485D01*
D10*
D11*
X185941666Y-198728628D02*
X185941666Y-199595295D01*
X185632142Y-198233390D02*
X185322619Y-199161961D01*
X186127380Y-199161961D01*
D10*
D11*
X236003571Y-198295295D02*
X235384523Y-198295295D01*
X235322619Y-198914342D01*
X235384523Y-198852438D01*
X235508333Y-198790533D01*
X235817857Y-198790533D01*
X235941666Y-198852438D01*
X236003571Y-198914342D01*
X236065476Y-199038152D01*
X236065476Y-199347676D01*
X236003571Y-199471485D01*
X235941666Y-199533390D01*
X235817857Y-199595295D01*
X235508333Y-199595295D01*
X235384523Y-199533390D01*
X235322619Y-199471485D01*
D10*
D11*
X285941666Y-198295295D02*
X285694047Y-198295295D01*
X285570238Y-198357200D01*
X285508333Y-198419104D01*
X285384523Y-198604819D01*
X285322619Y-198852438D01*
X285322619Y-199347676D01*
X285384523Y-199471485D01*
X285446428Y-199533390D01*
X285570238Y-199595295D01*
X285817857Y-199595295D01*
X285941666Y-199533390D01*
X286003571Y-199471485D01*
X286065476Y-199347676D01*
X286065476Y-199038152D01*
X286003571Y-198914342D01*
X285941666Y-198852438D01*
X285817857Y-198790533D01*
X285570238Y-198790533D01*
X285446428Y-198852438D01*
X285384523Y-198914342D01*
X285322619Y-199038152D01*
D10*
D11*
X10000000Y-60000000D02*
X12000000Y-60000000D01*
D10*
D11*
X10000000Y-110000000D02*
X12000000Y-110000000D01*
D10*
D11*
X10000000Y-160000000D02*
X12000000Y-160000000D01*
D10*
D11*
X10690476Y-35216666D02*
X11309523Y-35216666D01*
X10566666Y-35588095D02*
X11000000Y-34288095D01*
X11433333Y-35588095D01*
D10*
D11*
X11092857Y-84907142D02*
X11278571Y-84969047D01*
X11340476Y-85030952D01*
X11402380Y-85154761D01*
X11402380Y-85340476D01*
X11340476Y-85464285D01*
X11278571Y-85526190D01*
X11154761Y-85588095D01*
X10659523Y-85588095D01*
X10659523Y-84288095D01*
X11092857Y-84288095D01*
X11216666Y-84350000D01*
X11278571Y-84411904D01*
X11340476Y-84535714D01*
X11340476Y-84659523D01*
X11278571Y-84783333D01*
X11216666Y-84845238D01*
X11092857Y-84907142D01*
X10659523Y-84907142D01*
D10*
D11*
X11402380Y-135464285D02*
X11340476Y-135526190D01*
X11154761Y-135588095D01*
X11030952Y-135588095D01*
X10845238Y-135526190D01*
X10721428Y-135402380D01*
X10659523Y-135278571D01*
X10597619Y-135030952D01*
X10597619Y-134845238D01*
X10659523Y-134597619D01*
X10721428Y-134473809D01*
X10845238Y-134350000D01*
X11030952Y-134288095D01*
X11154761Y-134288095D01*
X11340476Y-134350000D01*
X11402380Y-134411904D01*
D10*
D11*
X10659523Y-185588095D02*
X10659523Y-184288095D01*
X10969047Y-184288095D01*
X11154761Y-184350000D01*
X11278571Y-184473809D01*
X11340476Y-184597619D01*
X11402380Y-184845238D01*
X11402380Y-185030952D01*
X11340476Y-185278571D01*
X11278571Y-185402380D01*
X11154761Y-185526190D01*
X10969047Y-185588095D01*
X10659523Y-185588095D01*
D10*
D11*
X287002200Y-60000000D02*
X285002200Y-60000000D01*
D10*
D11*
X287002200Y-110000000D02*
X285002200Y-110000000D01*
D10*
D11*
X287002200Y-160000000D02*
X285002200Y-160000000D01*
D10*
D11*
X285692676Y-35216666D02*
X286311723Y-35216666D01*
X285568866Y-35588095D02*
X286002200Y-34288095D01*
X286435533Y-35588095D01*
D10*
D11*
X286095057Y-84907142D02*
X286280771Y-84969047D01*
X286342676Y-85030952D01*
X286404580Y-85154761D01*
X286404580Y-85340476D01*
X286342676Y-85464285D01*
X286280771Y-85526190D01*
X286156961Y-85588095D01*
X285661723Y-85588095D01*
X285661723Y-84288095D01*
X286095057Y-84288095D01*
X286218866Y-84350000D01*
X286280771Y-84411904D01*
X286342676Y-84535714D01*
X286342676Y-84659523D01*
X286280771Y-84783333D01*
X286218866Y-84845238D01*
X286095057Y-84907142D01*
X285661723Y-84907142D01*
D10*
D11*
X286404580Y-135464285D02*
X286342676Y-135526190D01*
X286156961Y-135588095D01*
X286033152Y-135588095D01*
X285847438Y-135526190D01*
X285723628Y-135402380D01*
X285661723Y-135278571D01*
X285599819Y-135030952D01*
X285599819Y-134845238D01*
X285661723Y-134597619D01*
X285723628Y-134473809D01*
X285847438Y-134350000D01*
X286033152Y-134288095D01*
X286156961Y-134288095D01*
X286342676Y-134350000D01*
X286404580Y-134411904D01*
D10*
D11*
X285661723Y-185588095D02*
X285661723Y-184288095D01*
X285971247Y-184288095D01*
X286156961Y-184350000D01*
X286280771Y-184473809D01*
X286342676Y-184597619D01*
X286404580Y-184845238D01*
X286404580Y-185030952D01*
X286342676Y-185278571D01*
X286280771Y-185402380D01*
X286156961Y-185526190D01*
X285971247Y-185588095D01*
X285661723Y-185588095D01*
D10*
D11*
X200434342Y-193785771D02*
X200434342Y-192285771D01*
X200791485Y-192285771D01*
X201005771Y-192357200D01*
X201148628Y-192500057D01*
X201220057Y-192642914D01*
X201291485Y-192928628D01*
X201291485Y-193142914D01*
X201220057Y-193428628D01*
X201148628Y-193571485D01*
X201005771Y-193714342D01*
X200791485Y-193785771D01*
X200434342Y-193785771D01*
X202577200Y-193785771D02*
X202577200Y-193000057D01*
X202505771Y-192857200D01*
X202362914Y-192785771D01*
X202077200Y-192785771D01*
X201934342Y-192857200D01*
X202577200Y-193714342D02*
X202434342Y-193785771D01*
X202077200Y-193785771D01*
X201934342Y-193714342D01*
X201862914Y-193571485D01*
X201862914Y-193428628D01*
X201934342Y-193285771D01*
X202077200Y-193214342D01*
X202434342Y-193214342D01*
X202577200Y-193142914D01*
X203077200Y-192785771D02*
X203648628Y-192785771D01*
X203291485Y-192285771D02*
X203291485Y-193571485D01*
X203362914Y-193714342D01*
X203505771Y-193785771D01*
X203648628Y-193785771D01*
X204720057Y-193714342D02*
X204577200Y-193785771D01*
X204291485Y-193785771D01*
X204148628Y-193714342D01*
X204077200Y-193571485D01*
X204077200Y-193000057D01*
X204148628Y-192857200D01*
X204291485Y-192785771D01*
X204577200Y-192785771D01*
X204720057Y-192857200D01*
X204791485Y-193000057D01*
X204791485Y-193142914D01*
X204077200Y-193285771D01*
X205434342Y-193642914D02*
X205505771Y-193714342D01*
X205434342Y-193785771D01*
X205362914Y-193714342D01*
X205434342Y-193642914D01*
X205434342Y-193785771D01*
X205434342Y-192857200D02*
X205505771Y-192928628D01*
X205434342Y-193000057D01*
X205362914Y-192928628D01*
X205434342Y-192857200D01*
X205434342Y-193000057D01*
D10*
D11*
X177002200Y-194507200D02*
X285002200Y-194507200D01*
D10*
D11*
X178434342Y-196585771D02*
X178434342Y-195085771D01*
X179291485Y-196585771D02*
X178648628Y-195728628D01*
X179291485Y-195085771D02*
X178434342Y-195942914D01*
X179934342Y-196585771D02*
X179934342Y-195585771D01*
X179934342Y-195085771D02*
X179862914Y-195157200D01*
X179934342Y-195228628D01*
X180005771Y-195157200D01*
X179934342Y-195085771D01*
X179934342Y-195228628D01*
X181505771Y-196442914D02*
X181434342Y-196514342D01*
X181220057Y-196585771D01*
X181077200Y-196585771D01*
X180862914Y-196514342D01*
X180720057Y-196371485D01*
X180648628Y-196228628D01*
X180577200Y-195942914D01*
X180577200Y-195728628D01*
X180648628Y-195442914D01*
X180720057Y-195300057D01*
X180862914Y-195157200D01*
X181077200Y-195085771D01*
X181220057Y-195085771D01*
X181434342Y-195157200D01*
X181505771Y-195228628D01*
X182791485Y-196585771D02*
X182791485Y-195800057D01*
X182720057Y-195657200D01*
X182577200Y-195585771D01*
X182291485Y-195585771D01*
X182148628Y-195657200D01*
X182791485Y-196514342D02*
X182648628Y-196585771D01*
X182291485Y-196585771D01*
X182148628Y-196514342D01*
X182077200Y-196371485D01*
X182077200Y-196228628D01*
X182148628Y-196085771D01*
X182291485Y-196014342D01*
X182648628Y-196014342D01*
X182791485Y-195942914D01*
X184148628Y-196585771D02*
X184148628Y-195085771D01*
X184148628Y-196514342D02*
X184005771Y-196585771D01*
X183720057Y-196585771D01*
X183577200Y-196514342D01*
X183505771Y-196442914D01*
X183434342Y-196300057D01*
X183434342Y-195871485D01*
X183505771Y-195728628D01*
X183577200Y-195657200D01*
X183720057Y-195585771D01*
X184005771Y-195585771D01*
X184148628Y-195657200D01*
X186005771Y-195800057D02*
X186505771Y-195800057D01*
X186720057Y-196585771D02*
X186005771Y-196585771D01*
X186005771Y-195085771D01*
X186720057Y-195085771D01*
X187362914Y-196442914D02*
X187434342Y-196514342D01*
X187362914Y-196585771D01*
X187291485Y-196514342D01*
X187362914Y-196442914D01*
X187362914Y-196585771D01*
X188077200Y-196585771D02*
X188077200Y-195085771D01*
X188434342Y-195085771D01*
X188648628Y-195157200D01*
X188791485Y-195300057D01*
X188862914Y-195442914D01*
X188934342Y-195728628D01*
X188934342Y-195942914D01*
X188862914Y-196228628D01*
X188791485Y-196371485D01*
X188648628Y-196514342D01*
X188434342Y-196585771D01*
X188077200Y-196585771D01*
X189577200Y-196442914D02*
X189648628Y-196514342D01*
X189577200Y-196585771D01*
X189505771Y-196514342D01*
X189577200Y-196442914D01*
X189577200Y-196585771D01*
X190220057Y-196157200D02*
X190934342Y-196157200D01*
X190077200Y-196585771D02*
X190577200Y-195085771D01*
X191077200Y-196585771D01*
X191577200Y-196442914D02*
X191648628Y-196514342D01*
X191577200Y-196585771D01*
X191505771Y-196514342D01*
X191577200Y-196442914D01*
X191577200Y-196585771D01*
X194577200Y-196585771D02*
X194577200Y-195085771D01*
X194720057Y-196014342D02*
X195148628Y-196585771D01*
X195148628Y-195585771D02*
X194577200Y-196157200D01*
X195791485Y-196585771D02*
X195791485Y-195585771D01*
X195791485Y-195085771D02*
X195720057Y-195157200D01*
X195791485Y-195228628D01*
X195862914Y-195157200D01*
X195791485Y-195085771D01*
X195791485Y-195228628D01*
X197148628Y-196514342D02*
X197005771Y-196585771D01*
X196720057Y-196585771D01*
X196577200Y-196514342D01*
X196505771Y-196442914D01*
X196434342Y-196300057D01*
X196434342Y-195871485D01*
X196505771Y-195728628D01*
X196577200Y-195657200D01*
X196720057Y-195585771D01*
X197005771Y-195585771D01*
X197148628Y-195657200D01*
X198434342Y-196585771D02*
X198434342Y-195800057D01*
X198362914Y-195657200D01*
X198220057Y-195585771D01*
X197934342Y-195585771D01*
X197791485Y-195657200D01*
X198434342Y-196514342D02*
X198291485Y-196585771D01*
X197934342Y-196585771D01*
X197791485Y-196514342D01*
X197720057Y-196371485D01*
X197720057Y-196228628D01*
X197791485Y-196085771D01*
X197934342Y-196014342D01*
X198291485Y-196014342D01*
X198434342Y-195942914D01*
X199791485Y-196585771D02*
X199791485Y-195085771D01*
X199791485Y-196514342D02*
X199648628Y-196585771D01*
X199362914Y-196585771D01*
X199220057Y-196514342D01*
X199148628Y-196442914D01*
X199077200Y-196300057D01*
X199077200Y-195871485D01*
X199148628Y-195728628D01*
X199220057Y-195657200D01*
X199362914Y-195585771D01*
X199648628Y-195585771D01*
X199791485Y-195657200D01*
X202077200Y-197157200D02*
X202005771Y-197085771D01*
X201862914Y-196871485D01*
X201791485Y-196728628D01*
X201720057Y-196514342D01*
X201648628Y-196157200D01*
X201648628Y-195871485D01*
X201720057Y-195514342D01*
X201791485Y-195300057D01*
X201862914Y-195157200D01*
X202005771Y-194942914D01*
X202077200Y-194871485D01*
X203362914Y-195085771D02*
X202648628Y-195085771D01*
X202577200Y-195800057D01*
X202648628Y-195728628D01*
X202791485Y-195657200D01*
X203148628Y-195657200D01*
X203291485Y-195728628D01*
X203362914Y-195800057D01*
X203434342Y-195942914D01*
X203434342Y-196300057D01*
X203362914Y-196442914D01*
X203291485Y-196514342D01*
X203148628Y-196585771D01*
X202791485Y-196585771D01*
X202648628Y-196514342D01*
X202577200Y-196442914D01*
X204077200Y-196442914D02*
X204148628Y-196514342D01*
X204077200Y-196585771D01*
X204005771Y-196514342D01*
X204077200Y-196442914D01*
X204077200Y-196585771D01*
X205577200Y-196585771D02*
X204720057Y-196585771D01*
X205148628Y-196585771D02*
X205148628Y-195085771D01*
X205005771Y-195300057D01*
X204862914Y-195442914D01*
X204720057Y-195514342D01*
X206220057Y-196442914D02*
X206291485Y-196514342D01*
X206220057Y-196585771D01*
X206148628Y-196514342D01*
X206220057Y-196442914D01*
X206220057Y-196585771D01*
X207648628Y-195085771D02*
X206934342Y-195085771D01*
X206862914Y-195800057D01*
X206934342Y-195728628D01*
X207077200Y-195657200D01*
X207434342Y-195657200D01*
X207577200Y-195728628D01*
X207648628Y-195800057D01*
X207720057Y-195942914D01*
X207720057Y-196300057D01*
X207648628Y-196442914D01*
X207577200Y-196514342D01*
X207434342Y-196585771D01*
X207077200Y-196585771D01*
X206934342Y-196514342D01*
X206862914Y-196442914D01*
X208220057Y-197157200D02*
X208291485Y-197085771D01*
X208434342Y-196871485D01*
X208505771Y-196728628D01*
X208577200Y-196514342D01*
X208648628Y-196157200D01*
X208648628Y-195871485D01*
X208577200Y-195514342D01*
X208505771Y-195300057D01*
X208434342Y-195157200D01*
X208291485Y-194942914D01*
X208220057Y-194871485D01*
X209362914Y-196014342D02*
X210505771Y-196014342D01*
X211077200Y-195085771D02*
X212005771Y-195085771D01*
X211505771Y-195657200D01*
X211720057Y-195657200D01*
X211862914Y-195728628D01*
X211934342Y-195800057D01*
X212005771Y-195942914D01*
X212005771Y-196300057D01*
X211934342Y-196442914D01*
X211862914Y-196514342D01*
X211720057Y-196585771D01*
X211291485Y-196585771D01*
X211148628Y-196514342D01*
X211077200Y-196442914D01*
D10*
D11*
X177002200Y-191507200D02*
X285002200Y-191507200D01*
D10*
D12*
X264411485Y-193785771D02*
X263911485Y-193071485D01*
X263554342Y-193785771D02*
X263554342Y-192285771D01*
X264125771Y-192285771D01*
X264268628Y-192357200D01*
X264340057Y-192428628D01*
X264411485Y-192571485D01*
X264411485Y-192785771D01*
X264340057Y-192928628D01*
X264268628Y-193000057D01*
X264125771Y-193071485D01*
X263554342Y-193071485D01*
X265625771Y-193714342D02*
X265482914Y-193785771D01*
X265197200Y-193785771D01*
X265054342Y-193714342D01*
X264982914Y-193571485D01*
X264982914Y-193000057D01*
X265054342Y-192857200D01*
X265197200Y-192785771D01*
X265482914Y-192785771D01*
X265625771Y-192857200D01*
X265697200Y-193000057D01*
X265697200Y-193142914D01*
X264982914Y-193285771D01*
X266197200Y-192785771D02*
X266554342Y-193785771D01*
X266911485Y-192785771D01*
X267482914Y-193642914D02*
X267554342Y-193714342D01*
X267482914Y-193785771D01*
X267411485Y-193714342D01*
X267482914Y-193642914D01*
X267482914Y-193785771D01*
X267482914Y-192857200D02*
X267554342Y-192928628D01*
X267482914Y-193000057D01*
X267411485Y-192928628D01*
X267482914Y-192857200D01*
X267482914Y-193000057D01*
D10*
D11*
X178362914Y-193714342D02*
X178577200Y-193785771D01*
X178934342Y-193785771D01*
X179077200Y-193714342D01*
X179148628Y-193642914D01*
X179220057Y-193500057D01*
X179220057Y-193357200D01*
X179148628Y-193214342D01*
X179077200Y-193142914D01*
X178934342Y-193071485D01*
X178648628Y-193000057D01*
X178505771Y-192928628D01*
X178434342Y-192857200D01*
X178362914Y-192714342D01*
X178362914Y-192571485D01*
X178434342Y-192428628D01*
X178505771Y-192357200D01*
X178648628Y-192285771D01*
X179005771Y-192285771D01*
X179220057Y-192357200D01*
X179862914Y-193785771D02*
X179862914Y-192785771D01*
X179862914Y-192285771D02*
X179791485Y-192357200D01*
X179862914Y-192428628D01*
X179934342Y-192357200D01*
X179862914Y-192285771D01*
X179862914Y-192428628D01*
X180434342Y-192785771D02*
X181220057Y-192785771D01*
X180434342Y-193785771D01*
X181220057Y-193785771D01*
X182362914Y-193714342D02*
X182220057Y-193785771D01*
X181934342Y-193785771D01*
X181791485Y-193714342D01*
X181720057Y-193571485D01*
X181720057Y-193000057D01*
X181791485Y-192857200D01*
X181934342Y-192785771D01*
X182220057Y-192785771D01*
X182362914Y-192857200D01*
X182434342Y-193000057D01*
X182434342Y-193142914D01*
X181720057Y-193285771D01*
X183077200Y-193642914D02*
X183148628Y-193714342D01*
X183077200Y-193785771D01*
X183005771Y-193714342D01*
X183077200Y-193642914D01*
X183077200Y-193785771D01*
X183077200Y-192857200D02*
X183148628Y-192928628D01*
X183077200Y-193000057D01*
X183005771Y-192928628D01*
X183077200Y-192857200D01*
X183077200Y-193000057D01*
X184862914Y-193357200D02*
X185577200Y-193357200D01*
X184720057Y-193785771D02*
X185220057Y-192285771D01*
X185720057Y-193785771D01*
X186862914Y-192785771D02*
X186862914Y-193785771D01*
X186505771Y-192214342D02*
X186148628Y-193285771D01*
X187077200Y-193285771D01*
D10*
D11*
X263434342Y-196585771D02*
X263434342Y-195085771D01*
X264791485Y-196585771D02*
X264791485Y-195085771D01*
X264791485Y-196514342D02*
X264648628Y-196585771D01*
X264362914Y-196585771D01*
X264220057Y-196514342D01*
X264148628Y-196442914D01*
X264077200Y-196300057D01*
X264077200Y-195871485D01*
X264148628Y-195728628D01*
X264220057Y-195657200D01*
X264362914Y-195585771D01*
X264648628Y-195585771D01*
X264791485Y-195657200D01*
X265505771Y-196442914D02*
X265577200Y-196514342D01*
X265505771Y-196585771D01*
X265434342Y-196514342D01*
X265505771Y-196442914D01*
X265505771Y-196585771D01*
X265505771Y-195657200D02*
X265577200Y-195728628D01*
X265505771Y-195800057D01*
X265434342Y-195728628D01*
X265505771Y-195657200D01*
X265505771Y-195800057D01*
X268148628Y-196585771D02*
X267291485Y-196585771D01*
X267720057Y-196585771D02*
X267720057Y-195085771D01*
X267577200Y-195300057D01*
X267434342Y-195442914D01*
X267291485Y-195514342D01*
X269862914Y-195014342D02*
X268577200Y-196942914D01*
X271148628Y-196585771D02*
X270291485Y-196585771D01*
X270720057Y-196585771D02*
X270720057Y-195085771D01*
X270577200Y-195300057D01*
X270434342Y-195442914D01*
X270291485Y-195514342D01*
D10*
D11*
X177002200Y-187507200D02*
X285002200Y-187507200D01*
D10*
D13*
X178714580Y-188211961D02*
X179857438Y-188211961D01*
X179036009Y-190211961D02*
X179286009Y-188211961D01*
X180274104Y-190211961D02*
X180440771Y-188878628D01*
X180524104Y-188211961D02*
X180416961Y-188307200D01*
X180500295Y-188402438D01*
X180607438Y-188307200D01*
X180524104Y-188211961D01*
X180500295Y-188402438D01*
X181107438Y-188878628D02*
X181869342Y-188878628D01*
X181476485Y-188211961D02*
X181262200Y-189926247D01*
X181333628Y-190116723D01*
X181512200Y-190211961D01*
X181702676Y-190211961D01*
X182655057Y-190211961D02*
X182476485Y-190116723D01*
X182405057Y-189926247D01*
X182619342Y-188211961D01*
X184190771Y-190116723D02*
X183988390Y-190211961D01*
X183607438Y-190211961D01*
X183428866Y-190116723D01*
X183357438Y-189926247D01*
X183452676Y-189164342D01*
X183571723Y-188973866D01*
X183774104Y-188878628D01*
X184155057Y-188878628D01*
X184333628Y-188973866D01*
X184405057Y-189164342D01*
X184381247Y-189354819D01*
X183405057Y-189545295D01*
X185155057Y-190021485D02*
X185238390Y-190116723D01*
X185131247Y-190211961D01*
X185047914Y-190116723D01*
X185155057Y-190021485D01*
X185131247Y-190211961D01*
X185286009Y-188973866D02*
X185369342Y-189069104D01*
X185262200Y-189164342D01*
X185178866Y-189069104D01*
X185286009Y-188973866D01*
X185262200Y-189164342D01*
D10*
D11*
X178934342Y-185600057D02*
X178434342Y-185600057D01*
X178434342Y-186385771D02*
X178434342Y-184885771D01*
X179148628Y-184885771D01*
X179720057Y-186385771D02*
X179720057Y-185385771D01*
X179720057Y-184885771D02*
X179648628Y-184957200D01*
X179720057Y-185028628D01*
X179791485Y-184957200D01*
X179720057Y-184885771D01*
X179720057Y-185028628D01*
X180648628Y-186385771D02*
X180505771Y-186314342D01*
X180434342Y-186171485D01*
X180434342Y-184885771D01*
X181791485Y-186314342D02*
X181648628Y-186385771D01*
X181362914Y-186385771D01*
X181220057Y-186314342D01*
X181148628Y-186171485D01*
X181148628Y-185600057D01*
X181220057Y-185457200D01*
X181362914Y-185385771D01*
X181648628Y-185385771D01*
X181791485Y-185457200D01*
X181862914Y-185600057D01*
X181862914Y-185742914D01*
X181148628Y-185885771D01*
X182505771Y-186242914D02*
X182577200Y-186314342D01*
X182505771Y-186385771D01*
X182434342Y-186314342D01*
X182505771Y-186242914D01*
X182505771Y-186385771D01*
X182505771Y-185457200D02*
X182577200Y-185528628D01*
X182505771Y-185600057D01*
X182434342Y-185528628D01*
X182505771Y-185457200D01*
X182505771Y-185600057D01*
X184220057Y-185385771D02*
X184577200Y-186385771D01*
X184934342Y-185385771D01*
X185434342Y-185028628D02*
X185505771Y-184957200D01*
X185648628Y-184885771D01*
X186005771Y-184885771D01*
X186148628Y-184957200D01*
X186220057Y-185028628D01*
X186291485Y-185171485D01*
X186291485Y-185314342D01*
X186220057Y-185528628D01*
X185362914Y-186385771D01*
X186291485Y-186385771D01*
X186934342Y-186242914D02*
X187005771Y-186314342D01*
X186934342Y-186385771D01*
X186862914Y-186314342D01*
X186934342Y-186242914D01*
X186934342Y-186385771D01*
X187648628Y-186385771D02*
X187648628Y-184885771D01*
X187791485Y-185814342D02*
X188220057Y-186385771D01*
X188220057Y-185385771D02*
X187648628Y-185957200D01*
X188862914Y-186385771D02*
X188862914Y-185385771D01*
X188862914Y-184885771D02*
X188791485Y-184957200D01*
X188862914Y-185028628D01*
X188934342Y-184957200D01*
X188862914Y-184885771D01*
X188862914Y-185028628D01*
X190220057Y-186314342D02*
X190077200Y-186385771D01*
X189791485Y-186385771D01*
X189648628Y-186314342D01*
X189577200Y-186242914D01*
X189505771Y-186100057D01*
X189505771Y-185671485D01*
X189577200Y-185528628D01*
X189648628Y-185457200D01*
X189791485Y-185385771D01*
X190077200Y-185385771D01*
X190220057Y-185457200D01*
X191505771Y-186385771D02*
X191505771Y-185600057D01*
X191434342Y-185457200D01*
X191291485Y-185385771D01*
X191005771Y-185385771D01*
X190862914Y-185457200D01*
X191505771Y-186314342D02*
X191362914Y-186385771D01*
X191005771Y-186385771D01*
X190862914Y-186314342D01*
X190791485Y-186171485D01*
X190791485Y-186028628D01*
X190862914Y-185885771D01*
X191005771Y-185814342D01*
X191362914Y-185814342D01*
X191505771Y-185742914D01*
X192862914Y-186385771D02*
X192862914Y-184885771D01*
X192862914Y-186314342D02*
X192720057Y-186385771D01*
X192434342Y-186385771D01*
X192291485Y-186314342D01*
X192220057Y-186242914D01*
X192148628Y-186100057D01*
X192148628Y-185671485D01*
X192220057Y-185528628D01*
X192291485Y-185457200D01*
X192434342Y-185385771D01*
X192720057Y-185385771D01*
X192862914Y-185457200D01*
X193220057Y-186528628D02*
X194362914Y-186528628D01*
X194720057Y-185385771D02*
X194720057Y-186885771D01*
X194720057Y-185457200D02*
X194862914Y-185385771D01*
X195148628Y-185385771D01*
X195291485Y-185457200D01*
X195362914Y-185528628D01*
X195434342Y-185671485D01*
X195434342Y-186100057D01*
X195362914Y-186242914D01*
X195291485Y-186314342D01*
X195148628Y-186385771D01*
X194862914Y-186385771D01*
X194720057Y-186314342D01*
X196720057Y-186314342D02*
X196577200Y-186385771D01*
X196291485Y-186385771D01*
X196148628Y-186314342D01*
X196077200Y-186242914D01*
X196005771Y-186100057D01*
X196005771Y-185671485D01*
X196077200Y-185528628D01*
X196148628Y-185457200D01*
X196291485Y-185385771D01*
X196577200Y-185385771D01*
X196720057Y-185457200D01*
X197362914Y-186385771D02*
X197362914Y-184885771D01*
X197362914Y-185457200D02*
X197505771Y-185385771D01*
X197791485Y-185385771D01*
X197934342Y-185457200D01*
X198005771Y-185528628D01*
X198077200Y-185671485D01*
X198077200Y-186100057D01*
X198005771Y-186242914D01*
X197934342Y-186314342D01*
X197791485Y-186385771D01*
X197505771Y-186385771D01*
X197362914Y-186314342D01*
D10*
D11*
X177002200Y-181507200D02*
X285002200Y-181507200D01*
D10*
D11*
X178362914Y-183614342D02*
X178577200Y-183685771D01*
X178934342Y-183685771D01*
X179077200Y-183614342D01*
X179148628Y-183542914D01*
X179220057Y-183400057D01*
X179220057Y-183257200D01*
X179148628Y-183114342D01*
X179077200Y-183042914D01*
X178934342Y-182971485D01*
X178648628Y-182900057D01*
X178505771Y-182828628D01*
X178434342Y-182757200D01*
X178362914Y-182614342D01*
X178362914Y-182471485D01*
X178434342Y-182328628D01*
X178505771Y-182257200D01*
X178648628Y-182185771D01*
X179005771Y-182185771D01*
X179220057Y-182257200D01*
X179862914Y-183685771D02*
X179862914Y-182185771D01*
X180505771Y-183685771D02*
X180505771Y-182900057D01*
X180434342Y-182757200D01*
X180291485Y-182685771D01*
X180077200Y-182685771D01*
X179934342Y-182757200D01*
X179862914Y-182828628D01*
X181791485Y-183614342D02*
X181648628Y-183685771D01*
X181362914Y-183685771D01*
X181220057Y-183614342D01*
X181148628Y-183471485D01*
X181148628Y-182900057D01*
X181220057Y-182757200D01*
X181362914Y-182685771D01*
X181648628Y-182685771D01*
X181791485Y-182757200D01*
X181862914Y-182900057D01*
X181862914Y-183042914D01*
X181148628Y-183185771D01*
X183077200Y-183614342D02*
X182934342Y-183685771D01*
X182648628Y-183685771D01*
X182505771Y-183614342D01*
X182434342Y-183471485D01*
X182434342Y-182900057D01*
X182505771Y-182757200D01*
X182648628Y-182685771D01*
X182934342Y-182685771D01*
X183077200Y-182757200D01*
X183148628Y-182900057D01*
X183148628Y-183042914D01*
X182434342Y-183185771D01*
X183577200Y-182685771D02*
X184148628Y-182685771D01*
X183791485Y-182185771D02*
X183791485Y-183471485D01*
X183862914Y-183614342D01*
X184005771Y-183685771D01*
X184148628Y-183685771D01*
X184648628Y-183542914D02*
X184720057Y-183614342D01*
X184648628Y-183685771D01*
X184577200Y-183614342D01*
X184648628Y-183542914D01*
X184648628Y-183685771D01*
X184648628Y-182757200D02*
X184720057Y-182828628D01*
X184648628Y-182900057D01*
X184577200Y-182828628D01*
X184648628Y-182757200D01*
X184648628Y-182900057D01*
D10*
D11*
X197002200Y-191507200D02*
X197002200Y-194507200D01*
D10*
D11*
X261002200Y-191507200D02*
X261002200Y-198007200D01*
D10*
X183673000Y-60734500D02*
X182673000Y-59734500D01*
X187913000Y-60734500D02*
X183673000Y-60734500D01*
X187913000Y-55484500D02*
X187913000Y-60734500D01*
X182673000Y-55484500D02*
X187913000Y-55484500D01*
X182673000Y-59734500D02*
X182673000Y-55484500D01*
X190208000Y-57423500D02*
X190208000Y-52923500D01*
X191808000Y-57423500D02*
X190208000Y-57423500D01*
X191808000Y-52923500D02*
X191808000Y-57423500D01*
X190208000Y-52923500D02*
X191808000Y-52923500D01*
X190358500Y-51092000D02*
X187158500Y-51092000D01*
X190358500Y-49492000D02*
X190358500Y-51092000D01*
X187158500Y-49492000D02*
X190358500Y-49492000D01*
X187158500Y-51092000D02*
X187158500Y-49492000D01*
X203702000Y-62600000D02*
X206502000Y-62600000D01*
X206502000Y-62600000D02*
X206502000Y-64400000D01*
X206502000Y-64400000D02*
X203702000Y-64400000D01*
X203702000Y-64400000D02*
X203702000Y-62600000D01*
X204352000Y-63500000D02*
X204752000Y-63500000D01*
X204752000Y-63500000D02*
X204752000Y-62950000D01*
X204752000Y-63500000D02*
X204752000Y-64050000D01*
X204752000Y-63500000D02*
X205352000Y-63100000D01*
X205352000Y-63100000D02*
X205352000Y-63900000D01*
X205352000Y-63900000D02*
X204752000Y-63500000D01*
X205352000Y-63500000D02*
X205852000Y-63500000D01*
X198512000Y-65148000D02*
X198512000Y-67948000D01*
X198512000Y-67948000D02*
X196712000Y-67948000D01*
X196712000Y-67948000D02*
X196712000Y-65148000D01*
X196712000Y-65148000D02*
X198512000Y-65148000D01*
X197612000Y-65798000D02*
X197612000Y-66198000D01*
X197612000Y-66198000D02*
X198162000Y-66198000D01*
X197612000Y-66198000D02*
X197062000Y-66198000D01*
X197612000Y-66198000D02*
X198012000Y-66798000D01*
X198012000Y-66798000D02*
X197212000Y-66798000D01*
X197212000Y-66798000D02*
X197612000Y-66198000D01*
X197612000Y-66798000D02*
X197612000Y-67298000D01*
X198628000Y-61584000D02*
X201428000Y-61584000D01*
X201428000Y-61584000D02*
X201428000Y-63384000D01*
X201428000Y-63384000D02*
X198628000Y-63384000D01*
X198628000Y-63384000D02*
X198628000Y-61584000D01*
X199278000Y-62484000D02*
X199678000Y-62484000D01*
X199678000Y-62484000D02*
X199678000Y-61934000D01*
X199678000Y-62484000D02*
X199678000Y-63034000D01*
X199678000Y-62484000D02*
X200278000Y-62084000D01*
X200278000Y-62084000D02*
X200278000Y-62884000D01*
X200278000Y-62884000D02*
X199678000Y-62484000D01*
X200278000Y-62484000D02*
X200778000Y-62484000D01*
X204053956Y-57076000D02*
X204053956Y-56576000D01*
X204303956Y-56826000D02*
X203803956Y-56826000D01*
X204920000Y-53976000D02*
X203920000Y-52976000D01*
X204920000Y-57276000D02*
X203920000Y-58276000D01*
X204920000Y-57276000D02*
X204920000Y-53976000D01*
X203920000Y-52976000D02*
X199620000Y-52976000D01*
X203920000Y-58276000D02*
X199620000Y-58276000D01*
X199620000Y-58276000D02*
X199620000Y-52976000D01*
X204770000Y-55626000D02*
G75*
G03X204770000Y-55626000I-2500000J0D01*
G01*
X190154044Y-67384000D02*
X190154044Y-67884000D01*
X189904044Y-67634000D02*
X190404044Y-67634000D01*
X189288000Y-70484000D02*
X190288000Y-71484000D01*
X189288000Y-67184000D02*
X190288000Y-66184000D01*
X189288000Y-67184000D02*
X189288000Y-70484000D01*
X190288000Y-71484000D02*
X194588000Y-71484000D01*
X190288000Y-66184000D02*
X194588000Y-66184000D01*
X194588000Y-66184000D02*
X194588000Y-71484000D01*
X194438000Y-68834000D02*
G75*
G03X194438000Y-68834000I-2500000J0D01*
G01*
X194234000Y-60101000D02*
X194234000Y-55601000D01*
X197434000Y-60101000D02*
X194234000Y-60101000D01*
X197434000Y-55601000D02*
X197434000Y-60101000D01*
X194234000Y-55601000D02*
X197434000Y-55601000D01*
X192644500Y-65258000D02*
X189444500Y-65258000D01*
X192644500Y-62758000D02*
X192644500Y-65258000D01*
X189444500Y-62758000D02*
X192644500Y-62758000D01*
X189444500Y-65258000D02*
X189444500Y-62758000D01*
D11*
X201612666Y-43450380D02*
X201279333Y-42974190D01*
X201041238Y-43450380D02*
X201041238Y-42450380D01*
X201422190Y-42450380D01*
X201517428Y-42498000D01*
X201565047Y-42545619D01*
X201612666Y-42640857D01*
X201612666Y-42783714D01*
X201565047Y-42878952D01*
X201517428Y-42926571D01*
X201422190Y-42974190D01*
X201041238Y-42974190D01*
X202041238Y-42926571D02*
X202374571Y-42926571D01*
X202517428Y-43450380D02*
X202041238Y-43450380D01*
X202041238Y-42450380D01*
X202517428Y-42450380D01*
X203279333Y-42926571D02*
X202946000Y-42926571D01*
X202946000Y-43450380D02*
X202946000Y-42450380D01*
X203422190Y-42450380D01*
X203946000Y-42450380D02*
X203946000Y-42688476D01*
X203707904Y-42593238D02*
X203946000Y-42688476D01*
X204184095Y-42593238D01*
X203803142Y-42878952D02*
X203946000Y-42688476D01*
X204088857Y-42878952D01*
X204707904Y-42450380D02*
X204707904Y-42688476D01*
X204469809Y-42593238D02*
X204707904Y-42688476D01*
X204946000Y-42593238D01*
X204565047Y-42878952D02*
X204707904Y-42688476D01*
X204850761Y-42878952D01*
X191969809Y-52450380D02*
X191969809Y-51450380D01*
X192303142Y-52164666D01*
X192636476Y-51450380D01*
X192636476Y-52450380D01*
X193255523Y-52450380D02*
X193160285Y-52402761D01*
X193112666Y-52355142D01*
X193065047Y-52259904D01*
X193065047Y-51974190D01*
X193112666Y-51878952D01*
X193160285Y-51831333D01*
X193255523Y-51783714D01*
X193398380Y-51783714D01*
X193493619Y-51831333D01*
X193541238Y-51878952D01*
X193588857Y-51974190D01*
X193588857Y-52259904D01*
X193541238Y-52355142D01*
X193493619Y-52402761D01*
X193398380Y-52450380D01*
X193255523Y-52450380D01*
X194446000Y-51783714D02*
X194446000Y-52450380D01*
X194017428Y-51783714D02*
X194017428Y-52307523D01*
X194065047Y-52402761D01*
X194160285Y-52450380D01*
X194303142Y-52450380D01*
X194398380Y-52402761D01*
X194446000Y-52355142D01*
X194922190Y-51783714D02*
X194922190Y-52450380D01*
X194922190Y-51878952D02*
X194969809Y-51831333D01*
X195065047Y-51783714D01*
X195207904Y-51783714D01*
X195303142Y-51831333D01*
X195350761Y-51926571D01*
X195350761Y-52450380D01*
X195684095Y-51783714D02*
X196065047Y-51783714D01*
X195826952Y-51450380D02*
X195826952Y-52307523D01*
X195874571Y-52402761D01*
X195969809Y-52450380D01*
X196065047Y-52450380D01*
X196398380Y-52450380D02*
X196398380Y-51783714D01*
X196398380Y-51450380D02*
X196350761Y-51498000D01*
X196398380Y-51545619D01*
X196446000Y-51498000D01*
X196398380Y-51450380D01*
X196398380Y-51545619D01*
X196874571Y-51783714D02*
X196874571Y-52450380D01*
X196874571Y-51878952D02*
X196922190Y-51831333D01*
X197017428Y-51783714D01*
X197160285Y-51783714D01*
X197255523Y-51831333D01*
X197303142Y-51926571D01*
X197303142Y-52450380D01*
X198207904Y-51783714D02*
X198207904Y-52593238D01*
X198160285Y-52688476D01*
X198112666Y-52736095D01*
X198017428Y-52783714D01*
X197874571Y-52783714D01*
X197779333Y-52736095D01*
X198207904Y-52402761D02*
X198112666Y-52450380D01*
X197922190Y-52450380D01*
X197826952Y-52402761D01*
X197779333Y-52355142D01*
X197731714Y-52259904D01*
X197731714Y-51974190D01*
X197779333Y-51878952D01*
X197826952Y-51831333D01*
X197922190Y-51783714D01*
X198112666Y-51783714D01*
X198207904Y-51831333D01*
X198684095Y-52450380D02*
X198684095Y-51450380D01*
X198684095Y-51926571D02*
X199255523Y-51926571D01*
X199255523Y-52450380D02*
X199255523Y-51450380D01*
X199874571Y-52450380D02*
X199779333Y-52402761D01*
X199731714Y-52355142D01*
X199684095Y-52259904D01*
X199684095Y-51974190D01*
X199731714Y-51878952D01*
X199779333Y-51831333D01*
X199874571Y-51783714D01*
X200017428Y-51783714D01*
X200112666Y-51831333D01*
X200160285Y-51878952D01*
X200207904Y-51974190D01*
X200207904Y-52259904D01*
X200160285Y-52355142D01*
X200112666Y-52402761D01*
X200017428Y-52450380D01*
X199874571Y-52450380D01*
X200779333Y-52450380D02*
X200684095Y-52402761D01*
X200636476Y-52307523D01*
X200636476Y-51450380D01*
X201541238Y-52402761D02*
X201446000Y-52450380D01*
X201255523Y-52450380D01*
X201160285Y-52402761D01*
X201112666Y-52307523D01*
X201112666Y-51926571D01*
X201160285Y-51831333D01*
X201255523Y-51783714D01*
X201446000Y-51783714D01*
X201541238Y-51831333D01*
X201588857Y-51926571D01*
X201588857Y-52021809D01*
X201112666Y-52117047D01*
X201779333Y-52545619D02*
X202541238Y-52545619D01*
X202684095Y-51450380D02*
X203303142Y-51450380D01*
X202969809Y-51831333D01*
X203112666Y-51831333D01*
X203207904Y-51878952D01*
X203255523Y-51926571D01*
X203303142Y-52021809D01*
X203303142Y-52259904D01*
X203255523Y-52355142D01*
X203207904Y-52402761D01*
X203112666Y-52450380D01*
X202826952Y-52450380D01*
X202731714Y-52402761D01*
X202684095Y-52355142D01*
X203731714Y-52355142D02*
X203779333Y-52402761D01*
X203731714Y-52450380D01*
X203684095Y-52402761D01*
X203731714Y-52355142D01*
X203731714Y-52450380D01*
X204684095Y-51450380D02*
X204207904Y-51450380D01*
X204160285Y-51926571D01*
X204207904Y-51878952D01*
X204303142Y-51831333D01*
X204541238Y-51831333D01*
X204636476Y-51878952D01*
X204684095Y-51926571D01*
X204731714Y-52021809D01*
X204731714Y-52259904D01*
X204684095Y-52355142D01*
X204636476Y-52402761D01*
X204541238Y-52450380D01*
X204303142Y-52450380D01*
X204207904Y-52402761D01*
X204160285Y-52355142D01*
X205160285Y-52450380D02*
X205160285Y-51783714D01*
X205160285Y-51878952D02*
X205207904Y-51831333D01*
X205303142Y-51783714D01*
X205446000Y-51783714D01*
X205541238Y-51831333D01*
X205588857Y-51926571D01*
X205588857Y-52450380D01*
X205588857Y-51926571D02*
X205636476Y-51831333D01*
X205731714Y-51783714D01*
X205874571Y-51783714D01*
X205969809Y-51831333D01*
X206017428Y-51926571D01*
X206017428Y-52450380D01*
X206493619Y-52450380D02*
X206493619Y-51783714D01*
X206493619Y-51878952D02*
X206541238Y-51831333D01*
X206636476Y-51783714D01*
X206779333Y-51783714D01*
X206874571Y-51831333D01*
X206922190Y-51926571D01*
X206922190Y-52450380D01*
X206922190Y-51926571D02*
X206969809Y-51831333D01*
X207065047Y-51783714D01*
X207207904Y-51783714D01*
X207303142Y-51831333D01*
X207350761Y-51926571D01*
X207350761Y-52450380D01*
X207588857Y-52545619D02*
X208350761Y-52545619D01*
X208588857Y-52450380D02*
X208588857Y-51450380D01*
X208969809Y-51450380D01*
X209065047Y-51498000D01*
X209112666Y-51545619D01*
X209160285Y-51640857D01*
X209160285Y-51783714D01*
X209112666Y-51878952D01*
X209065047Y-51926571D01*
X208969809Y-51974190D01*
X208588857Y-51974190D01*
X210017428Y-52450380D02*
X210017428Y-51926571D01*
X209969809Y-51831333D01*
X209874571Y-51783714D01*
X209684095Y-51783714D01*
X209588857Y-51831333D01*
X210017428Y-52402761D02*
X209922190Y-52450380D01*
X209684095Y-52450380D01*
X209588857Y-52402761D01*
X209541238Y-52307523D01*
X209541238Y-52212285D01*
X209588857Y-52117047D01*
X209684095Y-52069428D01*
X209922190Y-52069428D01*
X210017428Y-52021809D01*
X210922190Y-52450380D02*
X210922190Y-51450380D01*
X210922190Y-52402761D02*
X210826952Y-52450380D01*
X210636476Y-52450380D01*
X210541238Y-52402761D01*
X210493619Y-52355142D01*
X210446000Y-52259904D01*
X210446000Y-51974190D01*
X210493619Y-51878952D01*
X210541238Y-51831333D01*
X210636476Y-51783714D01*
X210826952Y-51783714D01*
X210922190Y-51831333D01*
X211160285Y-52545619D02*
X211922190Y-52545619D01*
X212017428Y-51450380D02*
X212350761Y-52450380D01*
X212684095Y-51450380D01*
X213017428Y-52450380D02*
X213017428Y-51783714D01*
X213017428Y-51450380D02*
X212969809Y-51498000D01*
X213017428Y-51545619D01*
X213065047Y-51498000D01*
X213017428Y-51450380D01*
X213017428Y-51545619D01*
X213922190Y-52450380D02*
X213922190Y-51926571D01*
X213874571Y-51831333D01*
X213779333Y-51783714D01*
X213588857Y-51783714D01*
X213493619Y-51831333D01*
X213922190Y-52402761D02*
X213826952Y-52450380D01*
X213588857Y-52450380D01*
X213493619Y-52402761D01*
X213446000Y-52307523D01*
X213446000Y-52212285D01*
X213493619Y-52117047D01*
X213588857Y-52069428D01*
X213826952Y-52069428D01*
X213922190Y-52021809D01*
X201912666Y-47950380D02*
X201579333Y-47474190D01*
X201341238Y-47950380D02*
X201341238Y-46950380D01*
X201722190Y-46950380D01*
X201817428Y-46998000D01*
X201865047Y-47045619D01*
X201912666Y-47140857D01*
X201912666Y-47283714D01*
X201865047Y-47378952D01*
X201817428Y-47426571D01*
X201722190Y-47474190D01*
X201341238Y-47474190D01*
X202341238Y-47426571D02*
X202674571Y-47426571D01*
X202817428Y-47950380D02*
X202341238Y-47950380D01*
X202341238Y-46950380D01*
X202817428Y-46950380D01*
X203579333Y-47426571D02*
X203246000Y-47426571D01*
X203246000Y-47950380D02*
X203246000Y-46950380D01*
X203722190Y-46950380D01*
X204246000Y-46950380D02*
X204246000Y-47188476D01*
X204007904Y-47093238D02*
X204246000Y-47188476D01*
X204484095Y-47093238D01*
X204103142Y-47378952D02*
X204246000Y-47188476D01*
X204388857Y-47378952D01*
X205007904Y-46950380D02*
X205007904Y-47188476D01*
X204769809Y-47093238D02*
X205007904Y-47188476D01*
X205246000Y-47093238D01*
X204865047Y-47378952D02*
X205007904Y-47188476D01*
X205150761Y-47378952D01*
X201612666Y-64532380D02*
X201279333Y-64056190D01*
X201041238Y-64532380D02*
X201041238Y-63532380D01*
X201422190Y-63532380D01*
X201517428Y-63580000D01*
X201565047Y-63627619D01*
X201612666Y-63722857D01*
X201612666Y-63865714D01*
X201565047Y-63960952D01*
X201517428Y-64008571D01*
X201422190Y-64056190D01*
X201041238Y-64056190D01*
X202041238Y-64008571D02*
X202374571Y-64008571D01*
X202517428Y-64532380D02*
X202041238Y-64532380D01*
X202041238Y-63532380D01*
X202517428Y-63532380D01*
X203279333Y-64008571D02*
X202946000Y-64008571D01*
X202946000Y-64532380D02*
X202946000Y-63532380D01*
X203422190Y-63532380D01*
X203946000Y-63532380D02*
X203946000Y-63770476D01*
X203707904Y-63675238D02*
X203946000Y-63770476D01*
X204184095Y-63675238D01*
X203803142Y-63960952D02*
X203946000Y-63770476D01*
X204088857Y-63960952D01*
X204707904Y-63532380D02*
X204707904Y-63770476D01*
X204469809Y-63675238D02*
X204707904Y-63770476D01*
X204946000Y-63675238D01*
X204565047Y-63960952D02*
X204707904Y-63770476D01*
X204850761Y-63960952D01*
X191969809Y-73532380D02*
X191969809Y-72532380D01*
X192303142Y-73246666D01*
X192636476Y-72532380D01*
X192636476Y-73532380D01*
X193255523Y-73532380D02*
X193160285Y-73484761D01*
X193112666Y-73437142D01*
X193065047Y-73341904D01*
X193065047Y-73056190D01*
X193112666Y-72960952D01*
X193160285Y-72913333D01*
X193255523Y-72865714D01*
X193398380Y-72865714D01*
X193493619Y-72913333D01*
X193541238Y-72960952D01*
X193588857Y-73056190D01*
X193588857Y-73341904D01*
X193541238Y-73437142D01*
X193493619Y-73484761D01*
X193398380Y-73532380D01*
X193255523Y-73532380D01*
X194446000Y-72865714D02*
X194446000Y-73532380D01*
X194017428Y-72865714D02*
X194017428Y-73389523D01*
X194065047Y-73484761D01*
X194160285Y-73532380D01*
X194303142Y-73532380D01*
X194398380Y-73484761D01*
X194446000Y-73437142D01*
X194922190Y-72865714D02*
X194922190Y-73532380D01*
X194922190Y-72960952D02*
X194969809Y-72913333D01*
X195065047Y-72865714D01*
X195207904Y-72865714D01*
X195303142Y-72913333D01*
X195350761Y-73008571D01*
X195350761Y-73532380D01*
X195684095Y-72865714D02*
X196065047Y-72865714D01*
X195826952Y-72532380D02*
X195826952Y-73389523D01*
X195874571Y-73484761D01*
X195969809Y-73532380D01*
X196065047Y-73532380D01*
X196398380Y-73532380D02*
X196398380Y-72865714D01*
X196398380Y-72532380D02*
X196350761Y-72580000D01*
X196398380Y-72627619D01*
X196446000Y-72580000D01*
X196398380Y-72532380D01*
X196398380Y-72627619D01*
X196874571Y-72865714D02*
X196874571Y-73532380D01*
X196874571Y-72960952D02*
X196922190Y-72913333D01*
X197017428Y-72865714D01*
X197160285Y-72865714D01*
X197255523Y-72913333D01*
X197303142Y-73008571D01*
X197303142Y-73532380D01*
X198207904Y-72865714D02*
X198207904Y-73675238D01*
X198160285Y-73770476D01*
X198112666Y-73818095D01*
X198017428Y-73865714D01*
X197874571Y-73865714D01*
X197779333Y-73818095D01*
X198207904Y-73484761D02*
X198112666Y-73532380D01*
X197922190Y-73532380D01*
X197826952Y-73484761D01*
X197779333Y-73437142D01*
X197731714Y-73341904D01*
X197731714Y-73056190D01*
X197779333Y-72960952D01*
X197826952Y-72913333D01*
X197922190Y-72865714D01*
X198112666Y-72865714D01*
X198207904Y-72913333D01*
X198684095Y-73532380D02*
X198684095Y-72532380D01*
X198684095Y-73008571D02*
X199255523Y-73008571D01*
X199255523Y-73532380D02*
X199255523Y-72532380D01*
X199874571Y-73532380D02*
X199779333Y-73484761D01*
X199731714Y-73437142D01*
X199684095Y-73341904D01*
X199684095Y-73056190D01*
X199731714Y-72960952D01*
X199779333Y-72913333D01*
X199874571Y-72865714D01*
X200017428Y-72865714D01*
X200112666Y-72913333D01*
X200160285Y-72960952D01*
X200207904Y-73056190D01*
X200207904Y-73341904D01*
X200160285Y-73437142D01*
X200112666Y-73484761D01*
X200017428Y-73532380D01*
X199874571Y-73532380D01*
X200779333Y-73532380D02*
X200684095Y-73484761D01*
X200636476Y-73389523D01*
X200636476Y-72532380D01*
X201541238Y-73484761D02*
X201446000Y-73532380D01*
X201255523Y-73532380D01*
X201160285Y-73484761D01*
X201112666Y-73389523D01*
X201112666Y-73008571D01*
X201160285Y-72913333D01*
X201255523Y-72865714D01*
X201446000Y-72865714D01*
X201541238Y-72913333D01*
X201588857Y-73008571D01*
X201588857Y-73103809D01*
X201112666Y-73199047D01*
X201779333Y-73627619D02*
X202541238Y-73627619D01*
X202684095Y-72532380D02*
X203303142Y-72532380D01*
X202969809Y-72913333D01*
X203112666Y-72913333D01*
X203207904Y-72960952D01*
X203255523Y-73008571D01*
X203303142Y-73103809D01*
X203303142Y-73341904D01*
X203255523Y-73437142D01*
X203207904Y-73484761D01*
X203112666Y-73532380D01*
X202826952Y-73532380D01*
X202731714Y-73484761D01*
X202684095Y-73437142D01*
X203731714Y-73437142D02*
X203779333Y-73484761D01*
X203731714Y-73532380D01*
X203684095Y-73484761D01*
X203731714Y-73437142D01*
X203731714Y-73532380D01*
X204684095Y-72532380D02*
X204207904Y-72532380D01*
X204160285Y-73008571D01*
X204207904Y-72960952D01*
X204303142Y-72913333D01*
X204541238Y-72913333D01*
X204636476Y-72960952D01*
X204684095Y-73008571D01*
X204731714Y-73103809D01*
X204731714Y-73341904D01*
X204684095Y-73437142D01*
X204636476Y-73484761D01*
X204541238Y-73532380D01*
X204303142Y-73532380D01*
X204207904Y-73484761D01*
X204160285Y-73437142D01*
X205160285Y-73532380D02*
X205160285Y-72865714D01*
X205160285Y-72960952D02*
X205207904Y-72913333D01*
X205303142Y-72865714D01*
X205446000Y-72865714D01*
X205541238Y-72913333D01*
X205588857Y-73008571D01*
X205588857Y-73532380D01*
X205588857Y-73008571D02*
X205636476Y-72913333D01*
X205731714Y-72865714D01*
X205874571Y-72865714D01*
X205969809Y-72913333D01*
X206017428Y-73008571D01*
X206017428Y-73532380D01*
X206493619Y-73532380D02*
X206493619Y-72865714D01*
X206493619Y-72960952D02*
X206541238Y-72913333D01*
X206636476Y-72865714D01*
X206779333Y-72865714D01*
X206874571Y-72913333D01*
X206922190Y-73008571D01*
X206922190Y-73532380D01*
X206922190Y-73008571D02*
X206969809Y-72913333D01*
X207065047Y-72865714D01*
X207207904Y-72865714D01*
X207303142Y-72913333D01*
X207350761Y-73008571D01*
X207350761Y-73532380D01*
X207588857Y-73627619D02*
X208350761Y-73627619D01*
X208588857Y-73532380D02*
X208588857Y-72532380D01*
X208969809Y-72532380D01*
X209065047Y-72580000D01*
X209112666Y-72627619D01*
X209160285Y-72722857D01*
X209160285Y-72865714D01*
X209112666Y-72960952D01*
X209065047Y-73008571D01*
X208969809Y-73056190D01*
X208588857Y-73056190D01*
X210017428Y-73532380D02*
X210017428Y-73008571D01*
X209969809Y-72913333D01*
X209874571Y-72865714D01*
X209684095Y-72865714D01*
X209588857Y-72913333D01*
X210017428Y-73484761D02*
X209922190Y-73532380D01*
X209684095Y-73532380D01*
X209588857Y-73484761D01*
X209541238Y-73389523D01*
X209541238Y-73294285D01*
X209588857Y-73199047D01*
X209684095Y-73151428D01*
X209922190Y-73151428D01*
X210017428Y-73103809D01*
X210922190Y-73532380D02*
X210922190Y-72532380D01*
X210922190Y-73484761D02*
X210826952Y-73532380D01*
X210636476Y-73532380D01*
X210541238Y-73484761D01*
X210493619Y-73437142D01*
X210446000Y-73341904D01*
X210446000Y-73056190D01*
X210493619Y-72960952D01*
X210541238Y-72913333D01*
X210636476Y-72865714D01*
X210826952Y-72865714D01*
X210922190Y-72913333D01*
X211160285Y-73627619D02*
X211922190Y-73627619D01*
X212017428Y-72532380D02*
X212350761Y-73532380D01*
X212684095Y-72532380D01*
X213017428Y-73532380D02*
X213017428Y-72865714D01*
X213017428Y-72532380D02*
X212969809Y-72580000D01*
X213017428Y-72627619D01*
X213065047Y-72580000D01*
X213017428Y-72532380D01*
X213017428Y-72627619D01*
X213922190Y-73532380D02*
X213922190Y-73008571D01*
X213874571Y-72913333D01*
X213779333Y-72865714D01*
X213588857Y-72865714D01*
X213493619Y-72913333D01*
X213922190Y-73484761D02*
X213826952Y-73532380D01*
X213588857Y-73532380D01*
X213493619Y-73484761D01*
X213446000Y-73389523D01*
X213446000Y-73294285D01*
X213493619Y-73199047D01*
X213588857Y-73151428D01*
X213826952Y-73151428D01*
X213922190Y-73103809D01*
X201912666Y-69032380D02*
X201579333Y-68556190D01*
X201341238Y-69032380D02*
X201341238Y-68032380D01*
X201722190Y-68032380D01*
X201817428Y-68080000D01*
X201865047Y-68127619D01*
X201912666Y-68222857D01*
X201912666Y-68365714D01*
X201865047Y-68460952D01*
X201817428Y-68508571D01*
X201722190Y-68556190D01*
X201341238Y-68556190D01*
X202341238Y-68508571D02*
X202674571Y-68508571D01*
X202817428Y-69032380D02*
X202341238Y-69032380D01*
X202341238Y-68032380D01*
X202817428Y-68032380D01*
X203579333Y-68508571D02*
X203246000Y-68508571D01*
X203246000Y-69032380D02*
X203246000Y-68032380D01*
X203722190Y-68032380D01*
X204246000Y-68032380D02*
X204246000Y-68270476D01*
X204007904Y-68175238D02*
X204246000Y-68270476D01*
X204484095Y-68175238D01*
X204103142Y-68460952D02*
X204246000Y-68270476D01*
X204388857Y-68460952D01*
X205007904Y-68032380D02*
X205007904Y-68270476D01*
X204769809Y-68175238D02*
X205007904Y-68270476D01*
X205246000Y-68175238D01*
X204865047Y-68460952D02*
X205007904Y-68270476D01*
X205150761Y-68460952D01*
X180530666Y-64532380D02*
X180197333Y-64056190D01*
X179959238Y-64532380D02*
X179959238Y-63532380D01*
X180340190Y-63532380D01*
X180435428Y-63580000D01*
X180483047Y-63627619D01*
X180530666Y-63722857D01*
X180530666Y-63865714D01*
X180483047Y-63960952D01*
X180435428Y-64008571D01*
X180340190Y-64056190D01*
X179959238Y-64056190D01*
X180959238Y-64008571D02*
X181292571Y-64008571D01*
X181435428Y-64532380D02*
X180959238Y-64532380D01*
X180959238Y-63532380D01*
X181435428Y-63532380D01*
X182197333Y-64008571D02*
X181864000Y-64008571D01*
X181864000Y-64532380D02*
X181864000Y-63532380D01*
X182340190Y-63532380D01*
X182864000Y-63532380D02*
X182864000Y-63770476D01*
X182625904Y-63675238D02*
X182864000Y-63770476D01*
X183102095Y-63675238D01*
X182721142Y-63960952D02*
X182864000Y-63770476D01*
X183006857Y-63960952D01*
X183625904Y-63532380D02*
X183625904Y-63770476D01*
X183387809Y-63675238D02*
X183625904Y-63770476D01*
X183864000Y-63675238D01*
X183483047Y-63960952D02*
X183625904Y-63770476D01*
X183768761Y-63960952D01*
X170887809Y-73532380D02*
X170887809Y-72532380D01*
X171221142Y-73246666D01*
X171554476Y-72532380D01*
X171554476Y-73532380D01*
X172173523Y-73532380D02*
X172078285Y-73484761D01*
X172030666Y-73437142D01*
X171983047Y-73341904D01*
X171983047Y-73056190D01*
X172030666Y-72960952D01*
X172078285Y-72913333D01*
X172173523Y-72865714D01*
X172316380Y-72865714D01*
X172411619Y-72913333D01*
X172459238Y-72960952D01*
X172506857Y-73056190D01*
X172506857Y-73341904D01*
X172459238Y-73437142D01*
X172411619Y-73484761D01*
X172316380Y-73532380D01*
X172173523Y-73532380D01*
X173364000Y-72865714D02*
X173364000Y-73532380D01*
X172935428Y-72865714D02*
X172935428Y-73389523D01*
X172983047Y-73484761D01*
X173078285Y-73532380D01*
X173221142Y-73532380D01*
X173316380Y-73484761D01*
X173364000Y-73437142D01*
X173840190Y-72865714D02*
X173840190Y-73532380D01*
X173840190Y-72960952D02*
X173887809Y-72913333D01*
X173983047Y-72865714D01*
X174125904Y-72865714D01*
X174221142Y-72913333D01*
X174268761Y-73008571D01*
X174268761Y-73532380D01*
X174602095Y-72865714D02*
X174983047Y-72865714D01*
X174744952Y-72532380D02*
X174744952Y-73389523D01*
X174792571Y-73484761D01*
X174887809Y-73532380D01*
X174983047Y-73532380D01*
X175316380Y-73532380D02*
X175316380Y-72865714D01*
X175316380Y-72532380D02*
X175268761Y-72580000D01*
X175316380Y-72627619D01*
X175364000Y-72580000D01*
X175316380Y-72532380D01*
X175316380Y-72627619D01*
X175792571Y-72865714D02*
X175792571Y-73532380D01*
X175792571Y-72960952D02*
X175840190Y-72913333D01*
X175935428Y-72865714D01*
X176078285Y-72865714D01*
X176173523Y-72913333D01*
X176221142Y-73008571D01*
X176221142Y-73532380D01*
X177125904Y-72865714D02*
X177125904Y-73675238D01*
X177078285Y-73770476D01*
X177030666Y-73818095D01*
X176935428Y-73865714D01*
X176792571Y-73865714D01*
X176697333Y-73818095D01*
X177125904Y-73484761D02*
X177030666Y-73532380D01*
X176840190Y-73532380D01*
X176744952Y-73484761D01*
X176697333Y-73437142D01*
X176649714Y-73341904D01*
X176649714Y-73056190D01*
X176697333Y-72960952D01*
X176744952Y-72913333D01*
X176840190Y-72865714D01*
X177030666Y-72865714D01*
X177125904Y-72913333D01*
X177602095Y-73532380D02*
X177602095Y-72532380D01*
X177602095Y-73008571D02*
X178173523Y-73008571D01*
X178173523Y-73532380D02*
X178173523Y-72532380D01*
X178792571Y-73532380D02*
X178697333Y-73484761D01*
X178649714Y-73437142D01*
X178602095Y-73341904D01*
X178602095Y-73056190D01*
X178649714Y-72960952D01*
X178697333Y-72913333D01*
X178792571Y-72865714D01*
X178935428Y-72865714D01*
X179030666Y-72913333D01*
X179078285Y-72960952D01*
X179125904Y-73056190D01*
X179125904Y-73341904D01*
X179078285Y-73437142D01*
X179030666Y-73484761D01*
X178935428Y-73532380D01*
X178792571Y-73532380D01*
X179697333Y-73532380D02*
X179602095Y-73484761D01*
X179554476Y-73389523D01*
X179554476Y-72532380D01*
X180459238Y-73484761D02*
X180364000Y-73532380D01*
X180173523Y-73532380D01*
X180078285Y-73484761D01*
X180030666Y-73389523D01*
X180030666Y-73008571D01*
X180078285Y-72913333D01*
X180173523Y-72865714D01*
X180364000Y-72865714D01*
X180459238Y-72913333D01*
X180506857Y-73008571D01*
X180506857Y-73103809D01*
X180030666Y-73199047D01*
X180697333Y-73627619D02*
X181459238Y-73627619D01*
X181602095Y-72532380D02*
X182221142Y-72532380D01*
X181887809Y-72913333D01*
X182030666Y-72913333D01*
X182125904Y-72960952D01*
X182173523Y-73008571D01*
X182221142Y-73103809D01*
X182221142Y-73341904D01*
X182173523Y-73437142D01*
X182125904Y-73484761D01*
X182030666Y-73532380D01*
X181744952Y-73532380D01*
X181649714Y-73484761D01*
X181602095Y-73437142D01*
X182649714Y-73437142D02*
X182697333Y-73484761D01*
X182649714Y-73532380D01*
X182602095Y-73484761D01*
X182649714Y-73437142D01*
X182649714Y-73532380D01*
X183602095Y-72532380D02*
X183125904Y-72532380D01*
X183078285Y-73008571D01*
X183125904Y-72960952D01*
X183221142Y-72913333D01*
X183459238Y-72913333D01*
X183554476Y-72960952D01*
X183602095Y-73008571D01*
X183649714Y-73103809D01*
X183649714Y-73341904D01*
X183602095Y-73437142D01*
X183554476Y-73484761D01*
X183459238Y-73532380D01*
X183221142Y-73532380D01*
X183125904Y-73484761D01*
X183078285Y-73437142D01*
X184078285Y-73532380D02*
X184078285Y-72865714D01*
X184078285Y-72960952D02*
X184125904Y-72913333D01*
X184221142Y-72865714D01*
X184364000Y-72865714D01*
X184459238Y-72913333D01*
X184506857Y-73008571D01*
X184506857Y-73532380D01*
X184506857Y-73008571D02*
X184554476Y-72913333D01*
X184649714Y-72865714D01*
X184792571Y-72865714D01*
X184887809Y-72913333D01*
X184935428Y-73008571D01*
X184935428Y-73532380D01*
X185411619Y-73532380D02*
X185411619Y-72865714D01*
X185411619Y-72960952D02*
X185459238Y-72913333D01*
X185554476Y-72865714D01*
X185697333Y-72865714D01*
X185792571Y-72913333D01*
X185840190Y-73008571D01*
X185840190Y-73532380D01*
X185840190Y-73008571D02*
X185887809Y-72913333D01*
X185983047Y-72865714D01*
X186125904Y-72865714D01*
X186221142Y-72913333D01*
X186268761Y-73008571D01*
X186268761Y-73532380D01*
X186506857Y-73627619D02*
X187268761Y-73627619D01*
X187506857Y-73532380D02*
X187506857Y-72532380D01*
X187887809Y-72532380D01*
X187983047Y-72580000D01*
X188030666Y-72627619D01*
X188078285Y-72722857D01*
X188078285Y-72865714D01*
X188030666Y-72960952D01*
X187983047Y-73008571D01*
X187887809Y-73056190D01*
X187506857Y-73056190D01*
X188935428Y-73532380D02*
X188935428Y-73008571D01*
X188887809Y-72913333D01*
X188792571Y-72865714D01*
X188602095Y-72865714D01*
X188506857Y-72913333D01*
X188935428Y-73484761D02*
X188840190Y-73532380D01*
X188602095Y-73532380D01*
X188506857Y-73484761D01*
X188459238Y-73389523D01*
X188459238Y-73294285D01*
X188506857Y-73199047D01*
X188602095Y-73151428D01*
X188840190Y-73151428D01*
X188935428Y-73103809D01*
X189840190Y-73532380D02*
X189840190Y-72532380D01*
X189840190Y-73484761D02*
X189744952Y-73532380D01*
X189554476Y-73532380D01*
X189459238Y-73484761D01*
X189411619Y-73437142D01*
X189364000Y-73341904D01*
X189364000Y-73056190D01*
X189411619Y-72960952D01*
X189459238Y-72913333D01*
X189554476Y-72865714D01*
X189744952Y-72865714D01*
X189840190Y-72913333D01*
X190078285Y-73627619D02*
X190840190Y-73627619D01*
X190935428Y-72532380D02*
X191268761Y-73532380D01*
X191602095Y-72532380D01*
X191935428Y-73532380D02*
X191935428Y-72865714D01*
X191935428Y-72532380D02*
X191887809Y-72580000D01*
X191935428Y-72627619D01*
X191983047Y-72580000D01*
X191935428Y-72532380D01*
X191935428Y-72627619D01*
X192840190Y-73532380D02*
X192840190Y-73008571D01*
X192792571Y-72913333D01*
X192697333Y-72865714D01*
X192506857Y-72865714D01*
X192411619Y-72913333D01*
X192840190Y-73484761D02*
X192744952Y-73532380D01*
X192506857Y-73532380D01*
X192411619Y-73484761D01*
X192364000Y-73389523D01*
X192364000Y-73294285D01*
X192411619Y-73199047D01*
X192506857Y-73151428D01*
X192744952Y-73151428D01*
X192840190Y-73103809D01*
X180830666Y-69032380D02*
X180497333Y-68556190D01*
X180259238Y-69032380D02*
X180259238Y-68032380D01*
X180640190Y-68032380D01*
X180735428Y-68080000D01*
X180783047Y-68127619D01*
X180830666Y-68222857D01*
X180830666Y-68365714D01*
X180783047Y-68460952D01*
X180735428Y-68508571D01*
X180640190Y-68556190D01*
X180259238Y-68556190D01*
X181259238Y-68508571D02*
X181592571Y-68508571D01*
X181735428Y-69032380D02*
X181259238Y-69032380D01*
X181259238Y-68032380D01*
X181735428Y-68032380D01*
X182497333Y-68508571D02*
X182164000Y-68508571D01*
X182164000Y-69032380D02*
X182164000Y-68032380D01*
X182640190Y-68032380D01*
X183164000Y-68032380D02*
X183164000Y-68270476D01*
X182925904Y-68175238D02*
X183164000Y-68270476D01*
X183402095Y-68175238D01*
X183021142Y-68460952D02*
X183164000Y-68270476D01*
X183306857Y-68460952D01*
X183925904Y-68032380D02*
X183925904Y-68270476D01*
X183687809Y-68175238D02*
X183925904Y-68270476D01*
X184164000Y-68175238D01*
X183783047Y-68460952D02*
X183925904Y-68270476D01*
X184068761Y-68460952D01*
X180530666Y-43450380D02*
X180197333Y-42974190D01*
X179959238Y-43450380D02*
X179959238Y-42450380D01*
X180340190Y-42450380D01*
X180435428Y-42498000D01*
X180483047Y-42545619D01*
X180530666Y-42640857D01*
X180530666Y-42783714D01*
X180483047Y-42878952D01*
X180435428Y-42926571D01*
X180340190Y-42974190D01*
X179959238Y-42974190D01*
X180959238Y-42926571D02*
X181292571Y-42926571D01*
X181435428Y-43450380D02*
X180959238Y-43450380D01*
X180959238Y-42450380D01*
X181435428Y-42450380D01*
X182197333Y-42926571D02*
X181864000Y-42926571D01*
X181864000Y-43450380D02*
X181864000Y-42450380D01*
X182340190Y-42450380D01*
X182864000Y-42450380D02*
X182864000Y-42688476D01*
X182625904Y-42593238D02*
X182864000Y-42688476D01*
X183102095Y-42593238D01*
X182721142Y-42878952D02*
X182864000Y-42688476D01*
X183006857Y-42878952D01*
X183625904Y-42450380D02*
X183625904Y-42688476D01*
X183387809Y-42593238D02*
X183625904Y-42688476D01*
X183864000Y-42593238D01*
X183483047Y-42878952D02*
X183625904Y-42688476D01*
X183768761Y-42878952D01*
X170887809Y-52450380D02*
X170887809Y-51450380D01*
X171221142Y-52164666D01*
X171554476Y-51450380D01*
X171554476Y-52450380D01*
X172173523Y-52450380D02*
X172078285Y-52402761D01*
X172030666Y-52355142D01*
X171983047Y-52259904D01*
X171983047Y-51974190D01*
X172030666Y-51878952D01*
X172078285Y-51831333D01*
X172173523Y-51783714D01*
X172316380Y-51783714D01*
X172411619Y-51831333D01*
X172459238Y-51878952D01*
X172506857Y-51974190D01*
X172506857Y-52259904D01*
X172459238Y-52355142D01*
X172411619Y-52402761D01*
X172316380Y-52450380D01*
X172173523Y-52450380D01*
X173364000Y-51783714D02*
X173364000Y-52450380D01*
X172935428Y-51783714D02*
X172935428Y-52307523D01*
X172983047Y-52402761D01*
X173078285Y-52450380D01*
X173221142Y-52450380D01*
X173316380Y-52402761D01*
X173364000Y-52355142D01*
X173840190Y-51783714D02*
X173840190Y-52450380D01*
X173840190Y-51878952D02*
X173887809Y-51831333D01*
X173983047Y-51783714D01*
X174125904Y-51783714D01*
X174221142Y-51831333D01*
X174268761Y-51926571D01*
X174268761Y-52450380D01*
X174602095Y-51783714D02*
X174983047Y-51783714D01*
X174744952Y-51450380D02*
X174744952Y-52307523D01*
X174792571Y-52402761D01*
X174887809Y-52450380D01*
X174983047Y-52450380D01*
X175316380Y-52450380D02*
X175316380Y-51783714D01*
X175316380Y-51450380D02*
X175268761Y-51498000D01*
X175316380Y-51545619D01*
X175364000Y-51498000D01*
X175316380Y-51450380D01*
X175316380Y-51545619D01*
X175792571Y-51783714D02*
X175792571Y-52450380D01*
X175792571Y-51878952D02*
X175840190Y-51831333D01*
X175935428Y-51783714D01*
X176078285Y-51783714D01*
X176173523Y-51831333D01*
X176221142Y-51926571D01*
X176221142Y-52450380D01*
X177125904Y-51783714D02*
X177125904Y-52593238D01*
X177078285Y-52688476D01*
X177030666Y-52736095D01*
X176935428Y-52783714D01*
X176792571Y-52783714D01*
X176697333Y-52736095D01*
X177125904Y-52402761D02*
X177030666Y-52450380D01*
X176840190Y-52450380D01*
X176744952Y-52402761D01*
X176697333Y-52355142D01*
X176649714Y-52259904D01*
X176649714Y-51974190D01*
X176697333Y-51878952D01*
X176744952Y-51831333D01*
X176840190Y-51783714D01*
X177030666Y-51783714D01*
X177125904Y-51831333D01*
X177602095Y-52450380D02*
X177602095Y-51450380D01*
X177602095Y-51926571D02*
X178173523Y-51926571D01*
X178173523Y-52450380D02*
X178173523Y-51450380D01*
X178792571Y-52450380D02*
X178697333Y-52402761D01*
X178649714Y-52355142D01*
X178602095Y-52259904D01*
X178602095Y-51974190D01*
X178649714Y-51878952D01*
X178697333Y-51831333D01*
X178792571Y-51783714D01*
X178935428Y-51783714D01*
X179030666Y-51831333D01*
X179078285Y-51878952D01*
X179125904Y-51974190D01*
X179125904Y-52259904D01*
X179078285Y-52355142D01*
X179030666Y-52402761D01*
X178935428Y-52450380D01*
X178792571Y-52450380D01*
X179697333Y-52450380D02*
X179602095Y-52402761D01*
X179554476Y-52307523D01*
X179554476Y-51450380D01*
X180459238Y-52402761D02*
X180364000Y-52450380D01*
X180173523Y-52450380D01*
X180078285Y-52402761D01*
X180030666Y-52307523D01*
X180030666Y-51926571D01*
X180078285Y-51831333D01*
X180173523Y-51783714D01*
X180364000Y-51783714D01*
X180459238Y-51831333D01*
X180506857Y-51926571D01*
X180506857Y-52021809D01*
X180030666Y-52117047D01*
X180697333Y-52545619D02*
X181459238Y-52545619D01*
X181602095Y-51450380D02*
X182221142Y-51450380D01*
X181887809Y-51831333D01*
X182030666Y-51831333D01*
X182125904Y-51878952D01*
X182173523Y-51926571D01*
X182221142Y-52021809D01*
X182221142Y-52259904D01*
X182173523Y-52355142D01*
X182125904Y-52402761D01*
X182030666Y-52450380D01*
X181744952Y-52450380D01*
X181649714Y-52402761D01*
X181602095Y-52355142D01*
X182649714Y-52355142D02*
X182697333Y-52402761D01*
X182649714Y-52450380D01*
X182602095Y-52402761D01*
X182649714Y-52355142D01*
X182649714Y-52450380D01*
X183602095Y-51450380D02*
X183125904Y-51450380D01*
X183078285Y-51926571D01*
X183125904Y-51878952D01*
X183221142Y-51831333D01*
X183459238Y-51831333D01*
X183554476Y-51878952D01*
X183602095Y-51926571D01*
X183649714Y-52021809D01*
X183649714Y-52259904D01*
X183602095Y-52355142D01*
X183554476Y-52402761D01*
X183459238Y-52450380D01*
X183221142Y-52450380D01*
X183125904Y-52402761D01*
X183078285Y-52355142D01*
X184078285Y-52450380D02*
X184078285Y-51783714D01*
X184078285Y-51878952D02*
X184125904Y-51831333D01*
X184221142Y-51783714D01*
X184364000Y-51783714D01*
X184459238Y-51831333D01*
X184506857Y-51926571D01*
X184506857Y-52450380D01*
X184506857Y-51926571D02*
X184554476Y-51831333D01*
X184649714Y-51783714D01*
X184792571Y-51783714D01*
X184887809Y-51831333D01*
X184935428Y-51926571D01*
X184935428Y-52450380D01*
X185411619Y-52450380D02*
X185411619Y-51783714D01*
X185411619Y-51878952D02*
X185459238Y-51831333D01*
X185554476Y-51783714D01*
X185697333Y-51783714D01*
X185792571Y-51831333D01*
X185840190Y-51926571D01*
X185840190Y-52450380D01*
X185840190Y-51926571D02*
X185887809Y-51831333D01*
X185983047Y-51783714D01*
X186125904Y-51783714D01*
X186221142Y-51831333D01*
X186268761Y-51926571D01*
X186268761Y-52450380D01*
X186506857Y-52545619D02*
X187268761Y-52545619D01*
X187506857Y-52450380D02*
X187506857Y-51450380D01*
X187887809Y-51450380D01*
X187983047Y-51498000D01*
X188030666Y-51545619D01*
X188078285Y-51640857D01*
X188078285Y-51783714D01*
X188030666Y-51878952D01*
X187983047Y-51926571D01*
X187887809Y-51974190D01*
X187506857Y-51974190D01*
X188935428Y-52450380D02*
X188935428Y-51926571D01*
X188887809Y-51831333D01*
X188792571Y-51783714D01*
X188602095Y-51783714D01*
X188506857Y-51831333D01*
X188935428Y-52402761D02*
X188840190Y-52450380D01*
X188602095Y-52450380D01*
X188506857Y-52402761D01*
X188459238Y-52307523D01*
X188459238Y-52212285D01*
X188506857Y-52117047D01*
X188602095Y-52069428D01*
X188840190Y-52069428D01*
X188935428Y-52021809D01*
X189840190Y-52450380D02*
X189840190Y-51450380D01*
X189840190Y-52402761D02*
X189744952Y-52450380D01*
X189554476Y-52450380D01*
X189459238Y-52402761D01*
X189411619Y-52355142D01*
X189364000Y-52259904D01*
X189364000Y-51974190D01*
X189411619Y-51878952D01*
X189459238Y-51831333D01*
X189554476Y-51783714D01*
X189744952Y-51783714D01*
X189840190Y-51831333D01*
X190078285Y-52545619D02*
X190840190Y-52545619D01*
X190935428Y-51450380D02*
X191268761Y-52450380D01*
X191602095Y-51450380D01*
X191935428Y-52450380D02*
X191935428Y-51783714D01*
X191935428Y-51450380D02*
X191887809Y-51498000D01*
X191935428Y-51545619D01*
X191983047Y-51498000D01*
X191935428Y-51450380D01*
X191935428Y-51545619D01*
X192840190Y-52450380D02*
X192840190Y-51926571D01*
X192792571Y-51831333D01*
X192697333Y-51783714D01*
X192506857Y-51783714D01*
X192411619Y-51831333D01*
X192840190Y-52402761D02*
X192744952Y-52450380D01*
X192506857Y-52450380D01*
X192411619Y-52402761D01*
X192364000Y-52307523D01*
X192364000Y-52212285D01*
X192411619Y-52117047D01*
X192506857Y-52069428D01*
X192744952Y-52069428D01*
X192840190Y-52021809D01*
X180830666Y-47950380D02*
X180497333Y-47474190D01*
X180259238Y-47950380D02*
X180259238Y-46950380D01*
X180640190Y-46950380D01*
X180735428Y-46998000D01*
X180783047Y-47045619D01*
X180830666Y-47140857D01*
X180830666Y-47283714D01*
X180783047Y-47378952D01*
X180735428Y-47426571D01*
X180640190Y-47474190D01*
X180259238Y-47474190D01*
X181259238Y-47426571D02*
X181592571Y-47426571D01*
X181735428Y-47950380D02*
X181259238Y-47950380D01*
X181259238Y-46950380D01*
X181735428Y-46950380D01*
X182497333Y-47426571D02*
X182164000Y-47426571D01*
X182164000Y-47950380D02*
X182164000Y-46950380D01*
X182640190Y-46950380D01*
X183164000Y-46950380D02*
X183164000Y-47188476D01*
X182925904Y-47093238D02*
X183164000Y-47188476D01*
X183402095Y-47093238D01*
X183021142Y-47378952D02*
X183164000Y-47188476D01*
X183306857Y-47378952D01*
X183925904Y-46950380D02*
X183925904Y-47188476D01*
X183687809Y-47093238D02*
X183925904Y-47188476D01*
X184164000Y-47093238D01*
X183783047Y-47378952D02*
X183925904Y-47188476D01*
X184068761Y-47378952D01*
X181175380Y-58871404D02*
X181984904Y-58871404D01*
X182080142Y-58823785D01*
X182127761Y-58776166D01*
X182175380Y-58680928D01*
X182175380Y-58490452D01*
X182127761Y-58395214D01*
X182080142Y-58347595D01*
X181984904Y-58299976D01*
X181175380Y-58299976D01*
X182175380Y-57299976D02*
X182175380Y-57871404D01*
X182175380Y-57585690D02*
X181175380Y-57585690D01*
X181318238Y-57680928D01*
X181413476Y-57776166D01*
X181461095Y-57871404D01*
X189315380Y-59799976D02*
X189315380Y-60276166D01*
X188315380Y-60276166D01*
X189315380Y-59466642D02*
X188315380Y-59466642D01*
X189029666Y-59133309D01*
X188315380Y-58799976D01*
X189315380Y-58799976D01*
X188315380Y-57847595D02*
X188315380Y-58323785D01*
X188791571Y-58371404D01*
X188743952Y-58323785D01*
X188696333Y-58228547D01*
X188696333Y-57990452D01*
X188743952Y-57895214D01*
X188791571Y-57847595D01*
X188886809Y-57799976D01*
X189124904Y-57799976D01*
X189220142Y-57847595D01*
X189267761Y-57895214D01*
X189315380Y-57990452D01*
X189315380Y-58228547D01*
X189267761Y-58323785D01*
X189220142Y-58371404D01*
X188315380Y-56895214D02*
X188315380Y-57371404D01*
X188791571Y-57419023D01*
X188743952Y-57371404D01*
X188696333Y-57276166D01*
X188696333Y-57038071D01*
X188743952Y-56942833D01*
X188791571Y-56895214D01*
X188886809Y-56847595D01*
X189124904Y-56847595D01*
X189220142Y-56895214D01*
X189267761Y-56942833D01*
X189315380Y-57038071D01*
X189315380Y-57276166D01*
X189267761Y-57371404D01*
X189220142Y-57419023D01*
X188315380Y-55942833D02*
X188315380Y-56419023D01*
X188791571Y-56466642D01*
X188743952Y-56419023D01*
X188696333Y-56323785D01*
X188696333Y-56085690D01*
X188743952Y-55990452D01*
X188791571Y-55942833D01*
X188886809Y-55895214D01*
X189124904Y-55895214D01*
X189220142Y-55942833D01*
X189267761Y-55990452D01*
X189315380Y-56085690D01*
X189315380Y-56323785D01*
X189267761Y-56419023D01*
X189220142Y-56466642D01*
X184745380Y-58871404D02*
X185554904Y-58871404D01*
X185650142Y-58823785D01*
X185697761Y-58776166D01*
X185745380Y-58680928D01*
X185745380Y-58490452D01*
X185697761Y-58395214D01*
X185650142Y-58347595D01*
X185554904Y-58299976D01*
X184745380Y-58299976D01*
X185745380Y-57299976D02*
X185745380Y-57871404D01*
X185745380Y-57585690D02*
X184745380Y-57585690D01*
X184888238Y-57680928D01*
X184983476Y-57776166D01*
X185031095Y-57871404D01*
X193310380Y-55340166D02*
X192834190Y-55673500D01*
X193310380Y-55911595D02*
X192310380Y-55911595D01*
X192310380Y-55530642D01*
X192358000Y-55435404D01*
X192405619Y-55387785D01*
X192500857Y-55340166D01*
X192643714Y-55340166D01*
X192738952Y-55387785D01*
X192786571Y-55435404D01*
X192834190Y-55530642D01*
X192834190Y-55911595D01*
X192405619Y-54959214D02*
X192358000Y-54911595D01*
X192310380Y-54816357D01*
X192310380Y-54578261D01*
X192358000Y-54483023D01*
X192405619Y-54435404D01*
X192500857Y-54387785D01*
X192596095Y-54387785D01*
X192738952Y-54435404D01*
X193310380Y-55006833D01*
X193310380Y-54387785D01*
X189610380Y-55768738D02*
X189610380Y-56340166D01*
X189610380Y-56054452D02*
X188610380Y-56054452D01*
X188753238Y-56149690D01*
X188848476Y-56244928D01*
X188896095Y-56340166D01*
X188610380Y-54863976D02*
X188610380Y-55340166D01*
X189086571Y-55387785D01*
X189038952Y-55340166D01*
X188991333Y-55244928D01*
X188991333Y-55006833D01*
X189038952Y-54911595D01*
X189086571Y-54863976D01*
X189181809Y-54816357D01*
X189419904Y-54816357D01*
X189515142Y-54863976D01*
X189562761Y-54911595D01*
X189610380Y-55006833D01*
X189610380Y-55244928D01*
X189562761Y-55340166D01*
X189515142Y-55387785D01*
X189610380Y-54387785D02*
X188610380Y-54387785D01*
X189229428Y-54292547D02*
X189610380Y-54006833D01*
X188943714Y-54006833D02*
X189324666Y-54387785D01*
X191460380Y-55340166D02*
X190984190Y-55673500D01*
X191460380Y-55911595D02*
X190460380Y-55911595D01*
X190460380Y-55530642D01*
X190508000Y-55435404D01*
X190555619Y-55387785D01*
X190650857Y-55340166D01*
X190793714Y-55340166D01*
X190888952Y-55387785D01*
X190936571Y-55435404D01*
X190984190Y-55530642D01*
X190984190Y-55911595D01*
X190555619Y-54959214D02*
X190508000Y-54911595D01*
X190460380Y-54816357D01*
X190460380Y-54578261D01*
X190508000Y-54483023D01*
X190555619Y-54435404D01*
X190650857Y-54387785D01*
X190746095Y-54387785D01*
X190888952Y-54435404D01*
X191460380Y-55006833D01*
X191460380Y-54387785D01*
X188591833Y-48924380D02*
X188258500Y-48448190D01*
X188020404Y-48924380D02*
X188020404Y-47924380D01*
X188401357Y-47924380D01*
X188496595Y-47972000D01*
X188544214Y-48019619D01*
X188591833Y-48114857D01*
X188591833Y-48257714D01*
X188544214Y-48352952D01*
X188496595Y-48400571D01*
X188401357Y-48448190D01*
X188020404Y-48448190D01*
X189544214Y-48924380D02*
X188972785Y-48924380D01*
X189258500Y-48924380D02*
X189258500Y-47924380D01*
X189163261Y-48067238D01*
X189068023Y-48162476D01*
X188972785Y-48210095D01*
X187925166Y-52564380D02*
X187353738Y-52564380D01*
X187639452Y-52564380D02*
X187639452Y-51564380D01*
X187544214Y-51707238D01*
X187448976Y-51802476D01*
X187353738Y-51850095D01*
X188353738Y-52469142D02*
X188401357Y-52516761D01*
X188353738Y-52564380D01*
X188306119Y-52516761D01*
X188353738Y-52469142D01*
X188353738Y-52564380D01*
X189306119Y-51564380D02*
X188829928Y-51564380D01*
X188782309Y-52040571D01*
X188829928Y-51992952D01*
X188925166Y-51945333D01*
X189163261Y-51945333D01*
X189258500Y-51992952D01*
X189306119Y-52040571D01*
X189353738Y-52135809D01*
X189353738Y-52373904D01*
X189306119Y-52469142D01*
X189258500Y-52516761D01*
X189163261Y-52564380D01*
X188925166Y-52564380D01*
X188829928Y-52516761D01*
X188782309Y-52469142D01*
X189782309Y-52564380D02*
X189782309Y-51564380D01*
X189877547Y-52183428D02*
X190163261Y-52564380D01*
X190163261Y-51897714D02*
X189782309Y-52278666D01*
D14*
X188625166Y-50653904D02*
X188358500Y-50272952D01*
X188168023Y-50653904D02*
X188168023Y-49853904D01*
X188472785Y-49853904D01*
X188548976Y-49892000D01*
X188587071Y-49930095D01*
X188625166Y-50006285D01*
X188625166Y-50120571D01*
X188587071Y-50196761D01*
X188548976Y-50234857D01*
X188472785Y-50272952D01*
X188168023Y-50272952D01*
X189387071Y-50653904D02*
X188929928Y-50653904D01*
X189158500Y-50653904D02*
X189158500Y-49853904D01*
X189082309Y-49968190D01*
X189006119Y-50044380D01*
X188929928Y-50082476D01*
D11*
X204236904Y-62047380D02*
X204236904Y-61047380D01*
X204475000Y-61047380D01*
X204617857Y-61095000D01*
X204713095Y-61190238D01*
X204760714Y-61285476D01*
X204808333Y-61475952D01*
X204808333Y-61618809D01*
X204760714Y-61809285D01*
X204713095Y-61904523D01*
X204617857Y-61999761D01*
X204475000Y-62047380D01*
X204236904Y-62047380D01*
X205141666Y-61047380D02*
X205760714Y-61047380D01*
X205427380Y-61428333D01*
X205570238Y-61428333D01*
X205665476Y-61475952D01*
X205713095Y-61523571D01*
X205760714Y-61618809D01*
X205760714Y-61856904D01*
X205713095Y-61952142D01*
X205665476Y-61999761D01*
X205570238Y-62047380D01*
X205284523Y-62047380D01*
X205189285Y-61999761D01*
X205141666Y-61952142D01*
X204236904Y-62047380D02*
X204236904Y-61047380D01*
X204475000Y-61047380D01*
X204617857Y-61095000D01*
X204713095Y-61190238D01*
X204760714Y-61285476D01*
X204808333Y-61475952D01*
X204808333Y-61618809D01*
X204760714Y-61809285D01*
X204713095Y-61904523D01*
X204617857Y-61999761D01*
X204475000Y-62047380D01*
X204236904Y-62047380D01*
X205141666Y-61047380D02*
X205760714Y-61047380D01*
X205427380Y-61428333D01*
X205570238Y-61428333D01*
X205665476Y-61475952D01*
X205713095Y-61523571D01*
X205760714Y-61618809D01*
X205760714Y-61856904D01*
X205713095Y-61952142D01*
X205665476Y-61999761D01*
X205570238Y-62047380D01*
X205284523Y-62047380D01*
X205189285Y-61999761D01*
X205141666Y-61952142D01*
X196873904Y-71064380D02*
X196873904Y-70064380D01*
X197112000Y-70064380D01*
X197254857Y-70112000D01*
X197350095Y-70207238D01*
X197397714Y-70302476D01*
X197445333Y-70492952D01*
X197445333Y-70635809D01*
X197397714Y-70826285D01*
X197350095Y-70921523D01*
X197254857Y-71016761D01*
X197112000Y-71064380D01*
X196873904Y-71064380D01*
X197826285Y-70159619D02*
X197873904Y-70112000D01*
X197969142Y-70064380D01*
X198207238Y-70064380D01*
X198302476Y-70112000D01*
X198350095Y-70159619D01*
X198397714Y-70254857D01*
X198397714Y-70350095D01*
X198350095Y-70492952D01*
X197778666Y-71064380D01*
X198397714Y-71064380D01*
X199969380Y-67159095D02*
X198969380Y-67159095D01*
X198969380Y-66921000D01*
X199017000Y-66778142D01*
X199112238Y-66682904D01*
X199207476Y-66635285D01*
X199397952Y-66587666D01*
X199540809Y-66587666D01*
X199731285Y-66635285D01*
X199826523Y-66682904D01*
X199921761Y-66778142D01*
X199969380Y-66921000D01*
X199969380Y-67159095D01*
X199064619Y-66206714D02*
X199017000Y-66159095D01*
X198969380Y-66063857D01*
X198969380Y-65825761D01*
X199017000Y-65730523D01*
X199064619Y-65682904D01*
X199159857Y-65635285D01*
X199255095Y-65635285D01*
X199397952Y-65682904D01*
X199969380Y-66254333D01*
X199969380Y-65635285D01*
X199162904Y-61031380D02*
X199162904Y-60031380D01*
X199401000Y-60031380D01*
X199543857Y-60079000D01*
X199639095Y-60174238D01*
X199686714Y-60269476D01*
X199734333Y-60459952D01*
X199734333Y-60602809D01*
X199686714Y-60793285D01*
X199639095Y-60888523D01*
X199543857Y-60983761D01*
X199401000Y-61031380D01*
X199162904Y-61031380D01*
X200686714Y-61031380D02*
X200115285Y-61031380D01*
X200401000Y-61031380D02*
X200401000Y-60031380D01*
X200305761Y-60174238D01*
X200210523Y-60269476D01*
X200115285Y-60317095D01*
X199162904Y-61031380D02*
X199162904Y-60031380D01*
X199401000Y-60031380D01*
X199543857Y-60079000D01*
X199639095Y-60174238D01*
X199686714Y-60269476D01*
X199734333Y-60459952D01*
X199734333Y-60602809D01*
X199686714Y-60793285D01*
X199639095Y-60888523D01*
X199543857Y-60983761D01*
X199401000Y-61031380D01*
X199162904Y-61031380D01*
X200686714Y-61031380D02*
X200115285Y-61031380D01*
X200401000Y-61031380D02*
X200401000Y-60031380D01*
X200305761Y-60174238D01*
X200210523Y-60269476D01*
X200115285Y-60317095D01*
X202103333Y-59683142D02*
X202055714Y-59730761D01*
X201912857Y-59778380D01*
X201817619Y-59778380D01*
X201674761Y-59730761D01*
X201579523Y-59635523D01*
X201531904Y-59540285D01*
X201484285Y-59349809D01*
X201484285Y-59206952D01*
X201531904Y-59016476D01*
X201579523Y-58921238D01*
X201674761Y-58826000D01*
X201817619Y-58778380D01*
X201912857Y-58778380D01*
X202055714Y-58826000D01*
X202103333Y-58873619D01*
X202960476Y-59111714D02*
X202960476Y-59778380D01*
X202722380Y-58730761D02*
X202484285Y-59445047D01*
X203103333Y-59445047D01*
X201150952Y-52378380D02*
X200579523Y-52378380D01*
X200865238Y-52378380D02*
X200865238Y-51378380D01*
X200770000Y-51521238D01*
X200674761Y-51616476D01*
X200579523Y-51664095D01*
X201770000Y-51378380D02*
X201865238Y-51378380D01*
X201960476Y-51426000D01*
X202008095Y-51473619D01*
X202055714Y-51568857D01*
X202103333Y-51759333D01*
X202103333Y-51997428D01*
X202055714Y-52187904D01*
X202008095Y-52283142D01*
X201960476Y-52330761D01*
X201865238Y-52378380D01*
X201770000Y-52378380D01*
X201674761Y-52330761D01*
X201627142Y-52283142D01*
X201579523Y-52187904D01*
X201531904Y-51997428D01*
X201531904Y-51759333D01*
X201579523Y-51568857D01*
X201627142Y-51473619D01*
X201674761Y-51426000D01*
X201770000Y-51378380D01*
X202722380Y-51378380D02*
X202817619Y-51378380D01*
X202912857Y-51426000D01*
X202960476Y-51473619D01*
X203008095Y-51568857D01*
X203055714Y-51759333D01*
X203055714Y-51997428D01*
X203008095Y-52187904D01*
X202960476Y-52283142D01*
X202912857Y-52330761D01*
X202817619Y-52378380D01*
X202722380Y-52378380D01*
X202627142Y-52330761D01*
X202579523Y-52283142D01*
X202531904Y-52187904D01*
X202484285Y-51997428D01*
X202484285Y-51759333D01*
X202531904Y-51568857D01*
X202579523Y-51473619D01*
X202627142Y-51426000D01*
X202722380Y-51378380D01*
X203912857Y-51711714D02*
X203912857Y-52378380D01*
X203484285Y-51711714D02*
X203484285Y-52235523D01*
X203531904Y-52330761D01*
X203627142Y-52378380D01*
X203770000Y-52378380D01*
X203865238Y-52330761D01*
X203912857Y-52283142D01*
X202103333Y-55983142D02*
X202055714Y-56030761D01*
X201912857Y-56078380D01*
X201817619Y-56078380D01*
X201674761Y-56030761D01*
X201579523Y-55935523D01*
X201531904Y-55840285D01*
X201484285Y-55649809D01*
X201484285Y-55506952D01*
X201531904Y-55316476D01*
X201579523Y-55221238D01*
X201674761Y-55126000D01*
X201817619Y-55078380D01*
X201912857Y-55078380D01*
X202055714Y-55126000D01*
X202103333Y-55173619D01*
X202960476Y-55411714D02*
X202960476Y-56078380D01*
X202722380Y-55030761D02*
X202484285Y-55745047D01*
X203103333Y-55745047D01*
X187793333Y-71985142D02*
X187745714Y-72032761D01*
X187602857Y-72080380D01*
X187507619Y-72080380D01*
X187364761Y-72032761D01*
X187269523Y-71937523D01*
X187221904Y-71842285D01*
X187174285Y-71651809D01*
X187174285Y-71508952D01*
X187221904Y-71318476D01*
X187269523Y-71223238D01*
X187364761Y-71128000D01*
X187507619Y-71080380D01*
X187602857Y-71080380D01*
X187745714Y-71128000D01*
X187793333Y-71175619D01*
X188126666Y-71080380D02*
X188745714Y-71080380D01*
X188412380Y-71461333D01*
X188555238Y-71461333D01*
X188650476Y-71508952D01*
X188698095Y-71556571D01*
X188745714Y-71651809D01*
X188745714Y-71889904D01*
X188698095Y-71985142D01*
X188650476Y-72032761D01*
X188555238Y-72080380D01*
X188269523Y-72080380D01*
X188174285Y-72032761D01*
X188126666Y-71985142D01*
X190818952Y-72986380D02*
X190247523Y-72986380D01*
X190533238Y-72986380D02*
X190533238Y-71986380D01*
X190438000Y-72129238D01*
X190342761Y-72224476D01*
X190247523Y-72272095D01*
X191438000Y-71986380D02*
X191533238Y-71986380D01*
X191628476Y-72034000D01*
X191676095Y-72081619D01*
X191723714Y-72176857D01*
X191771333Y-72367333D01*
X191771333Y-72605428D01*
X191723714Y-72795904D01*
X191676095Y-72891142D01*
X191628476Y-72938761D01*
X191533238Y-72986380D01*
X191438000Y-72986380D01*
X191342761Y-72938761D01*
X191295142Y-72891142D01*
X191247523Y-72795904D01*
X191199904Y-72605428D01*
X191199904Y-72367333D01*
X191247523Y-72176857D01*
X191295142Y-72081619D01*
X191342761Y-72034000D01*
X191438000Y-71986380D01*
X192390380Y-71986380D02*
X192485619Y-71986380D01*
X192580857Y-72034000D01*
X192628476Y-72081619D01*
X192676095Y-72176857D01*
X192723714Y-72367333D01*
X192723714Y-72605428D01*
X192676095Y-72795904D01*
X192628476Y-72891142D01*
X192580857Y-72938761D01*
X192485619Y-72986380D01*
X192390380Y-72986380D01*
X192295142Y-72938761D01*
X192247523Y-72891142D01*
X192199904Y-72795904D01*
X192152285Y-72605428D01*
X192152285Y-72367333D01*
X192199904Y-72176857D01*
X192247523Y-72081619D01*
X192295142Y-72034000D01*
X192390380Y-71986380D01*
X193580857Y-72319714D02*
X193580857Y-72986380D01*
X193152285Y-72319714D02*
X193152285Y-72843523D01*
X193199904Y-72938761D01*
X193295142Y-72986380D01*
X193438000Y-72986380D01*
X193533238Y-72938761D01*
X193580857Y-72891142D01*
X191771333Y-69191142D02*
X191723714Y-69238761D01*
X191580857Y-69286380D01*
X191485619Y-69286380D01*
X191342761Y-69238761D01*
X191247523Y-69143523D01*
X191199904Y-69048285D01*
X191152285Y-68857809D01*
X191152285Y-68714952D01*
X191199904Y-68524476D01*
X191247523Y-68429238D01*
X191342761Y-68334000D01*
X191485619Y-68286380D01*
X191580857Y-68286380D01*
X191723714Y-68334000D01*
X191771333Y-68381619D01*
X192104666Y-68286380D02*
X192723714Y-68286380D01*
X192390380Y-68667333D01*
X192533238Y-68667333D01*
X192628476Y-68714952D01*
X192676095Y-68762571D01*
X192723714Y-68857809D01*
X192723714Y-69095904D01*
X192676095Y-69191142D01*
X192628476Y-69238761D01*
X192533238Y-69286380D01*
X192247523Y-69286380D01*
X192152285Y-69238761D01*
X192104666Y-69191142D01*
X198841142Y-58017666D02*
X198888761Y-58065285D01*
X198936380Y-58208142D01*
X198936380Y-58303380D01*
X198888761Y-58446238D01*
X198793523Y-58541476D01*
X198698285Y-58589095D01*
X198507809Y-58636714D01*
X198364952Y-58636714D01*
X198174476Y-58589095D01*
X198079238Y-58541476D01*
X197984000Y-58446238D01*
X197936380Y-58303380D01*
X197936380Y-58208142D01*
X197984000Y-58065285D01*
X198031619Y-58017666D01*
X198031619Y-57636714D02*
X197984000Y-57589095D01*
X197936380Y-57493857D01*
X197936380Y-57255761D01*
X197984000Y-57160523D01*
X198031619Y-57112904D01*
X198126857Y-57065285D01*
X198222095Y-57065285D01*
X198364952Y-57112904D01*
X198936380Y-57684333D01*
X198936380Y-57065285D01*
X193636380Y-58970047D02*
X193636380Y-59541476D01*
X193636380Y-59255761D02*
X192636380Y-59255761D01*
X192779238Y-59351000D01*
X192874476Y-59446238D01*
X192922095Y-59541476D01*
X192636380Y-58351000D02*
X192636380Y-58255761D01*
X192684000Y-58160523D01*
X192731619Y-58112904D01*
X192826857Y-58065285D01*
X193017333Y-58017666D01*
X193255428Y-58017666D01*
X193445904Y-58065285D01*
X193541142Y-58112904D01*
X193588761Y-58160523D01*
X193636380Y-58255761D01*
X193636380Y-58351000D01*
X193588761Y-58446238D01*
X193541142Y-58493857D01*
X193445904Y-58541476D01*
X193255428Y-58589095D01*
X193017333Y-58589095D01*
X192826857Y-58541476D01*
X192731619Y-58493857D01*
X192684000Y-58446238D01*
X192636380Y-58351000D01*
X192636380Y-57398619D02*
X192636380Y-57303380D01*
X192684000Y-57208142D01*
X192731619Y-57160523D01*
X192826857Y-57112904D01*
X193017333Y-57065285D01*
X193255428Y-57065285D01*
X193445904Y-57112904D01*
X193541142Y-57160523D01*
X193588761Y-57208142D01*
X193636380Y-57303380D01*
X193636380Y-57398619D01*
X193588761Y-57493857D01*
X193541142Y-57541476D01*
X193445904Y-57589095D01*
X193255428Y-57636714D01*
X193017333Y-57636714D01*
X192826857Y-57589095D01*
X192731619Y-57541476D01*
X192684000Y-57493857D01*
X192636380Y-57398619D01*
X192969714Y-56636714D02*
X193636380Y-56636714D01*
X193064952Y-56636714D02*
X193017333Y-56589095D01*
X192969714Y-56493857D01*
X192969714Y-56351000D01*
X193017333Y-56255761D01*
X193112571Y-56208142D01*
X193636380Y-56208142D01*
X196191142Y-58017666D02*
X196238761Y-58065285D01*
X196286380Y-58208142D01*
X196286380Y-58303380D01*
X196238761Y-58446238D01*
X196143523Y-58541476D01*
X196048285Y-58589095D01*
X195857809Y-58636714D01*
X195714952Y-58636714D01*
X195524476Y-58589095D01*
X195429238Y-58541476D01*
X195334000Y-58446238D01*
X195286380Y-58303380D01*
X195286380Y-58208142D01*
X195334000Y-58065285D01*
X195381619Y-58017666D01*
X195381619Y-57636714D02*
X195334000Y-57589095D01*
X195286380Y-57493857D01*
X195286380Y-57255761D01*
X195334000Y-57160523D01*
X195381619Y-57112904D01*
X195476857Y-57065285D01*
X195572095Y-57065285D01*
X195714952Y-57112904D01*
X196286380Y-57684333D01*
X196286380Y-57065285D01*
X190877833Y-62085142D02*
X190830214Y-62132761D01*
X190687357Y-62180380D01*
X190592119Y-62180380D01*
X190449261Y-62132761D01*
X190354023Y-62037523D01*
X190306404Y-61942285D01*
X190258785Y-61751809D01*
X190258785Y-61608952D01*
X190306404Y-61418476D01*
X190354023Y-61323238D01*
X190449261Y-61228000D01*
X190592119Y-61180380D01*
X190687357Y-61180380D01*
X190830214Y-61228000D01*
X190877833Y-61275619D01*
X191830214Y-62180380D02*
X191258785Y-62180380D01*
X191544500Y-62180380D02*
X191544500Y-61180380D01*
X191449261Y-61323238D01*
X191354023Y-61418476D01*
X191258785Y-61466095D01*
X189782595Y-65740380D02*
X190401642Y-65740380D01*
X190068309Y-66121333D01*
X190211166Y-66121333D01*
X190306404Y-66168952D01*
X190354023Y-66216571D01*
X190401642Y-66311809D01*
X190401642Y-66549904D01*
X190354023Y-66645142D01*
X190306404Y-66692761D01*
X190211166Y-66740380D01*
X189925452Y-66740380D01*
X189830214Y-66692761D01*
X189782595Y-66645142D01*
X190734976Y-65740380D02*
X191354023Y-65740380D01*
X191020690Y-66121333D01*
X191163547Y-66121333D01*
X191258785Y-66168952D01*
X191306404Y-66216571D01*
X191354023Y-66311809D01*
X191354023Y-66549904D01*
X191306404Y-66645142D01*
X191258785Y-66692761D01*
X191163547Y-66740380D01*
X190877833Y-66740380D01*
X190782595Y-66692761D01*
X190734976Y-66645142D01*
X191782595Y-66073714D02*
X191782595Y-66740380D01*
X191782595Y-66168952D02*
X191830214Y-66121333D01*
X191925452Y-66073714D01*
X192068309Y-66073714D01*
X192163547Y-66121333D01*
X192211166Y-66216571D01*
X192211166Y-66740380D01*
D14*
X190911166Y-64293714D02*
X190873071Y-64331809D01*
X190758785Y-64369904D01*
X190682595Y-64369904D01*
X190568309Y-64331809D01*
X190492119Y-64255619D01*
X190454023Y-64179428D01*
X190415928Y-64027047D01*
X190415928Y-63912761D01*
X190454023Y-63760380D01*
X190492119Y-63684190D01*
X190568309Y-63608000D01*
X190682595Y-63569904D01*
X190758785Y-63569904D01*
X190873071Y-63608000D01*
X190911166Y-63646095D01*
X191673071Y-64369904D02*
X191215928Y-64369904D01*
X191444500Y-64369904D02*
X191444500Y-63569904D01*
X191368309Y-63684190D01*
X191292119Y-63760380D01*
X191215928Y-63798476D01*
M02*
