M48
; DRILL file {KiCad (5.1.5)-3} date 5/9/2020 3:27:40 PM
; FORMAT={-:-/ absolute / metric / decimal}
; #@! TF.CreationDate,2020-05-09T15:27:40-04:00
; #@! TF.GenerationSoftware,Kicad,Pcbnew,(5.1.5)-3
; #@! TF.FileFunction,Plated,1,2,PTH
FMAT,2
METRIC
T1C0.400
T2C0.500
T3C1.000
T4C3.500
%
G90
G05
T1
X184.404Y-64.262
X186.182Y-59.944
X195.072Y-64.262
T2
X200.321Y-47.498
X201.09Y-45.642
X201.09Y-49.354
X202.946Y-44.873
X202.946Y-50.123
X204.802Y-45.642
X204.802Y-49.354
X205.571Y-47.498
X179.239Y-47.498
X180.008Y-45.642
X180.008Y-49.354
X181.864Y-44.873
X181.864Y-50.123
X183.72Y-45.642
X183.72Y-49.354
X184.489Y-47.498
X200.321Y-68.58
X201.09Y-66.724
X201.09Y-70.436
X202.946Y-65.955
X202.946Y-71.205
X204.802Y-66.724
X204.802Y-70.436
X205.571Y-68.58
X179.239Y-68.58
X180.008Y-66.724
X180.008Y-70.436
X181.864Y-65.955
X181.864Y-71.205
X183.72Y-66.724
X183.72Y-70.436
X184.489Y-68.58
T3
X178.816Y-53.34
X178.816Y-57.912
X178.816Y-62.992
X193.548Y-44.45
X197.358Y-44.45
X205.74Y-59.69
T4
X202.946Y-68.58
X181.864Y-68.58
X202.946Y-47.498
X181.864Y-47.498
T0
M30
